<svg width="20" height="20" viewBox="0 0 20 20" fill="none" xmlns="http://www.w3.org/2000/svg">
<path d="M8.56412 11.408L9.03278 10.9576C8.8222 10.7385 8.48791 10.6946 8.22785 10.8518C7.96778 11.009 7.85136 11.3254 7.94752 11.6137L8.56412 11.408ZM10.4224 13.0747L10.0255 13.5894L10.0268 13.5904L10.4224 13.0747ZM12.4726 13.1664L12.129 12.6146L12.1246 12.6174L12.4726 13.1664ZM12.9141 12.8914L13.2577 13.4431C13.2656 13.4383 13.2733 13.4332 13.281 13.428L12.9141 12.8914ZM15.0642 12.9497L15.4722 12.4437C15.468 12.4404 15.4638 12.437 15.4596 12.4338L15.0642 12.9497ZM17.1308 14.6164L16.7227 15.1224L16.7295 15.1276L17.1308 14.6164ZM17.2142 15.9581L17.6744 16.4171L17.6758 16.4158L17.2142 15.9581ZM11.0143 16.9997L10.7272 17.5829L10.7293 17.5839L11.0143 16.9997ZM6.3809 13.6664L6.84255 13.2088L6.83786 13.2041L6.3809 13.6664ZM3.04756 9.04135L2.46306 9.32572L2.46451 9.32866L3.04756 9.04135ZM4.08089 2.83306L3.62054 2.37417L3.62001 2.3747L4.08089 2.83306ZM5.42244 2.90803L4.91381 3.31275L4.91567 3.31508L5.42244 2.90803ZM7.08911 4.98302L7.59928 4.58022L7.59588 4.57598L7.08911 4.98302ZM7.20589 7.05807L7.75352 7.40832L7.75798 7.40113L7.20589 7.05807ZM6.88077 7.56639L6.33318 7.21616L6.33095 7.2197L6.88077 7.56639ZM6.96419 9.61635L6.44432 10.0065L6.44571 10.0084L6.96419 9.61635ZM8.58915 11.4831L8.12944 11.9426C8.34259 12.1558 8.6744 12.1945 8.93087 12.036C9.18735 11.8775 9.30115 11.5634 9.20575 11.2774L8.58915 11.4831ZM8.09547 11.8584C8.69511 12.4824 9.34022 13.061 10.0255 13.5894L10.8194 12.56C10.185 12.0708 9.58786 11.5352 9.03278 10.9576L8.09547 11.8584ZM10.0268 13.5904C10.4236 13.8949 10.9046 14.0701 11.4041 14.0925L11.4622 12.7938C11.2285 12.7833 11.0036 12.7013 10.8181 12.559L10.0268 13.5904ZM11.4041 14.0925C11.9038 14.1148 12.3983 13.9831 12.8207 13.7153L12.1246 12.6174C11.927 12.7426 11.6958 12.8042 11.4622 12.7938L11.4041 14.0925ZM12.8162 13.7181L13.2577 13.4431L12.5705 12.3397L12.129 12.6146L12.8162 13.7181ZM13.281 13.428C13.4867 13.2873 13.7318 13.2151 13.9811 13.2219L14.0163 11.9224C13.4934 11.9082 12.9791 12.0595 12.5472 12.3548L13.281 13.428ZM13.9811 13.2219C14.2303 13.2287 14.4709 13.3139 14.6688 13.4656L15.4596 12.4338C15.0444 12.1155 14.5393 11.9366 14.0163 11.9224L13.9811 13.2219ZM14.6561 13.4557L16.7228 15.1223L17.5389 14.1104L15.4722 12.4437L14.6561 13.4557ZM16.7295 15.1276C16.7572 15.1494 16.7801 15.1769 16.7965 15.2081L17.9474 14.6036C17.8457 14.41 17.7041 14.2401 17.5322 14.1051L16.7295 15.1276ZM16.7965 15.2081C16.8129 15.2394 16.8225 15.2737 16.8247 15.3088L18.1222 15.2282C18.1086 15.0099 18.049 14.797 17.9474 14.6036L16.7965 15.2081ZM16.8247 15.3088C16.8268 15.3436 16.8216 15.3789 16.8091 15.4123L18.0259 15.8698C18.1027 15.6655 18.1358 15.4468 18.1222 15.2282L16.8247 15.3088ZM16.8091 15.4123C16.7965 15.4457 16.7772 15.4756 16.7527 15.5004L17.6758 16.4158C17.83 16.2602 17.9491 16.074 18.0259 15.8698L16.8091 15.4123ZM16.754 15.499C16.0537 16.2012 15.1514 16.667 14.1734 16.8313L14.3888 18.1133C15.634 17.9041 16.7828 17.3111 17.6744 16.4171L16.754 15.499ZM14.1734 16.8313C13.1954 16.9956 12.1906 16.8502 11.2992 16.4155L10.7293 17.5839C11.8642 18.1374 13.1436 18.3225 14.3888 18.1133L14.1734 16.8313ZM11.3014 16.4166C9.64738 15.6022 8.14045 14.5181 6.84252 13.2088L5.91927 14.124C7.3188 15.5358 8.94368 16.7048 10.7272 17.5829L11.3014 16.4166ZM6.83786 13.2041C5.52846 11.9097 4.44446 10.4056 3.63062 8.75405L2.46451 9.32866C3.34233 11.1101 4.51156 12.7325 5.92393 14.1287L6.83786 13.2041ZM3.63206 8.75699C3.19772 7.86419 3.0519 6.85841 3.21491 5.87908L1.93255 5.66564C1.72524 6.91118 1.91069 8.19032 2.46306 9.32571L3.63206 8.75699ZM3.21491 5.87908C3.37791 4.89974 3.84165 3.99539 4.54177 3.29141L3.62001 2.3747C2.72965 3.26997 2.13986 4.4201 1.93255 5.66564L3.21491 5.87908ZM4.54124 3.29194C4.56636 3.26675 4.59619 3.24741 4.62881 3.23493L4.16407 2.02083C3.95967 2.09908 3.77459 2.21963 3.62054 2.37417L4.54124 3.29194ZM4.62881 3.23493C4.66154 3.2224 4.69688 3.21685 4.73227 3.21883L4.80483 1.92086C4.58683 1.90867 4.36836 1.94263 4.16407 2.02083L4.62881 3.23493ZM4.73227 3.21883C4.76757 3.22081 4.80191 3.2302 4.83313 3.24634L5.43029 2.09161C5.23608 1.99118 5.02293 1.93305 4.80483 1.92086L4.73227 3.21883ZM4.83313 3.24634C4.86422 3.26242 4.89171 3.28497 4.91381 3.31275L5.93107 2.50331C5.79516 2.3325 5.62463 2.19211 5.43029 2.09161L4.83313 3.24634ZM4.91567 3.31508L6.58234 5.39007L7.59588 4.57598L5.92921 2.50099L4.91567 3.31508ZM6.57895 5.38581C6.72668 5.57292 6.81312 5.80092 6.82649 6.0386L8.12444 5.96562C8.09604 5.46066 7.91246 4.97691 7.59927 4.58023L6.57895 5.38581ZM6.82649 6.0386C6.83986 6.2764 6.77955 6.51262 6.6538 6.715L7.75798 7.40113C8.0248 6.97173 8.15282 6.47045 8.12444 5.96562L6.82649 6.0386ZM6.65831 6.70784L6.3332 7.21616L7.42835 7.91661L7.75347 7.40829L6.65831 6.70784ZM6.33095 7.2197C6.06522 7.64112 5.93399 8.1332 5.95421 8.63074L7.25314 8.57794C7.2436 8.34332 7.30549 8.11149 7.4306 7.91308L6.33095 7.2197ZM5.95421 8.63074C5.97444 9.12839 6.14533 9.60815 6.44432 10.0065L7.48406 9.22618C7.34319 9.03849 7.26267 8.81245 7.25314 8.57794L5.95421 8.63074ZM6.44571 10.0084C6.96185 10.691 7.52439 11.3373 8.12944 11.9426L9.04886 11.0235C8.48609 10.4605 7.96281 9.85935 7.48267 9.22433L6.44571 10.0084ZM9.20575 11.2774L9.18073 11.2024L7.94752 11.6137L7.97255 11.6887L9.20575 11.2774ZM15.3639 8.33387C15.3639 7.34592 14.9714 6.39848 14.2729 5.69993L13.3537 6.61917C13.8084 7.07396 14.0639 7.69074 14.0639 8.33387H15.3639ZM14.2729 5.69993C13.5743 5.00138 12.627 4.60887 11.639 4.60887V5.90887C12.2821 5.90887 12.8989 6.16437 13.3537 6.61917L14.2729 5.69993ZM18.9557 8.33341C18.9557 6.39289 18.1847 4.53187 16.8126 3.15974L15.8933 4.07898C17.0217 5.20734 17.6557 6.73772 17.6557 8.33341H18.9557ZM16.8126 3.15974C15.4404 1.78761 13.5795 1.01675 11.639 1.01675V2.31675C13.2347 2.31675 14.765 2.95063 15.8933 4.07898L16.8126 3.15974Z" fill="#004D43"/>
</svg>
