<svg width="20" height="20" viewBox="0 0 20 20" fill="none" xmlns="http://www.w3.org/2000/svg">
<g id="01 align center">
<path id="Vector" d="M10.0265 15.8333C10.3549 15.8339 10.6802 15.7695 10.9837 15.644C11.2872 15.5184 11.5628 15.3341 11.7948 15.1017L15.0607 11.8333L13.8823 10.6583L10.8548 13.6867L10.8332 0H9.1665L9.18816 13.6733L6.1715 10.6567L4.99316 11.8333L8.259 15.0992C8.49073 15.3319 8.76618 15.5166 9.0695 15.6426C9.37282 15.7686 9.69805 15.8334 10.0265 15.8333V15.8333Z" fill="#181818"/>
<path id="Vector_2" d="M18.3333 13.334V17.5007C18.3333 17.7217 18.2455 17.9336 18.0893 18.0899C17.933 18.2462 17.721 18.334 17.5 18.334H2.5C2.27899 18.334 2.06702 18.2462 1.91074 18.0899C1.75446 17.9336 1.66667 17.7217 1.66667 17.5007V13.334H0V17.5007C0 18.1637 0.263392 18.7996 0.732233 19.2684C1.20107 19.7373 1.83696 20.0007 2.5 20.0007H17.5C18.163 20.0007 18.7989 19.7373 19.2678 19.2684C19.7366 18.7996 20 18.1637 20 17.5007V13.334H18.3333Z" fill="#181818"/>
</g>
</svg>
