<svg width="86" height="57" viewBox="0 0 86 57" fill="none" xmlns="http://www.w3.org/2000/svg">
<g id="Sign">
<path id="Vector" d="M71.7523 9.68799L85.3761 27.8531H58.1284L71.7523 9.68799Z" fill="#004D43"/>
<path id="Vector_2" fill-rule="evenodd" clip-rule="evenodd" d="M79.4884 29.6697H64.0321L58.1284 37.5412H85.3761L79.4884 29.6697Z" fill="#004D43"/>
<path id="Vector_3" fill-rule="evenodd" clip-rule="evenodd" d="M79.4884 39.3977H64.0321L58.1284 47.2693H85.3761L79.4884 39.3977Z" fill="#004D43"/>
<path id="Vector_4" fill-rule="evenodd" clip-rule="evenodd" d="M79.4884 49.0459H64.0321L58.1284 56.9254H85.3761L79.4884 49.0459Z" fill="#004D43"/>
<path id="Vector_5" d="M13.6238 9.68799L27.2477 27.8531H0L13.6238 9.68799Z" fill="#004D43"/>
<path id="Vector_6" fill-rule="evenodd" clip-rule="evenodd" d="M21.3281 29.6697H5.90367L0 37.5412H27.2477L21.3281 29.6697Z" fill="#004D43"/>
<path id="Vector_7" fill-rule="evenodd" clip-rule="evenodd" d="M21.3281 39.3977H5.90367L0 47.2693H27.2477L21.3281 39.3977Z" fill="#004D43"/>
<path id="Vector_8" fill-rule="evenodd" clip-rule="evenodd" d="M21.3281 49.0459H5.90367L0 56.9254H27.2477L21.3281 49.0459Z" fill="#004D43"/>
<path id="Vector_9" d="M42.6881 0L56.3039 18.1651H29.0642L42.6881 0Z" fill="#004D43"/>
<path id="Vector_10" fill-rule="evenodd" clip-rule="evenodd" d="M50.4003 19.9817H34.9679L29.0642 27.8532H56.3039L50.4003 19.9817Z" fill="#004D43"/>
<path id="Vector_11" fill-rule="evenodd" clip-rule="evenodd" d="M50.4003 29.6697H34.9679L29.0642 37.5412H56.3039L50.4003 29.6697Z" fill="#004D43"/>
<path id="Vector_12" fill-rule="evenodd" clip-rule="evenodd" d="M50.4003 39.3977H34.9679L29.0642 47.2693H56.3039L50.4003 39.3977Z" fill="#004D43"/>
<path id="Vector_13" fill-rule="evenodd" clip-rule="evenodd" d="M50.4003 49.0459H34.9679L29.0642 56.9254H56.3039L50.4003 49.0459Z" fill="#004D43"/>
</g>
</svg>
