<svg width="80" height="80" viewBox="0 0 80 80" fill="none" xmlns="http://www.w3.org/2000/svg">
<g clip-path="url(#clip0_1_2840)">
<path d="M11.7536 62.5391V57.6272C11.7536 56.8772 11.7381 56.125 11.7536 55.3772C11.7803 54.4869 12.27 53.955 13.0356 53.935C13.8012 53.915 14.3865 54.4558 14.3999 55.3883C14.4266 57.4158 14.3999 59.4433 14.3999 61.4708V62.5391H44.817C46.6754 62.5391 47.0048 62.9397 46.8579 64.7514C46.6353 67.6669 46.8579 70.5179 48.1599 73.2086C50.7838 78.6368 57.8968 78.3987 60.6477 74.4149C61.4797 73.2575 61.9393 71.8741 61.9652 70.4489C61.9852 68.7819 61.9652 67.1105 61.9652 65.4502C61.9652 46.9229 61.9593 28.3956 61.9474 9.86827C61.9474 7.19756 62.5817 4.82508 64.4957 2.74638C64.2064 2.71522 64.0083 2.67294 63.8125 2.67294C48.7378 2.67145 33.6609 2.67071 18.5818 2.67071C16.1336 2.67071 14.4644 4.3221 14.4266 6.79696C14.3976 8.90904 14.4266 11.0256 14.4266 13.131C14.4348 13.4082 14.4229 13.6856 14.391 13.9611C14.3644 14.2858 14.2148 14.588 13.9728 14.806C13.7308 15.024 13.4146 15.1414 13.089 15.134C12.4057 15.1741 11.8449 14.6377 11.7803 13.8944C11.7358 13.3981 11.7559 12.8951 11.7536 12.3965C11.7536 10.5627 11.7358 8.72877 11.7536 6.89711C11.8071 2.8087 14.6224 0 18.7042 0C36.0326 0 53.3618 0 70.6917 0C76.0621 0 79.9391 3.8703 79.968 9.23175C79.9791 11.5375 79.968 13.8432 79.968 16.1489C79.968 17.5733 79.5518 17.9961 78.1475 17.9961H64.6404V19.0956C64.6404 36.1243 64.6404 53.1516 64.6404 70.1774C64.6404 74.8511 61.6269 78.668 57.1201 79.7251C56.3381 79.9029 55.5385 79.9918 54.7365 79.99C40.5461 80.0033 26.355 80.0033 12.1631 79.99C5.26381 79.99 0.0180951 74.6931 0.000290384 67.7715C0.000290384 66.632 0.000290384 65.4932 0.000290384 64.3552C-0.0130632 62.9842 0.432055 62.5391 1.76741 62.5391C4.76528 62.5391 7.76538 62.5391 10.7655 62.5391H11.7536ZM2.65765 65.2521C2.65765 66.0622 2.65765 66.81 2.65765 67.5511C2.65765 73.3221 6.66371 77.3282 12.4502 77.3438C23.9388 77.3438 35.428 77.3438 46.918 77.3438C47.1806 77.3438 47.441 77.3193 47.8082 77.3015C44.6724 73.8117 44.0247 69.6655 44.1315 65.2632L2.65765 65.2521ZM77.3018 15.2987C77.3018 13.1243 77.3196 11.0434 77.3018 8.96468C77.2662 5.51279 74.4619 2.68851 71.0701 2.67071C70.2362 2.65776 69.408 2.8098 68.633 3.11809C67.8581 3.42637 67.1517 3.88481 66.5546 4.46705C65.9575 5.04929 65.4813 5.74384 65.1536 6.51074C64.8258 7.27765 64.6529 8.10178 64.6448 8.93575C64.6159 10.8765 64.6448 12.8172 64.6448 14.7579C64.6575 14.9393 64.6806 15.1199 64.7138 15.2987H77.3018Z" fill="#004D43"/>
<path d="M33.8337 34.7192C33.8231 38.0497 32.8252 41.3022 30.966 44.0655C29.1069 46.8288 26.47 48.9787 23.389 50.2434C20.3079 51.508 16.9211 51.8306 13.6567 51.1703C10.3923 50.51 7.39702 48.8966 5.04965 46.5339C2.70227 44.1713 1.10823 41.1657 0.469119 37.8971C-0.169996 34.6285 0.174518 31.2438 1.45909 28.171C2.74367 25.0982 4.91061 22.4753 7.68587 20.6341C10.4611 18.7929 13.7201 17.816 17.0505 17.827C19.2619 17.8334 21.4504 18.2755 23.4908 19.128C25.5312 19.9806 27.3837 21.2268 28.9423 22.7955C30.5009 24.3643 31.7351 26.2248 32.5744 28.2707C33.4137 30.3166 33.8416 32.5079 33.8337 34.7192ZM31.163 34.7014C31.1692 31.8985 30.3442 29.1567 28.7923 26.8225C27.2405 24.4884 25.0315 22.6667 22.4445 21.5878C19.8576 20.5088 17.0088 20.2211 14.2583 20.7609C11.5079 21.3007 8.9792 22.6439 6.99195 24.6205C5.00469 26.5972 3.64808 29.1187 3.0936 31.8662C2.53911 34.6138 2.81165 37.464 3.87676 40.0567C4.94187 42.6494 6.75173 44.8681 9.07757 46.4324C11.4034 47.9966 14.1408 48.8362 16.9437 48.8451C18.8076 48.8541 20.6549 48.495 22.3796 47.7883C24.1044 47.0816 25.6725 46.0412 26.9941 44.7268C28.3157 43.4125 29.3647 41.8501 30.0809 40.1292C30.7971 38.4084 31.1663 36.5631 31.1675 34.6992L31.163 34.7014Z" fill="#004D43"/>
<path d="M29.9568 57.5226C29.6799 57.5353 29.4024 57.5279 29.1266 57.5004C28.8295 57.4639 28.5539 57.3265 28.346 57.1112C28.1381 56.8958 28.0104 56.6157 27.9844 56.3175C27.9583 56.0193 28.0354 55.7212 28.2028 55.473C28.3702 55.2249 28.6178 55.0418 28.904 54.9543C29.2258 54.876 29.5571 54.8446 29.8878 54.8608C38.6076 54.8608 47.3267 54.8608 56.0451 54.8608C56.3757 54.846 56.7066 54.8813 57.0266 54.9654C57.3161 55.0364 57.569 55.2123 57.7363 55.4589C57.9036 55.7056 57.9735 56.0056 57.9324 56.3008C57.9247 56.6113 57.8009 56.9076 57.5854 57.1313C57.3699 57.355 57.0784 57.4899 56.7685 57.5093C56.4917 57.5331 56.2136 57.539 55.9361 57.5271L29.9568 57.5226Z" fill="#004D43"/>
<path d="M44.9773 48.2397H55.8827C56.2153 48.2288 56.5483 48.2482 56.8775 48.2976C57.179 48.3525 57.4514 48.5121 57.6466 48.7484C57.8418 48.9846 57.9473 49.2823 57.9444 49.5887C57.9414 49.8951 57.8303 50.1907 57.6306 50.4232C57.4309 50.6557 57.1555 50.8101 56.853 50.8592C56.5507 50.8997 56.2454 50.9146 55.9405 50.9037C48.6109 50.9037 41.2828 50.9037 33.9561 50.9037C33.8716 50.9037 33.7892 50.9037 33.7046 50.9037C32.574 50.8881 31.9665 50.4185 31.9754 49.5684C31.9843 48.7182 32.5874 48.2464 33.7314 48.2464C37.4807 48.239 41.2294 48.2367 44.9773 48.2397Z" fill="#004D43"/>
<path d="M48.3023 37.6748C45.6316 37.6748 42.9661 37.6748 40.3058 37.6748C39.2419 37.6748 38.6499 37.1896 38.6455 36.3395C38.641 35.4893 39.2375 35.0041 40.2946 35.0041C45.6242 35.0041 50.9552 35.0041 56.2877 35.0041C57.3315 35.0041 57.9547 35.5093 57.9591 36.3395C57.9636 37.1696 57.3404 37.6748 56.2989 37.6748C53.6237 37.677 50.9686 37.6726 48.3023 37.6748Z" fill="#004D43"/>
<path d="M48.2823 15.1563C50.953 15.1563 53.6126 15.1563 56.2788 15.1563C57.3427 15.1563 57.948 15.6415 57.9547 16.4694C57.9614 17.2973 57.3315 17.8047 56.2989 17.8181C50.9693 17.8181 45.6383 17.8181 40.3058 17.8181C39.2464 17.8181 38.6477 17.3285 38.641 16.4827C38.6343 15.637 39.2241 15.1474 40.2857 15.1474C42.9564 15.1518 45.6227 15.1563 48.2823 15.1563Z" fill="#004D43"/>
<path d="M48.2823 11.188C45.5893 11.188 42.8963 11.188 40.2034 11.188C39.2508 11.188 38.6855 10.7095 38.6455 9.93281C38.6032 9.11157 39.1907 8.53737 40.1455 8.53069C42.2843 8.51511 44.4231 8.53069 46.5597 8.53069C49.8357 8.53069 53.1118 8.53069 56.3879 8.53069C57.5941 8.53069 58.2796 9.47879 57.81 10.438C57.514 11.0456 56.9866 11.1969 56.3589 11.1947C53.6682 11.1836 50.9752 11.188 48.2823 11.188Z" fill="#004D43"/>
<path d="M48.2979 31.0425C45.6049 31.0425 42.9119 31.0425 40.2212 31.0425C39.509 31.0425 38.957 30.82 38.7056 30.1256C38.4095 29.2977 39.0082 28.4542 39.9697 28.3896C40.7442 28.3385 41.5276 28.3718 42.2999 28.3718H55.876C56.1275 28.3718 56.379 28.3585 56.626 28.3718C57.4183 28.4497 57.9614 28.9995 57.9614 29.7072C57.9614 30.4572 57.4027 31.0136 56.5437 31.0181C53.7973 31.0381 51.0487 31.0181 48.309 31.0181L48.2979 31.0425Z" fill="#004D43"/>
<path d="M48.2823 41.6386H56.0273C56.2768 41.6308 56.5265 41.6375 56.7751 41.6586C57.0793 41.6913 57.3624 41.8297 57.575 42.0498C57.7876 42.2698 57.9162 42.5574 57.9384 42.8626C57.9607 43.1677 57.8752 43.4709 57.6967 43.7195C57.5183 43.968 57.2583 44.146 56.9621 44.2225C56.6376 44.2923 56.3053 44.3185 55.9739 44.3004C50.8669 44.3004 45.7592 44.3004 40.6507 44.3004C40.4282 44.3004 40.2056 44.3115 39.983 44.3004C39.144 44.2269 38.6099 43.6594 38.6477 42.8983C38.6833 42.1705 39.213 41.6697 40.0387 41.6519C41.2316 41.6275 42.4267 41.6519 43.6197 41.6519L48.2823 41.6386Z" fill="#004D43"/>
<path d="M48.3668 21.7796C51.0019 21.7796 53.6393 21.7485 56.2766 21.8063C56.8115 21.8248 57.3209 22.0395 57.7077 22.4095C58.2863 23.046 57.8835 24.0809 57.04 24.3391C56.7179 24.4202 56.3859 24.4547 56.054 24.4414C50.8907 24.4414 45.728 24.4414 40.5661 24.4414C40.3719 24.4515 40.1773 24.4515 39.983 24.4414C39.1373 24.3569 38.6076 23.7982 38.6477 23.0415C38.6877 22.2848 39.2085 21.8108 40.0476 21.7908C41.63 21.7663 43.2124 21.7908 44.7948 21.7908L48.3668 21.7796Z" fill="#004D43"/>
<path d="M20.311 25.6611C19.9171 27.4994 19.5054 29.4223 19.0914 31.343C18.2249 35.3743 17.3525 39.4063 16.4741 43.4391C16.1714 44.839 15.6662 45.3598 14.7359 45.1884C13.8056 45.017 13.543 44.2982 13.8457 42.9049C15.1039 37.1184 16.3651 31.3319 17.6292 25.5453C17.656 25.3814 17.6932 25.2194 17.7405 25.0602C17.8369 24.7377 18.0543 24.465 18.3471 24.2991C18.6399 24.1332 18.9856 24.0869 19.3117 24.1699C19.9483 24.2901 20.3555 24.8643 20.311 25.6611Z" fill="#004D43"/>
<path d="M10.3537 26.6693C11.1484 26.672 11.9243 26.9111 12.5827 27.356C13.2412 27.8009 13.7524 28.4316 14.0514 29.1679C14.3505 29.9041 14.4237 30.7127 14.262 31.4907C14.1002 32.2688 13.7107 32.9811 13.143 33.5372C12.5753 34.0933 11.8551 34.4679 11.0739 34.6135C10.2927 34.7592 9.48579 34.6691 8.75587 34.3549C8.02596 34.0407 7.40598 33.5166 6.97478 32.8491C6.54358 32.1816 6.32064 31.4009 6.33432 30.6063C6.35245 29.5535 6.78434 28.5502 7.53655 27.8134C8.28876 27.0766 9.3008 26.6656 10.3537 26.6693ZM11.6535 30.6753C11.6555 30.5009 11.623 30.3278 11.5577 30.166C11.4925 30.0042 11.3958 29.857 11.2733 29.7328C11.1507 29.6086 11.0048 29.51 10.8439 29.4425C10.683 29.3751 10.5104 29.3403 10.3359 29.34C10.1488 29.3183 9.95927 29.3364 9.77967 29.3931C9.60007 29.4499 9.43451 29.544 9.29385 29.6692C9.1532 29.7945 9.04064 29.9481 8.96357 30.12C8.88649 30.2918 8.84665 30.4781 8.84665 30.6664C8.84665 30.8548 8.88649 31.041 8.96357 31.2129C9.04064 31.3847 9.1532 31.5383 9.29385 31.6636C9.43451 31.7889 9.60007 31.883 9.77967 31.9397C9.95927 31.9965 10.1488 32.0146 10.3359 31.9929C10.6851 31.9882 11.0185 31.847 11.2648 31.5995C11.5111 31.352 11.6506 31.0178 11.6535 30.6686V30.6753Z" fill="#004D43"/>
<path d="M27.6533 38.703C27.648 39.4948 27.4082 40.2672 26.9642 40.9227C26.5203 41.5783 25.892 42.0876 25.1587 42.3863C24.4255 42.685 23.6202 42.7598 22.8445 42.6011C22.0688 42.4424 21.3575 42.0575 20.8005 41.4949C20.2434 40.9322 19.8656 40.2171 19.7147 39.4399C19.5638 38.6626 19.6465 37.8581 19.9526 37.1279C20.2586 36.3977 20.7741 35.7745 21.4341 35.3371C22.094 34.8997 22.8688 34.6676 23.6606 34.6703C24.1878 34.672 24.7095 34.7778 25.1957 34.9816C25.6819 35.1854 26.1232 35.4831 26.4941 35.8578C26.865 36.2324 27.1584 36.6766 27.3573 37.1649C27.5562 37.6531 27.6568 38.1758 27.6533 38.703ZM23.6939 39.9939C24.0189 39.9499 24.3163 39.7878 24.5295 39.5386C24.7427 39.2894 24.8567 38.9705 24.8498 38.6426C24.8429 38.3147 24.7156 38.0009 24.4922 37.7608C24.2688 37.5208 23.9648 37.3713 23.6383 37.341C23.451 37.3236 23.2621 37.3459 23.084 37.4066C22.9059 37.4673 22.7427 37.565 22.605 37.6931C22.4672 37.8213 22.3582 37.9771 22.2849 38.1504C22.2116 38.3237 22.1757 38.5105 22.1797 38.6986C22.1836 38.8867 22.2273 39.0718 22.3078 39.2419C22.3883 39.4119 22.5038 39.5631 22.6467 39.6854C22.7897 39.8076 22.9569 39.8983 23.1374 39.9515C23.3178 40.0047 23.5075 40.0191 23.6939 39.9939Z" fill="#004D43"/>
</g>
<defs>
<clipPath id="clip0_1_2840">
<rect width="80" height="80" fill="white"/>
</clipPath>
</defs>
</svg>
