<svg width="80" height="80" viewBox="0 0 80 80" fill="none" xmlns="http://www.w3.org/2000/svg">
<g clip-path="url(#clip0_1_2739)">
<path d="M0 61.0937C0.4625 60.8042 0.889583 60.3896 1.39167 60.25C2.37083 59.9917 3.36811 59.8079 4.375 59.7C5.01458 59.6229 5.22708 59.3562 5.26458 58.7208C5.4625 55.2917 5.70208 51.8625 5.93333 48.4354C6.32639 42.566 6.72292 36.6972 7.12292 30.8292C7.19583 29.7396 7.26458 28.6479 7.33125 27.5583C7.39375 26.6312 7.78542 26.2542 8.70833 26.2333C9.04583 26.2333 9.38542 26.2333 9.72292 26.2333C10.4917 26.2542 11.0083 26.65 11.0417 27.275C11.0792 27.975 10.6979 28.3917 10.0271 28.55C9.90417 28.5792 9.77917 28.5979 9.61042 28.6333C9.46875 30.7708 9.32917 32.8896 9.19375 35.0542H16.7667C16.625 32.8875 16.4875 30.7708 16.35 28.6104C16.0146 28.5896 15.725 28.5937 15.4542 28.55C14.8 28.4479 14.3292 27.9042 14.4125 27.3C14.4979 26.6542 14.8729 26.2583 15.5479 26.2312C16.1729 26.2083 16.7979 26.2042 17.4229 26.2312C18.1542 26.2604 18.5562 26.6479 18.6104 27.4104C18.8757 31.1743 19.1333 34.9396 19.3833 38.7062C19.6611 42.9118 19.9389 47.1187 20.2167 51.3271C20.2375 51.6333 20.2875 51.9375 20.3312 52.2958L26.7229 51.075C26.8771 48.8521 27.0354 46.65 27.1833 44.4479C27.6389 37.6951 28.0931 30.9437 28.5458 24.1937C28.5833 23.6479 28.5854 23.1 28.6417 22.5562C28.7312 21.7229 29.1208 21.3062 29.95 21.3062C32.8403 21.2868 35.7299 21.2868 38.6187 21.3062C39.4521 21.3062 39.8333 21.6896 39.9021 22.5562C40.1104 25.1771 40.2792 27.8 40.4542 30.4229C40.7458 34.7854 41.0333 39.1486 41.3167 43.5125C41.334 43.6409 41.343 43.7704 41.3437 43.9C41.3465 44.2032 41.2347 44.4962 41.0308 44.7206C40.8269 44.945 40.5458 45.0842 40.2437 45.1104C40.0937 45.1194 39.9434 45.0986 39.8014 45.0493C39.6594 45 39.5286 44.923 39.4165 44.8229C39.3043 44.7228 39.2131 44.6015 39.1481 44.466C39.0831 44.3305 39.0455 44.1834 39.0375 44.0333C38.9125 42.7375 38.8438 41.4375 38.75 40.1396C38.7208 39.7229 38.6875 39.3167 38.6521 38.8479H29.9021C29.6417 42.7458 29.3812 46.625 29.1146 50.6062L45.4021 47.4812V46.5104C45.4021 42.5785 45.4021 38.6472 45.4021 34.7167C45.4021 33.2979 45.7271 32.9792 47.1542 32.9792C53.2208 32.9792 59.2875 32.9667 65.3521 32.9937C66.05 32.9937 66.3937 32.8542 66.6021 32.1125C67.2083 29.9625 67.925 27.8438 68.6021 25.7125C68.9167 24.7229 69.1937 24.5208 70.2354 24.5187C72.9437 24.5187 75.6521 24.5375 78.3604 24.5042C79.075 24.5042 79.6271 24.6792 80.0083 25.2937V69.5312C79.5917 70.025 79.175 70.4812 78.4375 70.1979C77.7 69.9146 77.6333 69.3167 77.6625 68.6583C77.6625 68.4771 77.6625 68.2937 77.6625 68.1104V35.3875H47.7958V77.5854H57.0542V76.6667C57.0542 73.9833 57.0542 71.3014 57.0542 68.6208C57.0542 67.3937 57.4229 67.0104 58.6167 67.0083C61.35 67.0083 64.084 67.0083 66.8187 67.0083C67.9354 67.0083 68.3083 67.3875 68.3104 68.5104C68.3104 71.2458 68.3104 73.9792 68.3104 76.7125V77.5938H77.6521C77.6521 76.6833 77.6646 75.8042 77.6521 74.9271C77.6396 74.2667 77.7062 73.6646 78.4292 73.3875C79.1521 73.1104 79.5938 73.5583 80 74.0562V80H0V61.0937ZM2.34375 77.6104H45.3375V49.9021L42.525 50.45C33.2528 52.225 23.9806 53.9965 14.7083 55.7646C14.275 55.8479 14.15 56.025 14.1583 56.4292C14.1771 57.2896 14.175 58.1479 14.1583 59.0083C14.1437 59.9792 13.8687 60.3167 12.9187 60.4937C9.62083 61.1083 6.32292 61.7437 3.01667 62.3021C2.42708 62.4042 2.31875 62.6271 2.33125 63.1562C2.3625 64.6146 2.34167 66.0729 2.34167 67.5312L2.34375 77.6104ZM8.54167 44.7167C8.22083 49.525 7.90417 54.2729 7.58333 59.0917L10.4167 58.5875C10.7229 58.5312 11.0646 58.5396 11.325 58.4C11.444 58.3358 11.5478 58.2467 11.6294 58.1389C11.711 58.0311 11.7685 57.907 11.7979 57.775C11.8521 56.9187 11.8125 56.0583 11.8229 55.2C11.8354 54.2083 12.0833 53.9062 13.0417 53.7167C14.6667 53.3937 16.2917 53.0771 17.9687 52.7458C17.8271 50.6958 17.6937 48.7042 17.5521 46.7042C17.5042 46.0625 17.6437 45.1437 17.2896 44.8583C16.8729 44.5208 16.0083 44.7104 15.3396 44.7062C13.1 44.7104 10.8667 44.7167 8.54167 44.7167ZM59.4646 69.3875V77.5979H65.9229V69.3875H59.4646ZM77.6208 26.9125H70.6812L68.7792 32.9542H77.6208V26.9125ZM30.925 23.6812C30.7937 25.6208 30.6646 27.5292 30.5312 29.4854H38.0312C37.9 27.525 37.7708 25.6187 37.6396 23.6812H30.925ZM8.70417 42.3042H17.2562C17.1458 40.675 17.0479 39.0875 16.9354 37.5125H9.01875C8.91667 39.1292 8.8125 40.6812 8.70417 42.3042ZM30.0729 36.4104H38.4854C38.3833 34.8771 38.2771 33.3979 38.1875 31.9396H30.3625C30.2646 33.4396 30.1708 34.8854 30.0729 36.4104Z" fill="#004D43"/>
<path d="M45.4687 0C47.6396 0.458333 48.9417 1.75625 49.3146 3.95833C49.8125 6.89375 47.8562 9.30833 44.8917 9.41667C44.762 9.42602 44.6318 9.42602 44.5021 9.41667C43.2042 9.3 42.1354 9.36458 41.4375 10.8542C40.8667 12.0708 39.7083 12.4354 37.6562 12.7688C37.6562 13.4354 37.6562 14.125 37.6562 14.8146C37.6354 16.8542 36.2917 18.1979 34.2771 18.2021C32.2625 18.2063 30.9437 16.8708 30.9125 14.8146C30.9125 14.7625 30.9125 14.7104 30.9125 14.6583C30.9125 14.0875 31.1021 13.3812 30.8354 12.9917C30.6042 12.6438 29.85 12.65 29.3312 12.4875C27.2479 11.8396 25.9833 9.68542 26.2687 7.27917C26.5417 5.00625 28.1729 3.45 30.4771 3.30833C31.2562 3.26042 32.0396 3.30833 32.8187 3.27708C33.0271 3.27708 33.3437 3.18333 33.4 3.04792C34.1042 1.33125 35.4646 0.445833 37.1875 0H45.4687ZM43.1771 7.08333C43.7479 7.08333 44.3229 7.10417 44.8937 7.08333C46.2479 7.02083 47.0958 6.11458 47.0917 4.76042C47.0875 3.40625 46.2208 2.41458 44.9104 2.38958C42.5437 2.34375 40.1771 2.34792 37.8104 2.38958C36.5854 2.40833 35.7271 3.2125 35.475 4.41042C35.2667 5.41458 34.9812 5.64792 33.9333 5.66042C32.8854 5.67292 31.7979 5.6375 30.7333 5.67917C30.248 5.68325 29.7761 5.83912 29.3838 6.12493C28.9915 6.41075 28.6985 6.81217 28.5458 7.27292C28.3932 7.72011 28.3852 8.20396 28.5228 8.65599C28.6603 9.10803 28.9366 9.50533 29.3125 9.79167C29.7572 10.0954 30.2664 10.2915 30.8 10.3646C32.4333 10.6 33.2354 11.4583 33.2479 13.125C33.2479 13.7229 33.2479 14.3208 33.2479 14.9187C33.2479 15.5833 33.6062 15.9479 34.2542 15.9604C34.9021 15.9729 35.2729 15.6104 35.2958 14.9542C35.3146 14.3812 35.2958 13.8083 35.2958 13.2354C35.2958 11.4521 36.05 10.5958 37.7958 10.3875C39.1417 10.2271 39.8521 9.60417 40.1042 8.25833C40.25 7.47917 40.6937 7.1375 41.4417 7.11875C42.0375 7.08333 42.6104 7.08333 43.1833 7.08333H43.1771Z" fill="#004D43"/>
<path d="M11.1937 8.62292C12.9333 8.62292 14.6729 8.60417 16.4125 8.62292C18.7167 8.65625 20.3417 9.89583 20.8687 12.0312C21.5792 14.9167 19.9292 17.9167 16.7896 18.025C16.6493 18.0434 16.5102 18.0698 16.3729 18.1042C16.3729 18.7917 16.3854 19.4833 16.3729 20.1729C16.3458 21.4937 15.8667 22.5646 14.6167 23.1542C14.0358 23.4571 13.3831 23.5952 12.7293 23.5533C12.0756 23.5114 11.4458 23.2913 10.9083 22.9167C9.95625 22.2917 9.61667 21.3229 9.60208 20.225C9.59167 19.5271 9.60208 18.8312 9.60208 18.1292C9.08125 18.0229 8.64167 17.9646 8.225 17.8396C6.66667 17.3667 5.625 16.3583 5.01458 14.8708C4.90151 14.5754 4.69142 14.3271 4.41875 14.1667C2.09583 13.0521 0.939583 10.9021 1.41875 8.49792C1.84792 6.34375 3.80417 4.69375 6.08125 4.56875C8.35833 4.44375 10.3396 5.92708 11.0812 8.26458L11.1937 8.62292ZM18.7625 13.3333C18.75 11.9229 17.85 10.9896 16.4083 10.9688C14.5333 10.9417 12.6583 10.9688 10.7833 10.9688C9.2125 10.9688 9.07292 10.8438 8.89167 9.27917C8.81951 8.63883 8.51828 8.04617 8.04353 7.61047C7.56877 7.17476 6.95249 6.92539 6.30833 6.90833C5.67759 6.90528 5.06668 7.12855 4.58654 7.53758C4.1064 7.94662 3.78889 8.51429 3.69167 9.1375C3.44792 10.5729 4.37292 11.8271 5.98333 12.15C6.63125 12.2812 6.99583 12.5958 7.11458 13.2479C7.425 14.9521 8.01042 15.5 9.70417 15.7167C11.0958 15.8958 11.8958 16.7583 11.9417 18.1604C11.9646 18.8354 11.9292 19.5146 11.9604 20.1896C11.9937 20.9167 12.3771 21.2854 13.025 21.2583C13.6729 21.2312 14.0042 20.8417 14.0333 20.2C14.0562 19.6812 14.0333 19.1583 14.0333 18.6396C14.0354 16.6667 14.7125 15.9146 16.6667 15.6854C18.0104 15.5271 18.7708 14.675 18.7625 13.3333Z" fill="#004D43"/>
<path d="M62.6937 46.2896C59.5951 46.2896 56.4972 46.2896 53.4 46.2896C52.2104 46.2896 51.8563 45.9396 51.85 44.7729C51.85 43.5229 51.85 42.2729 51.85 41.0229C51.85 39.9521 52.2458 39.5396 53.2937 39.5396C59.5674 39.5396 65.8396 39.5396 72.1104 39.5396C73.1146 39.5396 73.5521 39.9687 73.5687 40.9562C73.584 42.2562 73.584 43.5576 73.5687 44.8604C73.5583 45.875 73.1521 46.2833 72.1438 46.2854C68.9917 46.2937 65.8333 46.2875 62.6937 46.2896ZM71.1875 41.9396H54.2562V43.8937H71.1875V41.9396Z" fill="#004D43"/>
<path d="M56.6146 55.3625C55.4708 55.3625 54.3229 55.3771 53.1812 55.3625C52.2521 55.35 51.8625 54.9458 51.8542 54.0208C51.8403 52.6694 51.8403 51.3174 51.8542 49.9646C51.8542 49.0521 52.2708 48.6229 53.1937 48.6167C55.5076 48.6 57.8222 48.6 60.1375 48.6167C61.0792 48.6167 61.5167 49.0687 61.5292 50.0187C61.5458 51.3437 61.5458 52.6694 61.5292 53.9958C61.5146 54.9542 61.0958 55.3563 60.125 55.3667C58.9583 55.3729 57.7854 55.3646 56.6146 55.3625ZM54.2479 50.9875V52.9729H59.1417V50.9875H54.2479Z" fill="#004D43"/>
<path d="M68.75 55.3646C67.6062 55.3646 66.4583 55.3646 65.3187 55.3646C64.2771 55.3542 63.8958 54.9729 63.8875 53.9625C63.8792 52.6625 63.8792 51.3618 63.8875 50.0604C63.8875 49.0437 64.2937 48.6167 65.2875 48.6125C67.5778 48.6 69.8694 48.6 72.1625 48.6125C73.1146 48.6125 73.5604 49.0542 73.5729 49.9937C73.5938 51.3187 73.5917 52.6458 73.5729 53.9729C73.5604 54.9375 73.1458 55.35 72.1896 55.3625C71.0417 55.375 69.8958 55.3625 68.75 55.3646ZM66.2604 52.9729H71.1792V51.0062H66.2604V52.9729Z" fill="#004D43"/>
<path d="M56.7187 64.4417C55.575 64.4417 54.4271 64.4521 53.2875 64.4417C52.2458 64.4313 51.8604 64.05 51.8521 63.0417C51.8521 61.7146 51.8396 60.3896 51.8521 59.0625C51.8521 58.1083 52.2687 57.6896 53.2437 57.6833C55.5312 57.6681 57.8194 57.6681 60.1083 57.6833C61.0917 57.6833 61.5167 58.1354 61.5271 59.1417C61.5417 60.4146 61.5396 61.6896 61.5271 62.9646C61.5167 64.0292 61.1104 64.4229 60.0687 64.4437C58.9583 64.4521 57.8375 64.4417 56.7187 64.4417ZM59.1396 62.0479V60.0792H54.2521V62.0479H59.1396Z" fill="#004D43"/>
<path d="M68.7208 64.4417C67.5771 64.4417 66.4292 64.4542 65.2875 64.4417C64.2667 64.4271 63.8937 64.0417 63.8875 63.0062C63.8792 61.7062 63.8792 60.4062 63.8875 59.1062C63.8875 58.1333 64.3042 57.6917 65.2396 57.6854C67.5549 57.6674 69.8694 57.6674 72.1833 57.6854C73.1208 57.6854 73.5542 58.1479 73.5667 59.0979C73.5833 60.3979 73.5833 61.6979 73.5667 62.9979C73.5562 64.0396 73.15 64.4333 72.0771 64.4437C70.9583 64.45 69.8396 64.4417 68.7208 64.4417ZM71.1771 62.0479V60.0792H66.2875V62.0479H71.1771Z" fill="#004D43"/>
<path d="M40.2083 66.4938C40.4946 66.4818 40.7813 66.4971 41.0646 66.5396C41.6562 66.6583 42.0396 67.1021 41.9396 67.6438C41.8646 68.05 41.475 68.4521 41.125 68.7333C40.9167 68.8938 40.525 68.8333 40.2146 68.8333C29.7549 68.8333 19.2938 68.8333 8.83125 68.8333C7.59375 68.8333 7.00417 68.4312 7.02917 67.6167C7.05417 66.8021 7.5875 66.4896 8.825 66.4896L40.2083 66.4938Z" fill="#004D43"/>
<path d="M18.8667 60.4875C18.8667 59.8375 18.8479 59.1875 18.8667 58.5375C18.8979 57.7521 19.3042 57.3458 20.0958 57.3333C21.3958 57.3125 22.6965 57.3125 23.9979 57.3333C24.7833 57.3458 25.2271 57.75 25.2479 58.5271C25.2875 59.8521 25.2854 61.1812 25.2479 62.5062C25.2271 63.2708 24.7667 63.7104 23.9979 63.7271C22.6979 63.7563 21.3979 63.7563 20.0979 63.7271C19.2875 63.7104 18.8792 63.2646 18.8479 62.4396C18.85 61.7896 18.8667 61.1396 18.8667 60.4875ZM21.25 59.7062V61.3271H22.8708V59.7062H21.25Z" fill="#004D43"/>
<path d="M33.6125 60.5437C33.6125 61.1687 33.625 61.7937 33.6125 62.4187C33.5917 63.2792 33.1771 63.7167 32.3125 63.7312C31.0375 63.7542 29.7625 63.7562 28.4875 63.7312C27.6813 63.7125 27.2375 63.2625 27.2167 62.4542C27.1917 61.1521 27.1896 59.8521 27.2167 58.55C27.2354 57.775 27.6771 57.3479 28.4521 57.3354C29.7771 57.3146 31.1063 57.3125 32.4313 57.3354C33.1688 57.35 33.5604 57.7792 33.6104 58.5146C33.6104 58.5667 33.6104 58.6187 33.6104 58.6708L33.6125 60.5437ZM31.2062 61.3604V59.7146H29.6V61.3604H31.2062Z" fill="#004D43"/>
<path d="M35.5938 60.5208C35.5938 59.8708 35.5771 59.2188 35.5938 58.5708C35.6188 57.7792 36.0104 57.35 36.7917 57.3354C38.1194 57.3104 39.4465 57.3104 40.7729 57.3354C41.5375 57.35 41.9667 57.7812 41.9854 58.5708C42.016 59.8708 42.016 61.1715 41.9854 62.4729C41.9646 63.275 41.5021 63.7229 40.6896 63.7229C39.4167 63.7479 38.1396 63.7479 36.8667 63.7229C36.0146 63.7062 35.6167 63.2646 35.5896 62.3875C35.5812 61.7708 35.5938 61.1458 35.5938 60.5208ZM37.9729 61.3417H39.6188V59.7188H37.9729V61.3417Z" fill="#004D43"/>
</g>
<defs>
<clipPath id="clip0_1_2739">
<rect width="80" height="80" fill="white"/>
</clipPath>
</defs>
</svg>
