<svg width="80" height="80" viewBox="0 0 80 80" fill="none" xmlns="http://www.w3.org/2000/svg">
<path d="M69.6407 0C69.916 0.176616 70.1359 0.425594 70.2755 0.718883C70.4152 1.01217 70.4691 1.33812 70.4311 1.66C70.4311 9.11 70.4311 16.55 70.4311 24C70.4487 24.2588 70.4248 24.5186 70.3602 24.77C70.2881 25.0266 70.1279 25.2507 69.9071 25.4038C69.6863 25.5569 69.4185 25.6296 69.1494 25.6095C68.8803 25.5895 68.6265 25.4779 68.4315 25.2937C68.2365 25.1096 68.1123 24.8644 68.0802 24.6C68.0599 24.3404 68.0599 24.0796 68.0802 23.82V2.39H26.2293V4.85H63.7228C65.2124 4.85 65.5468 5.17 65.5468 6.63V63.06H68.0903V30.2C68.0903 28.95 68.4146 28.44 69.2354 28.42C70.0562 28.4 70.4615 28.96 70.4615 30.21V63.65C70.4615 65.12 70.1271 65.45 68.6578 65.45H65.5063V68.67C65.5063 69.92 65.1111 70.3 63.8444 70.3H60.5916V73.53C60.5916 74.78 60.1964 75.14 58.9196 75.15H55.8796C55.8796 75.15 55.7884 75.15 55.6364 75.24C55.6364 76.24 55.6364 77.32 55.6364 78.38C55.6364 79.6 55.2513 79.99 54.0454 79.99C44.4694 80 34.9136 80 25.3274 80C24.7898 79.983 24.276 79.7774 23.8783 79.42C19.1494 74.7533 14.4205 70.0867 9.6916 65.42C9.27413 65.0021 9.02859 64.4463 9.00253 63.86C9.00253 56.9 9.00253 50 9.00253 43C8.98998 42.7164 9.0242 42.4327 9.10386 42.16C9.17075 41.9047 9.33712 41.6858 9.56676 41.5509C9.7964 41.4161 10.0707 41.3762 10.33 41.44C10.7463 41.6546 11.0963 41.9758 11.3433 42.37C11.4649 42.55 11.3433 42.88 11.3433 43.14C11.3433 49.44 11.3433 55.7433 11.3433 62.05V63.1H24.5167C25.7631 63.1 26.1178 63.44 26.1178 64.67C26.1178 68.67 26.1178 72.67 26.1178 76.67V77.56H53.2246V16.94H11.3839V36.82C11.4045 37.0796 11.4045 37.3404 11.3839 37.6C11.363 37.8584 11.2496 38.1009 11.0639 38.2842C10.8781 38.4675 10.6323 38.5794 10.3705 38.6C10.1041 38.6455 9.83005 38.5891 9.60418 38.4424C9.37831 38.2956 9.21754 38.0695 9.15453 37.81C9.07009 37.5472 9.01903 37.2752 9.00253 37V16.25C9.00253 14.9 9.36733 14.55 10.7455 14.55H13.9172V12.17C13.9172 9.76 13.9882 9.7 16.4607 9.7H18.842C18.842 8.57 18.842 7.51 18.842 6.46C18.842 5.24 19.2271 4.85 20.4431 4.85H23.7567C23.7567 3.74 23.7567 2.71 23.7567 1.68C23.7164 1.35925 23.7648 1.0337 23.8968 0.737914C24.0288 0.442125 24.2396 0.187131 24.5066 0L69.6407 0ZM21.2538 9.7H34.0219C34.2849 9.68001 34.5492 9.68001 34.8123 9.7C35.1044 9.73039 35.3732 9.87136 35.5622 10.0933C35.7511 10.3152 35.8456 10.6008 35.8256 10.89C35.8296 11.0335 35.8047 11.1763 35.7521 11.3102C35.6996 11.4441 35.6205 11.5662 35.5195 11.6696C35.4186 11.7729 35.2978 11.8554 35.1641 11.9121C35.0305 11.9688 34.8868 11.9987 34.7413 12C34.4981 12 34.2651 12 34.0219 12H16.3492V14.51H53.6806C55.3932 14.51 55.7073 14.78 55.7073 16.44C55.7073 34.86 55.7073 53.2733 55.7073 71.68V72.68H58.2001V12H40.4768C40.2437 12 40.0005 12 39.7675 12C39.6212 12.0001 39.4763 11.9712 39.3415 11.915C39.2067 11.8589 39.0847 11.7766 38.9827 11.6731C38.8806 11.5697 38.8007 11.447 38.7475 11.3125C38.6943 11.178 38.669 11.0343 38.6731 10.89C38.6477 10.5986 38.7399 10.309 38.9296 10.0843C39.1194 9.85962 39.3914 9.71791 39.6864 9.69C39.9495 9.66969 40.2138 9.66969 40.4768 9.69H58.6561C60.3484 9.69 60.6321 9.96 60.6321 11.69V67.9H63.1249V7.25H21.2538V9.7ZM13.5423 65.49L23.6757 75.49V65.49H13.5423Z" fill="#004D43"/>
</svg>
