<svg width="80" height="80" viewBox="0 0 80 80" fill="none" xmlns="http://www.w3.org/2000/svg">
<g id="icon">
<g id="Vector">
<path d="M79.9829 63.1611C79.8629 63.6124 79.7715 64.0695 79.6287 64.5094C79.2687 65.7256 78.6307 66.8414 77.765 67.7685C76.8994 68.6956 75.8299 69.4086 74.6412 69.851C74.4329 69.8978 74.2508 70.023 74.1326 70.2008C74.0145 70.3785 73.9695 70.595 74.007 70.8051C74.0413 71.8449 74.007 72.8847 74.007 73.9244C74.007 75.387 73.2415 76.1411 71.7847 76.1468C68.0598 76.1468 64.3368 76.1468 60.6157 76.1468C59.6617 76.1468 59.1646 75.7526 59.1418 75.0042C59.1189 74.2558 59.6617 73.793 60.6214 73.793C63.9807 73.793 67.34 73.793 70.6935 73.793H71.6076V70.4509H8.37016V73.793H9.36422C24.3019 73.793 39.2414 73.793 54.1829 73.793C54.5204 73.7753 54.8587 73.8042 55.1884 73.8787C55.4521 73.9365 55.683 74.0946 55.8323 74.3195C55.9815 74.5445 56.0375 74.8187 55.9882 75.0842C55.9859 75.3495 55.8833 75.6041 55.701 75.797C55.5188 75.9899 55.2703 76.1066 55.0055 76.1239C54.7469 76.144 54.4872 76.144 54.2286 76.1239C38.9939 76.1239 23.7591 76.1239 8.52441 76.1239C6.65054 76.1239 5.9764 75.4555 5.9764 73.6045C5.9764 72.6447 5.94784 71.6792 5.9764 70.748C5.9764 70.251 5.82215 70.0453 5.35368 69.8568C2.14868 68.5028 0.33194 66.0862 0.0462887 62.6069C-0.267927 58.7564 0.99465 55.6256 4.53672 53.7289C5.53267 53.2876 6.56003 52.921 7.61033 52.632V51.8893C7.61033 47.5398 7.61033 43.1941 7.61033 38.8522C7.61033 37.2183 8.13592 36.6812 9.747 36.6812H24.5666C26.1034 36.6812 26.669 37.2525 26.6747 38.8179C26.6747 39.8291 26.6747 40.846 26.6747 41.863C26.6747 42.7256 26.2119 43.2227 25.5035 43.2227C24.7951 43.2227 24.3609 42.7428 24.3609 41.8687C24.3609 40.9946 24.3609 40.0519 24.3609 39.0864H10.0041V52.7177H24.3495V48.5815C24.3495 48.2673 24.3495 47.953 24.3495 47.6445C24.3838 46.8676 24.7894 46.4162 25.4578 46.3934C25.622 46.3821 25.7867 46.4065 25.9406 46.4647C26.0945 46.523 26.234 46.6139 26.3495 46.731C26.4651 46.8482 26.5539 46.989 26.6101 47.1437C26.6662 47.2984 26.6882 47.4634 26.6747 47.6274C26.709 48.77 26.6747 49.9126 26.6747 51.0552C26.6747 51.6265 26.6747 52.1407 26.6747 52.7291H30.451V51.8493C30.451 47.4808 30.451 43.1008 30.451 38.7094C30.451 37.2468 31.0223 36.6584 32.4677 36.6584H47.4815C48.9783 36.6584 49.5325 37.2297 49.5382 38.7494V52.7234H53.3145V51.7979C53.3145 47.5017 53.3145 43.2074 53.3145 38.915C53.3145 37.2011 53.8458 36.6812 55.5597 36.6812H68.8825V29.2543C68.8825 27.329 69.3795 26.6149 71.2077 25.9351V11.6525H62.8438C61.8497 11.6525 61.3356 11.2355 61.347 10.4699C61.3584 9.70437 61.9183 9.32731 62.8781 9.32731H69.8537V7.68767H36.8781C36.6439 7.68767 36.3525 7.60769 36.1869 7.71624C35.9012 7.91048 35.5184 8.21898 35.5127 8.48178C35.507 8.74458 35.8783 9.05308 36.164 9.26447C36.3468 9.38444 36.6667 9.30446 36.9295 9.30446H56.4509C56.7603 9.2915 57.07 9.32227 57.3707 9.39586C57.6285 9.45736 57.8536 9.61396 58.0008 9.8343C58.1481 10.0546 58.2066 10.3225 58.1648 10.5842C58.1625 10.8495 58.0599 11.1042 57.8777 11.297C57.6954 11.4899 57.447 11.6066 57.1822 11.6239C56.9235 11.6411 56.6639 11.6411 56.4052 11.6239H43.6309V22.2273C44.0251 22.2273 44.4307 22.2273 44.8307 22.2273C45.0857 22.2224 45.3391 22.2698 45.5752 22.3665C45.8112 22.4633 46.025 22.6074 46.2032 22.7899C46.3815 22.9724 46.5205 23.1895 46.6116 23.4278C46.7027 23.6661 46.7441 23.9206 46.7331 24.1754C46.7559 25.6989 46.7559 27.2357 46.7331 28.7859C46.7476 29.0413 46.7086 29.297 46.6186 29.5366C46.5287 29.7761 46.3897 29.9942 46.2107 30.1771C46.0316 30.3599 45.8164 30.5033 45.5788 30.5982C45.3412 30.6931 45.0864 30.7374 44.8307 30.7283C41.6314 30.7626 38.4302 30.7626 35.2271 30.7283C34.9647 30.7418 34.7025 30.6996 34.4577 30.6043C34.2129 30.509 33.9911 30.3628 33.8069 30.1754C33.6228 29.9881 33.4805 29.7637 33.3895 29.5173C33.2985 29.2709 33.2608 29.0079 33.2789 28.7459C33.2789 27.2605 33.2789 25.7751 33.2789 24.2954C33.2789 22.97 34.0273 22.2444 35.3699 22.2102C35.7012 22.2102 36.0326 22.2102 36.3982 22.2102V11.6982C36.1411 11.6639 35.9126 11.6468 35.6898 11.6068C34.9289 11.4653 34.2472 11.0475 33.7758 10.4337C33.3044 9.81989 33.0765 9.05347 33.1361 8.28183C33.1809 7.5222 33.5029 6.80542 34.041 6.26735C34.579 5.72928 35.2958 5.40731 36.0555 5.36247C36.3925 5.36247 36.7353 5.36247 37.0724 5.36247C48.1594 5.36247 59.2465 5.36247 70.3336 5.36247C70.8095 5.34679 71.2696 5.18746 71.6533 4.90543C72.5298 4.25234 73.6114 3.93503 74.7019 4.01108C75.7924 4.08713 76.8195 4.55148 77.5969 5.31992C78.3743 6.08836 78.8506 7.10999 78.9393 8.1995C79.028 9.289 78.7233 10.3742 78.0804 11.2583C77.8042 11.645 77.6455 12.1033 77.6234 12.578C77.5891 16.7428 77.6234 20.9076 77.6234 25.0724V25.9636C78.1646 26.0692 78.6687 26.3146 79.0856 26.6755C79.5025 27.0363 79.8178 27.4999 80 28.0203L79.9829 63.1611ZM39.9917 68.0686C50.3742 68.0686 60.7585 68.0686 71.1448 68.0686C71.9749 68.083 72.8027 67.9752 73.6014 67.7486C76.2523 66.9146 77.6748 64.6408 77.6691 61.4643C77.6691 57.7394 75.1896 55.18 71.499 55.18C50.4942 55.1343 29.5179 55.1248 8.57011 55.1514C7.66136 55.1459 6.76113 55.3268 5.92499 55.6828C2.70856 57.0767 1.71449 60.3789 2.66857 63.8809C3.38841 66.5204 5.70218 68.0629 8.65581 68.0686C19.0878 68.0762 29.5331 68.0762 39.9917 68.0686ZM55.6911 39.0807V52.7291H69.9737V39.0807H66.5458C66.5458 40.926 66.5458 42.7199 66.5458 44.5081C66.5458 45.7307 65.946 46.3248 64.7234 46.342C63.5008 46.3591 62.1754 46.342 60.9014 46.342C60.6683 46.3685 60.4323 46.3427 60.2105 46.2664C59.9887 46.1902 59.7867 46.0654 59.6192 45.9012C59.4517 45.737 59.323 45.5375 59.2424 45.3173C59.1618 45.097 59.1313 44.8616 59.1532 44.6281C59.1532 43.0684 59.1532 41.5088 59.1532 39.9491C59.1532 39.6749 59.1532 39.3778 59.1189 39.115L55.6911 39.0807ZM47.1216 52.7348V39.0864H43.6938C43.6938 40.9146 43.6938 42.6856 43.6938 44.451C43.6938 45.7135 43.0768 46.3248 41.8313 46.342C40.5859 46.3591 39.3347 46.342 38.0893 46.342C36.8438 46.342 36.2783 45.7135 36.2554 44.5024C36.2554 43.4855 36.2554 42.4743 36.2554 41.4573V39.0864H32.8276V52.7348H47.1216ZM77.5377 55.1572C77.5834 55.0715 77.6062 55.0543 77.6062 55.0315C77.6062 46.3477 77.6062 37.662 77.6062 28.9744C77.6062 28.4488 77.3777 28.306 76.8978 28.306C75.2296 28.306 73.5671 28.306 71.9047 28.306C71.3334 28.306 71.1734 28.4945 71.1791 29.0372C71.1791 31.4253 71.1791 33.819 71.1791 36.2128C71.1791 36.4184 71.2477 36.7327 71.3848 36.7841C72.2646 37.264 72.3503 38.0467 72.3446 38.9208C72.3446 43.2398 72.3446 47.5569 72.3446 51.8722C72.3446 52.175 72.3446 52.4435 72.3788 52.752C74.7383 53.1976 75.4124 53.5175 77.5548 55.1572H77.5377ZM35.6441 28.3345H44.345V24.5811H35.6441V28.3345ZM41.1857 22.1473V11.7039H38.8491V22.1473H41.1857ZM73.6414 13.0865V25.9179H75.2182V13.0865H73.6414ZM74.4469 6.31655C74.0106 6.31655 73.584 6.44603 73.2212 6.6886C72.8584 6.93116 72.5758 7.27591 72.409 7.67919C72.2423 8.08248 72.199 8.52617 72.2845 8.9541C72.3701 9.38202 72.5807 9.77495 72.8896 10.0831C73.1986 10.3913 73.5921 10.6009 74.0202 10.6853C74.4484 10.7698 74.892 10.7253 75.2948 10.5575C75.6977 10.3897 76.0417 10.1062 76.2833 9.74277C76.5249 9.37937 76.6533 8.95245 76.6522 8.51606C76.6507 7.9306 76.4182 7.36938 76.0053 6.95432C75.5924 6.53927 75.0324 6.30392 74.4469 6.29941V6.31655ZM38.672 39.0636V43.9368H41.3343V39.0636H38.672ZM64.1635 43.9368V39.0807H61.507V43.9368H64.1635Z" fill="#004D43"/>
<path d="M75.1839 61.6471C75.1839 62.5533 74.9145 63.4389 74.41 64.1916C73.9054 64.9443 73.1886 65.53 72.3504 65.8744C71.5123 66.2187 70.5907 66.3062 69.7028 66.1256C68.8148 65.9451 68.0006 65.5046 67.3635 64.8603C66.7264 64.216 66.2952 63.3968 66.1247 62.5069C65.9542 61.6169 66.0521 60.6964 66.4059 59.8622C66.7598 59.028 67.3536 58.3178 68.1119 57.8219C68.8702 57.3259 69.7589 57.0665 70.6649 57.0767C71.2627 57.0767 71.8546 57.1953 72.4062 57.4256C72.9579 57.6559 73.4584 57.9934 73.8787 58.4184C74.299 58.8435 74.6308 59.3478 74.8548 59.902C75.0789 60.4562 75.1907 61.0494 75.1839 61.6471ZM72.8359 61.6072C72.8391 61.3148 72.7832 61.0248 72.6715 60.7545C72.5599 60.4843 72.3948 60.2394 72.1862 60.0345C71.9776 59.8296 71.7298 59.669 71.4575 59.5623C71.1853 59.4555 70.8944 59.4049 70.6021 59.4134C70.0374 59.4421 69.5053 59.6867 69.1158 60.0966C68.7263 60.5065 68.5091 61.0503 68.5091 61.6157C68.5091 62.1812 68.7263 62.725 69.1158 63.1349C69.5053 63.5447 70.0374 63.7893 70.6021 63.8181C70.8975 63.8276 71.1917 63.7765 71.4667 63.6679C71.7416 63.5594 71.9914 63.3957 72.2007 63.187C72.41 62.9783 72.5743 62.7289 72.6835 62.4542C72.7928 62.1796 72.8446 61.8855 72.8359 61.59V61.6072Z" fill="#004D43"/>
<path d="M21.6129 66.149C20.7078 66.149 19.823 65.8802 19.0708 65.3767C18.3186 64.8732 17.7328 64.1577 17.3878 63.3209C17.0427 62.4841 16.9539 61.5637 17.1325 60.6764C17.3112 59.789 17.7494 58.9747 18.3914 58.3367C19.0334 57.6987 19.8505 57.2656 20.7389 57.0925C21.6274 56.9194 22.5472 57.014 23.3818 57.3643C24.2165 57.7146 24.9283 58.3049 25.427 59.0602C25.9258 59.8156 26.189 60.702 26.1834 61.6072C26.1758 62.8143 25.691 63.9695 24.8347 64.8205C23.9783 65.6714 22.8202 66.149 21.6129 66.149ZM21.6129 63.801C22.1801 63.7874 22.7203 63.5558 23.1211 63.1543C23.5219 62.7527 23.7526 62.2122 23.7651 61.645C23.7776 61.0778 23.571 60.5275 23.1882 60.1087C22.8055 59.6899 22.2761 59.4347 21.7101 59.3962C21.4128 59.3758 21.1144 59.4158 20.833 59.5139C20.5517 59.612 20.2931 59.7661 20.0729 59.9669C19.8527 60.1677 19.6755 60.4111 19.552 60.6823C19.4285 60.9535 19.3613 61.2469 19.3543 61.5448C19.3474 61.8427 19.4009 62.1389 19.5116 62.4156C19.6223 62.6922 19.7879 62.9436 19.9985 63.1545C20.209 63.3653 20.4602 63.5313 20.7367 63.6424C21.0132 63.7536 21.3093 63.8075 21.6072 63.801H21.6129Z" fill="#004D43"/>
<path d="M9.33566 66.149C8.4293 66.1489 7.54342 65.8794 6.79063 65.3746C6.03785 64.8698 5.45214 64.1526 5.10796 63.3142C4.76377 62.4757 4.67666 61.5538 4.85769 60.6657C5.03872 59.7776 5.47972 58.9634 6.12463 58.3266C6.76955 57.6897 7.58925 57.259 8.47955 57.0891C9.36986 56.9193 10.2906 57.018 11.1246 57.3727C11.9587 57.7274 12.6685 58.3221 13.1637 59.0812C13.659 59.8402 13.9174 60.7294 13.9061 61.6357C13.9054 62.233 13.7862 62.8243 13.5556 63.3753C13.3249 63.9263 12.9873 64.426 12.5623 64.8457C12.1373 65.2654 11.6333 65.5967 11.0795 65.8204C10.5256 66.0441 9.93293 66.1558 9.33566 66.149ZM9.33566 59.3962C8.90026 59.4007 8.47595 59.534 8.1162 59.7793C7.75645 60.0246 7.47737 60.3709 7.31413 60.7746C7.15089 61.1782 7.11081 61.6212 7.19892 62.0476C7.28704 62.474 7.49941 62.8648 7.80928 63.1707C8.11915 63.4766 8.51263 63.6839 8.94014 63.7665C9.36765 63.8491 9.81005 63.8033 10.2116 63.6349C10.6131 63.4664 10.9558 63.1829 11.1964 62.82C11.437 62.4571 11.5648 62.0311 11.5637 61.5957C11.5645 61.3057 11.5078 61.0184 11.3968 60.7505C11.2858 60.4825 11.1228 60.2392 10.9172 60.0347C10.7116 59.8301 10.4674 59.6684 10.1989 59.5588C9.9304 59.4492 9.64281 59.3939 9.3528 59.3962H9.33566Z" fill="#004D43"/>
<path d="M58.4048 66.149C57.5008 66.149 56.6172 65.881 55.8656 65.3787C55.114 64.8765 54.5282 64.1627 54.1823 63.3276C53.8363 62.4925 53.7458 61.5735 53.9222 60.6869C54.0985 59.8004 54.5338 58.986 55.173 58.3468C55.8122 57.7076 56.6266 57.2723 57.5131 57.096C58.3997 56.9196 59.3187 57.0101 60.1538 57.3561C60.9889 57.702 61.7027 58.2878 62.205 59.0394C62.7072 59.791 62.9752 60.6746 62.9752 61.5786C62.9752 62.7907 62.4937 63.9532 61.6366 64.8104C60.7794 65.6675 59.6169 66.149 58.4048 66.149ZM58.4048 59.3962C57.8401 59.425 57.308 59.6696 56.9185 60.0794C56.529 60.4893 56.3118 61.0331 56.3118 61.5986C56.3118 62.164 56.529 62.7079 56.9185 63.1177C57.308 63.5276 57.8401 63.7722 58.4048 63.801C58.7034 63.8162 59.0021 63.7705 59.2825 63.6667C59.563 63.5629 59.8194 63.4031 60.0361 63.1971C60.2529 62.9911 60.4255 62.7431 60.5435 62.4683C60.6614 62.1935 60.7222 61.8976 60.7222 61.5986C60.7222 61.2995 60.6614 61.0036 60.5435 60.7288C60.4255 60.454 60.2529 60.2061 60.0361 60.0001C59.8194 59.7941 59.563 59.6343 59.2825 59.5305C59.0021 59.4267 58.7034 59.381 58.4048 59.3962Z" fill="#004D43"/>
<path d="M33.8902 66.149C32.9863 66.149 32.1026 65.881 31.351 65.3787C30.5994 64.8765 30.0136 64.1627 29.6677 63.3276C29.3218 62.4925 29.2313 61.5735 29.4076 60.6869C29.584 59.8004 30.0193 58.986 30.6584 58.3468C31.2976 57.7076 32.112 57.2723 32.9986 57.096C33.8851 56.9196 34.8041 57.0101 35.6392 57.3561C36.4744 57.702 37.1882 58.2878 37.6904 59.0394C38.1926 59.791 38.4606 60.6746 38.4606 61.5786C38.4667 62.1805 38.3527 62.7775 38.1252 63.3348C37.8977 63.8921 37.5612 64.3984 37.1356 64.824C36.71 65.2496 36.2037 65.586 35.6464 65.8135C35.0892 66.0411 34.4921 66.1551 33.8902 66.149ZM33.8902 63.801C34.1889 63.8137 34.487 63.7655 34.7665 63.6594C35.046 63.5534 35.301 63.3916 35.516 63.1839C35.731 62.9762 35.9015 62.727 36.0173 62.4514C36.133 62.1758 36.1915 61.8795 36.1891 61.5806C36.1868 61.2816 36.1237 60.9863 36.0037 60.7125C35.8837 60.4387 35.7093 60.1922 35.4911 59.9879C35.2729 59.7836 35.0154 59.6258 34.7343 59.5241C34.4532 59.4224 34.1544 59.3789 33.8559 59.3962C33.2912 59.4291 32.7607 59.6776 32.3741 60.0906C31.9875 60.5035 31.7744 61.0492 31.7788 61.6149C31.7832 62.1805 32.0048 62.7229 32.3978 63.1297C32.7908 63.5366 33.3251 63.7769 33.8902 63.801Z" fill="#004D43"/>
<path d="M46.1389 57.0767C47.0429 57.0767 47.9265 57.3448 48.6781 57.847C49.4297 58.3492 50.0155 59.063 50.3615 59.8981C50.7074 60.7333 50.7979 61.6522 50.6215 62.5388C50.4452 63.4254 50.0099 64.2397 49.3707 64.8789C48.7315 65.5181 47.9172 65.9534 47.0306 66.1297C46.144 66.3061 45.225 66.2156 44.3899 65.8697C43.5548 65.5237 42.841 64.9379 42.3388 64.1863C41.8366 63.4347 41.5685 62.5511 41.5685 61.6471C41.5632 61.0455 41.6778 60.4487 41.9056 59.8918C42.1334 59.3349 42.4698 58.829 42.8953 58.4035C43.3207 57.978 43.8267 57.6416 44.3836 57.4138C44.9405 57.186 45.5373 57.0714 46.1389 57.0767ZM46.1389 59.4248C45.8403 59.4096 45.5416 59.4552 45.2612 59.5591C44.9808 59.6629 44.7244 59.8226 44.5076 60.0286C44.2908 60.2346 44.1182 60.4826 44.0003 60.7574C43.8823 61.0322 43.8215 61.3281 43.8215 61.6271C43.8215 61.9262 43.8823 62.2221 44.0003 62.4969C44.1182 62.7717 44.2908 63.0196 44.5076 63.2257C44.7244 63.4317 44.9808 63.5914 45.2612 63.6952C45.5416 63.799 45.8403 63.8447 46.1389 63.8295C46.7036 63.8007 47.2357 63.5562 47.6252 63.1463C48.0148 62.7364 48.2319 62.1926 48.2319 61.6271C48.2319 61.0617 48.0148 60.5179 47.6252 60.108C47.2357 59.6981 46.7036 59.4536 46.1389 59.4248Z" fill="#004D43"/>
</g>
</g>
</svg>
