<svg width="80" height="80" viewBox="0 0 80 80" fill="none" xmlns="http://www.w3.org/2000/svg">
<g clip-path="url(#clip0_1_2754)">
<g clip-path="url(#clip1_1_2754)">
<path d="M40 13.9655C34.8504 13.9655 29.8165 15.4926 25.535 18.3537C21.2534 21.2149 17.9165 25.2815 15.9463 30.0392C13.9761 34.797 13.4611 40.0322 14.4664 45.0826C15.4718 50.1331 17.9523 54.772 21.5942 58.4126C25.2362 62.0532 29.876 64.532 34.9269 65.5354C39.9777 66.5389 45.2127 66.0219 49.9697 64.0499C54.7267 62.078 58.7921 58.7395 61.6516 54.4569C64.5112 50.1743 66.0364 45.1398 66.0345 39.9903C66.0319 33.0872 63.2879 26.4677 58.4057 21.5874C53.5236 16.707 46.9031 13.9655 40 13.9655ZM40 64.5368C35.1528 64.5368 30.4145 63.0995 26.3843 60.4065C22.354 57.7136 19.2128 53.886 17.3579 49.4078C15.5029 44.9296 15.0176 40.002 15.9632 35.2479C16.9089 30.4939 19.243 26.1271 22.6705 22.6996C26.0979 19.2722 30.4648 16.938 35.2188 15.9924C39.9728 15.0468 44.9005 15.5321 49.3787 17.387C53.8569 19.242 57.6844 22.3832 60.3774 26.4134C63.0703 30.4437 64.5076 35.182 64.5076 40.0292C64.4922 46.5207 61.904 52.7413 57.3101 57.3279C52.7163 61.9144 46.4915 64.4928 40 64.4979V64.5368Z" fill="#004D43"/>
<path d="M0 39.9903C0.00192337 32.0795 2.34952 24.3468 6.74594 17.7701C11.1424 11.1934 17.3902 6.06806 24.6994 3.04205C32.0086 0.0160318 40.051 -0.774714 47.8096 0.769793C55.5682 2.3143 62.6946 6.1247 68.2877 11.7192C73.8808 17.3137 77.6895 24.441 79.2321 32.2C80.7747 39.959 79.982 48.0011 76.9542 55.3096C73.9265 62.6181 68.7996 68.8646 62.2218 73.2595C55.644 77.6543 47.9108 80 40 80C29.3928 79.9897 19.2232 75.7708 11.7237 68.2695C4.22417 60.7681 0.0077243 50.5975 0 39.9903ZM78.3175 39.9903C78.3156 32.4122 76.0667 25.0049 71.8551 18.7049C67.6436 12.4049 61.6585 7.49512 54.6567 4.59645C47.655 1.69777 39.9509 0.940346 32.5187 2.41993C25.0864 3.89952 18.2598 7.54968 12.902 12.9089C7.54415 18.2681 3.89572 25.0956 2.41802 32.5282C0.940319 39.9608 1.6997 47.6647 4.60015 54.6657C7.5006 61.6668 12.4119 67.6506 18.7129 71.8605C25.014 76.0705 32.4219 78.3175 40 78.3175C50.161 78.3072 59.9027 74.2656 67.0866 67.0798C74.2706 59.894 78.3098 50.1513 78.3175 39.9903Z" fill="#004D43"/>
<path d="M40 76.567C32.7681 76.567 25.6987 74.4226 19.6855 70.405C13.6723 66.3874 8.98538 60.677 6.21743 53.9958C3.44947 47.3146 2.72476 39.9627 4.13491 32.8697C5.54507 25.7767 9.02677 19.261 14.1398 14.1467C19.2528 9.03229 25.7675 5.54885 32.8602 4.13681C39.9528 2.72477 47.3049 3.44753 53.9868 6.21371C60.6687 8.97988 66.3804 13.6652 70.3996 19.6774C74.4188 25.6895 76.565 32.7584 76.567 39.9903C76.5567 49.6862 72.7011 58.9821 65.846 65.8391C58.9908 72.696 49.6959 76.5541 40 76.567ZM40 3.98734C32.8831 3.98734 25.9261 6.09773 20.0086 10.0516C14.0912 14.0056 9.4791 19.6254 6.75559 26.2005C4.03209 32.7756 3.3195 40.0107 4.70793 46.9908C6.09636 53.9709 9.52345 60.3826 14.5558 65.415C19.5882 70.4473 25.9998 73.8744 32.98 75.2629C39.9601 76.6513 47.1951 75.9387 53.7703 73.2152C60.3454 70.4917 65.9652 65.8796 69.9191 59.9621C73.8731 54.0447 75.9834 47.0877 75.9834 39.9708C75.9629 30.4337 72.1652 21.2931 65.4214 14.5494C58.6777 7.8056 49.5371 4.00789 40 3.98734Z" fill="#004D43"/>
<path d="M29.876 69.5356C29.751 69.444 29.6589 69.3143 29.6134 69.1661C29.5713 69.001 29.5549 68.8304 29.5648 68.6604V67.3864L30.3915 67.6392V68.6117C30.379 68.7216 30.379 68.8325 30.3915 68.9424C30.4174 69.0212 30.4534 69.0964 30.4984 69.1661C30.5404 69.2217 30.5934 69.268 30.654 69.3022C30.714 69.3412 30.7796 69.3707 30.8485 69.3898L31.2376 69.5065L31.7335 68.0768L32.5407 68.3297L31.3932 71.9669L30.586 71.7141L31.0431 70.2553L30.6832 70.1386H30.4984C30.4311 70.1241 30.3615 70.1241 30.2942 70.1386C30.2176 70.1624 30.1453 70.1985 30.0803 70.2456C29.994 70.315 29.9186 70.397 29.8566 70.4887L29.2828 71.3056L28.5048 71.0625L29.1661 70.09C29.2529 69.9477 29.365 69.8225 29.4967 69.7204C29.6035 69.6376 29.7317 69.587 29.8663 69.5745L29.876 69.5356Z" fill="#004D43"/>
<path d="M24.1089 64.5757L23.9533 65.3829L25.0426 66.0443L25.6844 65.5288L26.443 65.9859L23.2142 68.4756L22.6501 68.1352L23.3406 64.1187L24.1089 64.5757ZM23.7005 66.5791L23.506 67.3377L24.0798 66.8125L24.4299 66.5111L23.788 66.1221L23.7005 66.5791Z" fill="#004D43"/>
<path d="M17.3207 63.0002L19.4311 60.7926L20.0438 61.3761L17.9237 63.5838L18.6725 64.3034L18.1473 64.848L16.0467 62.8155L16.5719 62.2708L17.3207 63.0002Z" fill="#004D43"/>
<path d="M16.2606 57.1262L13.0902 59.2268L11.6022 56.9803L12.2247 56.5718L13.2458 58.1084L13.8974 57.6805L13.0221 56.3676L13.6348 55.9689L14.5004 57.2818L15.1617 56.8441L14.1405 55.2978L14.7727 54.8796L16.2606 57.1262Z" fill="#004D43"/>
<path d="M9.89059 51.7189L12.7498 50.6394L13.0416 51.4271L9.48213 52.7692L8.52905 50.2504L9.239 49.9878L9.89059 51.7189Z" fill="#004D43"/>
<path d="M7.23562 44.5806C7.19124 44.3722 7.19124 44.1568 7.23562 43.9484C7.2827 43.7655 7.36532 43.5937 7.47875 43.4427C7.59322 43.2928 7.73932 43.1699 7.90666 43.0829C8.08385 42.984 8.27887 42.9212 8.48045 42.8981L9.3849 42.7911C9.59094 42.7566 9.80128 42.7566 10.0073 42.7911C10.1896 42.8348 10.3615 42.9141 10.513 43.0245C10.663 43.139 10.7858 43.2851 10.8729 43.4524C10.9709 43.6377 11.0367 43.8383 11.0674 44.0457C11.1127 44.2638 11.1127 44.4889 11.0674 44.707C11.0233 44.8899 10.9366 45.0598 10.8145 45.203C10.6956 45.3474 10.5461 45.4637 10.3769 45.5434C10.206 45.6288 10.0218 45.6847 9.83227 45.7087L8.93754 45.8351C8.75065 45.8643 8.56037 45.8643 8.37348 45.8351C8.19162 45.8005 8.01922 45.7276 7.86776 45.6212C7.70763 45.5177 7.57431 45.3777 7.47875 45.2127C7.34956 45.0238 7.2663 44.8073 7.23562 44.5806ZM8.01364 44.4833C8.02056 44.5767 8.05064 44.667 8.10117 44.7459C8.14341 44.8125 8.19987 44.869 8.2665 44.9112C8.32914 44.9582 8.40281 44.9884 8.48045 44.9987C8.55758 45.0132 8.63673 45.0132 8.71386 44.9987L9.68639 44.8626C9.76717 44.8466 9.8456 44.8205 9.91979 44.7848C9.99101 44.7542 10.0542 44.7076 10.1046 44.6486C10.1548 44.5841 10.1942 44.5118 10.2213 44.4347C10.2413 44.3417 10.2413 44.2456 10.2213 44.1526C10.2165 44.0647 10.1922 43.9789 10.1501 43.9015C10.1081 43.8242 10.0493 43.7571 9.97814 43.7053C9.83742 43.6135 9.66704 43.5787 9.50161 43.608L8.53881 43.7636C8.37895 43.7896 8.23387 43.8725 8.13034 43.997C8.07724 44.065 8.03934 44.1436 8.01921 44.2275C7.99907 44.3114 7.99718 44.3986 8.01364 44.4833Z" fill="#004D43"/>
<path d="M8.45126 35.4681C8.61675 35.4762 8.77744 35.5264 8.91808 35.614C9.0543 35.6934 9.17332 35.7992 9.26819 35.9252C9.36313 36.0569 9.43242 36.2054 9.47242 36.3628C9.50217 36.5366 9.50217 36.7142 9.47242 36.888L9.40434 37.6271L10.7853 37.7535L10.7075 38.5899L6.91467 38.2495L7.06055 36.6837C7.07218 36.4985 7.11836 36.3171 7.19671 36.1489C7.25962 35.9965 7.35601 35.8602 7.47874 35.7501C7.59589 35.643 7.73541 35.5632 7.8872 35.5167C8.06803 35.4528 8.26217 35.4361 8.45126 35.4681ZM8.35401 36.3142C8.29135 36.3028 8.22687 36.3065 8.16595 36.3251C8.10504 36.3437 8.04947 36.3767 8.0039 36.4212C7.95635 36.47 7.91896 36.5279 7.89392 36.5913C7.86888 36.6548 7.85668 36.7225 7.85802 36.7907L7.79967 37.4715L8.6944 37.559L8.75275 36.8588C8.7656 36.7293 8.73479 36.5992 8.66522 36.4892C8.62948 36.4389 8.58305 36.3971 8.52924 36.3668C8.47543 36.3366 8.41559 36.3186 8.35401 36.3142Z" fill="#004D43"/>
<path d="M11.8162 32.0155L8.20813 30.7804L8.48044 29.9829L10.7367 30.761L10.7464 30.7415L9.84197 29.6037L8.99588 28.4755L9.21956 27.8142L12.8276 29.0493L12.5553 29.8468L10.3769 29.0979L10.3671 29.1174L11.0382 29.9343L12.0593 31.3056L11.8162 32.0155Z" fill="#004D43"/>
<path d="M12.954 20.9287L16.1537 22.9905L15.6966 23.7004L14.4128 22.864L14.1989 23.1947C14.1649 23.2492 14.1388 23.3081 14.1211 23.3698C14.1061 23.4337 14.1061 23.5003 14.1211 23.5643C14.137 23.645 14.1632 23.7235 14.1989 23.7977C14.2586 23.892 14.3235 23.9829 14.3934 24.07L15.0158 24.7799L14.5393 25.5288L13.8001 24.7118C13.7091 24.6101 13.6337 24.4954 13.5765 24.3715C13.5274 24.2364 13.5274 24.0883 13.5765 23.9533C13.4944 24.0266 13.3985 24.0828 13.2944 24.1186C13.1949 24.1383 13.0925 24.1383 12.9929 24.1186C12.8874 24.1174 12.7826 24.101 12.6817 24.07C12.5808 24.0292 12.4832 23.9804 12.39 23.9241C12.2486 23.8391 12.1288 23.7226 12.0399 23.5837C11.9584 23.4562 11.9023 23.3142 11.8745 23.1655C11.8454 23.0178 11.8454 22.8659 11.8745 22.7182C11.9168 22.5602 11.9823 22.4094 12.069 22.2708L12.954 20.9287ZM12.8665 23.2433C12.9146 23.2735 12.9702 23.2896 13.027 23.2896C13.0838 23.2896 13.1394 23.2735 13.1875 23.2433C13.2989 23.1759 13.3923 23.0824 13.4598 22.971L13.8001 22.4361L13.1291 22.0082L12.779 22.5626C12.6998 22.6655 12.6586 22.7926 12.6623 22.9224C12.666 22.9889 12.6867 23.0533 12.7225 23.1095C12.7583 23.1657 12.8079 23.2118 12.8665 23.2433Z" fill="#004D43"/>
<path d="M22.3681 16.5913L20.2285 13.45L22.3681 12.0302L22.7863 12.6526L21.3955 13.6154L21.7943 14.1989L22.4362 13.7612C22.5949 13.6489 22.7729 13.5665 22.9613 13.5181C23.1222 13.49 23.2867 13.49 23.4476 13.5181C23.5946 13.5412 23.7343 13.5978 23.856 13.6834C23.9811 13.7593 24.0875 13.8623 24.1672 13.9849C24.2739 14.1203 24.3479 14.2786 24.3833 14.4473C24.4187 14.616 24.4147 14.7906 24.3715 14.9575C24.2777 15.3001 24.0545 15.593 23.7491 15.7744L22.3681 16.5913ZM23.4281 14.442C23.3684 14.3543 23.2783 14.292 23.1753 14.267C23.0355 14.2552 22.8965 14.297 22.7863 14.3837L22.1638 14.8019L22.6404 15.4923L23.3406 15.0742C23.4013 15.0406 23.4543 14.9948 23.4962 14.9395C23.5381 14.8842 23.5679 14.8207 23.5837 14.7532C23.5847 14.6955 23.5741 14.6382 23.5523 14.5847C23.5306 14.5312 23.4983 14.4827 23.4573 14.442H23.4281Z" fill="#004D43"/>
<path d="M28.2032 12.5455L28.4853 12.4386C28.5484 12.4125 28.6024 12.3685 28.6409 12.3121C28.6684 12.2575 28.6849 12.1981 28.6895 12.1371V12.0593L26.5694 9.72522L27.4252 9.39456L28.106 10.2309L28.7187 10.9798L28.6506 10.0072L28.5923 8.95692L29.4286 8.63599L29.487 11.5536C29.487 11.7675 29.487 11.962 29.487 12.1176C29.4818 12.2578 29.4522 12.3961 29.3994 12.5261C29.3616 12.6389 29.2945 12.7396 29.2049 12.8178C29.1075 12.9023 28.9954 12.9682 28.8743 13.0124L28.5047 13.1582L28.2032 12.5455Z" fill="#004D43"/>
<path d="M37.2088 10.8632L36.9852 9.06399H36.9657L36.7226 9.87119L36.5378 10.4353L35.8959 10.5228L35.5556 9.99762L35.1276 9.2974L35.1179 9.31685L35.3416 11.1063L34.5052 11.2133L34.0287 7.43015L34.7873 7.3329L35.4388 8.36378L36.071 9.44328L36.0904 9.43355L36.4211 8.23735L36.7809 7.08004L37.5687 6.98279L38.0452 10.7562L37.2088 10.8632Z" fill="#004D43"/>
<path d="M44.425 11.0673L44.2402 10.2601L42.9662 10.1142L42.5967 10.8534L41.7117 10.7464L43.6567 7.13831L44.3083 7.21611L45.3295 11.1743L44.425 11.0673ZM43.9679 9.07363L43.8415 8.29561L43.54 9.00556L43.3455 9.43347L44.0944 9.52099L43.9679 9.07363Z" fill="#004D43"/>
<path d="M50.795 9.54044L49.7447 12.4094L48.957 12.1176L50.2602 8.54846L52.7887 9.47236L52.5359 10.1726L50.795 9.54044Z" fill="#004D43"/>
<path d="M56.2996 15.6869L56.4746 14.8797L55.434 14.1989L54.7824 14.7046L54.0336 14.2378L57.311 11.7968L57.8653 12.1469L57.097 16.1537L56.2996 15.6869ZM56.7372 13.7418L56.9511 12.9735L56.3676 13.4889L56.0078 13.7904L56.6497 14.1892L56.7372 13.7418Z" fill="#004D43"/>
<path d="M68.2227 22.6988L65.6844 24.4201L65.9081 24.7411L64.5563 25.6552L64.1673 25.0815L64.8967 24.5855L63.5157 22.5529L62.7863 23.0489L62.3876 22.4654L63.7005 21.5706L64.002 21.8721C64.086 21.8817 64.1708 21.8817 64.2548 21.8721C64.3483 21.8686 64.4404 21.8488 64.5271 21.8138C64.6526 21.7716 64.7733 21.7162 64.887 21.6484C65.0231 21.5804 65.1982 21.4831 65.4024 21.3567L66.7639 20.53L68.2227 22.6988ZM67.1043 22.4459L66.5208 21.5804L65.7622 22.0374L65.4413 22.2222C65.3508 22.2773 65.2565 22.326 65.1593 22.3681C65.0495 22.4249 64.9357 22.4736 64.8189 22.514C64.716 22.5514 64.6075 22.5711 64.498 22.5723L65.2565 23.6907L67.1043 22.4459Z" fill="#004D43"/>
<path d="M71.5876 30.1483L68.0087 31.4126L67.7267 30.6248L70.5859 29.5939L70.2844 28.7576L69.4286 29.0688C69.1679 29.1631 68.9016 29.2411 68.6311 29.3022C68.4007 29.3685 68.1594 29.3883 67.9212 29.3605C67.7055 29.347 67.4989 29.2691 67.328 29.1368C67.1254 28.9797 66.9733 28.7667 66.8903 28.5242L67.4933 28.2032C67.5616 28.3307 67.6622 28.438 67.785 28.5144C67.8924 28.5729 68.0129 28.603 68.1352 28.602C68.2832 28.6053 68.4308 28.5856 68.5728 28.5436L69.1174 28.3686L70.7415 27.785L71.5876 30.1483Z" fill="#004D43"/>
<path d="M73.0172 37.8702L69.2341 38.2786L69.1466 37.4325L70.6735 37.2769V36.8976C70.68 36.833 70.68 36.7678 70.6735 36.7031C70.6434 36.6452 70.604 36.5926 70.5568 36.5475C70.4957 36.49 70.4226 36.4468 70.3428 36.4211C70.2401 36.376 70.1323 36.3434 70.0219 36.3239L69.0493 36.1585L68.9521 35.2735L70.0316 35.4486C70.1656 35.476 70.2961 35.5184 70.4206 35.575C70.5494 35.6409 70.6497 35.7516 70.7026 35.8862C70.7211 35.779 70.7607 35.6764 70.8193 35.5847C70.8744 35.4992 70.9434 35.4236 71.0236 35.3611C71.1083 35.2939 71.2036 35.2413 71.3056 35.2054C71.4068 35.1725 71.5111 35.1497 71.6168 35.1374C71.7802 35.1018 71.9494 35.1018 72.1128 35.1374C72.2554 35.1867 72.3874 35.2626 72.5018 35.3611C72.6137 35.4629 72.7003 35.5894 72.7547 35.7306C72.8271 35.8729 72.8701 36.0284 72.8811 36.1877L73.0172 37.8702ZM71.6363 35.9835C71.5784 35.9812 71.5212 35.9967 71.4725 36.028C71.4238 36.0594 71.3859 36.1049 71.3639 36.1585C71.3326 36.2863 71.3326 36.4198 71.3639 36.5475L71.432 37.17L72.2198 37.0824L72.1517 36.4308C72.1521 36.3657 72.1394 36.3011 72.1143 36.241C72.0892 36.1808 72.0524 36.1263 72.0058 36.0807C71.9589 36.0324 71.8997 35.9978 71.8346 35.9806C71.7695 35.9635 71.7009 35.9645 71.6363 35.9835Z" fill="#004D43"/>
<path d="M71.6557 49.5988C71.5963 49.8041 71.4972 49.9958 71.364 50.1629C71.2488 50.3133 71.102 50.4365 70.9339 50.5239C70.7659 50.6113 70.5807 50.6607 70.3914 50.6686C70.188 50.684 69.9834 50.6609 69.7885 50.6005L68.9326 50.338C68.7333 50.2758 68.5459 50.1804 68.3783 50.0559C68.2275 49.9424 68.1044 49.7961 68.0185 49.628C67.9306 49.4622 67.8776 49.2802 67.8629 49.0931C67.8557 48.8821 67.8853 48.6715 67.9504 48.4707C68.0068 48.2564 68.1097 48.0572 68.2519 47.8872C68.3738 47.7418 68.5266 47.6255 68.6992 47.5468C68.8673 47.4695 69.0492 47.4265 69.2341 47.4204C69.425 47.4175 69.6152 47.4437 69.7982 47.4982L70.654 47.7608C70.8381 47.8172 71.0121 47.9026 71.1695 48.0136C71.3214 48.1167 71.4478 48.2531 71.539 48.4124C71.6379 48.5755 71.7009 48.7578 71.7238 48.9473C71.7423 49.1668 71.7192 49.3879 71.6557 49.5988ZM70.9069 49.3654C70.925 49.2723 70.925 49.1765 70.9069 49.0834C70.8957 49.0045 70.8693 48.9285 70.8291 48.8597C70.7876 48.7957 70.7349 48.7397 70.6735 48.6944C70.6096 48.6512 70.5411 48.6153 70.4692 48.5874L69.4967 48.2859C69.4159 48.2764 69.3343 48.2764 69.2536 48.2859C69.1765 48.287 69.1004 48.3035 69.0299 48.3346C68.9533 48.3652 68.8862 48.4155 68.8354 48.4804C68.7713 48.5495 68.7247 48.6329 68.6992 48.7236C68.662 48.8027 68.6427 48.889 68.6427 48.9764C68.6427 49.0639 68.662 49.1502 68.6992 49.2293C68.7868 49.3748 68.9255 49.4823 69.0883 49.5308L70.0608 49.8323C70.211 49.8899 70.3773 49.8899 70.5276 49.8323C70.6213 49.7979 70.705 49.7408 70.7712 49.6661C70.8374 49.5914 70.884 49.5015 70.9069 49.4043V49.3654Z" fill="#004D43"/>
<path d="M65.7331 57.7292C65.554 57.6224 65.3958 57.484 65.2662 57.3207C65.1371 57.1706 65.041 56.995 64.9842 56.8053C64.9449 56.6128 64.9449 56.4143 64.9842 56.2218C65.0209 56.0026 65.0967 55.7918 65.2079 55.5993L64.8578 55.434L65.2662 54.763L65.5677 54.938C65.6996 54.7483 65.8643 54.5837 66.054 54.4518C66.2156 54.3403 66.3972 54.261 66.5889 54.2184C66.7716 54.1795 66.9605 54.1795 67.1432 54.2184C67.3376 54.271 67.5241 54.3495 67.6976 54.4518C67.8751 54.5606 68.0357 54.6949 68.1741 54.8505C68.3058 54.9967 68.4052 55.169 68.4659 55.3562C68.5246 55.5448 68.5445 55.7433 68.5242 55.9397C68.4961 56.1657 68.4233 56.3839 68.3103 56.5816L68.5242 56.708L68.0768 57.3791L67.8629 57.2429C67.737 57.4429 67.5715 57.615 67.3766 57.7486C67.2177 57.8668 67.0353 57.9497 66.8417 57.9918C66.6552 58.0255 66.4642 58.0255 66.2777 57.9918C66.0848 57.9301 65.9014 57.8417 65.7331 57.7292ZM65.7331 55.9397C65.6713 56.0538 65.6348 56.1799 65.6261 56.3093C65.5996 56.4047 65.5996 56.5056 65.6261 56.601C65.677 56.6895 65.7428 56.7684 65.8206 56.8345L66.1123 57.0387C66.2025 57.0916 66.2969 57.1371 66.3944 57.1748C66.4929 57.2168 66.5985 57.2399 66.7056 57.2429C66.8131 57.2438 66.9194 57.2205 67.0168 57.1748C67.1311 57.112 67.228 57.0218 67.2988 56.9123L65.7331 55.9397ZM67.7365 56.2412C67.7815 56.1454 67.8049 56.0408 67.8049 55.9349C67.8049 55.829 67.7815 55.7244 67.7365 55.6285C67.6298 55.4273 67.4633 55.2642 67.2599 55.1617C67.1579 55.1001 67.0505 55.048 66.939 55.0061C66.8435 54.9673 66.7404 54.9506 66.6375 54.9575C66.541 54.9558 66.4462 54.9829 66.3652 55.0353C66.2642 55.0965 66.1753 55.1756 66.1026 55.2687L67.7365 56.2412Z" fill="#004D43"/>
<path d="M61.5803 59.8007L64.2451 62.5237L63.6421 63.117L61.9693 61.4151L61.9596 61.4248L62.2514 62.8447L62.4945 64.2354L61.9985 64.7216L59.3338 61.9986L59.9368 61.4053L61.5512 63.0586L61.5609 63.0392L61.3275 62.0083L61.0454 60.3258L61.5803 59.8007Z" fill="#004D43"/>
<path d="M54.1794 66.6764C54.1023 66.3877 54.1298 66.0811 54.2572 65.8108C54.3978 65.5245 54.6215 65.2872 54.8991 65.13C55.088 65.0147 55.2952 64.9325 55.5118 64.8869C55.6945 64.8478 55.8834 64.8478 56.0661 64.8869C56.2416 64.9449 56.4036 65.0375 56.5427 65.1592C56.6964 65.2905 56.8249 65.4487 56.9219 65.626L57.3888 66.3943C57.4851 66.5605 57.5541 66.7411 57.593 66.9292C57.6367 67.1081 57.6367 67.2949 57.593 67.4738C57.558 67.6602 57.4816 67.8364 57.3693 67.9893C57.2336 68.163 57.0651 68.3084 56.8733 68.4172C56.6182 68.5945 56.311 68.6813 56.0007 68.6637C55.6905 68.646 55.3951 68.525 55.1617 68.3199L55.7063 67.6586C55.7944 67.7584 55.915 67.8239 56.0467 67.8434C56.1977 67.8631 56.3506 67.8248 56.4746 67.7364C56.562 67.6964 56.6362 67.6323 56.6885 67.5516C56.7356 67.489 56.7657 67.4153 56.7761 67.3377C56.7954 67.2611 56.7954 67.1809 56.7761 67.1043C56.7571 67.0292 56.7276 66.9572 56.6885 66.8903L56.1634 66.0053C56.1194 65.9375 56.0671 65.8754 56.0078 65.8205C55.9488 65.7675 55.8792 65.7277 55.8035 65.7038C55.7189 65.6811 55.6307 65.6754 55.5438 65.6871C55.457 65.6988 55.3734 65.7276 55.2978 65.7719C55.1641 65.8409 55.0628 65.9596 55.0158 66.1026C54.9672 66.231 54.9672 66.3728 55.0158 66.5013L54.1794 66.6764Z" fill="#004D43"/>
<path d="M47.9261 68.1741L48.4318 68.8256L49.6474 68.4464V67.6197L50.4935 67.3474L50.2212 71.432L49.5891 71.6265L47.0411 68.4366L47.9261 68.1741ZM49.1612 69.7982L49.5988 70.4498V69.2049L48.8792 69.4286L49.1612 69.7982Z" fill="#004D43"/>
<path d="M39.2511 47.3814C39.2277 47.3172 39.1855 47.2615 39.13 47.2216C39.0745 47.1817 39.0083 47.1595 38.9399 47.1577C38.8656 47.1543 38.792 47.1739 38.7293 47.2139C38.6666 47.254 38.6179 47.3125 38.5898 47.3814C38.5504 47.4875 38.5274 47.599 38.5217 47.7121V48.5485C38.5284 48.6582 38.5513 48.7664 38.5898 48.8694C38.6186 48.9323 38.6653 48.9853 38.7242 49.0216C38.783 49.0579 38.8513 49.076 38.9205 49.0736C38.9912 49.0781 39.0616 49.0598 39.1211 49.0212C39.1807 48.9827 39.2262 48.9261 39.2511 48.8597C39.2938 48.7579 39.3169 48.649 39.3192 48.5387C39.3192 48.4026 39.3192 48.2372 39.3192 48.0427C39.3192 47.8482 39.3192 47.7704 39.3192 47.6635C39.3139 47.5661 39.2909 47.4705 39.2511 47.3814Z" fill="#004D43"/>
<path d="M20.141 40.9531H19.4505V42.3827H20.1507C20.2455 42.3886 20.3405 42.3743 20.4293 42.3408C20.5182 42.3073 20.5989 42.2553 20.6662 42.1882C20.7811 42.0342 20.8395 41.8453 20.8315 41.6533C20.8437 41.5545 20.8334 41.4542 20.8014 41.3599C20.7694 41.2656 20.7165 41.1797 20.6467 41.1087C20.5036 40.9954 20.3231 40.9398 20.141 40.9531Z" fill="#004D43"/>
<path d="M40 16.4357C35.3394 16.4376 30.7841 17.8215 26.91 20.4124C23.036 23.0033 20.0172 26.6847 18.2355 30.9913C16.4537 35.2978 15.989 40.036 16.9001 44.6067C17.8112 49.1773 20.0573 53.3752 23.3541 56.6693C26.651 59.9635 30.8507 62.206 35.4221 63.1134C39.9935 64.0207 44.7313 63.5521 49.0364 61.7668C53.3415 59.9815 57.0205 56.9597 59.6082 53.0835C62.1958 49.2073 63.576 44.6508 63.5741 39.9902C63.5663 33.7422 61.0795 27.7525 56.6597 23.3363C52.2398 18.9201 46.2481 16.4382 40 16.4357ZM31.4418 37.5395H32.6964V39.9319H34.0384V37.5395H35.2736V43.54H34.0384V41.0698H32.6769V43.54H31.4418V37.5395ZM21.9402 42.4605C21.8609 42.6875 21.7312 42.8936 21.5609 43.0634C21.3914 43.2225 21.1888 43.342 20.9677 43.4135C20.718 43.5018 20.4545 43.5446 20.1897 43.54H18.196V37.5395H21.5609V38.6968H19.4505V39.786H20.2091C20.4906 39.7812 20.7707 39.8273 21.0358 39.9222C21.2533 40.009 21.4516 40.1379 21.6193 40.3015C21.7731 40.4694 21.8892 40.6684 21.9597 40.885C22.0386 41.1233 22.078 41.373 22.0764 41.6241C22.0811 41.9088 22.035 42.192 21.9402 42.4605ZM26.4625 40.2237C26.3784 40.4484 26.2494 40.6536 26.0832 40.8266C25.9207 40.9966 25.7209 41.1264 25.4997 41.2059C25.2531 41.3074 24.9882 41.357 24.7216 41.3518H24.002V43.54H22.7474V37.5395H24.6925C24.9587 37.539 25.2237 37.575 25.4802 37.6465C25.7043 37.7179 25.9101 37.8373 26.0832 37.9966C26.2614 38.1597 26.3981 38.3631 26.4819 38.5898C26.5857 38.8595 26.6353 39.147 26.6278 39.4359C26.6144 39.7056 26.5586 39.9714 26.4625 40.2237ZM30.7124 38.6968H28.4756V39.9319H30.4206V41.0795H28.4756V42.3535H30.7124V43.54H27.2308V37.5395H30.7221L30.7124 38.6968ZM36.6156 54.8991H35.011L33.7953 52.3802L33.2799 51.2813C33.0951 50.902 32.92 50.5227 32.7255 50.1531V54.8894H30.8486V46.0588H32.4727L33.737 48.7041C33.9023 49.0542 34.0676 49.4043 34.2427 49.7447C34.4177 50.0851 34.5831 50.4255 34.7484 50.7853H34.797V46.0588H36.6156V54.8991ZM40.5057 51.7384H37.2964V50.6686H40.5057V51.7384ZM40.5835 48.8889C40.5561 49.0864 40.4935 49.2774 40.3988 49.4529C40.258 49.7245 40.0327 49.943 39.7569 50.0753C39.4674 50.1958 39.1562 50.2554 38.8427 50.2504C38.5802 50.2556 38.3192 50.2093 38.0744 50.1142C37.8727 50.0246 37.6909 49.8956 37.5395 49.735C37.3895 49.5407 37.2863 49.3143 37.2381 49.0736C37.1823 48.7525 37.1563 48.427 37.1602 48.1011C37.1602 47.8677 37.1602 47.644 37.1602 47.4106C37.1755 47.2166 37.2214 47.0262 37.2964 46.8466C37.4176 46.5728 37.6263 46.3471 37.8896 46.2047C38.1892 46.0467 38.5236 45.9665 38.8622 45.9713C39.2012 45.9493 39.5393 46.0271 39.8347 46.195C40.0634 46.3365 40.2485 46.5384 40.3696 46.7785C40.4466 46.9681 40.4957 47.168 40.5155 47.3717C40.531 47.6146 40.531 47.8582 40.5155 48.1011C40.5687 48.361 40.6044 48.6242 40.6224 48.8889H40.5835ZM41.0309 44.7945H40.0292V43.54H36.956V44.7945H35.9835V42.4799L36.4989 42.3729C36.616 42.2525 36.7085 42.1105 36.7712 41.9548C36.8417 41.7857 36.8939 41.6097 36.9268 41.4296C36.9665 41.2145 36.9893 40.9966 36.9949 40.778C36.9949 40.5349 36.9949 40.2626 36.9949 39.9611L37.1116 37.5395H40.5446V42.4021H41.0795L41.0309 44.7945ZM50.5811 57.0289H43.3455V29.3119L38.2592 33.0659V25.1592L44.0944 20.8996H50.6395L50.5811 57.0289ZM55.0936 25.7038L54.4615 26.2582L53.9071 25.2857L53.3528 26.1804L52.6623 25.6747L53.3528 24.8772L52.3803 24.6243L52.6429 23.8366L53.6154 24.2256L53.489 23.2045H54.3545L54.2573 24.2548L55.2298 23.8658L55.5021 24.6535L54.5296 24.9064L55.0936 25.7038Z" fill="#004D43"/>
<path d="M38.1036 40.2334V40.8267C38.1036 41.0406 38.1036 41.2351 38.1036 41.4296C38.1036 41.6241 38.0453 41.7992 38.0064 41.9742C37.9652 42.1233 37.9065 42.267 37.8313 42.4021H39.3873V38.7065H38.1717L38.1036 40.2334Z" fill="#004D43"/>
<path d="M24.6535 38.6969H24.002V40.1848H24.6633C24.8413 40.1878 25.0142 40.1255 25.1495 40.0098C25.2285 39.9341 25.2889 39.8411 25.326 39.7382C25.3631 39.6353 25.3759 39.5252 25.3635 39.4165C25.3738 39.3155 25.3618 39.2135 25.3281 39.1176C25.2945 39.0218 25.2402 38.9346 25.169 38.8622C25.0252 38.7421 24.8403 38.6828 24.6535 38.6969Z" fill="#004D43"/>
</g>
</g>
<defs>
<clipPath id="clip0_1_2754">
<rect width="80" height="80" fill="white"/>
</clipPath>
<clipPath id="clip1_1_2754">
<rect width="80" height="80" fill="white"/>
</clipPath>
</defs>
</svg>
