<svg width="80" height="80" viewBox="0 0 80 80" fill="none" xmlns="http://www.w3.org/2000/svg">
<g id="icon" clip-path="url(#clip0_1_2849)">
<g id="Vector">
<path d="M0 46.5543L2.81143 45.9371C2.98692 45.8876 3.1491 45.7994 3.2861 45.679C3.4231 45.5587 3.53145 45.4092 3.60321 45.2416C3.67498 45.074 3.70835 44.8924 3.70087 44.7102C3.69339 44.528 3.64526 44.3498 3.56 44.1886C3.05714 43.4057 2.52571 42.6286 2.04 41.9029L7.25143 36.76L9.34857 38.1486C9.51392 38.2782 9.71055 38.3619 9.91859 38.3913C10.1266 38.4206 10.3388 38.3946 10.5335 38.3157C10.7283 38.2369 10.8988 38.1081 11.0278 37.9423C11.1569 37.7765 11.2399 37.5796 11.2686 37.3714C11.4171 36.6343 11.5429 35.8857 11.7429 35.16C11.7882 35.0467 11.8602 34.9461 11.9527 34.8665C12.0452 34.7869 12.1555 34.7308 12.2743 34.7029C14.5143 34.7029 16.7486 34.7029 19.0514 34.7029C19.2514 35.6629 19.4343 36.6 19.6229 37.56C19.6726 37.7312 19.7598 37.8892 19.8782 38.0225C19.9966 38.1557 20.1433 38.2609 20.3075 38.3304C20.4716 38.3999 20.6492 38.432 20.8273 38.4243C21.0055 38.4165 21.1796 38.3692 21.3371 38.2857C22.1257 37.7829 22.8971 37.2571 23.6229 36.7943L28 41.1029L26.1886 42.7143L23.5829 39.8571C22.8171 40.3714 22.2343 40.8114 21.5943 41.1543C21.2941 41.2903 20.9543 41.3106 20.64 41.2114C19.7371 40.8971 18.8457 40.52 17.9771 40.12C17.7162 39.9958 17.512 39.7773 17.4057 39.5086C17.2286 38.9371 17.1943 38.3314 17.0114 37.7943C16.9607 37.6738 16.8826 37.5667 16.7835 37.4814C16.6843 37.3961 16.5668 37.335 16.44 37.3029C15.7653 37.24 15.0862 37.24 14.4114 37.3029C14.1943 37.3029 13.84 37.6286 13.84 37.8057C13.84 39.52 12.9086 40.1829 11.3771 40.8057C10.0229 41.3771 9.09143 41.3771 8.08 40.4229C7.87656 40.2618 7.65846 40.1203 7.42857 40L5.30857 42.1543C5.69714 42.7257 6.14286 43.2971 6.48571 43.9657C6.62171 44.2659 6.64206 44.6057 6.54286 44.92C6.23429 45.8 5.80571 46.6343 5.50286 47.52C5.46944 47.6939 5.3797 47.8519 5.24749 47.9696C5.11529 48.0874 4.94798 48.1583 4.77143 48.1714C4.05143 48.2857 3.34857 48.4629 2.57143 48.6286C2.57143 49.5086 2.57143 50.3429 2.57143 51.2171C2.57143 51.3943 2.84 51.7029 2.98857 51.7029C4.76571 51.7029 5.77143 52.5943 6.06286 54.3429C6.15034 54.6184 6.26921 54.883 6.41714 55.1314L4.24571 56.3543C4.14299 56.2265 4.06015 56.0839 4 55.9314C3.70286 54.56 2.73714 54.1314 1.47429 54.04C0.976507 53.9756 0.483866 53.8763 0 53.7429V46.5543Z" fill="#004D43"/>
<path d="M24.4286 24.3829H21.9257V16.7086H25.6114C26.4171 14.5086 26.9771 12.3771 27.9486 10.4514C29.0667 8.19163 30.6317 6.18223 32.549 4.54489C34.4663 2.90754 36.6959 1.6763 39.1029 0.925714C39.5543 0.771429 40.04 0.691429 39.8857 0H50.0857L49.9714 0.188571C50.23 0.460933 50.5287 0.692174 50.8571 0.874286C58.0952 3.43429 62.4762 8.47238 64 15.9886C64.1143 16.56 64.2914 16.72 64.84 16.6971C65.9029 16.6571 66.9714 16.6971 68.0971 16.6971V24.3486H65.6C65.8229 24.7543 65.9886 25.0343 66.1714 25.3257C66.6248 26.1937 66.8709 27.1549 66.8907 28.1339C66.9105 29.1129 66.7033 30.0833 66.2855 30.9688C65.8676 31.8544 65.2503 32.6313 64.482 33.2384C63.7138 33.8456 62.8153 34.2666 61.8571 34.4686C61.6432 34.4913 61.4414 34.5791 61.2789 34.7201C61.1165 34.8611 61.0012 35.0485 60.9486 35.2571C60.2361 37.3897 59.0163 39.3173 57.3943 40.8743C55.8914 42.3886 54.3714 43.8914 52.8629 45.4057C52.253 46.0682 51.5141 46.599 50.6916 46.9656C49.8692 47.3321 48.9804 47.5266 48.08 47.5371C46.0514 47.5371 44.0171 47.5371 41.9886 47.5371C41.1647 47.5424 40.3479 47.3839 39.5858 47.071C38.8236 46.7581 38.1311 46.2969 37.5486 45.7143C35.72 43.9314 33.92 42.1219 32.1486 40.2857C30.7602 38.8291 29.7054 37.0879 29.0571 35.1829C28.9941 35.0299 28.8986 34.8924 28.7773 34.7799C28.6559 34.6674 28.5116 34.5827 28.3543 34.5314C23.8571 33.4971 21.8171 28.8171 24.1886 24.8457C24.2514 24.7429 24.3029 24.6286 24.4286 24.3829ZM30.9543 24.4229C30.9263 24.5836 30.9072 24.7457 30.8971 24.9086C30.8971 26.9143 30.8971 28.9086 30.8971 30.9257C30.9014 33.7443 31.9971 36.4517 33.9543 38.48C35.6686 40.3143 37.4971 42.08 39.2914 43.8571C39.6725 44.2345 40.1264 44.5305 40.6254 44.7269C41.1244 44.9234 41.6582 45.0163 42.1943 45C44.0686 45 45.9429 45 47.8171 45C48.3945 45.0134 48.9683 44.9059 49.5016 44.6845C50.035 44.4631 50.5162 44.1326 50.9143 43.7143C52.5314 42.0914 54.16 40.48 55.7714 38.8514C57.5835 37.1635 58.7326 34.8835 59.0114 32.4229C59.2343 29.8114 59.1314 27.1771 59.1714 24.5486C59.1714 24.5086 59.1086 24.4686 59.0743 24.4229H30.9543ZM47.6114 14.0457V2.56H42.4686V14.04H39.8857V3.45714C34.2514 4.88 29.0571 11.08 28.6229 16.6457H61.4857C60.8686 10.4971 55.2286 4.6 50.1543 3.50286V14.0457H47.6114ZM65.5943 19.2686H24.4971V21.7829H65.5943V19.2686ZM61.7714 31.84C62.55 31.5714 63.2204 31.0574 63.682 30.3753C64.1436 29.6932 64.3715 28.8798 64.3314 28.0571C64.3035 27.3108 64.0411 26.5922 63.5815 26.0034C63.122 25.4146 62.4887 24.9856 61.7714 24.7771V31.84ZM28.3029 24.72C27.4696 24.9871 26.7585 25.5419 26.2968 26.2852C25.8351 27.0285 25.6529 27.9118 25.7829 28.7771C25.9429 30.2057 27.1314 31.5943 28.3029 31.7086V24.72Z" fill="#004D43"/>
<path d="M54.0571 46.2857H56.4857C56.5314 46.3657 56.5714 46.4057 56.5771 46.4514C56.6914 47.9371 56.6914 47.9314 58.1029 48.4114C61.7429 49.6514 65.4457 50.7371 68.9943 52.1943C70.9628 52.9609 72.7096 54.2054 74.0772 55.8154C75.4449 57.4255 76.3904 59.3506 76.8286 61.4171C77.7314 65.2857 78.2457 69.2457 78.92 73.1657C79.2857 75.3143 79.6343 77.4629 80 79.6629H10.0743L12.0286 67.9371L14.5543 68.3486L13.1086 77.1429H22.0229C22.2857 75.0476 22.5486 72.9524 22.8114 70.8571C22.88 70.2857 22.9714 69.7771 23 69.2286C23.0629 68.0857 23.2857 67.1429 24.4857 66.52C25.4629 66.0171 25.6971 64.8857 25.7486 63.8057C25.7486 63.5771 25.7486 63.3428 25.7486 63.0514H28.2514C28.3981 64.0685 28.2865 65.1061 27.927 66.0687C27.5675 67.0313 26.9717 67.888 26.1943 68.56C25.8831 68.8421 25.6708 69.2167 25.5886 69.6286C25.24 72.0971 24.9429 74.5714 24.6229 77.1143H43.6971V73.3086H28.3429V70.7486H43.7086C43.7657 69.56 43.8171 68.52 43.2343 67.4514C40.1771 61.8343 37.24 56.1486 34.1486 50.5486C33.3829 49.1429 33.4514 47.7829 33.4857 46.2857H35.9486C35.9958 46.4062 36.0228 46.5336 36.0286 46.6629C35.8229 48.0857 36.4057 49.2743 37.0629 50.4857C39.5886 55.1486 42.0686 59.84 44.5657 64.52C44.6971 64.7657 44.8457 65.0057 45.0343 65.3314C45.2114 65.0229 45.3543 64.7943 45.4857 64.5543C48.1314 59.6 50.76 54.6343 53.4343 49.6971C53.9054 48.9177 54.123 48.0112 54.0571 47.1029C54.0343 46.8571 54.0571 46.6057 54.0571 46.2857ZM65.4457 77.1429C65.1143 74.4914 64.8 71.8914 64.4629 69.2914C64.4128 69.065 64.2855 68.863 64.1029 68.72C63.3136 68.0951 62.6873 67.2885 62.2774 66.3691C61.8674 65.4497 61.686 64.4447 61.7486 63.44C61.7486 59.9771 61.7486 56.5143 61.7486 53.0514C61.7486 52.7771 61.5886 52.3257 61.3943 52.2514C59.6171 51.6114 57.8171 51.04 55.9829 50.4343C55.8343 50.7029 55.7029 50.92 55.5829 51.1486C52.6286 56.64 49.7143 62.16 46.7371 67.6457C46.1657 68.6514 46.3543 69.6286 46.3486 70.7429H61.7143V73.3028H46.3714V77.1429H65.4457ZM76.9257 77.1429C76.8971 76.8571 76.88 76.5714 76.84 76.3486C76.1714 72.3486 75.44 68.3086 74.8457 64.2686C73.8971 57.7886 69.92 54.6 64.3886 53.3429C64.3886 53.5771 64.3543 53.8057 64.3543 54.0343C64.3543 57.2343 64.3543 60.4343 64.3543 63.64C64.3074 64.3584 64.4752 65.0745 64.8364 65.6973C65.1976 66.32 65.7359 66.8212 66.3829 67.1371C66.5075 67.2116 66.6154 67.3109 66.6999 67.4288C66.7845 67.5468 66.8438 67.6809 66.8743 67.8229C67.2629 70.7371 67.6343 73.6514 67.9714 76.5714C68.0286 77.0743 68.2 77.2171 68.6914 77.2114C71.24 77.2114 73.7886 77.2114 76.3429 77.2114C76.5086 77.1429 76.6857 77.1428 76.9257 77.1029V77.1429Z" fill="#004D43"/>
<path d="M28.8686 58.3943L23.7257 63.5371C22.9943 63.0457 22.2229 62.5257 21.44 62.0114C21.2792 61.9147 21.098 61.8569 20.911 61.8426C20.7239 61.8282 20.536 61.8577 20.3624 61.9288C20.1887 61.9998 20.034 62.1104 19.9106 62.2517C19.7871 62.393 19.6984 62.5612 19.6514 62.7429C19.4857 63.48 19.3429 64.2171 19.2057 64.96C19.1314 65.3657 18.9943 65.5829 18.5086 65.5771C16.4743 65.5429 14.4457 65.5771 12.4171 65.5771C11.9714 65.5771 11.7657 65.4571 11.6971 65.0057C11.6057 64.3086 11.4229 63.6286 11.2857 62.9429C11.2634 62.7292 11.1845 62.5253 11.057 62.3524C10.9295 62.1795 10.7582 62.0437 10.5607 61.9592C10.3631 61.8748 10.1466 61.8446 9.93352 61.8718C9.72042 61.8991 9.51847 61.9828 9.34857 62.1143L7.19429 63.5429L2.89143 59.2629L4.60571 57.5029L7.19429 60.2629C7.42857 60.2229 7.48571 60.2286 7.52571 60.2C8.22286 59.7486 8.88571 59.0057 9.62286 58.9257C10.36 58.8457 11.0971 59.5886 11.88 59.7429C12.4057 59.7881 12.8926 60.038 13.2357 60.4389C13.5788 60.8397 13.7507 61.3593 13.7143 61.8857C13.7564 62.2436 13.829 62.5973 13.9314 62.9429H16.9486C17.1371 62.0743 17.08 61.0514 17.5543 60.4571C18.0286 59.8629 19.1029 59.8457 19.7943 59.3943C20.1808 59.0751 20.6773 58.9208 21.1766 58.9646C21.6759 59.0084 22.1379 59.2469 22.4629 59.6286C22.8022 59.8921 23.1613 60.129 23.5371 60.3371L25.0857 58.68L25.5943 58.1086C25.1771 57.4914 24.7886 56.8743 24.3657 56.2857C24.249 56.1541 24.1785 55.9879 24.1651 55.8125C24.1517 55.6371 24.1961 55.4621 24.2914 55.3143C24.7086 54.5071 25.0565 53.666 25.3314 52.8C25.3781 52.5895 25.492 52.3998 25.6559 52.2596C25.8197 52.1194 26.0248 52.0363 26.24 52.0229C26.9029 51.9143 27.56 51.7714 28.24 51.6343C28.24 51.4743 28.2914 51.3486 28.2914 51.2229C28.2914 50.3714 28.2914 49.5086 28.2914 48.6057C27.5029 48.4343 26.7371 48.3029 26.0057 48.0971C25.8821 48.055 25.768 47.9888 25.67 47.9026C25.5719 47.8163 25.4918 47.7115 25.4343 47.5943C25.1029 46.8057 24.8286 45.9943 24.4971 45.08L26.6571 43.8571C26.8615 44.1628 27.0266 44.4931 27.1486 44.84C27.3314 45.7029 27.9086 45.9543 28.6971 46.0629C29.4857 46.1714 30.3657 46.1714 30.7314 46.6343C31.0971 47.0971 30.8743 48.0229 30.88 48.7429C30.88 50.2 30.88 51.6571 30.88 53.1143C30.88 53.6057 30.7314 53.8229 30.2571 53.8914C29.64 53.9829 29.0286 54.12 28.4171 54.24C27.16 54.4857 26.8 55.3371 27.5029 56.3886L28.8686 58.3943Z" fill="#004D43"/>
<path d="M9.02857 50.1429C9.02971 48.8718 9.40795 47.6297 10.1154 46.5737C10.8229 45.5177 11.8277 44.6954 13.0028 44.2108C14.1778 43.7263 15.4702 43.6012 16.7164 43.8516C17.9625 44.1019 19.1064 44.7163 20.0032 45.6171C20.8999 46.5179 21.5093 47.6644 21.7541 48.9117C21.9988 50.159 21.868 51.4508 21.3782 52.6237C20.8884 53.7966 20.0616 54.7978 19.0025 55.5005C17.9434 56.2032 16.6996 56.5759 15.4286 56.5714C13.7286 56.5639 12.1008 55.8832 10.9013 54.6785C9.70193 53.4737 9.02855 51.8429 9.02857 50.1429ZM19.2743 50.24C19.2926 49.7298 19.2096 49.2211 19.0301 48.7432C18.8506 48.2654 18.5781 47.8278 18.2285 47.4558C17.8789 47.0839 17.459 46.7849 16.9931 46.5762C16.5272 46.3675 16.0246 46.2533 15.5143 46.24C14.5013 46.2347 13.5256 46.6222 12.7925 47.3213C12.0593 48.0204 11.6257 48.9765 11.5829 49.9886C11.5614 51.0142 11.9476 52.0065 12.6567 52.7478C13.3659 53.4891 14.3401 53.9189 15.3657 53.9429C16.3739 53.966 17.3504 53.5898 18.0824 52.8962C18.8145 52.2027 19.2429 51.2479 19.2743 50.24Z" fill="#004D43"/>
<path d="M37.2971 11.6V14.0171H34.7829V11.6H37.2971Z" fill="#004D43"/>
<path d="M55.2857 11.5886V14.04H52.8229V11.5886H55.2857Z" fill="#004D43"/>
</g>
</g>
<defs>
<clipPath id="clip0_1_2849">
<rect width="80" height="80" fill="white"/>
</clipPath>
</defs>
</svg>
