<svg width="18" height="20" viewBox="0 0 18 20" fill="none" xmlns="http://www.w3.org/2000/svg">
<g id="Location">
<g id="Location_2">
<mask id="path-1-inside-1_221_4103" fill="white">
<path fill-rule="evenodd" clip-rule="evenodd" d="M0.5 8.31776C0.5 3.71789 4.34388 0 8.99345 0C13.6561 0 17.5 3.71789 17.5 8.31776C17.5 10.6357 16.657 12.7876 15.2695 14.6116C13.7388 16.6235 11.8522 18.3765 9.72854 19.7524C9.24251 20.0704 8.80387 20.0944 8.27045 19.7524C6.13474 18.3765 4.24809 16.6235 2.7305 14.6116C1.34198 12.7876 0.5 10.6357 0.5 8.31776ZM6.19423 8.57675C6.19423 10.1177 7.45166 11.3297 8.99345 11.3297C10.5362 11.3297 11.8058 10.1177 11.8058 8.57675C11.8058 7.0478 10.5362 5.77683 8.99345 5.77683C7.45166 5.77683 6.19423 7.0478 6.19423 8.57675Z"/>
</mask>
<path d="M15.2695 14.6116L16.8612 15.8226L16.8613 15.8225L15.2695 14.6116ZM9.72854 19.7524L8.641 18.0739L8.63356 18.0788L9.72854 19.7524ZM8.27045 19.7524L7.18726 21.4337L7.191 21.4361L8.27045 19.7524ZM2.7305 14.6116L4.32722 13.4072L4.32185 13.4001L2.7305 14.6116ZM8.99345 -2C3.28628 -2 -1.5 2.56694 -1.5 8.31776H2.5C2.5 4.86885 5.40149 2 8.99345 2V-2ZM19.5 8.31776C19.5 2.56496 14.7117 -2 8.99345 -2V2C12.6005 2 15.5 4.87082 15.5 8.31776H19.5ZM16.8613 15.8225C18.4715 13.7057 19.5 11.1378 19.5 8.31776H15.5C15.5 10.1335 14.8425 11.8696 13.6777 13.4007L16.8613 15.8225ZM10.8161 21.4309C13.1346 19.9287 15.1915 18.0172 16.8612 15.8226L13.6778 13.4006C12.2861 15.2298 10.5698 16.8243 8.64101 18.074L10.8161 21.4309ZM7.191 21.4361C7.68625 21.7536 8.30953 22.009 9.04257 21.9998C9.77204 21.9905 10.3712 21.722 10.8235 21.426L8.63356 18.0788C8.59987 18.1008 8.73668 18.0033 8.99197 18.0001C9.25082 17.9968 9.38807 18.0932 9.3499 18.0687L7.191 21.4361ZM1.13379 15.816C2.79353 18.0164 4.85417 19.9306 7.18726 21.4337L9.35363 18.0711C7.4153 16.8223 5.70264 15.2307 4.32721 13.4072L1.13379 15.816ZM-1.5 8.31776C-1.5 11.1373 -0.472884 13.7055 1.13915 15.823L4.32185 13.4001C3.15685 11.8698 2.5 10.134 2.5 8.31776H-1.5ZM8.99345 9.32967C8.51284 9.32967 8.19423 8.97025 8.19423 8.57675H4.19423C4.19423 11.2652 6.39047 13.3297 8.99345 13.3297V9.32967ZM9.80577 8.57675C9.80577 8.95872 9.48689 9.32967 8.99345 9.32967V13.3297C11.5856 13.3297 13.8058 11.2767 13.8058 8.57675H9.80577ZM8.99345 7.77683C9.43675 7.77683 9.80577 8.15744 9.80577 8.57675H13.8058C13.8058 5.93815 11.6357 3.77683 8.99345 3.77683V7.77683ZM8.19423 8.57675C8.19423 8.14575 8.56283 7.77683 8.99345 7.77683V3.77683C6.34049 3.77683 4.19423 5.94984 4.19423 8.57675H8.19423Z" fill="#004D43" mask="url(#path-1-inside-1_221_4103)"/>
</g>
</g>
</svg>
