<svg width="166" height="120" viewBox="0 0 166 120" fill="none" xmlns="http://www.w3.org/2000/svg">
<g clip-path="url(#clip0_15_4282)">
<path d="M132.069 21.8418V21.678H127.848C127.848 21.678 125.66 28.5036 116.134 28.3773C108.662 28.2715 104.484 22.5756 104.494 14.9719H124.845C124.766 12.3885 124.299 9.8319 123.459 7.38868C121.67 2.48451 117.852 0 112.201 0H53.9641C48.2991 0 44.4918 2.48451 42.7054 7.39892C41.8661 9.84214 41.399 12.3987 41.3197 14.9821H61.6704C61.6704 22.579 57.5167 28.292 50.0312 28.3876C40.5215 28.5241 38.3173 21.6883 38.3173 21.6883H34.0957V21.8418C34.0957 22.0568 34.0957 84.1184 34.0957 86.2241C34.1263 89.5174 35.6614 92.0258 37.4037 93.1759L83.0841 120.819L128.761 93.1759C130.503 92.0292 132.039 89.5174 132.069 86.2241C132.086 84.1286 132.069 22.0671 132.069 21.8418ZM112.941 2.79849H112.978C116.657 2.79849 119.156 5.23863 120.27 7.5252C121.187 9.36128 121.415 11.5864 121.466 12.211H104.797C104.946 10.5879 105.372 9.00285 106.057 7.5252C107.663 4.38884 109.993 2.79849 112.941 2.79849ZM44.6956 12.2144C44.7465 11.5898 44.9741 9.36469 45.8911 7.52861C47.0051 5.24204 49.5048 2.8019 53.183 2.8019H53.2203C56.1683 2.8019 58.4846 4.39226 60.1047 7.53202C60.7892 9.00968 61.2155 10.5948 61.3647 12.2178L44.6956 12.2144ZM129.291 83.8829C129.264 87.7632 128.765 89.456 126.808 90.647C122.033 93.5547 83.0841 116.315 83.0841 116.315C83.0841 116.315 44.5394 93.7902 39.3566 90.647C37.4003 89.456 36.9011 87.7632 36.8739 83.8829C36.8739 83.313 36.9078 25.1318 36.9078 25.1318C39.0713 28.3466 43.0212 31.3533 50.0312 31.4625C57.7171 31.5853 64.6693 25.6983 64.564 14.2518C64.5369 11.2008 63.6165 7.89378 62.601 6.13619C61.9273 4.92965 61.1145 3.80707 60.1794 2.79166H105.985C105.05 3.80707 104.238 4.92965 103.564 6.13619C102.545 7.89378 101.628 11.2008 101.601 14.2518C101.492 25.6983 108.448 31.5853 116.134 31.4625C123.161 31.3533 127.094 28.3466 129.257 25.1318C129.257 25.1386 129.294 83.3198 129.291 83.8897V83.8829Z" fill="#004D43"/>
<path d="M117.123 56.0577L108.187 45.3006H117.123L106.16 33.6323L95.1998 45.3006H104.139L95.1998 56.0577H104.139L95.1998 66.8148H104.139L95.3085 77.4388L95.2813 77.4695L85.0924 66.8148H94.6802L85.0754 56.0577H94.0111L85.0754 46.1402H94.0111V45.2323L85.1331 34.5435H94.0111L83.0817 21.3838L72.149 34.5435H81.027L72.149 45.2323V45.3006H81.0847L72.149 56.0577H81.0677L71.463 66.8148H81.0508L70.8618 77.4695L70.8346 77.4388L62.0042 66.8148H70.9433L62.0042 56.0577H70.9433L62.0076 45.3006H70.9433L60.0004 33.6323L49.0371 45.3006H57.9728L49.0371 56.0577H57.9762L49.0371 66.8148H57.9762L49.0371 77.5719H57.9762L49.0371 88.3324H57.606V94.025H62.3914V88.3324H80.7315V94.025H85.4626V88.3324H103.786V94.025H108.574V88.3324H117.14L108.204 77.5719H117.14L108.204 66.8148H117.14L108.204 56.0577H117.14H117.123ZM70.5697 87.8615L70.5426 87.8308L62.0212 76.7597H80.976L81.0338 77.5719L70.5697 87.8615ZM95.6175 87.8308L95.5904 87.8615L85.1263 77.5719H104.146L95.6175 87.8308Z" fill="#004D43"/>
<path d="M83.3065 16.3187C85.3443 16.3187 87.0051 14.7829 87.0051 12.9059C87.0051 11.0289 85.3443 9.46582 83.3065 9.46582C81.2687 9.46582 79.6113 10.9947 79.6113 12.8923C79.6113 14.7898 81.2687 16.3187 83.3065 16.3187ZM82.094 11.2882C82.5936 11.2698 83.0801 11.4507 83.4473 11.7915C83.8145 12.1324 84.0325 12.6054 84.0537 13.1073C84.018 13.6054 83.7958 14.0715 83.4319 14.4117C83.068 14.752 82.5894 14.9411 82.0923 14.9411C81.5953 14.9411 81.1167 14.752 80.7528 14.4117C80.3889 14.0715 80.1667 13.6054 80.131 13.1073C80.1522 12.6048 80.3706 12.1312 80.7386 11.7903C81.1065 11.4494 81.5939 11.2688 82.094 11.2882Z" fill="#004D43"/>
<path d="M165.822 45.6863C165.822 43.1643 165.237 41.1848 164.123 39.8027C163.009 38.4205 161.335 37.6458 159.352 37.6458H159.311C158.152 37.6476 157.008 37.8966 155.952 38.3761V38.1475L146.103 38.1952L146.055 28.5029L135.333 28.5541L135.377 38.2464L116.358 38.3352C115.397 29.7588 108.407 28.7111 103.061 28.7111L93.1541 28.7555L93.2356 45.9218C93.1142 45.3936 92.9401 44.8791 92.716 44.386C92.2059 43.2642 91.4389 42.2795 90.4778 41.5125C88.6574 40.0484 86.1373 39.2771 83.1893 39.2771C80.2413 39.2771 77.7178 40.0484 75.8974 41.5125C75.647 41.7141 75.4088 41.9307 75.1842 42.1609V39.772H73.0377V32.6495H62.3257V39.7583H60.3864V42.1473C60.1614 41.9161 59.9221 41.6996 59.6698 41.4988C57.8528 40.0347 55.3327 39.2634 52.3813 39.2634C49.4299 39.2634 46.9133 40.0347 45.0929 41.4988C44.9128 41.6422 44.7532 41.7923 44.5834 41.9493L44.8891 39.7446H34.1499L33.9428 41.5603L33.131 48.635L32.3125 41.5705L32.102 39.7583H23.2715V39.4614C23.2715 34.9292 21.1047 32.4788 19.2877 31.2229C16.7812 29.4926 13.7279 29.1275 11.6052 29.1275C4.44238 29.1275 0 33.0863 0 39.4614V46.502C0 51.3993 3.42009 55.4981 6.7281 59.4706L7.67567 60.6138H0V73.9817C0 80.35 4.44238 84.2986 11.595 84.2986C13.7177 84.2986 16.771 83.9334 19.2775 82.2031C21.0945 80.9472 23.2613 78.5003 23.2613 73.9647V65.2791C23.2613 61.8663 19.7937 57.5253 16.1291 52.9385L15.2834 51.8771H22.8912L26.7426 81.5684L26.9769 83.3498H38.864L39.1085 81.5854L42.1143 59.8596V75.1489C42.0898 76.3808 42.3468 77.6019 42.8656 78.7183C43.3843 79.8347 44.1509 80.8167 45.1064 81.5888C46.9269 83.0529 49.4469 83.8242 52.3949 83.8242C55.3429 83.8242 57.8664 83.0529 59.6834 81.5888C61.0695 80.4828 62.0406 78.9366 62.4378 77.2034C62.6102 78.3313 63.0188 79.4096 63.6367 80.3671C64.8934 82.285 66.9277 83.3396 69.3629 83.3396H75.2114V80.9506C75.436 81.1809 75.6742 81.3974 75.9246 81.5991C77.745 83.0632 80.2651 83.8344 83.2165 83.8344C86.1679 83.8344 88.6845 83.0632 90.505 81.5991C91.8467 80.5249 92.8011 79.0384 93.222 77.3672C93.3006 77.0487 93.3629 76.7263 93.4088 76.4014L93.436 82.1451L104.851 82.0905L104.763 63.1939H105.782C109.242 63.1768 111.946 62.0882 113.814 59.9586C114.728 58.8853 115.409 57.6323 115.814 56.2796L115.892 73.2309C115.892 75.4253 115.909 77.5037 116.758 79.2306C117.815 81.3841 119.927 82.4762 123.031 82.4762H123.103C124.015 82.4769 124.92 82.3044 125.769 81.9677L145.44 81.8721L145.481 90.7453L156.207 90.6941L156.162 81.6776C157.056 82.0903 158.028 82.3045 159.012 82.3055H159.046C161.929 82.3055 163.529 81.0155 164.365 79.9473C165.434 78.5822 165.974 76.6403 165.961 74.2036L165.822 45.6863ZM11.8429 73.3538C11.8495 73.6852 11.8256 74.0165 11.7716 74.3435H11.4897C11.4353 74.0177 11.4114 73.6875 11.4184 73.3572V66.1903C11.6836 66.8231 11.8276 67.5004 11.8429 68.1868V73.3538ZM11.8429 47.1436C11.6435 46.8357 11.4998 46.4949 11.4184 46.1368V40.0825C11.4114 39.7522 11.4353 39.422 11.4897 39.0962H11.7716C11.8255 39.4232 11.8493 39.7545 11.8429 40.0859V47.1436Z" fill="#181818"/>
<path d="M95.2169 30.7921L95.4513 80.0728L102.791 80.0386L102.702 61.142H105.759C111.438 61.1147 114.539 57.777 114.508 50.9924L114.457 40.3206C114.423 33.1742 110.592 30.7648 103.083 30.7648H102.91L95.2169 30.7921ZM103.901 36.6314H103.935C106.401 36.6314 107.094 37.9487 107.111 41.324L107.165 53.023C107.165 55.2379 104.822 55.2482 102.675 55.2584L102.587 36.6382L103.901 36.6314ZM134.254 40.2933L134.441 79.8817L127.794 79.9124V77.6292H127.659C127.232 78.474 126.58 79.1825 125.774 79.675C124.969 80.1676 124.043 80.4247 123.101 80.4175H123.04C117.836 80.4175 117.945 77.0354 117.945 72.9093L117.792 40.3752L124.439 40.3445L124.592 72.3223C124.592 73.4281 124.673 74.7386 126.045 74.7386C127.709 74.7386 127.774 73.4144 127.767 72.3087L127.614 40.3309L134.254 40.2933ZM144.042 30.5566L144.277 79.8578L137.627 79.8885L137.396 30.6078L144.042 30.5566ZM159.353 39.6893H159.322C158.282 39.7019 157.26 39.9692 156.346 40.4682C155.432 40.9671 154.652 41.6826 154.075 42.5526H153.936V40.2012L147.289 40.2319L147.517 88.6935L154.167 88.6628L154.112 77.3118H154.252C155.223 78.8237 156.884 80.2639 159.006 80.2639H159.03C162.427 80.2639 163.938 78.0934 163.918 74.2198L163.785 45.7026C163.765 41.4161 161.968 39.6893 159.353 39.6893ZM155.678 74.5953C154.853 74.5953 154.099 74.254 154.089 72.179L153.973 47.8151C153.973 45.7367 154.724 45.3886 155.556 45.3852C156.381 45.3852 157.135 45.7265 157.145 47.798L157.261 72.1653C157.271 74.2403 156.51 74.5884 155.678 74.5953ZM104.733 38.8258C104.859 39.0169 105.073 39.6005 105.073 41.3342L105.127 53.0162C104.989 53.0625 104.847 53.0956 104.703 53.1152L104.635 38.761C104.673 38.7716 104.706 38.7943 104.73 38.8258H104.733ZM21.2248 39.4572V49.8252H13.882V40.0783C13.882 37.5938 13.1212 37.0409 11.6642 37.0409C10.1427 37.0409 9.38189 37.5938 9.38189 40.0783V46.1531C9.38189 49.6717 21.2248 60.3025 21.2248 65.2647V73.9605C21.2248 80.3902 16.1677 82.2467 11.5963 82.2467C7.09617 82.2467 2.03906 80.3902 2.03906 73.9707V62.6505H9.38189V73.3496C9.38189 75.8375 10.1427 76.387 11.6642 76.387C13.1212 76.387 13.882 75.8375 13.882 73.3496V68.1724C13.882 61.2717 2.03906 54.5212 2.03906 46.4978V39.4572C2.03906 33.0377 7.09617 31.1709 11.5963 31.1709C16.1677 31.1709 21.2248 33.0377 21.2248 39.4572ZM35.9682 41.8018L33.8897 59.8895C33.3361 64.4456 33.4074 69.0699 33.061 73.626H32.7825C32.6432 67.6195 32.6432 62.0225 31.8825 55.5382L30.2896 41.7984H23.6396L28.7647 81.2843H37.0754L42.5469 41.7984L35.9682 41.8018ZM44.1534 75.1447V47.9482C44.1534 43.8733 47.3425 41.3206 52.3962 41.3206C57.4499 41.3206 60.6391 43.8733 60.6391 47.9482V62.4526H50.7897V75.0184C50.7897 76.8136 51.4147 76.9501 52.3826 76.9501C53.3506 76.9501 53.9755 76.8136 53.9755 75.0184V65.7561H60.6255V75.1447C60.6255 79.2196 57.4397 81.7723 52.3826 81.7723C47.3255 81.7723 44.1534 79.2196 44.1534 75.1447ZM50.8033 57.818H53.9891V48.0847C53.9891 46.2896 53.3675 46.1531 52.3962 46.1531C51.4249 46.1531 50.8033 46.2896 50.8033 48.0847V57.818ZM91.4572 47.9482V75.1447C91.4572 79.2196 88.2715 81.7723 83.2178 81.7723C78.164 81.7723 74.9749 79.2196 74.9749 75.1447V47.9482C74.9749 43.8733 78.1606 41.3206 83.2178 41.3206C88.2749 41.3206 91.4436 43.8733 91.4436 47.9482H91.4572ZM84.8106 48.0847C84.8106 46.2896 84.1857 46.1531 83.2178 46.1531C82.2498 46.1531 81.6249 46.2896 81.6249 48.0847V75.0082C81.6249 76.8033 82.2464 76.9398 83.2178 76.9398C84.1891 76.9398 84.8106 76.8033 84.8106 75.0082V48.0847ZM71.025 34.6929H64.3648V41.8018H62.4255V47.0506H64.3648V76.0423C64.3648 77.561 65.2648 81.2877 69.3506 81.2877H73.1613V76.0423H72.482C71.8027 76.0423 71.025 75.8341 71.025 72.8684V47.0506H73.1749V41.8018H71.025V34.6929Z" fill="white"/>
</g>
<defs>
<clipPath id="clip0_15_4282">
<rect width="165.957" height="120" fill="white"/>
</clipPath>
</defs>
</svg>
