<svg width="393" height="64" viewBox="0 0 393 64" fill="none" xmlns="http://www.w3.org/2000/svg">
<path d="M71.7523 9.68799L85.3761 27.8531H58.1284L71.7523 9.68799Z" fill="#004D43"/>
<path fill-rule="evenodd" clip-rule="evenodd" d="M79.4884 29.6697H64.0321L58.1284 37.5412H85.3761L79.4884 29.6697Z" fill="#004D43"/>
<path fill-rule="evenodd" clip-rule="evenodd" d="M79.4884 39.3977H64.0321L58.1284 47.2693H85.3761L79.4884 39.3977Z" fill="#004D43"/>
<path fill-rule="evenodd" clip-rule="evenodd" d="M79.4884 49.0459H64.0321L58.1284 56.9254H85.3761L79.4884 49.0459Z" fill="#004D43"/>
<path d="M13.6238 9.68799L27.2477 27.8531H0L13.6238 9.68799Z" fill="#004D43"/>
<path fill-rule="evenodd" clip-rule="evenodd" d="M21.3281 29.6697H5.90367L0 37.5412H27.2477L21.3281 29.6697Z" fill="#004D43"/>
<path fill-rule="evenodd" clip-rule="evenodd" d="M21.3281 39.3977H5.90367L0 47.2693H27.2477L21.3281 39.3977Z" fill="#004D43"/>
<path fill-rule="evenodd" clip-rule="evenodd" d="M21.3281 49.0459H5.90367L0 56.9254H27.2477L21.3281 49.0459Z" fill="#004D43"/>
<path d="M42.6881 0L56.3039 18.1651H29.0642L42.6881 0Z" fill="#004D43"/>
<path fill-rule="evenodd" clip-rule="evenodd" d="M50.4003 19.9817H34.9679L29.0642 27.8532H56.3039L50.4003 19.9817Z" fill="#004D43"/>
<path fill-rule="evenodd" clip-rule="evenodd" d="M50.4003 29.6697H34.9679L29.0642 37.5412H56.3039L50.4003 29.6697Z" fill="#004D43"/>
<path fill-rule="evenodd" clip-rule="evenodd" d="M50.4003 39.3977H34.9679L29.0642 47.2693H56.3039L50.4003 39.3977Z" fill="#004D43"/>
<path fill-rule="evenodd" clip-rule="evenodd" d="M50.4003 49.0459H34.9679L29.0642 56.9254H56.3039L50.4003 49.0459Z" fill="#004D43"/>
<path d="M126.686 40.9914C126.288 39.5494 125.507 36.7689 121.42 36.7689C119.029 36.7689 115.428 38.4659 115.428 45.1742C115.428 49.4287 117.229 53.3883 121.42 53.3883C124.168 53.3883 126.096 51.7152 126.686 48.8072H131.626C130.646 53.9779 127.275 57.5711 121.316 57.5711C115.006 57.5711 110.489 53.2927 110.489 45.1105C110.489 36.8007 115.269 32.5781 121.38 32.5781C128.486 32.5781 131.363 37.4859 131.626 40.9914H126.686Z" fill="black"/>
<path d="M133.291 39.334H141.258C145.186 39.334 148.062 40.9274 148.062 43.8832C148.062 45.9149 146.628 47.2215 144.795 47.6756C146.596 48.1058 148.588 49.269 148.588 52.1292C148.588 55.3958 146.134 56.9095 142.142 56.9095H133.291V39.334ZM137.904 46.5044H140.915C142.453 46.5044 143.537 45.883 143.537 44.5126C143.537 43.1423 142.485 42.5527 140.947 42.5527H137.904V46.5044ZM137.904 53.8023H141.306C143.011 53.8023 144.054 53.2765 144.054 51.5476C144.054 50.01 142.947 49.285 141.242 49.285H137.904V53.8023Z" fill="black"/>
<path d="M165.781 51.7705C164.57 55.9851 161.072 57.3953 158.061 57.3953C153.121 57.3953 149.297 55.0052 149.297 47.779C149.297 45.6517 150.053 38.8796 157.742 38.8796C162.681 38.8796 165.988 41.5964 165.988 47.6435V49.3804H154.037C154.037 50.7188 154.332 53.6985 158.021 53.6985C158.658 53.7379 159.292 53.5719 159.828 53.2249C160.364 52.8779 160.775 52.3682 161 51.7705H165.781ZM161.231 46.3688C160.969 43.5564 159.136 42.672 157.67 42.672C155.479 42.672 154.3 44.0822 154.037 46.3688H161.231Z" fill="black"/>
<path d="M171.341 56.9255V43.0307H166.107V39.334H181.189V43.0307H175.954V56.9255H171.341Z" fill="black"/>
<path d="M198.629 48.1059C198.629 54.4796 194.375 57.3956 189.666 57.3956C184.958 57.3956 180.671 54.4796 180.671 48.1616C180.671 41.8437 184.95 38.9038 189.666 38.9038C194.383 38.9038 198.629 41.7879 198.629 48.1059ZM185.412 48.1059C185.412 50.3606 186.097 53.4996 189.666 53.4996C193.235 53.4996 193.881 50.3925 193.881 48.1377C193.881 45.883 193.227 42.7679 189.666 42.7679C186.105 42.7679 185.452 45.8432 185.452 48.1059H185.412Z" fill="black"/>
<path d="M211.456 39.334V43.0307H204.127V56.9255H199.514V39.334H211.456Z" fill="black"/>
<path d="M228.888 48.1059C228.888 54.4796 224.634 57.3956 219.925 57.3956C215.217 57.3956 210.946 54.4796 210.946 48.1616C210.946 41.8437 215.233 38.9038 219.941 38.9038C224.65 38.9038 228.888 41.7879 228.888 48.1059ZM215.671 48.1059C215.671 50.3606 216.364 53.4996 219.925 53.4996C223.487 53.4996 224.148 50.3925 224.148 48.1377C224.148 45.883 223.495 42.7679 219.925 42.7679C216.356 42.7679 215.671 45.8432 215.671 48.1059Z" fill="black"/>
<path d="M234.226 41.8911H234.29C234.781 40.9396 235.536 40.1496 236.464 39.6155C237.393 39.0815 238.455 38.826 239.524 38.8795C243.412 38.8795 246.886 41.923 246.886 48.0019C246.886 52.7822 244.655 57.3952 239.429 57.3952C236.186 57.3952 235.039 55.6265 234.489 54.6784H234.386V64H229.773V39.3018H234.226V41.8911ZM234.226 48.2648C234.226 50.3602 235.071 53.6028 238.051 53.6028C241.03 53.6028 242.138 51.149 242.138 48.5278C242.138 45.7154 241.341 42.8711 238.154 42.8711C235.238 42.8711 234.226 45.4843 234.226 48.2648Z" fill="black"/>
<path d="M263.737 50.5514C263.569 52.344 262.143 57.4191 255.722 57.4191C249.109 57.4191 247.603 52.344 247.603 48.6552C247.603 42.9667 250.057 38.9114 256.016 38.9114C258.797 38.9114 263.338 40.1861 263.769 45.6516H259.092C258.893 44.5043 258.207 42.7993 256.016 42.7993C253.1 42.7993 252.352 45.7153 252.352 47.9063C252.352 49.8025 252.415 53.6347 255.913 53.6347C256.733 53.6161 257.517 53.2894 258.107 52.7196C258.698 52.1497 259.052 51.3786 259.1 50.5594L263.737 50.5514Z" fill="black"/>
<path d="M269.266 46.0105L275.09 39.334H280.747L274.564 46.1379L280.938 56.9334H275.417L271.226 49.3806L269.266 51.3485V56.9255H264.653V39.334H269.266V46.0105Z" fill="black"/>
<path d="M286.738 50.496L293.406 39.342H298.346V56.9255H293.733V45.7714L287.065 56.9255H282.125V39.334H286.738V50.496Z" fill="black"/>
<path d="M304.959 50.496L311.635 39.342H316.575V56.9255H311.962V45.7714L305.286 56.9255H300.346V39.334H304.959V50.496Z" fill="black"/>
<path d="M332.844 52.8465H342.102V33.1836H347.042V52.8465H349.432V61.9769H344.795V56.9257H327.896V33.1836H332.844V52.8465Z" fill="black"/>
<path d="M368.266 33.1836V37.2787H355.734V42.1865H361.916C366.497 42.1865 370.035 44.967 370.035 49.6756C370.035 54.3842 366.593 56.9257 361.853 56.9257H350.794V33.1836H368.266ZM355.734 52.8465H361.311C363.701 52.8465 365.079 51.3726 365.079 49.4127C365.079 47.3173 363.542 46.2736 361.311 46.2736H355.734V52.8465Z" fill="black"/>
<path d="M376.512 42.8398L385.571 33.1836H391.984L382.296 42.9035L392.542 56.9257H386.168L378.839 46.4967L376.52 48.8869V56.9257H371.58V33.1836H376.52L376.512 42.8398Z" fill="black"/>
<path d="M308.217 37.8043C309.74 37.8918 311.243 37.4248 312.448 36.4897C312.962 36.0395 313.369 35.479 313.636 34.85C313.904 34.2209 314.026 33.5395 313.994 32.8567H310.576C310.587 33.513 310.357 34.1507 309.93 34.6493C309.723 34.8592 309.474 35.0241 309.2 35.1338C308.926 35.2434 308.632 35.2955 308.337 35.2867C308.035 35.3036 307.733 35.2555 307.451 35.1455C307.169 35.0356 306.914 34.8663 306.704 34.6493C306.292 34.1457 306.085 33.506 306.122 32.8567H302.704C302.672 33.5267 302.785 34.1958 303.037 34.8176C303.289 35.4394 303.673 35.9991 304.162 36.4578C305.301 37.3925 306.746 37.8722 308.217 37.8043Z" fill="black"/>
</svg>
