<svg width="20" height="20" viewBox="0 0 20 20" fill="none" xmlns="http://www.w3.org/2000/svg">
<path fill-rule="evenodd" clip-rule="evenodd" d="M9.81407 11.2207C9.25657 11.2207 8.70073 11.0366 8.23573 10.6682L4.49823 7.65491C4.22907 7.43824 4.1874 7.04408 4.40323 6.77574C4.62073 6.50824 5.01407 6.46574 5.2824 6.68158L9.01657 9.69158C9.48573 10.0632 10.1466 10.0632 10.6191 9.68824L14.3157 6.68324C14.5841 6.46408 14.9774 6.50574 15.1957 6.77408C15.4132 7.04158 15.3724 7.43491 15.1049 7.65324L11.4016 10.6632C10.9332 11.0349 10.3732 11.2207 9.81407 11.2207Z" fill="#004D43"/>
<mask id="mask0_84_631" style="mask-type:luminance" maskUnits="userSpaceOnUse" x="0" y="1" width="19" height="17">
<path fill-rule="evenodd" clip-rule="evenodd" d="M0.833313 1.66675H18.7499V17.9167H0.833313V1.66675Z" fill="white"/>
</mask>
<g mask="url(#mask0_84_631)">
<path fill-rule="evenodd" clip-rule="evenodd" d="M5.69909 16.6667H13.8824C13.8841 16.6651 13.8908 16.6667 13.8958 16.6667C14.8466 16.6667 15.6899 16.3267 16.3366 15.6809C17.0874 14.9334 17.4999 13.8592 17.4999 12.6567V6.93341C17.4999 4.60591 15.9783 2.91675 13.8824 2.91675H5.70075C3.60492 2.91675 2.08325 4.60591 2.08325 6.93341V12.6567C2.08325 13.8592 2.49659 14.9334 3.24659 15.6809C3.89325 16.3267 4.73742 16.6667 5.68742 16.6667H5.69909ZM5.68492 17.9167C4.39909 17.9167 3.25075 17.4501 2.36409 16.5667C1.37659 15.5817 0.833252 14.1934 0.833252 12.6567V6.93341C0.833252 3.93091 2.92575 1.66675 5.70075 1.66675H13.8824C16.6574 1.66675 18.7499 3.93091 18.7499 6.93341V12.6567C18.7499 14.1934 18.2066 15.5817 17.2191 16.5667C16.3333 17.4492 15.1841 17.9167 13.8958 17.9167H13.8824H5.70075H5.68492Z" fill="#004D43"/>
</g>
</svg>
