<svg width="989" height="356" viewBox="0 0 989 356" fill="none" xmlns="http://www.w3.org/2000/svg">
<g filter="url(#filter0_ddd_206_662)">
<path d="M858.645 86.616L823.482 76.9492L858.645 67.2825L893.807 76.9492L858.645 86.616Z" fill="white"/>
<path d="M721.39 86.616L687.361 76.9492L721.39 67.2824L755.418 76.9492L721.39 86.616Z" fill="white"/>
<path d="M584.142 86.616L548.98 76.9492L584.142 67.2824L619.305 76.9492L584.142 86.616Z" fill="white"/>
<path d="M446.908 86.616L412.881 76.9492L446.908 67.2823L480.937 76.9492L446.908 86.616Z" fill="white"/>
<path d="M309.66 86.6159L274.498 76.9491L309.66 67.2823L344.823 76.9491L309.66 86.6159Z" fill="white"/>
<path d="M172.41 86.6159L138.382 76.9491L172.41 67.2823L206.438 76.9491L172.41 86.6159Z" fill="white"/>
<path d="M35.1598 86.616L7.34856e-05 76.9492L35.1598 67.2824L70.3193 76.9492L35.1598 86.616Z" fill="white"/>
<path d="M858.645 51.1623L823.482 46.3288L858.645 41.4955L893.807 46.3289L858.645 51.1623Z" fill="white"/>
<path d="M721.39 51.1622L687.361 46.3288L721.39 41.4955L755.418 46.3288L721.39 51.1622Z" fill="white"/>
<path d="M584.142 51.1622L548.98 46.3288L584.142 41.4955L619.305 46.3288L584.142 51.1622Z" fill="white"/>
<path d="M446.908 51.1622L412.881 46.3288L446.908 41.4954L480.937 46.3288L446.908 51.1622Z" fill="white"/>
<path d="M309.66 51.1623L274.498 46.3289L309.66 41.4955L344.823 46.3289L309.66 51.1623Z" fill="white"/>
<path d="M172.408 51.1623L138.379 46.3289L172.408 41.4955L206.436 46.3289L172.408 51.1623Z" fill="white"/>
<path d="M35.1598 51.1623L7.54173e-05 46.3288L35.1598 41.4954L70.3193 46.3289L35.1598 51.1623Z" fill="white"/>
<path d="M927.829 107.564L893.801 97.8967L927.829 88.2297L961.858 97.8967L927.829 107.564Z" fill="white"/>
<path d="M789.449 107.564L755.421 97.8967L789.449 88.2297L823.477 97.8967L789.449 107.564Z" fill="white"/>
<path d="M653.347 107.564L619.319 97.8967L653.347 88.2297L687.375 97.8967L653.347 107.564Z" fill="white"/>
<path d="M514.968 107.564L480.941 97.8967L514.968 88.2298L548.997 97.8967L514.968 107.564Z" fill="white"/>
<path d="M378.85 107.564L344.822 97.8967L378.85 88.2298L412.878 97.8967L378.85 107.564Z" fill="white"/>
<path d="M240.469 107.564L206.441 97.8966L240.469 88.2297L274.497 97.8967L240.469 107.564Z" fill="white"/>
<path d="M104.351 107.564L70.3193 97.8966L104.351 88.2297L138.378 97.8966L104.351 107.564Z" fill="white"/>
<path d="M927.829 65.6724L893.801 59.2279L927.829 52.7834L961.858 59.2279L927.829 65.6724Z" fill="white"/>
<path d="M789.449 65.6724L755.421 59.2278L789.449 52.7833L823.477 59.2279L789.449 65.6724Z" fill="white"/>
<path d="M653.347 65.6724L619.319 59.2278L653.347 52.7833L687.375 59.2278L653.347 65.6724Z" fill="white"/>
<path d="M514.968 65.6723L480.941 59.2278L514.968 52.7833L548.997 59.2278L514.968 65.6723Z" fill="white"/>
<path d="M378.85 65.6723L344.822 59.2278L378.85 52.7832L412.878 59.2278L378.85 65.6723Z" fill="white"/>
<path d="M240.469 65.6723L206.441 59.2277L240.469 52.7832L274.497 59.2278L240.469 65.6723Z" fill="white"/>
<path d="M104.351 65.6724L70.3193 59.2279L104.351 52.7833L138.378 59.2279L104.351 65.6724Z" fill="white"/>
<path d="M927.829 38.2804L893.801 35.0581L927.829 31.8358L961.858 35.0581L927.829 38.2804Z" fill="white"/>
<path d="M789.449 38.2804L755.421 35.0581L789.449 31.8358L823.477 35.0581L789.449 38.2804Z" fill="white"/>
<path d="M653.347 38.2803L619.319 35.058L653.347 31.8358L687.375 35.0581L653.347 38.2803Z" fill="white"/>
<path d="M514.968 38.2803L480.941 35.058L514.968 31.8358L548.997 35.058L514.968 38.2803Z" fill="white"/>
<path d="M378.848 38.2802L344.819 35.058L378.848 31.8357L412.875 35.058L378.848 38.2802Z" fill="white"/>
<path d="M240.469 38.2804L206.441 35.0581L240.469 31.8358L274.497 35.0581L240.469 38.2804Z" fill="white"/>
<path d="M104.351 38.2804L70.3193 35.0581L104.351 31.8358L138.378 35.0581L104.351 38.2804Z" fill="white"/>
<path d="M927.828 175.221L893.8 155.887L927.828 136.553L961.857 155.887L927.828 175.221Z" fill="white"/>
<path d="M789.449 175.221L755.421 155.887L789.449 136.553L823.477 155.887L789.449 175.221Z" fill="white"/>
<path d="M653.347 175.221L619.319 155.887L653.347 136.553L687.375 155.887L653.347 175.221Z" fill="white"/>
<path d="M514.968 175.221L480.941 155.887L514.968 136.553L548.997 155.887L514.968 175.221Z" fill="white"/>
<path d="M378.85 175.221L344.822 155.887L378.85 136.553L412.878 155.887L378.85 175.221Z" fill="white"/>
<path d="M240.469 175.221L206.441 155.887L240.469 136.553L274.497 155.887L240.469 175.221Z" fill="white"/>
<path d="M104.351 175.221L70.3193 155.887L104.351 136.553L138.378 155.887L104.351 175.221Z" fill="white"/>
<path d="M927.829 273.501L893.801 247.724L927.829 221.945L961.858 247.724L927.829 273.501Z" fill="white"/>
<path d="M789.449 273.501L755.421 247.724L789.449 221.945L823.477 247.724L789.449 273.501Z" fill="white"/>
<path d="M653.347 273.501L619.319 247.724L653.347 221.945L687.375 247.724L653.347 273.501Z" fill="white"/>
<path d="M514.968 273.501L480.941 247.723L514.968 221.945L548.997 247.724L514.968 273.501Z" fill="white"/>
<path d="M378.85 273.501L344.822 247.723L378.85 221.945L412.878 247.723L378.85 273.501Z" fill="white"/>
<path d="M240.466 273.501L206.437 247.723L240.466 221.945L274.495 247.723L240.466 273.501Z" fill="white"/>
<path d="M104.351 273.501L70.3193 247.723L104.351 221.945L138.378 247.723L104.351 273.501Z" fill="white"/>
<path d="M927.829 405.619L893.801 370.174L927.829 334.729L961.858 370.174L927.829 405.619Z" fill="white"/>
<path d="M789.449 405.619L755.421 370.174L789.449 334.729L823.477 370.174L789.449 405.619Z" fill="white"/>
<path d="M653.347 405.619L619.319 370.174L653.347 334.729L687.375 370.174L653.347 405.619Z" fill="white"/>
<path d="M514.968 405.619L480.941 370.174L514.968 334.729L548.997 370.174L514.968 405.619Z" fill="white"/>
<path d="M378.85 405.619L344.822 370.174L378.85 334.729L412.878 370.174L378.85 405.619Z" fill="white"/>
<path d="M240.466 405.619L206.437 370.174L240.466 334.729L274.495 370.174L240.466 405.619Z" fill="white"/>
<path d="M104.351 405.619L70.3193 370.174L104.351 334.729L138.378 370.174L104.351 405.619Z" fill="white"/>
<path d="M927.829 607.007L893.801 550.617L927.829 494.228L961.858 550.617L927.829 607.007Z" fill="white"/>
<path d="M789.449 607.007L755.421 550.617L789.449 494.228L823.477 550.617L789.449 607.007Z" fill="white"/>
<path d="M653.347 607.007L619.319 550.617L653.347 494.228L687.375 550.617L653.347 607.007Z" fill="white"/>
<path d="M514.968 607.007L480.941 550.617L514.968 494.228L548.997 550.617L514.968 607.007Z" fill="white"/>
<path d="M378.848 607.007L344.819 550.617L378.848 494.228L412.875 550.617L378.848 607.007Z" fill="white"/>
<path d="M240.466 607.007L206.437 550.617L240.466 494.228L274.495 550.617L240.466 607.007Z" fill="white"/>
<path d="M104.351 607.007L70.3193 550.617L104.351 494.228L138.378 550.617L104.351 607.007Z" fill="white"/>
<path d="M927.828 1064.57L893.8 930.841L927.828 797.117L961.856 930.841L927.828 1064.57Z" fill="white"/>
<path d="M789.449 1064.57L755.421 930.841L789.449 797.117L823.477 930.841L789.449 1064.57Z" fill="white"/>
<path d="M653.347 1064.57L619.319 930.841L653.347 797.117L687.375 930.841L653.347 1064.57Z" fill="white"/>
<path d="M514.968 1064.57L480.941 930.841L514.968 797.117L548.997 930.841L514.968 1064.57Z" fill="white"/>
<path d="M378.85 1064.57L344.822 930.841L378.85 797.117L412.878 930.841L378.85 1064.57Z" fill="white"/>
<path d="M240.466 1064.57L206.437 930.841L240.466 797.117L274.494 930.841L240.466 1064.57Z" fill="white"/>
<path d="M104.351 1064.57L70.3193 930.841L104.351 797.117L138.378 930.841L104.351 1064.57Z" fill="white"/>
<path d="M858.645 138.16L823.482 123.66L858.645 109.159L893.807 123.66L858.645 138.16Z" fill="white"/>
<path d="M721.39 138.16L687.361 123.66L721.39 109.159L755.418 123.66L721.39 138.16Z" fill="white"/>
<path d="M584.142 138.164L548.979 123.663L584.142 109.163L619.305 123.663L584.142 138.164Z" fill="white"/>
<path d="M446.908 138.164L412.881 123.663L446.908 109.163L480.937 123.663L446.908 138.164Z" fill="white"/>
<path d="M309.66 138.164L274.498 123.663L309.66 109.163L344.823 123.663L309.66 138.164Z" fill="white"/>
<path d="M172.41 138.164L138.382 123.663L172.41 109.163L206.438 123.663L172.41 138.164Z" fill="white"/>
<path d="M35.1598 138.165L7.05385e-05 123.665L35.1598 109.164L70.3193 123.665L35.1598 138.165Z" fill="white"/>
<path d="M858.645 221.938L823.482 199.382L858.645 176.826L893.807 199.382L858.645 221.938Z" fill="white"/>
<path d="M721.39 221.938L687.361 199.382L721.39 176.826L755.418 199.382L721.39 221.938Z" fill="white"/>
<path d="M584.142 221.938L548.98 199.382L584.142 176.826L619.305 199.382L584.142 221.938Z" fill="white"/>
<path d="M446.908 221.938L412.881 199.382L446.908 176.826L480.937 199.382L446.908 221.938Z" fill="white"/>
<path d="M309.66 221.938L274.498 199.382L309.66 176.826L344.823 199.382L309.66 221.938Z" fill="white"/>
<path d="M172.41 221.938L138.382 199.382L172.41 176.826L206.438 199.382L172.41 221.938Z" fill="white"/>
<path d="M35.1598 221.938L6.57618e-05 199.382L35.1598 176.826L70.3193 199.382L35.1598 221.938Z" fill="white"/>
<path d="M858.645 336.336L823.482 305.724L858.645 275.113L893.807 305.725L858.645 336.336Z" fill="white"/>
<path d="M721.39 336.336L687.361 305.724L721.39 275.113L755.418 305.724L721.39 336.336Z" fill="white"/>
<path d="M584.142 336.336L548.98 305.724L584.142 275.113L619.305 305.724L584.142 336.336Z" fill="white"/>
<path d="M446.908 336.336L412.881 305.724L446.908 275.113L480.937 305.724L446.908 336.336Z" fill="white"/>
<path d="M309.66 336.336L274.498 305.724L309.66 275.113L344.823 305.724L309.66 336.336Z" fill="white"/>
<path d="M172.408 336.336L138.379 305.724L172.408 275.113L206.436 305.724L172.408 336.336Z" fill="white"/>
<path d="M35.1598 336.336L5.90531e-05 305.724L35.1598 275.113L70.3193 305.725L35.1598 336.336Z" fill="white"/>
<path d="M858.645 495.833L823.482 450.721L858.645 405.61L893.807 450.721L858.645 495.833Z" fill="white"/>
<path d="M721.39 495.833L687.361 450.721L721.39 405.61L755.418 450.721L721.39 495.833Z" fill="white"/>
<path d="M584.142 495.833L548.98 450.721L584.142 405.61L619.305 450.721L584.142 495.833Z" fill="white"/>
<path d="M446.908 495.833L412.881 450.721L446.908 405.61L480.937 450.721L446.908 495.833Z" fill="white"/>
<path d="M309.66 495.833L274.498 450.721L309.66 405.61L344.823 450.721L309.66 495.833Z" fill="white"/>
<path d="M172.41 495.833L138.382 450.721L172.41 405.61L206.438 450.721L172.41 495.833Z" fill="white"/>
<path d="M35.1598 495.833L4.99058e-05 450.721L35.1598 405.61L70.3193 450.721L35.1598 495.833Z" fill="white"/>
<path d="M858.645 790.675L823.482 700.449L858.645 610.226L893.807 700.449L858.645 790.675Z" fill="white"/>
<path d="M721.389 790.675L687.361 700.449L721.389 610.226L755.418 700.449L721.389 790.675Z" fill="white"/>
<path d="M584.142 790.675L548.98 700.449L584.142 610.226L619.305 700.449L584.142 790.675Z" fill="white"/>
<path d="M446.908 790.675L412.881 700.449L446.909 610.226L480.937 700.449L446.908 790.675Z" fill="white"/>
<path d="M309.66 790.675L274.498 700.449L309.66 610.226L344.823 700.449L309.66 790.675Z" fill="white"/>
<path d="M172.41 790.675L138.382 700.449L172.41 610.226L206.438 700.449L172.41 790.675Z" fill="white"/>
<path d="M35.1597 790.675L3.41515e-05 700.449L35.1598 610.226L70.3193 700.449L35.1597 790.675Z" fill="white"/>
<path d="M858.645 1377.13L823.482 1241.8L858.645 1106.46L893.807 1241.8L858.645 1377.13Z" fill="white"/>
<path d="M721.389 1377.13L687.361 1241.8L721.389 1106.46L755.418 1241.8L721.389 1377.13Z" fill="white"/>
<path d="M584.142 1377.13L548.98 1241.8L584.142 1106.46L619.305 1241.8L584.142 1377.13Z" fill="white"/>
<path d="M446.908 1377.13L412.881 1241.8L446.909 1106.46L480.937 1241.8L446.908 1377.13Z" fill="white"/>
<path d="M309.66 1377.13L274.498 1241.8L309.66 1106.46L344.823 1241.8L309.66 1377.13Z" fill="white"/>
<path d="M172.405 1377.13L138.376 1241.8L172.405 1106.46L206.433 1241.8L172.405 1377.13Z" fill="white"/>
<path d="M35.1597 1377.13L0 1241.8L35.1597 1106.46L70.3193 1241.8L35.1597 1377.13Z" fill="white"/>
<path d="M858.645 30.2224L823.482 28.6113L858.645 27.0001L893.808 28.6113L858.645 30.2224Z" fill="white"/>
<path d="M721.39 30.2224L687.361 28.6112L721.39 27.0001L755.418 28.6112L721.39 30.2224Z" fill="white"/>
<path d="M584.142 30.2224L548.98 28.6112L584.142 27.0001L619.305 28.6112L584.142 30.2224Z" fill="white"/>
<path d="M446.908 30.2223L412.881 28.6112L446.908 27.0001L480.937 28.6112L446.908 30.2223Z" fill="white"/>
<path d="M309.66 30.2223L274.498 28.6111L309.66 27L344.823 28.6112L309.66 30.2223Z" fill="white"/>
<path d="M172.41 30.2223L138.382 28.6111L172.41 27L206.438 28.6111L172.41 30.2223Z" fill="white"/>
<path d="M35.1598 30.2224L7.6535e-05 28.6112L35.1598 27.0001L70.3193 28.6113L35.1598 30.2224Z" fill="white"/>
</g>
<defs>
<filter id="filter0_ddd_206_662" x="-26.7403" y="0.259695" width="1015.34" height="1403.61" filterUnits="userSpaceOnUse" color-interpolation-filters="sRGB">
<feFlood flood-opacity="0" result="BackgroundImageFix"/>
<feColorMatrix in="SourceAlpha" type="matrix" values="0 0 0 0 0 0 0 0 0 0 0 0 0 0 0 0 0 0 127 0" result="hardAlpha"/>
<feOffset dx="-8.91343" dy="-8.91343"/>
<feGaussianBlur stdDeviation="8.91343"/>
<feColorMatrix type="matrix" values="0 0 0 0 1 0 0 0 0 1 0 0 0 0 1 0 0 0 0.2 0"/>
<feBlend mode="normal" in2="BackgroundImageFix" result="effect1_dropShadow_206_662"/>
<feColorMatrix in="SourceAlpha" type="matrix" values="0 0 0 0 0 0 0 0 0 0 0 0 0 0 0 0 0 0 127 0" result="hardAlpha"/>
<feOffset dx="8.91343" dy="8.91343"/>
<feGaussianBlur stdDeviation="8.91343"/>
<feColorMatrix type="matrix" values="0 0 0 0 0.508385 0 0 0 0 0.508385 0 0 0 0 0.5375 0 0 0 0.5 0"/>
<feBlend mode="normal" in2="effect1_dropShadow_206_662" result="effect2_dropShadow_206_662"/>
<feColorMatrix in="SourceAlpha" type="matrix" values="0 0 0 0 0 0 0 0 0 0 0 0 0 0 0 0 0 0 127 0" result="hardAlpha"/>
<feOffset dx="-4.45672" dy="-4.45672"/>
<feGaussianBlur stdDeviation="4.45672"/>
<feColorMatrix type="matrix" values="0 0 0 0 1 0 0 0 0 1 0 0 0 0 1 0 0 0 0.5 0"/>
<feBlend mode="normal" in2="effect2_dropShadow_206_662" result="effect3_dropShadow_206_662"/>
<feBlend mode="normal" in="SourceGraphic" in2="effect3_dropShadow_206_662" result="shape"/>
</filter>
</defs>
</svg>
