<svg width="18" height="18" viewBox="0 0 18 18" fill="none" xmlns="http://www.w3.org/2000/svg">
<g id="Group 171">
<path id="Vector" d="M7.56412 10.408L8.03278 9.95764C7.8222 9.73853 7.48791 9.69457 7.22785 9.85179C6.96778 10.009 6.85136 10.3254 6.94752 10.6137L7.56412 10.408ZM9.42244 12.0747L9.02551 12.5894L9.02678 12.5904L9.42244 12.0747ZM11.4726 12.1664L11.129 11.6146L11.1246 11.6174L11.4726 12.1664ZM11.9141 11.8914L12.2577 12.4431C12.2656 12.4383 12.2733 12.4332 12.281 12.428L11.9141 11.8914ZM14.0642 11.9497L14.4722 11.4437C14.468 11.4404 14.4638 11.437 14.4596 11.4338L14.0642 11.9497ZM16.1308 13.6164L15.7227 14.1224L15.7295 14.1276L16.1308 13.6164ZM16.2142 14.9581L16.6744 15.4171L16.6758 15.4158L16.2142 14.9581ZM10.0143 15.9997L9.72716 16.5829L9.72934 16.5839L10.0143 15.9997ZM5.3809 12.6664L5.84255 12.2088L5.83786 12.2041L5.3809 12.6664ZM2.04756 8.04135L1.46306 8.32572L1.46451 8.32866L2.04756 8.04135ZM3.08089 1.83306L2.62054 1.37417L2.62001 1.3747L3.08089 1.83306ZM4.42244 1.90803L3.91381 2.31275L3.91567 2.31508L4.42244 1.90803ZM6.08911 3.98302L6.59928 3.58022L6.59588 3.57598L6.08911 3.98302ZM6.20589 6.05807L6.75352 6.40832L6.75798 6.40113L6.20589 6.05807ZM5.88077 6.56639L5.33318 6.21616L5.33095 6.2197L5.88077 6.56639ZM5.96419 8.61635L5.44432 9.00653L5.44571 9.00838L5.96419 8.61635ZM7.58915 10.4831L7.12944 10.9426C7.34259 11.1558 7.6744 11.1945 7.93087 11.036C8.18735 10.8775 8.30115 10.5634 8.20575 10.2774L7.58915 10.4831ZM7.09547 10.8584C7.69511 11.4824 8.34022 12.061 9.02551 12.5894L9.81938 11.56C9.18503 11.0708 8.58786 10.5352 8.03278 9.95764L7.09547 10.8584ZM9.02678 12.5904C9.42364 12.8949 9.90456 13.0701 10.4041 13.0925L10.4622 11.7938C10.2285 11.7833 10.0036 11.7013 9.81811 11.559L9.02678 12.5904ZM10.4041 13.0925C10.9038 13.1148 11.3983 12.9831 11.8207 12.7153L11.1246 11.6174C10.927 11.7426 10.6958 11.8042 10.4622 11.7938L10.4041 13.0925ZM11.8162 12.7181L12.2577 12.4431L11.5705 11.3397L11.129 11.6146L11.8162 12.7181ZM12.281 12.428C12.4867 12.2873 12.7318 12.2151 12.9811 12.2219L13.0163 10.9224C12.4934 10.9082 11.9791 11.0595 11.5472 11.3548L12.281 12.428ZM12.9811 12.2219C13.2303 12.2287 13.4709 12.3139 13.6688 12.4656L14.4596 11.4338C14.0444 11.1155 13.5393 10.9366 13.0163 10.9224L12.9811 12.2219ZM13.6561 12.4557L15.7228 14.1223L16.5389 13.1104L14.4722 11.4437L13.6561 12.4557ZM15.7295 14.1276C15.7572 14.1494 15.7801 14.1769 15.7965 14.2081L16.9474 13.6036C16.8457 13.41 16.7041 13.2401 16.5322 13.1051L15.7295 14.1276ZM15.7965 14.2081C15.8129 14.2394 15.8225 14.2737 15.8247 14.3088L17.1222 14.2282C17.1086 14.0099 17.049 13.797 16.9474 13.6036L15.7965 14.2081ZM15.8247 14.3088C15.8268 14.3436 15.8216 14.3789 15.8091 14.4123L17.0259 14.8698C17.1027 14.6655 17.1358 14.4468 17.1222 14.2282L15.8247 14.3088ZM15.8091 14.4123C15.7965 14.4457 15.7772 14.4756 15.7527 14.5004L16.6758 15.4158C16.83 15.2602 16.9491 15.074 17.0259 14.8698L15.8091 14.4123ZM15.754 14.499C15.0537 15.2012 14.1514 15.667 13.1734 15.8313L13.3888 17.1133C14.634 16.9041 15.7828 16.3111 16.6744 15.4171L15.754 14.499ZM13.1734 15.8313C12.1954 15.9956 11.1906 15.8502 10.2992 15.4155L9.72934 16.5839C10.8642 17.1374 12.1436 17.3225 13.3888 17.1133L13.1734 15.8313ZM10.3014 15.4166C8.64738 14.6022 7.14045 13.5181 5.84252 12.2088L4.91927 13.124C6.3188 14.5358 7.94368 15.7048 9.72716 16.5829L10.3014 15.4166ZM5.83786 12.2041C4.52846 10.9097 3.44446 9.40564 2.63062 7.75405L1.46451 8.32866C2.34233 10.1101 3.51156 11.7325 4.92393 13.1287L5.83786 12.2041ZM2.63206 7.75699C2.19772 6.86419 2.0519 5.85841 2.21491 4.87908L0.932549 4.66564C0.725237 5.91118 0.910694 7.19032 1.46306 8.32571L2.63206 7.75699ZM2.21491 4.87908C2.37791 3.89974 2.84165 2.99539 3.54177 2.29141L2.62001 1.3747C1.72965 2.26997 1.13986 3.4201 0.932549 4.66564L2.21491 4.87908ZM3.54124 2.29194C3.56636 2.26675 3.59619 2.24741 3.62881 2.23493L3.16407 1.02083C2.95967 1.09908 2.77459 1.21963 2.62054 1.37417L3.54124 2.29194ZM3.62881 2.23493C3.66154 2.2224 3.69688 2.21685 3.73227 2.21883L3.80483 0.920859C3.58683 0.908672 3.36836 0.942634 3.16407 1.02083L3.62881 2.23493ZM3.73227 2.21883C3.76757 2.22081 3.80191 2.2302 3.83313 2.24634L4.43029 1.09161C4.23608 0.991178 4.02293 0.933051 3.80483 0.920859L3.73227 2.21883ZM3.83313 2.24634C3.86422 2.26242 3.89171 2.28497 3.91381 2.31275L4.93107 1.50331C4.79516 1.3325 4.62463 1.19211 4.43029 1.09161L3.83313 2.24634ZM3.91567 2.31508L5.58234 4.39007L6.59588 3.57598L4.92921 1.50099L3.91567 2.31508ZM5.57895 4.38581C5.72668 4.57292 5.81312 4.80092 5.82649 5.0386L7.12444 4.96562C7.09604 4.46066 6.91246 3.97691 6.59927 3.58023L5.57895 4.38581ZM5.82649 5.0386C5.83986 5.2764 5.77955 5.51262 5.6538 5.715L6.75798 6.40113C7.0248 5.97173 7.15282 5.47045 7.12444 4.96562L5.82649 5.0386ZM5.65831 5.70784L5.3332 6.21616L6.42835 6.91661L6.75347 6.40829L5.65831 5.70784ZM5.33095 6.2197C5.06522 6.64112 4.93399 7.1332 4.95421 7.63074L6.25314 7.57794C6.2436 7.34332 6.30549 7.11149 6.4306 6.91308L5.33095 6.2197ZM4.95421 7.63074C4.97444 8.12839 5.14533 8.60815 5.44432 9.00653L6.48406 8.22618C6.34319 8.03849 6.26267 7.81245 6.25314 7.57794L4.95421 7.63074ZM5.44571 9.00838C5.96185 9.691 6.52439 10.3373 7.12944 10.9426L8.04886 10.0235C7.48609 9.46054 6.96281 8.85935 6.48267 8.22433L5.44571 9.00838ZM8.20575 10.2774L8.18073 10.2024L6.94752 10.6137L6.97255 10.6887L8.20575 10.2774ZM14.3639 7.33387C14.3639 6.34592 13.9714 5.39848 13.2729 4.69993L12.3537 5.61917C12.8084 6.07396 13.0639 6.69074 13.0639 7.33387H14.3639ZM13.2729 4.69993C12.5743 4.00138 11.627 3.60887 10.639 3.60887V4.90887C11.2821 4.90887 11.8989 5.16437 12.3537 5.61917L13.2729 4.69993ZM17.9557 7.33341C17.9557 5.39289 17.1847 3.53187 15.8126 2.15974L14.8933 3.07898C16.0217 4.20734 16.6557 5.73772 16.6557 7.33341H17.9557ZM15.8126 2.15974C14.4404 0.78761 12.5795 0.0167481 10.639 0.0167481V1.31675C12.2347 1.31675 13.765 1.95063 14.8933 3.07898L15.8126 2.15974Z" fill="#004D43"/>
</g>
</svg>
