<svg width="36" height="36" viewBox="0 0 36 36" fill="none" xmlns="http://www.w3.org/2000/svg">
<rect width="36" height="36" rx="18" fill="white"/>
<g clip-path="url(#clip0_84_647)">
<path d="M25.2 19.28C25.68 15.28 24.96 12.72 23.68 11.6C21.6 9.59999 14.64 9.27999 12.16 11.68C11.12 12.8 10.72 14.48 10.64 16.56C10.56 18.64 10.56 22.56 14.16 23.6V25.2C14.16 25.2 14.16 25.84 14.56 26C15.04 26.16 15.28 25.84 16.72 24.08C19.2 24.32 21.12 23.84 21.36 23.76C21.84 23.52 24.72 23.12 25.2 19.28ZM17.04 22.88C17.04 22.88 15.44 24.8 14.96 25.36C14.8 25.52 14.64 25.52 14.64 25.2C14.64 24.96 14.64 22.56 14.64 22.56C11.6 21.68 11.76 18.4 11.76 16.64C11.76 14.88 12.08 13.52 13.04 12.56C15.2 10.56 21.28 10.96 22.88 12.48C24.8 14.16 24.08 18.88 24.08 19.04C23.68 22.32 21.36 22.48 20.96 22.64C20.8 22.64 19.12 23.04 17.04 22.88Z" fill="#004D43"/>
<path d="M17.84 12.8799C17.6 12.8799 17.6 13.2799 17.84 13.2799C19.84 13.2799 21.44 14.7199 21.52 17.1999C21.52 17.4399 21.92 17.4399 21.92 17.1999C21.92 14.4799 20.08 12.8799 17.84 12.8799Z" fill="#004D43"/>
<path d="M20.48 16.7999C20.48 17.0399 20.88 17.0399 20.88 16.7999C20.88 15.2799 20 14.0799 18.24 13.9199C18 13.9199 17.92 14.3199 18.24 14.3199C19.76 14.3999 20.56 15.4399 20.48 16.7999Z" fill="#004D43"/>
<path d="M20.08 18.4799C19.76 18.3199 19.44 18.3999 19.28 18.5599L18.96 18.9599C18.8 19.1199 18.56 19.1199 18.56 19.1199C16.56 18.5599 16 16.4799 16 16.4799C16 16.4799 16 16.1599 16.16 16.0799L16.56 15.7599C16.72 15.5999 16.88 15.2799 16.64 14.9599C16.16 14.0799 15.84 13.7599 15.68 13.5199C15.44 13.2799 15.2 13.2799 14.96 13.4399C14.4 13.7599 13.76 14.3999 13.92 15.0399C14.24 15.7599 14.88 17.9199 16.88 19.5999C17.84 20.3999 19.36 21.1999 20 21.3599C20.64 21.5999 21.2 20.8799 21.6 20.3199C21.76 19.9999 21.68 19.7599 21.52 19.5999C21.12 19.1999 20.56 18.7999 20.08 18.4799Z" fill="#004D43"/>
<path d="M18.48 15.4401C19.12 15.4401 19.44 15.8401 19.44 16.4801C19.44 16.7201 19.84 16.7201 19.84 16.4801C19.76 15.6001 19.36 15.1201 18.48 15.0401C18.24 14.9601 18.24 15.3601 18.48 15.4401Z" fill="#004D43"/>
</g>
<defs>
<clipPath id="clip0_84_647">
<rect width="16" height="16" fill="white" transform="translate(10 10)"/>
</clipPath>
</defs>
</svg>
