<svg width="36" height="36" viewBox="0 0 36 36" fill="none" xmlns="http://www.w3.org/2000/svg">
<rect width="36" height="36" rx="18" fill="white"/>
<g clip-path="url(#clip0_84_641)">
<path d="M17.84 22.56H18.8C18.8 22.56 19.12 22.56 19.2 22.4C19.36 22.24 19.36 22 19.36 22C19.36 22 19.36 20.72 19.92 20.56C20.48 20.4 21.28 21.84 22.08 22.32C22.72 22.72 23.12 22.64 23.12 22.64H25.28C25.28 22.64 26.4 22.56 25.84 21.68C25.76 21.6 25.52 21.04 24.24 19.84C22.88 18.56 23.04 18.8 24.72 16.64C25.68 15.36 26.08 14.56 26 14.16C25.92 13.84 25.12 13.92 25.12 13.92H22.72C22.72 13.92 22.56 13.92 22.4 14C22.24 14.08 22.16 14.24 22.16 14.24C22.16 14.24 21.76 15.28 21.28 16.08C20.24 17.92 19.76 18 19.6 17.92C19.2 17.68 19.28 16.88 19.28 16.32C19.28 14.56 19.52 13.84 18.72 13.6C18.48 13.52 18.24 13.52 17.6 13.52C16.72 13.52 16 13.52 15.6 13.76C15.44 13.76 15.2 14.08 15.36 14.08C15.52 14.08 15.84 14.16 16.08 14.4C16.32 14.8 16.32 15.52 16.32 15.52C16.32 15.52 16.4 17.6 15.92 17.84C15.6 18 15.12 17.68 14.16 16C13.76 15.2 13.36 14.24 13.36 14.24C13.36 14.24 13.28 14.08 13.2 14C13.04 13.84 12.8 13.84 12.8 13.84H10.48C10.48 13.84 10.16 13.84 9.99997 14C9.91997 14.16 9.99997 14.4 9.99997 14.4C9.99997 14.4 11.76 18.56 13.84 20.72C15.68 22.64 17.84 22.56 17.84 22.56Z" fill="#004D43"/>
</g>
<defs>
<clipPath id="clip0_84_641">
<rect width="16" height="16" fill="white" transform="translate(10 10)"/>
</clipPath>
</defs>
</svg>
