<svg width="36" height="36" viewBox="0 0 36 36" fill="none" xmlns="http://www.w3.org/2000/svg">
<rect width="36" height="36" rx="18" fill="white"/>
<path d="M25.68 14.1599C25.52 13.4399 24.96 12.9599 24.24 12.7199C22.96 12.3999 18 12.3999 18 12.3999C18 12.3999 13.04 12.3999 11.76 12.7199C11.12 12.9599 10.56 13.4399 10.32 14.1599C10 15.4399 10 17.9999 10 17.9999C10 17.9999 10 20.6399 10.32 21.8399C10.48 22.5599 11.04 23.0399 11.76 23.2799C13.04 23.5999 18 23.5999 18 23.5999C18 23.5999 22.96 23.5999 24.24 23.2799C24.96 23.1199 25.44 22.5599 25.68 21.8399C26 20.6399 26 17.9999 26 17.9999C26 17.9999 26 15.4399 25.68 14.1599ZM16.4 20.3999V15.5999L20.56 17.9999L16.4 20.3999Z" fill="#004D43"/>
</svg>
