<svg width="25" height="24" viewBox="0 0 25 24" fill="none" xmlns="http://www.w3.org/2000/svg">
<g id="01 align center">
<path id="Vector" d="M12.3642 19C12.7583 19.0007 13.1487 18.9234 13.5128 18.7728C13.877 18.6221 14.2078 18.4009 14.4862 18.122L18.4052 14.2L16.9912 12.79L13.3582 16.424L13.3322 0H11.3322L11.3582 16.408L7.73822 12.788L6.32422 14.2L10.2432 18.119C10.5213 18.3983 10.8518 18.6199 11.2158 18.7711C11.5798 18.9223 11.9701 19.0001 12.3642 19Z" fill="url(#paint0_linear_344_35344)"/>
<path id="Vector_2" d="M22.332 16V21C22.332 21.2652 22.2267 21.5196 22.0391 21.7071C21.8516 21.8946 21.5972 22 21.332 22H3.33203C3.06681 22 2.81246 21.8946 2.62492 21.7071C2.43739 21.5196 2.33203 21.2652 2.33203 21V16H0.332031V21C0.332031 21.7956 0.648102 22.5587 1.21071 23.1213C1.77332 23.6839 2.53638 24 3.33203 24H21.332C22.1277 24 22.8907 23.6839 23.4534 23.1213C24.016 22.5587 24.332 21.7956 24.332 21V16H22.332Z" fill="url(#paint1_linear_344_35344)"/>
</g>
<defs>
<linearGradient id="paint0_linear_344_35344" x1="6.56266" y1="12.4338" x2="18.4052" y2="12.4338" gradientUnits="userSpaceOnUse">
<stop stop-color="#FFC700"/>
<stop offset="0.96875" stop-color="#FBE38E"/>
</linearGradient>
<linearGradient id="paint1_linear_344_35344" x1="0.805716" y1="21.2353" x2="24.332" y2="21.2353" gradientUnits="userSpaceOnUse">
<stop stop-color="#FFC700"/>
<stop offset="0.96875" stop-color="#FBE38E"/>
</linearGradient>
</defs>
</svg>
