<svg width="45" height="48" viewBox="0 0 45 48" fill="none" xmlns="http://www.w3.org/2000/svg">
<g id="Group 251">
<g id="Group 250">
<path id="Vector" d="M3.23062 48C3.13131 47.9624 3.03451 47.9173 2.93394 47.8873C2.2303 47.6986 1.60949 47.2825 1.16898 46.7042C0.728473 46.1259 0.493215 45.4183 0.500149 44.6924C0.500149 41.381 0.500149 38.0734 0.500149 34.7582C0.500149 27.0885 0.500149 19.4191 0.500149 11.7501C0.500149 9.75505 1.64162 8.62663 3.65678 8.62537C6.60516 8.62537 9.55269 8.62537 12.4994 8.62537C14.3851 8.62537 15.5542 9.79137 15.558 11.6587C15.558 12.1872 15.558 12.717 15.558 13.2793H22.2396V12.7784C22.2396 9.23154 22.2396 5.68554 22.2396 2.14037C22.2396 0.740176 22.9788 0 24.3855 0C26.127 0 27.8673 0 29.6063 0C30.881 0 31.6542 0.771487 31.6542 2.04394C31.6542 5.6058 31.6542 9.16725 31.6542 12.7283V13.3119H37.007C39.1089 13.3119 40.2127 14.4203 40.2127 16.5281V17.9997H41.8105C43.7577 17.9997 44.9168 19.1482 44.9168 21.0781C44.9168 28.9049 44.9168 36.7308 44.9168 44.5559C44.9168 46.586 44.4353 47.2924 42.5647 47.9987L3.23062 48ZM7.08873 23.6255V24.238C7.08873 30.6578 7.08873 37.0781 7.08873 43.4988C7.08873 44.363 7.0045 45.2272 6.96302 46.1289H41.8255C42.7206 46.1289 43.0349 45.812 43.0349 44.9103C43.0349 36.9742 43.0349 29.0385 43.0349 21.1032C43.0349 20.2002 42.7206 19.8808 41.8281 19.8808C38.5822 19.8808 35.3363 19.8808 32.0904 19.8808C31.9546 19.8808 31.8188 19.8958 31.6831 19.9034V21.7557C31.9974 21.7557 32.2777 21.7482 32.5631 21.7557C33.355 21.7795 33.9459 22.1427 34.2803 22.8578C34.6247 23.5967 34.5317 24.3281 33.9635 24.9017C32.0652 26.8321 30.1473 28.7429 28.2096 30.634C27.8755 30.9647 27.4235 31.1503 26.9525 31.1503C26.4815 31.1503 26.0296 30.9647 25.6954 30.634C23.7511 28.7471 21.8298 26.8367 19.9315 24.903C19.3809 24.3432 19.2728 23.6355 19.5908 22.8991C19.9089 22.1627 20.4859 21.7945 21.2766 21.7507C21.5846 21.7331 21.8939 21.7507 22.2069 21.7507V19.872H8.44516C8.28802 19.872 8.13088 19.8645 7.975 19.8783C7.761 19.8875 7.55703 19.9713 7.39872 20.115C7.24041 20.2588 7.13781 20.4534 7.10884 20.6648C7.08799 21.0252 7.08548 21.3863 7.1013 21.7469C8.48413 21.7469 9.81668 21.7206 11.1455 21.7657C11.4949 21.7817 11.8245 21.9316 12.0657 22.184C12.2291 22.3819 12.2278 22.8102 12.1461 23.087C12.0317 23.479 11.6596 23.6268 11.246 23.6255H7.08873ZM22.2195 15.188H21.6638C19.3742 15.188 17.0854 15.188 14.7974 15.188C14.023 15.188 13.6811 14.8424 13.6773 14.0696C13.6735 13.2969 13.6773 12.5379 13.6773 11.7727C13.6773 10.787 13.3857 10.5027 12.3787 10.5015H3.72215C2.65611 10.5002 2.38583 10.7708 2.38583 11.8253V44.388C2.38583 44.5133 2.38583 44.6385 2.38583 44.7638C2.40196 45.1103 2.54464 45.4391 2.78704 45.6882C3.02943 45.9373 3.35484 46.0896 3.70204 46.1164C4.04986 46.1351 4.39254 46.0264 4.66537 45.8106C4.93821 45.5949 5.12231 45.2871 5.18293 44.9454C5.2075 44.7439 5.21507 44.5407 5.20556 44.3379V21.1933C5.20556 19.0993 6.31686 18.0009 8.43259 18.0009H22.2195V15.188ZM24.1215 1.89741V21.5603C24.1215 23.6255 24.1215 23.6255 22.0686 23.6255H21.44L26.945 29.1124L32.4763 23.6255C32.3167 23.6255 32.152 23.6255 31.9873 23.6255C29.7798 23.6806 29.7572 23.5905 29.7634 21.395C29.7836 15.0853 29.771 8.77566 29.771 2.46475V1.89741H24.1215ZM38.327 17.9809C38.327 17.3835 38.327 16.8387 38.327 16.2939C38.3207 15.5337 37.9725 15.1905 37.1956 15.1893C35.4741 15.1893 33.7527 15.1893 32.0313 15.1893C31.9056 15.1893 31.7924 15.2093 31.6818 15.2181V17.9809H38.327Z" fill="#FFC700"/>
<path id="Vector_2" d="M16.4965 22.7092C16.4923 22.8949 16.4327 23.0751 16.3252 23.2268C16.2178 23.3785 16.0674 23.4949 15.8932 23.5611C15.7191 23.6273 15.5291 23.6403 15.3475 23.5985C15.1659 23.5566 15.0009 23.4618 14.8737 23.3261C14.7464 23.1904 14.6626 23.02 14.633 22.8367C14.6034 22.6533 14.6293 22.4654 14.7074 22.2968C14.7855 22.1281 14.9122 21.9865 15.0715 21.89C15.2307 21.7935 15.4152 21.7465 15.6014 21.7549C15.8452 21.7687 16.0742 21.8756 16.2409 22.0533C16.4076 22.2311 16.4991 22.466 16.4965 22.7092Z" fill="#FFC700"/>
</g>
</g>
</svg>
