<svg width="48" height="48" viewBox="0 0 48 48" fill="none" xmlns="http://www.w3.org/2000/svg">
<g clip-path="url(#clip0_792_24869)">
<path d="M0 8.80956C0.0716421 8.5222 0.200567 8.25226 0.379046 8.01593C0.557525 7.77959 0.781884 7.58172 1.03867 7.43419C1.29547 7.28665 1.5794 7.19248 1.87347 7.15731C2.16753 7.12215 2.46566 7.14673 2.75 7.22956C3.78688 7.3874 4.73607 7.90246 5.43355 8.68576C6.13103 9.46906 6.533 10.4714 6.57 11.5196C6.57 12.7196 6.57 13.9296 6.57 15.1296V15.6996L8.85 15.2796C8.91144 15.2565 8.96397 15.2144 9 15.1596C9.10831 14.928 9.15069 14.6711 9.12246 14.4171C9.09423 14.163 8.9965 13.9217 8.84 13.7196C8.27426 13.0671 7.88527 12.2806 7.7102 11.435C7.53513 10.5893 7.57982 9.71297 7.84 8.88956C8.09297 8.06404 8.63972 7.35986 9.37681 6.91023C10.1139 6.46061 10.9902 6.29671 11.84 6.44956C12.6848 6.59437 13.4506 7.03507 14.0003 7.69282C14.5499 8.35056 14.8476 9.18243 14.84 10.0396C14.9038 10.7606 14.8128 11.4869 14.5731 12.1698C14.3333 12.8528 13.9504 13.4766 13.45 13.9996C13.4083 14.0507 13.3778 14.1102 13.3606 14.1739C13.3433 14.2377 13.3397 14.3043 13.35 14.3696C13.35 14.6596 13.45 14.9496 13.52 15.2896L14.75 15.5196C14.8018 15.1827 14.8719 14.8488 14.96 14.5196C15.1781 13.6912 15.6312 12.9436 16.2647 12.3669C16.8981 11.7903 17.6848 11.4092 18.53 11.2696C19.31 11.1096 20.09 10.9696 20.88 10.8396C21.16 10.8396 21.24 10.6896 21.3 10.4096C21.3565 10.1505 21.3476 9.88138 21.2743 9.62653C21.201 9.37169 21.0655 9.13905 20.88 8.94956C20.2347 8.15908 19.7911 7.22369 19.5873 6.22382C19.3835 5.22396 19.4256 4.18955 19.71 3.20956C19.9596 2.30223 20.4954 1.49971 21.2377 0.921347C21.98 0.342988 22.8892 0.0196975 23.83 -0.000437562C24.7669 -0.0315204 25.6903 0.228796 26.473 0.74462C27.2557 1.26044 27.8591 2.00637 28.2 2.87956C28.245 2.96617 28.2724 3.06081 28.2806 3.15805C28.2889 3.25529 28.2778 3.3532 28.2481 3.44615C28.2183 3.53909 28.1705 3.62523 28.1073 3.69962C28.0442 3.774 27.9669 3.83516 27.88 3.87956C27.47 4.04956 27.11 3.87956 26.88 3.35956C26.6264 2.63695 26.1142 2.0338 25.4423 1.66636C24.7704 1.29892 23.9862 1.1932 23.241 1.36957C22.4958 1.54594 21.8422 1.99193 21.4062 2.62157C20.9703 3.2512 20.7828 4.01992 20.88 4.77956C20.9191 5.45674 21.0331 6.1275 21.22 6.77956C21.3745 7.26254 21.6263 7.70871 21.96 8.09054C22.2937 8.47237 22.7021 8.78175 23.16 8.99956C23.4167 9.15384 23.7105 9.23535 24.01 9.23535C24.3095 9.23535 24.6033 9.15384 24.86 8.99956C25.3373 8.75416 25.7604 8.41521 26.104 8.00289C26.4476 7.59057 26.7047 7.11332 26.86 6.59956C26.8825 6.43347 26.9297 6.27168 27 6.11956C27.0881 5.98524 27.2249 5.89036 27.3816 5.85491C27.5383 5.81947 27.7027 5.84623 27.84 5.92956C27.9921 5.99594 28.1136 6.11719 28.1804 6.26916C28.2471 6.42113 28.2541 6.59265 28.2 6.74956C27.9739 7.69502 27.4972 8.56208 26.82 9.25956C26.7063 9.48053 26.6405 9.72294 26.6267 9.97104C26.6129 10.2191 26.6515 10.4674 26.74 10.6996C26.8423 10.7642 26.9592 10.8021 27.08 10.8096C27.83 10.9596 28.58 11.0896 29.34 11.2296C30.3371 11.384 31.2539 11.8675 31.9443 12.6033C32.6348 13.3391 33.0592 14.2847 33.15 15.2896C33.1608 15.3543 33.1775 15.4179 33.2 15.4796L34.28 15.2796C34.3409 15.2719 34.3973 15.2436 34.44 15.1996C34.5339 14.9733 34.5747 14.7286 34.5591 14.4841C34.5435 14.2396 34.4719 14.002 34.35 13.7896C33.7525 13.1414 33.3369 12.3468 33.1455 11.4863C32.9541 10.6257 32.9936 9.7299 33.26 8.88956C33.5228 8.03534 34.0982 7.31168 34.8712 6.86308C35.6442 6.41448 36.5579 6.27396 37.43 6.46956C38.2849 6.65434 39.0454 7.13917 39.5737 7.83624C40.102 8.53331 40.3632 9.39653 40.31 10.2696C40.3336 10.9537 40.2211 11.6357 39.9791 12.276C39.737 12.9163 39.3703 13.5021 38.9 13.9996C38.58 14.2996 38.9 15.2896 39.37 15.3696L41.42 15.7396V15.2196C41.42 13.9996 41.42 12.7796 41.42 11.5596C41.4447 10.4229 41.9025 9.33866 42.6998 8.52829C43.4972 7.71791 44.5739 7.24263 45.71 7.19956C46.0126 7.15344 46.3218 7.17739 46.6137 7.26958C46.9056 7.36177 47.1724 7.51974 47.3937 7.73131C47.6149 7.94288 47.7846 8.20241 47.8897 8.4899C47.9948 8.7774 48.0326 9.08519 48 9.38956V27.1496C48.0103 27.1957 48.0103 27.2435 48 27.2896C47.8659 28.0024 47.6684 28.7018 47.41 29.3796C47.0816 30.0192 46.6967 30.6283 46.26 31.1996C46.2131 31.2842 46.1489 31.358 46.0715 31.4162C45.9942 31.4744 45.9056 31.5157 45.8112 31.5374C45.7169 31.5591 45.6191 31.5607 45.5242 31.5421C45.4292 31.5235 45.3392 31.4852 45.26 31.4296C45.1821 31.3758 45.1158 31.3069 45.0653 31.2268C45.0148 31.1467 44.981 31.0573 44.966 30.9638C44.9511 30.8703 44.9552 30.7748 44.9783 30.683C45.0013 30.5911 45.0427 30.5049 45.1 30.4296C45.41 29.9296 45.75 29.4296 46.1 28.9496C46.4609 28.4157 46.6494 27.7839 46.64 27.1396V9.46956C46.64 8.77956 46.41 8.56956 45.73 8.60956C44.9936 8.6652 44.3016 8.98361 43.7803 9.50675C43.259 10.0299 42.9431 10.7229 42.89 11.4596C42.89 12.0996 42.89 12.7396 42.89 13.3896C42.89 17.1496 42.89 20.9129 42.89 24.6796C42.9095 25.7357 42.5105 26.7566 41.78 27.5196C39.43 30.0496 37.1 32.5996 34.78 35.1396C34.64 35.2896 34.51 35.4396 34.36 35.5796C34.2337 35.7183 34.0577 35.8015 33.8703 35.8108C33.6829 35.8202 33.4995 35.755 33.36 35.6296C33.2922 35.5651 33.2383 35.4875 33.2014 35.4016C33.1645 35.3156 33.1455 35.2231 33.1455 35.1296C33.1455 35.036 33.1645 34.9435 33.2014 34.8575C33.2383 34.7716 33.2922 34.694 33.36 34.6296C33.94 33.9696 34.54 33.3296 35.13 32.6896L40.9 26.4096C41.1666 26.1425 41.3522 25.8055 41.4353 25.4374C41.5185 25.0694 41.4958 24.6853 41.37 24.3296C41.2532 23.9645 41.0299 23.6428 40.7287 23.4057C40.4275 23.1687 40.0623 23.0273 39.68 22.9996C39.3454 22.9507 39.0039 22.9874 38.6874 23.1063C38.3708 23.2252 38.0896 23.4225 37.87 23.6796L30.11 31.3696L29.88 31.5996C29.747 31.7315 29.5673 31.8055 29.38 31.8055C29.1927 31.8055 29.013 31.7315 28.88 31.5996C28.8166 31.5311 28.7676 31.4507 28.7357 31.363C28.7039 31.2754 28.6899 31.1822 28.6945 31.089C28.6992 30.9959 28.7224 30.9046 28.7628 30.8205C28.8033 30.7365 28.8601 30.6613 28.93 30.5996C29.34 30.1696 29.77 29.7496 30.19 29.3396C30.3 29.2296 30.44 29.1496 30.63 28.9996C30.2083 28.7432 29.8738 28.3655 29.6704 27.9158C29.467 27.4662 29.4041 26.9656 29.49 26.4796C29.49 24.1496 29.49 21.8196 29.49 19.4796C29.4425 18.7399 29.6158 18.0029 29.9879 17.3619C30.36 16.721 30.9141 16.205 31.58 15.8796C31.647 15.8309 31.7024 15.768 31.7422 15.6954C31.7819 15.6228 31.8051 15.5422 31.81 15.4596C31.7703 14.7916 31.5149 14.1545 31.0821 13.6442C30.6493 13.1339 30.0625 12.7778 29.41 12.6296C28.57 12.4496 27.72 12.2996 26.88 12.1796C26.7809 12.1747 26.6819 12.1919 26.5903 12.2299C26.4986 12.268 26.4165 12.3259 26.35 12.3996C26.0686 12.7428 25.7145 13.0193 25.3134 13.2092C24.9122 13.3991 24.4739 13.4976 24.03 13.4976C23.5862 13.4976 23.1478 13.3991 22.7466 13.2092C22.3455 13.0193 21.9914 12.7428 21.71 12.3996C21.6422 12.3275 21.5599 12.2707 21.4686 12.2328C21.3772 12.1948 21.2789 12.1767 21.18 12.1796C20.33 12.2996 19.48 12.4496 18.64 12.6296C17.9981 12.781 17.4204 13.1313 16.9894 13.6306C16.5584 14.1298 16.2961 14.7524 16.24 15.4096C16.2166 15.5141 16.2321 15.6236 16.2837 15.7174C16.3352 15.8113 16.4193 15.8832 16.52 15.9196C17.1337 16.2158 17.6489 16.6828 18.0036 17.2647C18.3584 17.8465 18.5377 18.5183 18.52 19.1996C18.52 21.8396 18.52 24.4796 18.52 27.1196C18.5274 27.4839 18.4389 27.8439 18.2634 28.1633C18.0879 28.4827 17.8315 28.7504 17.52 28.9396L23.28 34.7996C23.28 34.7996 23.28 34.5996 23.28 34.4496C23.28 32.4496 23.28 30.3596 23.28 28.3096C23.28 28.1696 23.28 28.0296 23.28 27.8896C23.28 27.7039 23.3538 27.5259 23.485 27.3946C23.6163 27.2633 23.7943 27.1896 23.98 27.1896C24.1657 27.1896 24.3437 27.2633 24.475 27.3946C24.6063 27.5259 24.68 27.7039 24.68 27.8896C24.68 28.0296 24.68 28.1696 24.68 28.3096V34.9996C24.83 34.8296 24.9 34.7396 24.98 34.6596C25.45 34.1196 25.9 33.5596 26.39 33.0396C26.4532 32.9638 26.5314 32.9021 26.6198 32.8582C26.7082 32.8144 26.8047 32.7895 26.9032 32.785C27.0018 32.7806 27.1001 32.7967 27.1921 32.8324C27.2841 32.868 27.3676 32.9225 27.4373 32.9922C27.5071 33.062 27.5615 33.1455 27.5972 33.2375C27.6329 33.3294 27.649 33.4278 27.6446 33.5263C27.6401 33.6249 27.6152 33.7214 27.5713 33.8098C27.5275 33.8981 27.4658 33.9764 27.39 34.0396C26.2096 35.1076 25.3682 36.4983 24.97 38.0396C24.4966 39.8406 24.6664 41.7503 25.45 43.4396C25.9622 44.5112 26.2773 45.6663 26.38 46.8496C26.4348 47.0575 26.4281 47.2768 26.3607 47.481C26.2932 47.6851 26.1679 47.8653 26 47.9996H25.4C25.2429 47.8652 25.1202 47.6953 25.0419 47.504C24.9637 47.3127 24.9322 47.1055 24.95 46.8996C24.8599 45.8068 24.5359 44.7462 24 43.7896C23.4561 44.7536 23.1317 45.8257 23.05 46.9296C23.0505 47.1196 23.0096 47.3075 22.9301 47.4802C22.8507 47.6529 22.7346 47.8062 22.59 47.9296H22C21.8408 47.808 21.7189 47.6442 21.6482 47.4568C21.5775 47.2695 21.5608 47.066 21.6 46.8696C21.704 45.6877 22.0154 44.5334 22.52 43.4596C23.2125 41.9509 23.4265 40.2663 23.1333 38.6324C22.8401 36.9984 22.0538 35.4934 20.88 34.3196C20.37 33.7996 19.88 33.3196 19.32 32.7696L10.1 23.6296C9.87813 23.3861 9.59956 23.2012 9.28903 23.0913C8.9785 22.9814 8.64563 22.9499 8.32 22.9996C7.95271 23.0403 7.60511 23.1866 7.31934 23.4209C7.03357 23.6552 6.8219 23.9674 6.71 24.3196C6.57558 24.6893 6.55322 25.0906 6.64572 25.473C6.73821 25.8554 6.94145 26.2021 7.23 26.4696L14.49 34.3696C14.98 34.8996 15.05 35.2996 14.72 35.6296C14.39 35.9596 13.95 35.8596 13.45 35.3196C11.03 32.6796 8.62 30.0496 6.19 27.4196C5.52703 26.7065 5.16828 25.763 5.19 24.7896C5.19 21.9296 5.19 19.0696 5.19 16.2096C5.19 14.6496 5.19 13.0896 5.19 11.5296C5.15599 10.7678 4.83878 10.0461 4.3005 9.506C3.76222 8.96587 3.04167 8.64618 2.28 8.60956C1.64 8.60956 1.41 8.78956 1.41 9.44956C1.41 10.7496 1.41 12.0496 1.41 13.3396C1.41 13.7396 1.41 14.0996 0.94 14.2696C0.47 14.4396 0.25 14.1696 0 13.8696V8.80956ZM41.42 21.9996C41.42 20.5496 41.42 18.9996 41.42 17.4696C41.42 17.3296 41.18 17.1096 41.02 17.0696C40.45 16.9196 39.86 16.8596 39.28 16.7196C39.1371 16.6675 38.9812 16.6628 38.8354 16.706C38.6896 16.7492 38.5615 16.8381 38.47 16.9596C38.0905 17.3855 37.5633 17.6513 36.9952 17.7033C36.4272 17.7552 35.8605 17.5895 35.41 17.2396C35.1611 16.9972 34.8478 16.8315 34.5073 16.7623C34.1669 16.6932 33.8137 16.7235 33.49 16.8496C33.34 16.8496 33.18 16.9096 33.03 16.9396C32.7203 16.9594 32.4179 17.0417 32.1409 17.1814C31.8638 17.3212 31.6179 17.5156 31.418 17.7529C31.2181 17.9902 31.0682 18.2655 30.9775 18.5623C30.8867 18.859 30.857 19.171 30.89 19.4796C30.89 21.9262 30.89 24.3762 30.89 26.8296C30.868 27.0151 30.8885 27.2032 30.95 27.3796C31.0576 27.559 31.2291 27.6911 31.43 27.7496C31.527 27.7531 31.6235 27.7342 31.7119 27.6943C31.8004 27.6544 31.8784 27.5946 31.94 27.5196C32.0414 27.3513 32.0869 27.1553 32.07 26.9596C32.07 24.9596 32.07 23.0196 32.07 21.0596C32.0599 20.8727 32.0871 20.6858 32.15 20.5096C32.2045 20.3591 32.3151 20.2355 32.4586 20.1647C32.6021 20.0939 32.7674 20.0813 32.92 20.1296C33.0916 20.1591 33.2454 20.2533 33.3496 20.3929C33.4538 20.5324 33.5004 20.7066 33.48 20.8796V25.9996L33.64 26.0696C34.75 24.9296 35.85 23.7896 36.97 22.6496C37.2618 22.3229 37.6216 22.0641 38.0242 21.8913C38.4267 21.7185 38.8622 21.636 39.3 21.6496C40.0149 21.709 40.7239 21.8261 41.42 21.9996ZM14.42 25.9996L14.57 25.9196V20.9996C14.57 20.3596 15.08 19.9996 15.57 20.2496C15.7131 20.3309 15.828 20.4539 15.8995 20.6021C15.971 20.7504 15.9956 20.917 15.97 21.0796C15.97 23.0796 15.97 25.0796 15.97 27.0796C15.97 27.5396 16.22 27.8396 16.57 27.7996C16.92 27.7596 17.16 27.4896 17.16 27.0896C17.16 24.4696 17.16 21.8496 17.16 19.2296C17.1724 18.6894 16.9856 18.1636 16.6352 17.7523C16.2848 17.341 15.7953 17.0731 15.26 16.9996C14.7 16.8796 14.13 16.7696 13.56 16.6896C13.3886 16.6944 13.2249 16.762 13.1 16.8796C12.8693 17.1364 12.5871 17.3417 12.2718 17.4823C11.9566 17.6229 11.6152 17.6956 11.27 17.6956C10.9248 17.6956 10.5834 17.6229 10.2682 17.4823C9.95287 17.3417 9.6707 17.1364 9.44 16.8796C9.3412 16.7698 9.20645 16.6988 9.06 16.6796C8.35 16.7996 7.65 16.9396 6.95 17.0796C6.89242 17.0857 6.83666 17.1034 6.78608 17.1316C6.7355 17.1598 6.69114 17.1979 6.65565 17.2436C6.62017 17.2894 6.59429 17.3419 6.57957 17.3979C6.56485 17.4539 6.5616 17.5123 6.57 17.5696C6.57 19.0196 6.57 20.4796 6.57 21.9296C6.56263 21.9994 6.56263 22.0698 6.57 22.1396C7.34301 21.6506 8.27142 21.4697 9.17145 21.6327C10.0715 21.7957 10.8775 22.2906 11.43 23.0196C12.41 24.0596 13.41 24.9996 14.38 25.9996H14.42ZM38.92 10.4696C39.0213 9.90278 38.9043 9.31868 38.5927 8.83454C38.2811 8.35041 37.7978 8.0021 37.24 7.85956C36.7117 7.73517 36.1562 7.80771 35.6775 8.0636C35.1989 8.31949 34.83 8.74116 34.64 9.24956C34.4618 9.88951 34.45 10.5644 34.6058 11.2101C34.7615 11.8559 35.0797 12.4512 35.53 12.9396C35.6708 13.126 35.8528 13.2772 36.0619 13.3813C36.271 13.4854 36.5014 13.5396 36.735 13.5396C36.9686 13.5396 37.199 13.4854 37.4081 13.3813C37.6172 13.2772 37.7992 13.126 37.94 12.9396C38.2666 12.619 38.5226 12.2336 38.6913 11.8083C38.8601 11.3829 38.938 10.9269 38.92 10.4696ZM13.5 10.0996C13.5139 9.55631 13.3299 9.02652 12.9822 8.6089C12.6345 8.19127 12.1468 7.91429 11.61 7.82956C11.0891 7.72757 10.5489 7.8266 10.0981 8.10675C9.64726 8.38689 9.31923 8.82737 9.18 9.33956C8.99931 9.94072 8.97805 10.5785 9.1183 11.1904C9.25856 11.8023 9.5555 12.3671 9.98 12.8296C10.1219 13.0462 10.3155 13.2241 10.5433 13.3472C10.7711 13.4704 11.026 13.5348 11.285 13.5348C11.544 13.5348 11.7989 13.4704 12.0267 13.3472C12.2545 13.2241 12.4481 13.0462 12.59 12.8296C13.2294 12.0683 13.5547 11.0922 13.5 10.0996ZM22.74 10.3996C22.54 11.0096 22.55 11.5096 23.13 11.8696C23.3985 12.0319 23.7063 12.1177 24.02 12.1177C24.3337 12.1177 24.6415 12.0319 24.91 11.8696C25.46 11.5096 25.44 11.0196 25.26 10.4496C24.859 10.6146 24.4283 10.6953 23.9948 10.6867C23.5613 10.6781 23.1341 10.5803 22.74 10.3996ZM10.52 14.8996C10.52 15.3396 10.15 15.7896 10.7 16.1296C10.8842 16.2481 11.1009 16.306 11.3196 16.2952C11.5384 16.2845 11.7483 16.2056 11.92 16.0696C12.38 15.6896 12.01 15.2896 12.01 14.8996H10.52ZM36 14.8996C36 15.2896 35.62 15.6896 36.09 16.0696C36.2674 16.2116 36.4878 16.2889 36.715 16.2889C36.9422 16.2889 37.1626 16.2116 37.34 16.0696C37.86 15.7096 37.49 15.2796 37.47 14.8696L36 14.8996Z" fill="#004D43"/>
<path d="M11.62 47.9996C11.4361 47.7292 11.2945 47.4325 11.2 47.1196C11.0006 45.7432 10.4911 44.4302 9.71 43.2796L1.49 30.8096C0.790231 29.924 0.282768 28.9023 0 27.8096V16.6796C0.22 16.3396 0.5 16.0896 0.93 16.2396C1.36 16.3896 1.41 16.7496 1.41 17.1496C1.41 20.4296 1.41 23.7096 1.41 26.9796C1.38788 27.7265 1.59367 28.4624 2 29.0896C4.97333 33.5629 7.93333 38.0396 10.88 42.5196C11.7702 43.8416 12.345 45.3503 12.56 46.9296C12.5957 47.117 12.577 47.3108 12.5061 47.488C12.4353 47.6652 12.3151 47.8184 12.16 47.9296L11.62 47.9996Z" fill="#004D43"/>
<path d="M35.81 47.9996C35.6549 47.8884 35.5347 47.7352 35.4639 47.558C35.393 47.3808 35.3743 47.187 35.41 46.9996C35.5925 45.439 36.137 43.9426 37 42.6296L43.11 33.3796C43.31 33.0696 43.56 32.7996 43.94 32.9296C44.0591 32.9707 44.1675 33.0378 44.2574 33.126C44.3473 33.2142 44.4165 33.3213 44.46 33.4396C44.4637 33.726 44.3761 34.0062 44.21 34.2396C42.3233 37.1462 40.4133 40.0662 38.48 42.9996C37.5909 44.2687 37.009 45.727 36.78 47.2596C36.78 47.5296 36.45 47.7796 36.28 48.0296L35.81 47.9996Z" fill="#004D43"/>
<path d="M28.12 16.9996C28.0786 17.5785 27.8217 18.1208 27.4 18.5196C26.47 19.5196 25.53 20.4096 24.59 21.3396C24.5223 21.4325 24.4335 21.5082 24.331 21.5603C24.2284 21.6125 24.115 21.6397 24 21.6397C23.885 21.6397 23.7716 21.6125 23.669 21.5603C23.5665 21.5082 23.4777 21.4325 23.41 21.3396C22.49 20.4296 21.57 19.5096 20.66 18.5896C20.224 18.1544 19.9609 17.5756 19.9199 16.961C19.8789 16.3463 20.0626 15.7377 20.4369 15.2484C20.8112 14.7592 21.3505 14.4226 21.9545 14.3014C22.5585 14.1802 23.1859 14.2826 23.72 14.5896C23.8062 14.6507 23.9093 14.6835 24.015 14.6835C24.1207 14.6835 24.2238 14.6507 24.31 14.5896C24.7137 14.3697 25.1688 14.2617 25.6282 14.2767C26.0877 14.2917 26.5348 14.4292 26.9232 14.6749C27.3117 14.9206 27.6275 15.2657 27.8379 15.6744C28.0483 16.0831 28.1457 16.5406 28.12 16.9996ZM24 19.9996C24.82 19.1796 25.61 18.4096 26.38 17.6196C26.4852 17.5146 26.5687 17.3899 26.6257 17.2526C26.6826 17.1154 26.7119 16.9682 26.7119 16.8196C26.7119 16.6709 26.6826 16.5238 26.6257 16.3865C26.5687 16.2492 26.4852 16.1245 26.38 16.0196C26.2737 15.9095 26.1463 15.8219 26.0054 15.7621C25.8645 15.7023 25.713 15.6715 25.56 15.6715C25.407 15.6715 25.2555 15.7023 25.1146 15.7621C24.9737 15.8219 24.8463 15.9095 24.74 16.0196C24.02 16.6396 23.92 16.6396 23.23 16.0196C23.123 15.9107 22.9953 15.8243 22.8546 15.7653C22.7138 15.7062 22.5627 15.6759 22.41 15.6759C22.2573 15.6759 22.1062 15.7062 21.9654 15.7653C21.8247 15.8243 21.697 15.9107 21.59 16.0196C21.4836 16.1238 21.399 16.2483 21.3413 16.3857C21.2836 16.5231 21.2538 16.6706 21.2538 16.8196C21.2538 16.9686 21.2836 17.1161 21.3413 17.2534C21.399 17.3908 21.4836 17.5153 21.59 17.6196C22.38 18.3896 23.18 19.1596 24 19.9996Z" fill="#004D43"/>
</g>
<defs>
<clipPath id="clip0_792_24869">
<rect width="48" height="48" fill="white"/>
</clipPath>
</defs>
</svg>
