<svg width="65" height="64" viewBox="0 0 65 64" fill="none" xmlns="http://www.w3.org/2000/svg">
<path d="M30.9516 60C29.7365 59.8264 28.504 59.7309 27.3149 59.4706C17.3508 57.3094 10.3031 51.5375 6.63166 42.0421C5.21231 38.4748 4.54799 34.6518 4.68065 30.8148C4.8133 26.9777 5.74004 23.2098 7.40236 19.749C9.06468 16.2881 11.4265 13.2095 14.3386 10.7075C17.2508 8.20551 20.6501 6.33444 24.3218 5.21245C27.9936 4.09045 31.8581 3.7419 35.6714 4.1888C39.4846 4.63569 43.1638 5.86833 46.4767 7.80889C49.7895 9.74944 52.6641 12.3558 54.9188 15.4633C57.1735 18.5709 58.7595 22.1121 59.5766 25.8635C59.8977 27.2436 60.0279 28.6757 60.2449 30.0818C60.2449 30.2554 60.3057 30.429 60.3404 30.6025V33.8574C60.2015 34.9076 60.0887 35.9665 59.9064 37.008C59.2179 41.0768 57.6121 44.9354 55.2108 48.2914C55.1396 48.4253 55.0417 48.5433 54.9232 48.6379C54.8047 48.7326 54.668 48.802 54.5216 48.8419C54.3753 48.8817 54.2223 48.8912 54.0721 48.8696C53.9219 48.8481 53.7778 48.796 53.6485 48.7167C53.519 48.6308 53.4096 48.5179 53.3279 48.3857C53.2462 48.2536 53.1941 48.1053 53.1751 47.9511C53.1561 47.7969 53.1708 47.6404 53.218 47.4923C53.2653 47.3443 53.344 47.2083 53.4489 47.0936C55.9332 43.6205 57.5076 39.5801 58.028 35.3417C58.5485 31.1033 57.9984 26.8021 56.4282 22.8311C54.8579 18.86 52.3174 15.3459 49.039 12.6097C45.7606 9.87353 41.8487 8.0026 37.6609 7.1679C31.3292 5.89552 24.7506 7.06452 19.2449 10.4403C13.7393 13.8162 9.71379 19.1491 7.97616 25.3692C6.23854 31.5893 6.9173 38.2364 9.87627 43.9768C12.8352 49.7173 17.8555 54.1266 23.9299 56.3199C32.0105 59.1928 39.7006 58.1252 46.8959 53.4383C47.0868 53.3168 47.2777 53.1692 47.4774 53.0477C47.5884 52.9362 47.7226 52.8504 47.8703 52.7963C48.0181 52.7423 48.176 52.7213 48.3328 52.7348C48.4896 52.7484 48.6415 52.7962 48.7778 52.8748C48.9141 52.9534 49.0315 53.061 49.1218 53.1899C49.212 53.3188 49.2729 53.466 49.3001 53.621C49.3273 53.776 49.3202 53.935 49.2793 54.087C49.2384 54.239 49.1646 54.3801 49.0632 54.5004C48.9618 54.6208 48.8353 54.7175 48.6925 54.7836C47.7464 55.4172 46.8004 56.0508 45.8022 56.589C42.3588 58.4825 38.5437 59.6022 34.623 59.8698C34.4842 59.8698 34.3453 59.9306 34.1977 59.9566L30.9516 60Z" fill="#004D43"/>
<path d="M28.9987 31.106C29.1211 30.9217 29.2545 30.7449 29.398 30.5765L40.8202 19.1543C41.6361 18.2863 42.0874 18.2863 42.912 19.1543L48.5102 24.7439C49.2914 25.5337 49.2914 26.0111 48.5102 26.8096L29.9535 45.323C29.1376 46.1302 28.6949 46.1302 27.8617 45.323L16.6565 34.0743C15.858 33.2672 15.858 32.8071 16.6565 32.0173C18.5313 30.131 20.4089 28.2533 22.2895 26.3843C23.0533 25.6118 23.5393 25.6118 24.3031 26.3843C25.8307 27.8859 27.3496 29.4482 28.9987 31.106ZM41.7836 21.1679C41.6534 21.3242 41.5406 21.4891 41.4017 21.6279L29.9535 33.0936C29.1376 33.9008 28.6776 33.9008 27.853 33.0936L23.6435 28.884L23.3137 28.5715L18.8177 33.0762L28.9553 43.1184L46.3143 25.7594L41.7836 21.1679Z" fill="#004D43"/>
<path d="M51.4352 50.0186C51.7179 50.0207 51.9887 50.1321 52.191 50.3295C52.3932 50.5269 52.5112 50.795 52.5202 51.0775C52.5202 51.3721 52.4031 51.6547 52.1948 51.8631C51.9864 52.0714 51.7038 52.1885 51.4092 52.1885C51.1267 52.1772 50.8596 52.0571 50.6638 51.8532C50.468 51.6493 50.3587 51.3775 50.359 51.0948C50.359 50.8094 50.4724 50.5356 50.6742 50.3338C50.876 50.132 51.1498 50.0186 51.4352 50.0186Z" fill="#004D43"/>
</svg>
