<svg width="49" height="48" viewBox="0 0 49 48" fill="none" xmlns="http://www.w3.org/2000/svg">
<g clip-path="url(#clip0_619_14530)">
<path d="M35.6668 0C35.8868 0.11 36.1168 0.19 36.3268 0.32C36.6908 0.551746 36.9852 0.877701 37.1789 1.26328C37.3725 1.64885 37.4582 2.07966 37.4268 2.51V18.86C38.3268 18.86 39.1868 18.86 40.0368 18.86C40.9998 18.8138 41.9485 19.1076 42.7168 19.69C43.1911 20.0368 43.58 20.4873 43.8538 21.0072C44.1276 21.5271 44.2791 22.1027 44.2968 22.69C44.2968 23.48 44.2968 24.28 44.2968 25.08C44.3126 25.2871 44.4012 25.4819 44.5468 25.63C45.2962 26.2847 45.8951 27.0938 46.3025 28.0017C46.7098 28.9096 46.916 29.8949 46.9068 30.89V45.38C46.9281 45.7253 46.8766 46.0713 46.7557 46.3955C46.6348 46.7197 46.4471 47.0149 46.2048 47.2619C45.9625 47.5089 45.671 47.7022 45.3492 47.8294C45.0274 47.9565 44.6825 48.0147 44.3368 48H3.9468C3.59733 48.019 3.2478 47.9639 2.92119 47.8381C2.59457 47.7124 2.29825 47.519 2.05173 47.2706C1.8052 47.0222 1.61404 46.7244 1.49082 46.3968C1.3676 46.0692 1.31511 45.7193 1.3368 45.37V30.94C1.33271 29.9443 1.54111 28.9591 1.94808 28.0503C2.35505 27.1415 2.95123 26.33 3.6968 25.67C3.84247 25.526 3.93125 25.3342 3.9468 25.13C3.9468 24.39 3.9468 23.66 3.9468 22.92C3.93884 22.3897 4.03643 21.8631 4.23388 21.3708C4.43134 20.8786 4.72471 20.4305 5.09694 20.0527C5.46917 19.6749 5.91282 19.3749 6.40208 19.1701C6.89133 18.9654 7.41642 18.8599 7.9468 18.86H10.8168C10.8168 18.69 10.8168 18.54 10.8168 18.4V15.77C10.8168 15.13 11.0568 14.77 11.5168 14.77C11.9768 14.77 12.2268 15.07 12.2268 15.71C12.2268 18.23 12.2268 20.71 12.2268 23.26V23.85H35.9868C35.9868 23.69 35.9868 23.53 35.9868 23.37V2.59C35.9868 1.66 35.7268 1.41 34.7768 1.41H19.7268C19.7268 1.61 19.7268 1.77 19.7268 1.94V5.94C19.7575 6.28124 19.7128 6.62505 19.596 6.94715C19.4792 7.26924 19.2931 7.56175 19.0508 7.80402C18.8085 8.04628 18.516 8.23239 18.1939 8.3492C17.8719 8.46601 17.528 8.51066 17.1868 8.48H12.2768C12.2768 8.63 12.2768 8.8 12.2768 8.96C12.2768 10.13 12.2768 11.3 12.2768 12.47C12.2768 13.03 12.0268 13.35 11.5968 13.36C11.1668 13.37 10.8768 13.03 10.8668 12.46C10.8668 11.13 10.8668 9.8 10.8668 8.46C10.8629 7.996 10.9582 7.53653 11.1462 7.1123C11.3341 6.68807 11.6105 6.30885 11.9568 6C13.6068 4.48 15.2568 3 16.8868 1.4C17.5055 0.734883 18.2937 0.250887 19.1668 0H35.6668ZM44.1368 46.59C45.1368 46.59 45.5168 46.22 45.5168 45.2V31.1C45.5432 30.3395 45.4131 29.5817 45.1348 28.8734C44.8564 28.1652 44.4356 27.5217 43.8985 26.9826C43.3613 26.4436 42.7193 26.0206 42.012 25.7398C41.3048 25.4589 40.5474 25.3263 39.7868 25.35C29.3535 25.35 18.9201 25.35 8.4868 25.35C7.72624 25.325 6.96864 25.4563 6.2609 25.7359C5.55317 26.0155 4.91035 26.4374 4.37227 26.9755C3.83419 27.5136 3.41228 28.1564 3.13269 28.8641C2.85309 29.5718 2.72175 30.3294 2.7468 31.09V45.19C2.7468 46.19 3.1168 46.59 4.1668 46.59H44.1368ZM5.3868 24.44C6.3368 24.27 7.1768 24 8.0668 24C8.9568 24 9.8968 24 10.8168 24V20.27H8.1368C7.8851 20.2685 7.63387 20.292 7.3868 20.34C6.86376 20.4521 6.38921 20.7258 6.03028 21.1224C5.67136 21.519 5.44625 22.0184 5.3868 22.55C5.3368 23.21 5.3868 23.86 5.3868 24.44ZM42.8868 24.44C42.8868 23.93 42.8868 23.34 42.8868 22.74C42.8818 22.1879 42.6874 21.6542 42.3361 21.2283C41.9848 20.8023 41.4979 20.5099 40.9568 20.4C39.7912 20.3299 38.6224 20.3299 37.4568 20.4V23.98C38.3768 23.98 39.2868 23.91 40.1868 23.98C41.0868 24.05 41.9768 24.27 42.8868 24.44ZM18.2768 2.05L12.9268 7C14.5368 7 16.0168 7 17.4968 7C17.6005 7.00008 17.7031 6.97921 17.7986 6.93865C17.894 6.8981 17.9802 6.83868 18.0522 6.76397C18.1241 6.68926 18.1801 6.6008 18.217 6.50389C18.2539 6.40698 18.2708 6.30361 18.2668 6.2C18.3368 4.88 18.2768 3.52 18.2768 2.05Z" fill="#004D43"/>
<path d="M24.7868 18.52H18.0868C17.9336 18.53 17.78 18.53 17.6268 18.52C17.4411 18.52 17.2631 18.4462 17.1318 18.315C17.0005 18.1837 16.9268 18.0057 16.9268 17.82C16.9268 17.6343 17.0005 17.4563 17.1318 17.325C17.2631 17.1938 17.4411 17.12 17.6268 17.12H31.5568C32.2968 17.12 32.6568 17.36 32.6468 17.84C32.6368 18.32 32.2868 18.54 31.5368 18.54L24.7868 18.52Z" fill="#004D43"/>
<path d="M24.8268 13.75H31.6668C31.9124 13.7295 32.158 13.7892 32.3668 13.92C32.4534 14.001 32.5201 14.1009 32.5617 14.2119C32.6033 14.3229 32.6188 14.442 32.6068 14.56C32.5306 14.7855 32.369 14.9722 32.1568 15.08C31.9664 15.1555 31.7595 15.1796 31.5568 15.15H17.7368C17.2468 15.15 16.9268 14.82 16.9468 14.41C16.9528 14.3116 16.979 14.2156 17.0237 14.1277C17.0684 14.0399 17.1306 13.9622 17.2065 13.8994C17.2825 13.8366 17.3705 13.79 17.4651 13.7626C17.5598 13.7352 17.6591 13.7275 17.7568 13.74L24.8268 13.75Z" fill="#004D43"/>
<path d="M22.8268 21.87C21.1668 21.87 19.5168 21.87 17.8268 21.87C17.5401 21.8681 17.2648 21.7573 17.0568 21.56C16.997 21.4747 16.9585 21.3763 16.9447 21.273C16.9309 21.1697 16.9421 21.0646 16.9774 20.9666C17.0127 20.8686 17.071 20.7805 17.1475 20.7097C17.224 20.6389 17.3163 20.5876 17.4168 20.56C17.6004 20.5182 17.7887 20.5014 17.9768 20.51H27.9368C28.0348 20.506 28.1326 20.5215 28.2246 20.5556C28.3166 20.5898 28.4008 20.6419 28.4725 20.7089C28.5441 20.7759 28.6017 20.8564 28.642 20.9459C28.6822 21.0354 28.7042 21.1319 28.7068 21.23C28.7045 21.3277 28.6821 21.424 28.6409 21.5126C28.5997 21.6013 28.5406 21.6805 28.4674 21.7453C28.3942 21.81 28.3084 21.859 28.2153 21.8891C28.1223 21.9191 28.0241 21.9297 27.9268 21.92L22.8268 21.87Z" fill="#004D43"/>
<path d="M21.3968 9.93C21.9068 9.93 22.2268 10.2 22.2368 10.61C22.236 10.7121 22.2138 10.813 22.1716 10.906C22.1294 10.999 22.0681 11.0821 21.9918 11.15C21.9155 11.2179 21.8257 11.269 21.7284 11.3C21.6311 11.331 21.5283 11.3412 21.4268 11.33H17.7268C17.625 11.3473 17.5206 11.3421 17.4209 11.3149C17.3213 11.2877 17.2288 11.2391 17.1499 11.1724C17.071 11.1058 17.0076 11.0227 16.9641 10.929C16.9206 10.8353 16.8981 10.7333 16.8981 10.63C16.8981 10.5267 16.9206 10.4247 16.9641 10.331C17.0076 10.2373 17.071 10.1542 17.1499 10.0876C17.2288 10.0209 17.3213 9.97232 17.4209 9.9451C17.5206 9.91788 17.625 9.91273 17.7268 9.93H21.3968Z" fill="#004D43"/>
<path d="M24.7668 38.53H41.2168C41.5161 38.4963 41.8191 38.5307 42.1032 38.6305C42.3874 38.7303 42.6453 38.893 42.8578 39.1064C43.0702 39.3199 43.2318 39.5785 43.3303 39.8631C43.4288 40.1477 43.4618 40.4509 43.4268 40.75C43.4343 41.2145 43.3529 41.6761 43.1868 42.11C43.0514 42.4097 42.8319 42.6637 42.555 42.8412C42.2781 43.0187 41.9557 43.1121 41.6268 43.11C41.4403 43.1198 41.2533 43.1198 41.0668 43.11H13.2168C13.0303 43.1202 12.8433 43.1202 12.6568 43.11C12.4906 43.0949 12.3363 43.0173 12.225 42.893C12.1137 42.7687 12.0536 42.6068 12.0568 42.44C12.0445 42.281 12.0921 42.1231 12.1901 41.9974C12.2882 41.8716 12.4296 41.7869 12.5868 41.76C12.786 41.7348 12.9876 41.7348 13.1868 41.76H41.0368C41.9568 41.76 42.3368 41.19 41.9668 40.32C41.8624 40.1584 41.7078 40.0354 41.5268 39.97C41.3879 39.9447 41.2457 39.9447 41.1068 39.97H8.4368C8.1268 39.97 7.7068 39.88 7.6268 40.26C7.54703 40.6796 7.54703 41.1104 7.6268 41.53C7.6268 41.63 7.9468 41.75 8.1268 41.76C8.6568 41.76 9.1868 41.76 9.7168 41.76C10.2468 41.76 10.5868 42.02 10.5968 42.46C10.6068 42.9 10.2968 43.17 9.7468 43.17C9.1968 43.17 8.5268 43.17 7.9268 43.17C7.43684 43.1519 6.97283 42.9452 6.63178 42.5929C6.29073 42.2407 6.09904 41.7703 6.0968 41.28V40.5C6.08394 40.234 6.12686 39.9682 6.22282 39.7197C6.31878 39.4712 6.46565 39.2455 6.654 39.0572C6.84234 38.8689 7.068 38.722 7.31647 38.626C7.56495 38.5301 7.83075 38.4871 8.0968 38.5H24.7668V38.53Z" fill="#004D43"/>
<path d="M12.4368 35.45H8.7468C8.45736 35.4685 8.16728 35.4259 7.89535 35.325C7.62342 35.2242 7.37571 35.0673 7.16829 34.8646C6.96087 34.6619 6.79836 34.4179 6.69129 34.1484C6.58423 33.8788 6.535 33.5898 6.5468 33.3C6.5468 33.03 6.5468 32.77 6.5468 32.5C6.51957 32.1981 6.55865 31.8939 6.66131 31.6087C6.76396 31.3235 6.92771 31.0642 7.14108 30.8489C7.35446 30.6337 7.61231 30.4676 7.89658 30.3624C8.18086 30.2572 8.48468 30.2155 8.7868 30.24H15.1968C15.6168 30.24 16.0468 30.24 16.4668 30.24C16.9659 30.2724 17.4347 30.4906 17.7808 30.8515C18.127 31.2125 18.3253 31.69 18.3368 32.19C18.3368 32.63 18.3368 33.07 18.3368 33.5C18.3212 34.02 18.1036 34.5134 17.7302 34.8756C17.3568 35.2378 16.857 35.4402 16.3368 35.44C15.0468 35.44 13.7468 35.44 12.4468 35.44L12.4368 35.45ZM12.4368 34.04H15.5768C16.9668 34.04 16.9768 34.04 16.9668 32.62C16.9668 31.83 16.7968 31.62 15.9668 31.62C14.1168 31.62 12.2568 31.62 10.3968 31.62C9.8268 31.62 9.2468 31.62 8.6668 31.62C8.57269 31.6093 8.47738 31.6196 8.38775 31.6502C8.29812 31.6808 8.21639 31.7309 8.14847 31.7969C8.08055 31.8629 8.02812 31.9432 7.99498 32.0319C7.96183 32.1207 7.94879 32.2156 7.9568 32.31C7.9568 32.59 7.9568 32.87 7.9568 33.15C7.9568 33.79 8.1768 34 8.8068 34L12.4368 34.04Z" fill="#004D43"/>
<path d="M23.3368 32.83C23.3408 32.3419 23.4892 31.866 23.7635 31.4622C24.0377 31.0584 24.4254 30.745 24.8777 30.5614C25.3299 30.3778 25.8264 30.3323 26.3045 30.4307C26.7826 30.5291 27.2208 30.7669 27.5638 31.1141C27.9069 31.4613 28.1393 31.9024 28.2319 32.3816C28.3245 32.8608 28.273 33.3567 28.0839 33.8067C27.8949 34.2567 27.5767 34.6406 27.1697 34.9099C26.7626 35.1793 26.2849 35.322 25.7968 35.32C25.1408 35.3147 24.5136 35.0497 24.0526 34.583C23.5915 34.1164 23.3341 33.486 23.3368 32.83ZM25.8168 31.83C25.6046 31.818 25.3936 31.87 25.2114 31.9794C25.0291 32.0888 24.884 32.2504 24.7947 32.4433C24.7055 32.6363 24.6763 32.8516 24.711 33.0613C24.7457 33.271 24.8427 33.4654 24.9892 33.6193C25.1358 33.7733 25.3253 33.8796 25.5331 33.9244C25.7409 33.9693 25.9573 33.9507 26.1544 33.8709C26.3514 33.7912 26.5199 33.6541 26.6381 33.4774C26.7562 33.3007 26.8185 33.0926 26.8168 32.88C26.8196 32.5986 26.7125 32.3273 26.5182 32.1237C26.324 31.9201 26.058 31.8004 25.7768 31.79L25.8168 31.83Z" fill="#004D43"/>
<path d="M35.3368 32.83C35.3407 33.3185 35.1997 33.7972 34.9316 34.2056C34.6635 34.6139 34.2803 34.9336 33.8305 35.1242C33.3807 35.3148 32.8845 35.3677 32.4046 35.2763C31.9247 35.1848 31.4827 34.9532 31.1345 34.6106C30.7863 34.2679 30.5475 33.8297 30.4483 33.3514C30.3491 32.8731 30.394 32.3761 30.5773 31.9232C30.7606 31.4704 31.074 31.0821 31.478 30.8074C31.882 30.5327 32.3583 30.384 32.8468 30.38C33.5011 30.3773 34.1299 30.6333 34.5963 31.0922C35.0627 31.5511 35.3289 32.1757 35.3368 32.83ZM33.9268 32.83C33.9268 32.6212 33.8651 32.4171 33.7494 32.2432C33.6338 32.0694 33.4695 31.9335 33.2769 31.8527C33.0844 31.772 32.8723 31.7498 32.6672 31.7891C32.4622 31.8284 32.2733 31.9274 32.1243 32.0737C31.9753 32.2199 31.8728 32.4069 31.8297 32.6112C31.7865 32.8155 31.8047 33.028 31.8819 33.222C31.959 33.416 32.0918 33.5829 32.2634 33.7017C32.4351 33.8206 32.638 33.8861 32.8468 33.89C33.1177 33.8776 33.374 33.7638 33.5648 33.5711C33.7557 33.3784 33.867 33.121 33.8768 32.85L33.9268 32.83Z" fill="#004D43"/>
<path d="M42.3368 32.88C42.3289 33.3656 42.1774 33.838 41.9015 34.2377C41.6255 34.6373 41.2374 34.9464 40.7861 35.1258C40.3348 35.3053 39.8405 35.3471 39.3654 35.2461C38.8904 35.1451 38.4559 34.9057 38.1166 34.5582C37.7774 34.2106 37.5487 33.7704 37.4592 33.293C37.3698 32.8157 37.4236 32.3225 37.614 31.8757C37.8043 31.4289 38.1227 31.0484 38.529 30.7822C38.9352 30.5161 39.4111 30.3761 39.8968 30.38C40.2212 30.3839 40.5416 30.4517 40.8398 30.5795C41.1379 30.7072 41.408 30.8925 41.6346 31.1246C41.8612 31.3568 42.0398 31.6313 42.1603 31.9325C42.2808 32.2337 42.3408 32.5556 42.3368 32.88ZM40.9268 32.88C40.9268 32.74 40.8991 32.6013 40.8452 32.472C40.7913 32.3428 40.7123 32.2255 40.6128 32.1269C40.5133 32.0283 40.3953 31.9505 40.2655 31.8978C40.1357 31.8451 39.9968 31.8187 39.8568 31.82C39.5757 31.82 39.306 31.9317 39.1073 32.1305C38.9085 32.3293 38.7968 32.5989 38.7968 32.88C38.7968 33.1611 38.9085 33.4307 39.1073 33.6295C39.306 33.8283 39.5757 33.94 39.8568 33.94C39.999 33.94 40.1398 33.9117 40.2709 33.8567C40.4021 33.8017 40.5209 33.7211 40.6206 33.6196C40.7202 33.5181 40.7986 33.3978 40.8512 33.2656C40.9037 33.1335 40.9295 32.9922 40.9268 32.85V32.88Z" fill="#004D43"/>
</g>
<defs>
<clipPath id="clip0_619_14530">
<rect width="48" height="48" fill="white" transform="translate(0.332031)"/>
</clipPath>
</defs>
</svg>
