<svg width="81" height="80" viewBox="0 0 81 80" fill="none" xmlns="http://www.w3.org/2000/svg">
<g id="icon">
<g id="Vector">
<path d="M27.4056 71.8908C27.6221 72.6312 27.61 73.4196 27.3709 74.1529C27.1318 74.8863 26.6769 75.5304 26.0656 76.0008C24.8856 77.1008 23.7856 78.2808 22.6356 79.4108C21.8656 80.1708 21.3656 80.1808 20.6356 79.4108L7.88561 66.7208C7.71618 66.6147 7.57649 66.4672 7.47966 66.2923C7.38283 66.1174 7.33203 65.9208 7.33203 65.7208C7.33203 65.5209 7.38283 65.3242 7.47966 65.1493C7.57649 64.9744 7.71618 64.827 7.88561 64.7208C9.21895 63.3875 10.5523 62.0542 11.8856 60.7208C12.2771 60.2864 12.7828 59.9706 13.3451 59.8097C13.9074 59.6488 14.5035 59.6492 15.0656 59.8108C15.2338 59.8724 15.4181 59.8741 15.5874 59.8159C15.7568 59.7576 15.9009 59.6428 15.9956 59.4908C17.8156 57.2887 19.8787 55.2995 22.1456 53.5608C24.4956 51.8408 27.0656 50.6508 30.0256 51.1208C31.7635 51.4417 33.4629 51.9444 35.0956 52.6208C38.0556 53.9674 41.1588 54.9738 44.3456 55.6208C45.8269 55.8899 47.3301 56.0205 48.8356 56.0108C49.4495 55.9446 50.0705 56.0142 50.6546 56.2147C51.2386 56.4152 51.7714 56.7418 52.2151 57.1712C52.6588 57.6006 53.0027 58.1224 53.2222 58.6995C53.4418 59.2767 53.5317 59.8951 53.4856 60.5108C54.1456 60.2508 54.7956 60.0408 55.4056 59.7508C59.3656 57.8708 63.3023 55.9775 67.2156 54.0708C68.2215 53.4683 69.4095 53.2449 70.5656 53.4408C71.0297 53.5085 71.4715 53.6839 71.8554 53.9532C72.2394 54.2225 72.5549 54.578 72.7766 54.9913C72.9983 55.4045 73.1201 55.864 73.132 56.3328C73.144 56.8017 73.0459 57.2668 72.8456 57.6908C72.4492 58.5833 71.854 59.3734 71.1056 60.0008C67.8236 62.5776 64.3161 64.8535 60.6256 66.8008C57.8647 68.5157 54.9109 69.8986 51.8256 70.9208C48.4656 71.9208 45.0356 71.7008 41.5956 71.5108C38.4056 71.3308 35.2156 71.1408 32.0256 71.1508C30.4685 71.2748 28.9236 71.5222 27.4056 71.8908ZM17.2556 61.4108C20.1456 64.3008 22.9556 67.1208 25.8056 69.9108C25.9243 69.9878 26.0594 70.0359 26.2 70.0516C26.3406 70.0672 26.4829 70.0498 26.6156 70.0008C28.4139 69.2851 30.3302 68.912 32.2656 68.9008C35.4056 68.9608 38.5456 69.1208 41.6856 69.2808C44.8256 69.4408 47.7456 69.6708 50.7456 68.9008C53.5739 68.0984 56.2693 66.8855 58.7456 65.3008C62.3856 63.1108 65.9456 60.7808 69.5056 58.4708C70.0005 58.1193 70.4106 57.6614 70.7056 57.1308C70.8138 56.9683 70.8721 56.7776 70.8732 56.5824C70.8743 56.3871 70.8182 56.1958 70.7119 56.0321C70.6055 55.8683 70.4536 55.7393 70.2748 55.6609C70.096 55.5825 69.8981 55.5581 69.7056 55.5908C69.1887 55.6719 68.6887 55.8374 68.2256 56.0808C63.9256 58.0808 59.6856 60.2308 55.3456 62.1508C51.4056 63.8908 47.3456 65.1508 42.9056 64.4608C40.7261 64.235 38.587 63.7171 36.5456 62.9208C36.3926 62.877 36.2507 62.8011 36.1294 62.6981C36.0081 62.5951 35.9101 62.4674 35.8419 62.3236C35.7738 62.1798 35.7371 62.0231 35.7343 61.864C35.7315 61.7049 35.7626 61.547 35.8256 61.4008C36.0956 60.7908 36.6756 60.6108 37.4456 60.9108C40.4902 62.077 43.7535 62.5617 47.0056 62.3308C48.1044 62.2336 49.1828 61.9741 50.2056 61.5608C50.421 61.4851 50.6176 61.3638 50.782 61.2053C50.9464 61.0468 51.0747 60.8547 51.1582 60.6422C51.2417 60.4297 51.2784 60.2016 51.2659 59.9736C51.2534 59.7456 51.1919 59.5229 51.0856 59.3208C50.9286 58.9693 50.6636 58.677 50.3291 58.4864C49.9946 58.2957 49.6081 58.2167 49.2256 58.2608C46.0227 58.295 42.8362 57.7983 39.7956 56.7908C37.2556 55.9208 34.7956 54.8908 32.2456 53.9308C30.9371 53.4039 29.5158 53.2193 28.116 53.3942C26.7163 53.5692 25.3842 54.098 24.2456 54.9308C21.646 56.7804 19.2965 58.9585 17.2556 61.4108ZM21.7256 77.2308L24.7856 74.1308C25.5756 73.3208 25.5756 72.8708 24.7856 72.0608L18.7856 66.0608L15.1456 62.4308C14.6556 61.9408 14.1456 61.7108 13.5556 62.2308C12.3456 63.3608 11.2456 64.5408 10.1456 65.6608L21.7256 77.2308Z" fill="#004D43"/>
<path d="M65.6256 38.2808H62.1356C61.0656 38.2808 60.7256 37.9408 60.6756 36.8708C60.6836 34.4759 59.7398 32.1759 58.052 30.4769C56.3642 28.7778 54.0705 27.8188 51.6756 27.8108C49.2807 27.8029 46.9807 28.7466 45.2817 30.4344C43.5826 32.1223 42.6236 34.4159 42.6156 36.8108C42.5656 37.9308 42.2256 38.2708 41.1256 38.2808H33.9956C32.9956 38.2808 32.6156 37.9108 32.6056 36.9008C32.6056 36.0808 32.6056 35.2608 32.6056 34.4408C32.6056 33.5508 32.8856 33.2308 33.7756 33.0508C34.6656 32.8708 35.2856 32.7808 36.0256 32.5808C36.2756 32.5108 36.4756 32.2308 36.7056 32.0508C36.7056 32.0508 36.7056 32.0008 36.7056 31.9808C37.1797 31.3673 37.4058 30.598 37.3392 29.8256C37.2725 29.0531 36.9178 28.334 36.3456 27.8108C35.3456 26.6408 35.4756 26.3908 36.5756 25.2808C37.6756 24.1708 38.8856 22.9608 40.0556 21.8108C40.7356 21.1308 41.1256 21.1008 41.9356 21.6308C42.3556 21.9108 42.7556 22.2108 43.1856 22.4708C43.6156 22.7308 44.0656 23.1208 44.4056 23.0308C45.2613 22.7839 46.0891 22.4487 46.8756 22.0308C46.9856 21.9808 47.0056 21.7008 47.0456 21.5308C47.2056 20.7508 47.3556 19.9708 47.5056 19.2008C47.5194 19.0482 47.5633 18.8999 47.6347 18.7643C47.7061 18.6288 47.8037 18.5088 47.9218 18.4111C48.0398 18.3135 48.1761 18.2402 48.3226 18.1956C48.4692 18.1509 48.6231 18.1357 48.7756 18.1508H54.4856C54.7803 18.1254 55.0734 18.2155 55.3029 18.402C55.5324 18.5886 55.6804 18.8571 55.7156 19.1508C55.7957 19.3762 55.8428 19.612 55.8556 19.8508C55.7656 21.7908 56.9556 22.6208 58.6156 23.0308C58.8838 23.0861 59.1628 23.0473 59.4056 22.9208C60.1056 22.5008 60.7656 22.0208 61.4056 21.5708C61.6448 21.3758 61.9514 21.2832 62.2586 21.3132C62.5657 21.3431 62.8486 21.4932 63.0456 21.7308C64.3789 23.0642 65.7123 24.3975 67.0456 25.7308C67.1712 25.8306 67.2754 25.9548 67.3518 26.0959C67.4282 26.2369 67.4753 26.392 67.4902 26.5517C67.5051 26.7114 67.4876 26.8725 67.4387 27.0253C67.3898 27.1781 67.3105 27.3195 67.2056 27.4408C67.0956 27.5908 66.9956 27.7408 66.8956 27.9008C65.5356 29.9008 65.5256 29.9008 66.5556 32.1008C66.7038 32.3539 66.9437 32.5401 67.2256 32.6208C67.9856 32.8208 68.7756 32.9508 69.5556 33.1008C69.7149 33.1132 69.87 33.1576 70.0118 33.2312C70.1535 33.3049 70.279 33.4063 70.3807 33.5295C70.4824 33.6527 70.5583 33.7951 70.6038 33.9482C70.6493 34.1014 70.6635 34.2621 70.6456 34.4208C70.6456 35.2908 70.6456 36.1608 70.6456 37.0308C70.6456 37.9008 70.2356 38.3208 69.3256 38.3208L65.6256 38.2808ZM49.5656 20.3708C49.3956 21.2008 49.2356 21.9808 49.1056 22.7608C49.0687 23.037 48.9556 23.2974 48.7789 23.5129C48.6023 23.7284 48.3692 23.8904 48.1056 23.9808C47.0056 24.4208 45.8956 24.8608 44.8156 25.3408C44.5563 25.4701 44.265 25.5209 43.9773 25.4872C43.6896 25.4534 43.4179 25.3366 43.1956 25.1508C42.5556 24.6908 41.8856 24.2708 41.3256 23.9008L38.3256 26.9008C38.7056 27.4708 39.1156 28.1208 39.5656 28.7408C39.7567 28.9765 39.8753 29.2625 39.9073 29.5642C39.9392 29.8659 39.8831 30.1704 39.7456 30.4408C39.2756 31.5008 38.8456 32.5808 38.4156 33.6608C38.327 33.9236 38.1667 34.1564 37.953 34.3331C37.7392 34.5098 37.4804 34.6233 37.2056 34.6608C36.4056 34.7908 35.6156 34.9708 34.8256 35.1308V36.0008H40.3756C40.6712 33.3251 41.9124 30.8428 43.8756 29.0008C45.814 27.1279 48.3725 26.0319 51.0656 25.9208C53.3806 25.7824 55.6782 26.3963 57.6156 27.6708C59.0634 28.5732 60.2885 29.7911 61.1993 31.2336C62.1102 32.6761 62.6832 34.3057 62.8756 36.0008H68.4256V35.1008C67.6256 34.9408 66.8556 34.7608 66.0756 34.6308C65.7951 34.5997 65.5293 34.4891 65.3096 34.3119C65.0899 34.1347 64.9254 33.8984 64.8356 33.6308C64.3856 32.5008 63.9256 31.3808 63.4456 30.2708C63.3295 30.0325 63.283 29.7664 63.3113 29.5028C63.3396 29.2393 63.4416 28.989 63.6056 28.7808C64.0756 28.1108 64.5156 27.4208 64.9356 26.7808L61.9356 23.7808C61.2956 24.2108 60.6156 24.6508 59.9356 25.1208C59.7264 25.2832 59.4757 25.3835 59.2122 25.41C58.9487 25.4365 58.683 25.3883 58.4456 25.2708C57.3356 24.7908 56.2056 24.3308 55.0856 23.8808C54.8167 23.7932 54.5791 23.6294 54.4016 23.4092C54.2241 23.1891 54.1143 22.9222 54.0856 22.6408C53.9556 21.8508 53.7656 21.0608 53.6056 20.2808L49.5656 20.3708Z" fill="#004D43"/>
<path d="M55.8056 41.6908C57.744 42.4115 59.4652 43.6173 60.8045 45.193C62.1439 46.7687 63.0567 48.6616 63.4556 50.6908C63.4601 50.7173 63.4601 50.7444 63.4556 50.7708C63.8056 52.5508 63.6856 53.2208 61.5156 53.2008C54.8056 53.2008 48.0956 53.2008 41.3856 53.2008C39.8356 53.2008 39.4656 52.8208 39.7156 51.3208C39.9878 49.335 40.7588 47.4505 41.9567 45.8434C43.1546 44.2363 44.7403 42.959 46.5656 42.1308C46.8456 41.9908 47.1456 41.8808 47.5056 41.7208C46.7174 41.0356 46.1086 40.168 45.7321 39.1938C45.3557 38.2195 45.223 37.1681 45.3456 36.1308C45.4201 35.332 45.652 34.5558 46.0278 33.8469C46.4037 33.1381 46.9161 32.5107 47.5356 32.0008C48.7412 30.9666 50.293 30.4259 51.8803 30.4871C53.4676 30.5483 54.9732 31.2068 56.0956 32.3308C58.6656 34.9108 58.5656 38.3408 55.8056 41.6908ZM61.1256 50.9008C60.9456 46.9008 56.1856 43.1508 51.5156 43.2008C46.8456 43.2508 42.2556 47.0908 42.1556 50.9008H61.1256ZM47.5356 36.8008C47.5278 37.6124 47.7605 38.408 48.2042 39.0875C48.648 39.767 49.283 40.3 50.0292 40.6191C50.7754 40.9382 51.5993 41.0293 52.3972 40.8809C53.1951 40.7324 53.9312 40.3511 54.5126 39.7849C55.0941 39.2188 55.4949 38.4931 55.6646 37.6995C55.8343 36.9058 55.7652 36.0797 55.466 35.3253C55.1669 34.5709 54.6511 33.9219 53.9837 33.4602C53.3162 32.9985 52.5271 32.7447 51.7156 32.7308C50.6227 32.7201 49.57 33.142 48.7869 33.9044C48.0038 34.6669 47.554 35.708 47.5356 36.8008Z" fill="#004D43"/>
<path d="M50.5356 4.66083C50.2256 4.93083 50.0456 5.22083 49.8356 5.25083C49.4262 5.35 48.995 5.30406 48.6156 5.12083C48.4848 4.96906 48.3921 4.78828 48.3451 4.59349C48.2981 4.39871 48.2983 4.19553 48.3456 4.00083C49.1416 2.72651 50.0132 1.50099 50.9556 0.330827C51.0522 0.216167 51.1751 0.126558 51.3138 0.0696367C51.4525 0.0127156 51.6029 -0.00983041 51.7522 0.00392005C51.9015 0.0176705 52.0452 0.0673098 52.1712 0.148608C52.2971 0.229906 52.4016 0.340452 52.4756 0.470827C53.3156 1.52083 54.1156 2.61083 54.8956 3.71083C54.9855 3.82047 55.0511 3.94798 55.0879 4.08489C55.1248 4.22181 55.1321 4.365 55.1094 4.50496C55.0867 4.64492 55.0345 4.77846 54.9563 4.89671C54.8781 5.01496 54.7756 5.11521 54.6556 5.19083C54.5564 5.28203 54.4398 5.35225 54.3128 5.39725C54.1857 5.44226 54.0509 5.46112 53.9164 5.45271C53.7819 5.44431 53.6505 5.4088 53.5301 5.34833C53.4097 5.28786 53.3027 5.20368 53.2156 5.10083C53.0702 4.96252 52.9333 4.81559 52.8056 4.66083C52.8056 5.01083 52.7556 5.25083 52.7556 5.49083V14.4908C52.7756 14.7004 52.7756 14.9113 52.7556 15.1208C52.7568 15.2638 52.7273 15.4055 52.6692 15.5361C52.611 15.6668 52.5255 15.7834 52.4184 15.8782C52.3113 15.973 52.1851 16.0437 52.0483 16.0855C51.9116 16.1274 51.7674 16.1394 51.6256 16.1208C51.4893 16.129 51.3528 16.1092 51.2245 16.0626C51.0961 16.0161 50.9787 15.9437 50.8794 15.85C50.7801 15.7563 50.701 15.6433 50.647 15.5179C50.5931 15.3925 50.5654 15.2574 50.5656 15.1208C50.5656 14.5208 50.5656 13.9108 50.5656 13.3008L50.5356 4.66083Z" fill="#004D43"/>
<path d="M68.3456 10.3508V20.0508C68.3456 20.3408 68.4356 20.7008 68.3456 20.9108C68.1333 21.3011 67.8048 21.6157 67.4056 21.8108C67.2833 21.8465 67.1549 21.8561 67.0286 21.839C66.9024 21.8219 66.7811 21.7785 66.6727 21.7115C66.5643 21.6446 66.4712 21.5557 66.3993 21.4505C66.3275 21.3453 66.2785 21.2262 66.2556 21.1008C66.1852 20.8198 66.1549 20.5303 66.1656 20.2408V10.4408L65.7356 10.8408C65.6468 10.9518 65.5354 11.0425 65.4088 11.107C65.2823 11.1715 65.1434 11.2083 65.0014 11.2149C64.8595 11.2216 64.7178 11.1979 64.5857 11.1454C64.4537 11.093 64.3343 11.013 64.2356 10.9108C64.1193 10.8296 64.0216 10.7247 63.949 10.6028C63.8764 10.481 63.8305 10.3451 63.8144 10.2042C63.7983 10.0633 63.8124 9.92054 63.8557 9.78548C63.899 9.65042 63.9706 9.52612 64.0656 9.42083C64.8356 8.34083 65.6156 7.28083 66.4356 6.24083C66.5253 6.09612 66.6504 5.9767 66.7992 5.89389C66.9479 5.81107 67.1154 5.76761 67.2856 5.76761C67.4559 5.76761 67.6233 5.81107 67.772 5.89389C67.9208 5.9767 68.0459 6.09612 68.1356 6.24083C68.9756 7.24083 69.7656 8.38083 70.5456 9.48083C70.6275 9.58648 70.6874 9.70749 70.7218 9.8367C70.7561 9.9659 70.7642 10.1007 70.7456 10.2331C70.7269 10.3655 70.6819 10.4928 70.6132 10.6075C70.5445 10.7222 70.4535 10.8219 70.3456 10.9008C70.2483 11.0042 70.13 11.0856 69.9988 11.1397C69.8675 11.1939 69.7262 11.2194 69.5843 11.2147C69.4424 11.2099 69.3031 11.175 69.1758 11.1123C69.0484 11.0496 68.9359 10.9604 68.8456 10.8508C68.6678 10.6957 68.5007 10.5287 68.3456 10.3508Z" fill="#004D43"/>
<path d="M37.1756 10.5608V20.0008C37.1958 20.2638 37.1958 20.5279 37.1756 20.7908C37.14 21.0643 37.003 21.3145 36.7917 21.4917C36.5803 21.6689 36.3102 21.7603 36.0346 21.7477C35.7591 21.7351 35.4984 21.6195 35.3041 21.4238C35.1098 21.228 34.9961 20.9664 34.9856 20.6908V10.4908C33.9856 11.2508 33.4656 11.3408 32.9856 10.8908C32.5056 10.4408 32.5456 9.84083 33.2656 8.89083C33.9856 7.94083 34.4756 7.22083 35.1056 6.41083C35.199 6.22571 35.3419 6.07014 35.5185 5.96145C35.695 5.85276 35.8983 5.79521 36.1056 5.79521C36.3129 5.79521 36.5162 5.85276 36.6928 5.96145C36.8693 6.07014 37.0122 6.22571 37.1056 6.41083C37.8156 7.32083 38.4956 8.26083 39.1856 9.20083C39.6756 9.87083 39.6756 10.4808 39.1856 10.9108C38.6956 11.3408 38.1156 11.2708 37.4556 10.6708C37.3456 10.6208 37.3456 10.6108 37.1756 10.5608Z" fill="#004D43"/>
</g>
</g>
</svg>
