<svg width="80" height="80" viewBox="0 0 80 80" fill="none" xmlns="http://www.w3.org/2000/svg">
<g id="icon" clip-path="url(#clip0_1753_54851)">
<g id="Vector">
<path d="M54.7038 41.2708H52.0638V16.0108H7.19379C4.37379 16.0108 2.77379 17.6308 2.77379 20.4608C2.77379 22.0408 2.77379 23.6208 2.77379 25.2608H0.00379347C-0.0248558 22.921 0.108798 20.5821 0.403793 18.2608C0.973794 15.2608 3.76379 13.3308 7.05379 13.3308H52.0038V10.6808H49.6238C49.3191 10.7232 49.0089 10.6627 48.7426 10.5087C48.4762 10.3547 48.269 10.1161 48.1538 9.8308C48.0432 9.55819 48.0254 9.25676 48.1031 8.97302C48.1808 8.68928 48.3497 8.439 48.5838 8.2608C51.1538 5.6908 53.7138 3.1208 56.2938 0.560796C56.4167 0.387441 56.5793 0.246058 56.7681 0.148488C56.9569 0.0509174 57.1663 0 57.3788 0C57.5913 0 57.8007 0.0509174 57.9895 0.148488C58.1782 0.246058 58.3409 0.387441 58.4638 0.560796C61.0038 3.1408 63.6038 5.7108 66.1738 8.2808C66.406 8.46271 66.5706 8.71716 66.6413 9.00354C66.7119 9.28992 66.6847 9.59173 66.5638 9.8608C66.4522 10.1318 66.2549 10.3587 66.002 10.5068C65.7491 10.6549 65.4547 10.716 65.1638 10.6808H62.7338V13.3008C62.9738 13.3008 63.2138 13.3008 63.4438 13.3008H67.6938C68.6259 13.2519 69.558 13.3994 70.4294 13.7339C71.3008 14.0684 72.0922 14.5823 72.7523 15.2423C73.4123 15.9023 73.9262 16.6937 74.2607 17.5652C74.5952 18.4366 74.7427 19.3687 74.6938 20.3008C74.6938 28.1741 74.6938 36.0508 74.6938 43.9308V46.5208H72.0038V45.5708C72.0038 38.4408 71.8938 31.3108 72.0038 24.1808C72.1538 16.4208 71.4338 15.6708 63.6938 15.9408C63.3838 15.9408 63.0838 15.9408 62.6938 15.9408V39.9208H60.0038V10.0108C60.0038 8.4608 60.3238 8.1208 61.6738 8.0108L57.2838 3.5808L52.9038 8.0108L53.4538 8.0708C53.7772 8.08766 54.0829 8.22372 54.3119 8.45271C54.5409 8.6817 54.6769 8.98739 54.6938 9.3108C54.7038 9.47731 54.7038 9.64428 54.6938 9.8108V41.3108L54.7038 41.2708Z" fill="#004D43"/>
<path d="M22.7438 50.5908H25.4038V31.1908C25.4038 29.7208 25.8038 29.3308 27.2838 29.3208H34.3538C35.6038 29.3208 36.0538 29.7708 36.0538 31.0208C36.0538 37.1808 36.0538 43.3408 36.0538 49.5008V50.5608H38.7138V21.9008C38.7138 20.3808 39.1038 20.0008 40.6438 20.0008H47.8038C48.8538 20.0008 49.3738 20.4908 49.3738 21.5008C49.3738 28.8341 49.3738 36.1875 49.3738 43.5608C49.381 43.6807 49.381 43.8009 49.3738 43.9208H46.7538V22.7208H41.4138V53.2308H6.82379V50.6608H12.0938V49.7308C12.0938 46.6208 12.0938 43.5108 12.0938 40.4008C12.0938 39.0908 12.5238 38.6508 13.8238 38.6508H21.0038C22.3138 38.6508 22.7638 39.0908 22.7638 40.3808V50.5908H22.7438ZM33.3338 50.5908V32.0608H28.1138V50.5908H33.3338ZM14.8238 41.3408V50.5808H20.0038V41.3408H14.8238Z" fill="#004D43"/>
<path d="M2.82379 58.5908C2.76785 59.273 2.76785 59.9586 2.82379 60.6408C2.99193 61.5902 3.49735 62.447 4.24703 63.0533C4.99671 63.6597 5.94019 63.9749 6.90379 63.9408H41.3338V66.5808H31.7338L28.5438 77.2008H46.2238L44.7838 72.3408L47.3038 71.5508L49.0038 77.2408H52.0038V79.8808H22.8138V77.2608C23.5838 77.2608 24.3738 77.2608 25.1638 77.2608C25.4038 77.2608 25.7838 77.0708 25.8438 76.8808C26.8938 73.5008 27.8938 70.1108 28.9338 66.6208H7.24379C2.91379 66.6108 0.103793 63.8208 0.103793 59.4908V28.0608H2.74379V55.9508H40.0038V58.5908H2.82379Z" fill="#004D43"/>
<path d="M66.8338 72.4308C63.4775 74.406 59.5159 75.0893 55.6918 74.3525C51.8678 73.6157 48.4437 71.5095 46.0614 68.4287C43.6792 65.3479 42.5024 61.504 42.7516 57.6176C43.0008 53.7312 44.6589 50.069 47.4151 47.3177C50.1713 44.5664 53.8363 42.9148 57.7232 42.6724C61.6101 42.4301 65.4519 43.6137 68.5285 46.0014C71.6051 48.3891 73.7052 51.8169 74.4352 55.6423C75.1652 59.4677 74.4749 63.4279 72.4938 66.7808L77.4938 71.7808C77.9438 72.2308 78.4138 72.6708 78.8438 73.1408C79.5618 73.8862 79.9629 74.8808 79.9629 75.9158C79.9629 76.9507 79.5618 77.9454 78.8438 78.6908C78.4833 79.0694 78.0508 79.3721 77.5716 79.5811C77.0924 79.7901 76.5763 79.9011 76.0535 79.9076C75.5308 79.9141 75.0121 79.816 74.5278 79.6191C74.0435 79.4221 73.6036 79.1303 73.2338 78.7608C71.1738 76.7608 69.2338 74.7608 67.1638 72.7608L66.8338 72.4308ZM58.7538 45.3108C56.1164 45.2969 53.5343 46.0663 51.3346 47.5215C49.135 48.9767 47.4168 51.0521 46.3979 53.4848C45.379 55.9174 45.1052 58.5978 45.6113 61.1862C46.1173 63.7746 47.3803 66.1546 49.2403 68.0244C51.1004 69.8943 53.4736 71.1698 56.0593 71.6895C58.6451 72.2092 61.3268 71.9495 63.7648 70.9434C66.2028 69.9374 68.2873 68.2302 69.754 66.0382C71.2207 63.8463 72.0038 61.2682 72.0038 58.6308C72.0038 55.1102 70.6101 51.7328 68.1272 49.2368C65.6444 46.7408 62.2743 45.3293 58.7538 45.3108ZM69.0538 70.8708C71.0538 72.8708 73.0538 74.8708 75.0538 76.8008C75.1718 76.9413 75.3176 77.0559 75.482 77.1373C75.6464 77.2187 75.8259 77.2653 76.0092 77.274C76.1925 77.2827 76.3756 77.2533 76.547 77.1879C76.7184 77.1224 76.8744 77.0221 77.0052 76.8934C77.1359 76.7647 77.2387 76.6103 77.3069 76.44C77.3751 76.2697 77.4074 76.0871 77.4016 75.9037C77.3959 75.7203 77.3522 75.5401 77.2734 75.3744C77.1946 75.2086 77.0824 75.061 76.9438 74.9408C76.1938 74.1608 75.4238 73.4108 74.6538 72.6408L70.9438 69.0108L69.0538 70.8708Z" fill="#004D43"/>
<path d="M65.4038 2.6608V0.100796C69.4038 -0.219204 73.4038 3.7008 73.3138 7.9608H70.7138C70.6758 6.56542 70.1039 5.2378 69.1159 4.25169C68.1279 3.26557 66.7992 2.69614 65.4038 2.6608Z" fill="#004D43"/>
<path d="M9.38379 18.7308V21.2908H6.82379V18.7308H9.38379Z" fill="#004D43"/>
<path d="M12.1238 21.2708V18.7208H14.6838V21.2708H12.1238Z" fill="#004D43"/>
<path d="M17.4638 18.7108H20.0038V21.2808H17.4638V18.7108Z" fill="#004D43"/>
<path d="M69.3538 58.6208C69.3636 60.7355 68.7443 62.8053 67.5745 64.567C66.4047 66.3287 64.7374 67.7027 62.7846 68.5142C60.8317 69.3257 58.6817 69.5381 56.6079 69.1242C54.534 68.7104 52.6302 67.6891 51.1384 66.1903C49.6466 64.6914 48.6343 62.7827 48.2303 60.707C47.8262 58.6312 48.0487 56.4822 48.8694 54.5332C49.6902 52.5843 51.072 50.9234 52.8392 49.762C54.6064 48.6006 56.6792 47.991 58.7938 48.0108C61.5942 48.0396 64.271 49.1683 66.2466 51.1532C68.2222 53.1382 69.3382 55.8203 69.3538 58.6208ZM58.7038 66.6208C60.286 66.6208 61.8328 66.1516 63.1484 65.2726C64.4639 64.3935 65.4893 63.1441 66.0948 61.6823C66.7003 60.2205 66.8588 58.6119 66.5501 57.0601C66.2414 55.5082 65.4795 54.0828 64.3606 52.9639C63.2418 51.8451 61.8164 51.0832 60.2645 50.7745C58.7127 50.4658 57.1041 50.6243 55.6423 51.2298C54.1805 51.8353 52.9311 52.8606 52.052 54.1762C51.173 55.4918 50.7038 57.0385 50.7038 58.6208C50.7064 60.7408 51.5505 62.7731 53.0505 64.2712C54.5505 65.7693 56.5838 66.6108 58.7038 66.6108V66.6208Z" fill="#004D43"/>
<path d="M58.6538 55.9108C57.9632 55.9581 57.3134 56.2551 56.8257 56.7465C56.3381 57.2378 56.0459 57.8898 56.0038 58.5808H53.4538C53.4417 57.8927 53.5677 57.2092 53.8243 56.5706C54.0808 55.9321 54.4627 55.3514 54.9475 54.8629C55.4322 54.3744 56.01 53.9881 56.6465 53.7266C57.2831 53.4652 57.9657 53.334 58.6538 53.3408V55.9108Z" fill="#004D43"/>
</g>
</g>
<defs>
<clipPath id="clip0_1753_54851">
<rect width="80" height="80" fill="white"/>
</clipPath>
</defs>
</svg>
