<svg width="49" height="48" viewBox="0 0 49 48" fill="none" xmlns="http://www.w3.org/2000/svg">
<g id="icon" clip-path="url(#clip0_1753_62275)">
<g id="Vector">
<path d="M31.6842 0C31.8742 0.18 32.0742 0.35 32.2642 0.54C34.7742 3.04 37.2642 5.54 39.7942 8.05C39.9401 8.18629 40.0549 8.35241 40.1308 8.53705C40.2067 8.72169 40.242 8.92051 40.2342 9.12C40.2342 12.9733 40.2342 16.8167 40.2342 20.65V21.27H43.6142C44.0196 21.2458 44.4255 21.3089 44.8045 21.455C45.1835 21.6011 45.5268 21.8267 45.8111 22.1168C46.0954 22.4068 46.3143 22.7544 46.4528 23.1362C46.5913 23.518 46.6464 23.9251 46.6142 24.33C46.6142 27.2 46.6142 30.08 46.6142 32.95C46.6142 33.51 46.6142 34.08 46.6142 34.64C46.6142 35.2 46.3542 35.51 45.9242 35.52C45.4942 35.53 45.2142 35.2 45.2142 34.62V24.45C45.2142 23.2 44.6942 22.68 43.4542 22.68H34.9142C34.7942 22.68 34.6642 22.68 34.5442 22.68C34.4497 22.6814 34.356 22.6636 34.2685 22.6278C34.1811 22.592 34.1018 22.5389 34.0355 22.4716C33.9691 22.4043 33.9171 22.3243 33.8825 22.2364C33.8479 22.1485 33.8315 22.0544 33.8342 21.96C33.8338 21.8654 33.8532 21.7718 33.8911 21.6851C33.9289 21.5985 33.9844 21.5206 34.0541 21.4566C34.1237 21.3926 34.206 21.3439 34.2955 21.3135C34.3851 21.2831 34.48 21.2717 34.5742 21.28H38.7742V9.49H38.1642C36.8342 9.49 35.5042 9.41 34.1642 9.49C31.8742 9.66 30.5642 8.33 30.7142 6C30.8142 4.49 30.7142 3 30.7142 1.39H11.5142C10.4242 1.39 9.9442 1.87 9.9342 2.95V7C9.9342 7.68 9.7042 8 9.2242 8C8.7442 8 8.5342 7.67 8.5342 7C8.5342 5.62 8.5342 4.25 8.5342 2.87C8.49556 2.22715 8.68799 1.59165 9.07674 1.07821C9.46549 0.564764 10.025 0.207184 10.6542 0.07C10.6963 0.0504296 10.7364 0.0269957 10.7742 0H31.6842ZM37.6142 8.07L32.1542 2.61C32.1542 4 32.1542 5.47 32.1542 6.93C32.1669 7.23078 32.2941 7.51533 32.5098 7.7254C32.7254 7.93546 33.0132 8.05517 33.3142 8.06C34.7742 8.09 36.2242 8.07 37.6142 8.07Z" fill="#004D43"/>
<path d="M8.5342 16.19V13.08C8.5342 12.21 8.5342 11.33 8.5342 10.46C8.52431 10.3576 8.5362 10.2542 8.56907 10.1567C8.60194 10.0592 8.65505 9.96972 8.72493 9.89418C8.79481 9.81863 8.87986 9.75872 8.97453 9.71836C9.06919 9.678 9.17131 9.65811 9.2742 9.66C9.37168 9.66735 9.46665 9.69447 9.55332 9.73971C9.63998 9.78495 9.71652 9.84737 9.77827 9.92316C9.84003 9.99895 9.8857 10.0865 9.91251 10.1805C9.93931 10.2745 9.94669 10.373 9.9342 10.47C9.9342 12.19 9.9342 13.91 9.9342 15.62V16.19H10.4842C11.7542 16.19 13.0242 16.19 14.2842 16.19C14.9394 16.1463 15.5891 16.3334 16.1207 16.7189C16.6523 17.1043 17.0321 17.6637 17.1942 18.3C17.5242 19.3 17.8442 20.25 18.1942 21.3H31.0742C31.2272 21.285 31.3812 21.285 31.5342 21.3C31.6968 21.3182 31.8477 21.3935 31.9599 21.5126C32.0721 21.6317 32.1383 21.7869 32.1467 21.9503C32.1552 22.1137 32.1052 22.2748 32.0058 22.4048C31.9065 22.5348 31.7641 22.6252 31.6042 22.66C31.4649 22.6802 31.3235 22.6802 31.1842 22.66H18.0142C17.3342 22.66 17.1942 22.56 17.0142 21.9C16.6542 20.83 16.3042 19.77 15.9442 18.71C15.8737 18.3581 15.6726 18.046 15.3814 17.8363C15.0901 17.6267 14.7302 17.5351 14.3742 17.58C11.6042 17.58 8.8442 17.58 6.0742 17.58C5.86207 17.5575 5.64759 17.583 5.44669 17.6548C5.2458 17.7265 5.06364 17.8426 4.91377 17.9944C4.76389 18.1462 4.65014 18.3298 4.58096 18.5316C4.51179 18.7334 4.48897 18.9482 4.5142 19.16V45C4.49234 45.2065 4.51539 45.4152 4.58176 45.612C4.64814 45.8087 4.75627 45.9887 4.89875 46.1398C5.04122 46.2908 5.21468 46.4092 5.40721 46.4869C5.59974 46.5646 5.8068 46.5998 6.0142 46.59H43.6142C43.8315 46.6184 44.0524 46.5972 44.2604 46.528C44.4683 46.4587 44.6578 46.3432 44.8147 46.1902C44.9716 46.0372 45.0917 45.8506 45.1661 45.6444C45.2405 45.4383 45.2672 45.2179 45.2442 45C45.2442 42.72 45.2442 40.44 45.2442 38.16C45.243 37.9138 45.3087 37.6718 45.4342 37.46C45.5112 37.371 45.6103 37.3039 45.7216 37.2653C45.8328 37.2268 45.9522 37.2183 46.0678 37.2406C46.1833 37.2629 46.291 37.3153 46.3799 37.3924C46.4688 37.4695 46.5358 37.5687 46.5742 37.68C46.6275 37.8583 46.6511 38.0441 46.6442 38.23C46.6442 40.47 46.6442 42.7 46.6442 44.93C46.6767 45.3458 46.6178 45.7636 46.4718 46.1542C46.3257 46.5448 46.0961 46.8988 45.7988 47.1912C45.5016 47.4837 45.1439 47.7077 44.751 47.8474C44.3581 47.9871 43.9394 48.0392 43.5242 48H6.1642C5.74066 48.0436 5.31271 47.9925 4.91138 47.8503C4.51005 47.7081 4.14539 47.4783 3.84383 47.1777C3.54228 46.8771 3.31139 46.5132 3.16789 46.1123C3.0244 45.7115 2.9719 45.2837 3.0142 44.86V19.31C2.97233 18.8908 3.02393 18.4675 3.16527 18.0706C3.30661 17.6738 3.53418 17.3131 3.8316 17.0148C4.12903 16.7164 4.4889 16.4877 4.88532 16.345C5.28175 16.2024 5.70486 16.1495 6.1242 16.19C6.9042 16.18 7.6842 16.19 8.5342 16.19Z" fill="#004D43"/>
<path d="M20.5842 32C20.5842 31.37 20.5842 30.75 20.6942 30.15C20.869 29.1171 21.4225 28.1864 22.2468 27.5398C23.071 26.8933 24.1068 26.5772 25.1516 26.6534C26.1964 26.7297 27.1753 27.1927 27.8969 27.9521C28.6186 28.7115 29.0312 29.7127 29.0542 30.76C29.0542 31.17 29.0542 31.57 29.0542 31.97C30.3242 32.45 30.6342 32.89 30.6342 34.21V40.53C30.6639 40.8043 30.6309 41.0817 30.5376 41.3414C30.4443 41.601 30.2932 41.836 30.0957 42.0287C29.8983 42.2214 29.6596 42.3666 29.3977 42.4534C29.1358 42.5403 28.8577 42.5665 28.5842 42.53H21.0842C20.8142 42.5602 20.5409 42.5292 20.2845 42.4394C20.0281 42.3496 19.7952 42.2032 19.6031 42.0111C19.411 41.819 19.2646 41.5861 19.1748 41.3297C19.085 41.0733 19.054 40.8 19.0842 40.53V34.09C19.0142 33.6151 19.1316 33.1316 19.4115 32.7416C19.6914 32.3516 20.1119 32.0857 20.5842 32ZM24.8642 33.43C23.5842 33.43 22.3042 33.43 21.0242 33.43C20.5942 33.43 20.4442 33.61 20.4442 34.02C20.4442 36.22 20.4442 38.42 20.4442 40.62C20.4442 41.01 20.5942 41.19 20.9942 41.19H28.6742C29.0742 41.19 29.2342 41.01 29.2342 40.62C29.2342 38.42 29.2342 36.22 29.2342 34.02C29.2342 33.56 29.0442 33.42 28.6042 33.43C27.3642 33.47 26.1142 33.46 24.8642 33.46V33.43ZM27.6442 32C27.6442 31.54 27.6442 31.13 27.6442 30.73C27.625 30.2609 27.4882 29.8041 27.2463 29.4017C27.0045 28.9993 26.6653 28.6642 26.26 28.4272C25.8547 28.1901 25.3963 28.0589 24.9269 28.0454C24.4576 28.0319 23.9924 28.1367 23.5742 28.35C22.2542 29.03 21.8142 30.28 22.0942 32H27.6442Z" fill="#004D43"/>
<path d="M24.8342 13.05H16.3542C16.1842 13.05 15.9742 13.05 15.8542 13.05C15.6147 12.9112 15.4203 12.7064 15.2942 12.46C15.2719 12.3837 15.2657 12.3037 15.2762 12.2249C15.2866 12.1461 15.3134 12.0704 15.3549 12.0026C15.3963 11.9348 15.4514 11.8764 15.5168 11.8312C15.5821 11.786 15.6562 11.7549 15.7342 11.74C15.9295 11.6864 16.1318 11.6628 16.3342 11.67H33.6742C33.7716 11.6642 33.8691 11.6791 33.9603 11.7137C34.0515 11.7483 34.1343 11.8019 34.2033 11.8709C34.2723 11.9398 34.3259 12.0227 34.3605 12.1139C34.3951 12.2051 34.41 12.3026 34.4042 12.4C34.4021 12.4948 34.3802 12.588 34.3399 12.6738C34.2996 12.7596 34.2418 12.836 34.1702 12.8982C34.0987 12.9603 34.0149 13.0068 33.9243 13.0347C33.8337 13.0626 33.7383 13.0712 33.6442 13.06C32.8942 13.06 32.1442 13.06 31.3942 13.06L24.8342 13.05Z" fill="#004D43"/>
<path d="M33.5042 16.47C33.8542 16.47 34.1642 16.47 34.3342 16.86C34.3797 16.9467 34.4057 17.0423 34.4103 17.14C34.4149 17.2378 34.398 17.3354 34.3608 17.426C34.3237 17.5166 34.2671 17.5979 34.1951 17.6642C34.1231 17.7306 34.0375 17.7803 33.9442 17.81C33.7484 17.8602 33.5461 17.8804 33.3442 17.87H19.8042C19.2942 17.87 19.0042 17.56 19.0242 17.13C19.0442 16.7 19.3242 16.47 19.8242 16.47H33.5042Z" fill="#004D43"/>
<path d="M25.4842 37.61C25.6842 38.09 25.8742 38.55 26.0742 39C26.2742 39.45 26.1842 39.51 25.7742 39.5H23.9042C23.5142 39.5 23.4442 39.35 23.5942 39.01C23.7442 38.67 23.9942 38.09 24.1842 37.64C23.4342 36.93 23.2542 36.16 24.0242 35.46C24.148 35.3511 24.2922 35.2678 24.4484 35.2149C24.6045 35.1619 24.7697 35.1404 24.9342 35.1516C25.0987 35.1627 25.2594 35.2063 25.407 35.2799C25.5546 35.3534 25.6862 35.4554 25.7942 35.58C26.3342 36.17 26.2342 36.91 25.4842 37.61Z" fill="#004D43"/>
</g>
</g>
<defs>
<clipPath id="clip0_1753_62275">
<rect width="48" height="48" fill="white" transform="translate(0.800781)"/>
</clipPath>
</defs>
</svg>
