<svg width="49" height="48" viewBox="0 0 49 48" fill="none" xmlns="http://www.w3.org/2000/svg">
<g clip-path="url(#clip0_561_21183)">
<path d="M43.0996 14.2067L43.252 13.059C43.2727 12.9691 43.2684 12.8753 43.2398 12.7876C43.2112 12.7 43.1592 12.6217 43.0895 12.5614C42.0027 11.4746 40.8754 10.3269 39.4128 8.81359C39.1948 8.59075 39.0101 8.33761 38.8643 8.062C38.1331 6.67055 37.2698 5.01502 36.4471 3.41028C36.4124 3.31755 36.3519 3.2367 36.2727 3.1773C36.1935 3.1179 36.0989 3.08244 36.0002 3.07512H35.7971C34.7814 2.92277 33.8165 2.77042 32.8313 2.56729C32.5368 2.50635 32.2321 2.46572 31.9274 2.4251C31.0963 2.34486 30.2854 2.12151 29.5304 1.76492C28.6671 1.29771 27.7632 0.850825 26.8897 0.424249L25.2647 -0.418747C25.1738 -0.467482 25.0732 -0.495245 24.9701 -0.5C24.8841 -0.497776 24.8001 -0.47328 24.7264 -0.428904C23.1115 0.393779 21.4966 1.19615 19.9934 1.92742C19.7411 2.05621 19.4705 2.14528 19.1911 2.19149L17.109 2.54697C16.0324 2.72979 14.9558 2.91261 13.8792 3.11574C13.7531 3.1492 13.6443 3.229 13.5745 3.33919C13.0869 4.22281 12.5588 5.12675 12.1525 6.05099C11.4411 7.64675 10.4032 9.07569 9.10557 10.2457C8.63836 10.6722 8.18132 11.1394 7.74458 11.5965C7.4602 11.9012 7.16566 12.2059 6.87112 12.5004C6.78945 12.5536 6.72739 12.6319 6.69439 12.7236C6.66138 12.8153 6.65925 12.9152 6.6883 13.0083C6.91174 14.4099 7.12503 15.781 7.30785 17.1623V17.4467C7.41471 18.0156 7.44545 18.5963 7.39926 19.1733C7.23676 20.5851 7.01331 22.0171 6.80002 23.3984L6.6883 24.3633C6.66981 24.4606 6.67798 24.561 6.71196 24.654C6.74593 24.747 6.80444 24.829 6.88128 24.8915C8.14069 26.1407 9.35948 27.39 10.5986 28.6697C10.7792 28.865 10.9329 29.0837 11.0556 29.3197C11.3806 29.919 11.6955 30.5284 12.0103 31.1378L13.5541 34.073C13.6252 34.1884 13.738 34.272 13.869 34.3066C14.7933 34.4996 15.6058 34.6418 16.3777 34.7433C16.4905 34.7422 16.6022 34.7654 16.7052 34.8115C16.8082 34.8576 16.9 34.9255 16.9743 35.0104C17.0486 35.0953 17.1036 35.1953 17.1356 35.3034C17.1676 35.4116 17.1759 35.5255 17.1597 35.6371C17.1597 38.9685 17.1597 42.2998 17.1597 45.6312V47.2766C17.1547 47.3476 17.1547 47.4188 17.1597 47.4898H17.2715C19.6887 46.5554 22.1161 45.6109 24.5436 44.6866C24.7081 44.6198 24.884 44.5853 25.0616 44.5851C25.1692 44.5676 25.2789 44.5676 25.3866 44.5851L32.161 47.2359L32.8212 47.5V45.5601C32.8212 42.2592 32.8212 38.9583 32.8212 35.6473C32.8049 35.5347 32.8134 35.42 32.846 35.3111C32.8786 35.2022 32.9345 35.1017 33.0099 35.0166C33.0854 34.9315 33.1784 34.8639 33.2826 34.8185C33.3869 34.773 33.4997 34.7508 33.6134 34.7535C34.0704 34.7027 34.5376 34.6215 34.9845 34.5402L36.0002 34.3675C36.0905 34.3581 36.1764 34.3236 36.2482 34.268C36.32 34.2124 36.3748 34.1378 36.4065 34.0527C37.0971 32.6917 37.8792 31.1987 38.8542 29.3603C38.9863 29.1132 39.1502 28.8844 39.3417 28.6799C39.8292 28.1923 40.3574 27.6642 40.7839 27.2072C41.5457 26.4251 42.3176 25.643 43.0692 24.861C43.1661 24.7483 43.2169 24.6032 43.2114 24.4547C43.12 23.693 43.0082 22.9515 42.8965 22.2L42.6223 20.3515L42.5715 19.996C42.4666 19.4371 42.4325 18.8672 42.4699 18.2998C42.6629 16.9287 42.8864 15.5474 43.0996 14.2067ZM30.5258 35.7184V44.189L30.1094 44.0265L28.8703 43.5389L27.5702 43.0311L26.9405 42.7772C26.4124 42.5639 25.8639 42.3506 25.3256 42.1678C25.228 42.1524 25.1287 42.1524 25.0311 42.1678C24.9434 42.1563 24.8547 42.1563 24.767 42.1678C23.7514 42.5537 22.6646 42.96 21.6185 43.3663L20.5012 43.803L20.0747 43.9655L19.8411 44.0468L19.4247 44.1991V35.2207L19.8715 35.434L20.552 35.7793L21.9232 36.47L22.6748 36.8559L24.767 37.8716C24.8277 37.879 24.8891 37.879 24.9498 37.8716C25.0167 37.8865 25.0861 37.8865 25.153 37.8716C26.4022 37.2723 27.6515 36.6426 28.9211 36.0129L30.0484 35.4441L30.4852 35.2309L30.5258 35.7184ZM40.3574 20.0975V20.3718C40.4792 21.3874 40.6418 22.4031 40.7941 23.2258C40.8438 23.4445 40.8311 23.6728 40.7575 23.8846C40.6839 24.0965 40.5523 24.2835 40.3777 24.4243C38.1029 26.3712 36.3151 28.8234 35.1572 31.5846C35.0646 31.822 34.9047 32.0272 34.6973 32.1751C34.4898 32.323 34.2438 32.4073 33.9892 32.4175C32.5774 32.6308 31.1555 32.8745 29.8148 33.1081C29.6449 33.152 29.4812 33.2168 29.3273 33.3011L28.0781 33.9207L25.4373 35.2207C25.2868 35.2855 25.1239 35.3167 24.96 35.3121C24.7963 35.3143 24.6339 35.2832 24.4826 35.2207C23.7578 34.9269 23.0522 34.5877 22.3701 34.205C20.9595 33.3922 19.3901 32.8933 17.7691 32.7425C17.4035 32.7425 17.0277 32.6409 16.6722 32.5698L15.8292 32.387C15.6093 32.3694 15.3984 32.292 15.2194 32.1631C15.0403 32.0342 14.9 31.8587 14.8136 31.6557C14.2143 30.4268 13.5541 29.1978 12.9244 28.0095V27.9486C12.8151 27.7335 12.6709 27.5379 12.4979 27.3697L12.2846 27.1361C11.4111 26.2321 10.5072 25.3079 9.59308 24.4141C9.41797 24.2584 9.28858 24.058 9.21879 23.8343C9.14901 23.6106 9.14146 23.3722 9.19698 23.1445C9.36964 22.1289 9.52199 21.0624 9.67434 20.0264L9.82668 19.0108C9.83267 18.9398 9.83267 18.8685 9.82668 18.7975V18.6858C9.7759 18.3405 9.73527 17.985 9.68449 17.6701C9.57277 16.8271 9.46105 15.9537 9.27823 15.1107C9.12935 14.6495 9.12758 14.1534 9.27316 13.6912C9.41874 13.229 9.70446 12.8235 10.0908 12.5309C12.0292 10.9054 13.5305 8.82104 14.4581 6.46741C14.6081 6.01612 14.8952 5.62289 15.2794 5.34251C15.6635 5.06214 16.1256 4.9086 16.6011 4.9033C17.4746 4.82205 18.3684 4.65954 19.2215 4.49704L20.1051 4.33453C20.2916 4.29164 20.4722 4.22687 20.6434 4.14156L21.2021 3.86733C22.2177 3.34934 23.3349 2.85167 24.3811 2.27275C24.56 2.16709 24.7625 2.10775 24.9701 2.10008C25.1952 2.10756 25.415 2.17034 25.61 2.2829L26.4835 2.71964C26.8986 2.90522 27.3022 3.1155 27.6921 3.34934C29.0538 4.11789 30.5632 4.5887 32.1204 4.73064C32.8541 4.81903 33.583 4.94445 34.304 5.10643C34.4551 5.14106 34.5976 5.20564 34.7232 5.29636C34.8488 5.38708 34.955 5.50209 35.0353 5.63457C35.4517 6.41663 35.858 7.19869 36.2643 7.98075L37.0666 9.51439C37.1742 9.71368 37.3074 9.89806 37.4627 10.0628C38.4784 11.1394 39.4941 12.0942 40.4386 13.1098C40.5896 13.2474 40.7025 13.4215 40.7665 13.6154C40.8306 13.8093 40.8436 14.0165 40.8043 14.2169L40.6621 15.0396C40.4996 16.0552 40.3167 17.142 40.2253 18.1983C40.2007 18.8343 40.245 19.4711 40.3574 20.0975Z" fill="#004D43"/>
<path d="M24.9701 7.20885C22.6869 7.21087 20.4555 7.8903 18.5586 9.16112C16.6617 10.4319 15.1845 12.237 14.314 14.3478C13.4434 16.4587 13.2188 18.7803 13.6684 21.0189C14.1181 23.2574 15.2218 25.3122 16.8399 26.9232C18.4579 28.5341 20.5176 29.6288 22.7581 30.0686C24.9986 30.5083 27.3193 30.2734 29.4262 29.3936C31.5332 28.5138 33.3317 27.0287 34.5942 25.1262C35.8566 23.2237 36.5262 20.9894 36.5182 18.7061C36.5209 17.1912 36.2237 15.6908 35.6437 14.2913C35.0636 12.8919 34.2123 11.6211 33.1388 10.5523C32.0652 9.48346 30.7907 8.63774 29.3887 8.0639C27.9867 7.49006 26.485 7.19946 24.9701 7.20885ZM31.5922 12.216C32.8776 13.5214 33.7485 15.1775 34.0955 16.9763C34.4425 18.7751 34.2501 20.6363 33.5425 22.3261C32.8349 24.0159 31.6437 25.4589 30.1184 26.4737C28.5932 27.4885 26.8021 28.0299 24.9701 28.0298C23.7532 28.0289 22.5486 27.7849 21.4272 27.3123C20.3058 26.8396 19.29 26.1478 18.4395 25.2774C17.5818 24.4104 16.9034 23.3831 16.4428 22.2539C15.9822 21.1247 15.7486 19.9159 15.7552 18.6964C15.7685 16.2336 16.7597 13.877 18.5106 12.1449C20.2615 10.4129 22.6287 9.44734 25.0915 9.46067C27.5543 9.474 29.911 10.4651 31.643 12.216H31.5922Z" fill="#004D43"/>
<path d="M23.8631 23.7641H26.0772V13.7192H23.8631C23.5889 15.5271 23.1318 16.106 21.6794 16.4615V18.7264L22.3193 18.5842L23.4974 18.3303L23.8631 18.249V23.7641Z" fill="#004D43"/>
</g>
<defs>
<clipPath id="clip0_561_21183">
<rect width="48" height="48" fill="white" transform="translate(0.667969)"/>
</clipPath>
</defs>
</svg>
