<svg width="48" height="48" viewBox="0 0 48 48" fill="none" xmlns="http://www.w3.org/2000/svg">
<g clip-path="url(#clip0_619_21593)">
<path d="M3.10996 21.65V18.53C3.10996 17.07 3.10996 15.6 3.10996 14.13C3.10996 13.43 3.37996 13.13 4.10996 13.13H7.00996V7.34C7.00996 6.4 7.21996 6.19 8.17996 6.19H10.1V5.63C10.1 4.07 10.1 2.5 10.1 0.94C10.1 0.3 10.37 0 10.99 0H31.63C31.897 0.0128737 32.1528 0.111009 32.36 0.28C34.1 1.75 35.81 3.28 37.55 4.7C38.04 5.11 37.91 5.63 37.96 6.18H40.01C40.76 6.18 41.01 6.44 41.01 7.18V13.12H43.84C44.63 13.12 44.84 13.37 44.84 14.12V21.55C45.1531 21.6009 45.4635 21.6676 45.77 21.75C46.4247 21.9212 47.0024 22.3088 47.409 22.8498C47.8157 23.3908 48.0275 24.0534 48.01 24.73C48.01 30.18 48.01 35.63 48.01 41.08C47.9942 41.8899 47.658 42.6604 47.075 43.2228C46.492 43.7851 45.7098 44.0934 44.9 44.08C42.61 44.08 40.32 44.08 37.9 44.08V44.56C37.9 45.4 37.9 46.24 37.9 47.07C37.9137 47.1876 37.9011 47.3068 37.8632 47.4189C37.8253 47.5311 37.7629 47.6334 37.6806 47.7186C37.5984 47.8037 37.4982 47.8695 37.3874 47.9113C37.2766 47.953 37.158 47.9697 37.04 47.96H11.25C10.25 47.96 10.07 47.76 10.07 46.76V44.13H3.29996C2.85848 44.1598 2.41575 44.0945 2.0017 43.9384C1.58766 43.7824 1.21197 43.5392 0.900034 43.2254C0.588102 42.9115 0.347208 42.5344 0.193649 42.1194C0.0400894 41.7044 -0.0225537 41.2613 0.00995685 40.82V25.05C-0.0243146 24.62 0.0301035 24.1875 0.169838 23.7794C0.309572 23.3713 0.531645 22.9962 0.822289 22.6774C1.11293 22.3587 1.46596 22.103 1.85947 21.9262C2.25299 21.7495 2.67861 21.6555 3.10996 21.65ZM1.55996 30.93H46.46V25.1C46.46 23.79 45.89 23.22 44.57 23.22H3.00996C2.63443 23.2346 2.27808 23.3897 2.01142 23.6545C1.74475 23.9193 1.58721 24.2746 1.56996 24.65C1.54996 26.74 1.55996 28.82 1.55996 30.93ZM11.64 21.64H36.36V6.19H32.16C31.17 6.19 31.01 6 31.01 5V1.58H11.64V21.64ZM11.64 46.41H36.36V35.63H11.65L11.64 46.41ZM6.22996 34H41.78V32.54H6.22996V34ZM4.68996 14.73V21.64H10.01V14.73H4.68996ZM43.34 14.73H38.01V21.64H43.37L43.34 14.73ZM1.55996 32.53C1.55996 35.44 1.55996 38.3 1.55996 41.16C1.57526 41.512 1.7173 41.8465 1.95989 42.102C2.20248 42.3574 2.52926 42.5166 2.87996 42.55C3.44996 42.6 4.02996 42.55 4.61996 42.55V32.55L1.55996 32.53ZM43.38 42.53H44.64C44.886 42.5686 45.1377 42.5489 45.3747 42.4724C45.6118 42.396 45.8275 42.2649 46.0046 42.0897C46.1817 41.9146 46.3152 41.7003 46.3943 41.4641C46.4734 41.2279 46.4959 40.9765 46.46 40.73V33C46.46 32.84 46.46 32.69 46.46 32.54H43.38V42.53ZM10.01 42.57V39.57H6.23996V42.57H10.01ZM38.01 39.5V42.5H41.81V39.5H38.01ZM6.22996 37.91H10.01V35.65H6.22996V37.91ZM41.79 37.91V35.64H38.01V37.91H41.79ZM8.55996 7.75V13.13H10.01V7.75H8.55996ZM38.01 7.76V13.12H39.5V7.76H38.01ZM32.55 4.62H35.01L32.51 2.48L32.55 4.62Z" fill="#004D43"/>
<path d="M8.51996 24.78C8.97795 24.7781 9.42626 24.9117 9.80841 25.1641C10.1906 25.4166 10.4895 25.7764 10.6674 26.1984C10.8454 26.6204 10.8945 27.0857 10.8085 27.5355C10.7225 27.9854 10.5053 28.3997 10.1843 28.7263C9.86321 29.0529 9.45267 29.2772 9.00436 29.3709C8.55605 29.4646 8.09005 29.4235 7.66506 29.2528C7.24006 29.0821 6.8751 28.7894 6.61616 28.4117C6.35722 28.0339 6.21588 27.588 6.20996 27.13C6.20465 26.8233 6.26047 26.5186 6.37418 26.2337C6.48789 25.9488 6.6572 25.6894 6.87223 25.4707C7.08727 25.2519 7.34372 25.0782 7.62662 24.9596C7.90952 24.841 8.21321 24.78 8.51996 24.78ZM8.51996 27.87C8.71033 27.8483 8.88607 27.7574 9.01367 27.6144C9.14126 27.4715 9.21178 27.2866 9.21178 27.095C9.21178 26.9034 9.14126 26.7185 9.01367 26.5756C8.88607 26.4326 8.71033 26.3417 8.51996 26.32C8.41079 26.3076 8.30023 26.3184 8.19552 26.3516C8.09081 26.3849 7.99431 26.4399 7.91235 26.5131C7.83038 26.5863 7.7648 26.6759 7.7199 26.7762C7.67499 26.8765 7.65178 26.9851 7.65178 27.095C7.65178 27.2049 7.67499 27.3135 7.7199 27.4138C7.7648 27.5141 7.83038 27.6037 7.91235 27.6769C7.99431 27.7501 8.09081 27.8051 8.19552 27.8384C8.30023 27.8716 8.41079 27.8824 8.51996 27.87Z" fill="#004D43"/>
<path d="M17.01 27.09C17.0119 27.5497 16.8773 27.9996 16.6231 28.3827C16.369 28.7657 16.0067 29.0646 15.5824 29.2415C15.1581 29.4183 14.6908 29.4651 14.2398 29.3759C13.7888 29.2867 13.3745 29.0655 13.0495 28.7405C12.7244 28.4154 12.5033 28.0011 12.4141 27.5501C12.3249 27.0992 12.3717 26.6319 12.5485 26.2075C12.7253 25.7832 13.0242 25.421 13.4073 25.1668C13.7903 24.9127 14.2403 24.778 14.7 24.78C15.311 24.7852 15.8955 25.0303 16.3276 25.4624C16.7597 25.8944 17.0047 26.479 17.01 27.09ZM15.46 27.09C15.4539 26.9379 15.4029 26.791 15.3134 26.6678C15.2239 26.5447 15.0999 26.4508 14.957 26.3981C14.8142 26.3455 14.659 26.3363 14.5109 26.3718C14.3629 26.4073 14.2287 26.4859 14.1253 26.5977C14.0219 26.7095 13.954 26.8494 13.9301 26.9997C13.9062 27.1501 13.9274 27.3041 13.9911 27.4424C14.0547 27.5807 14.1579 27.6971 14.2877 27.7767C14.4174 27.8564 14.5678 27.8958 14.72 27.89C14.825 27.8888 14.9287 27.8664 15.0249 27.8241C15.121 27.7818 15.2077 27.7206 15.2796 27.644C15.3515 27.5674 15.4072 27.4771 15.4433 27.3785C15.4795 27.2798 15.4953 27.1749 15.49 27.07L15.46 27.09Z" fill="#004D43"/>
<path d="M24.01 3.87C25.5416 3.87398 27.0377 4.33231 28.3087 5.18698C29.5798 6.04164 30.5687 7.25421 31.1502 8.67118C31.7318 10.0882 31.8799 11.6458 31.5757 13.147C31.2715 14.6482 30.5288 16.0253 29.4416 17.1042C28.3543 18.183 26.9714 18.915 25.4679 19.2075C23.9645 19.5 22.408 19.3399 20.9956 18.7473C19.5832 18.1548 18.3783 17.1565 17.5335 15.8789C16.6888 14.6012 16.242 13.1017 16.25 11.57C16.2632 9.52151 17.0869 7.56158 18.541 6.11869C19.9952 4.67579 21.9614 3.86731 24.01 3.87ZM17.91 12.39C18.0517 13.7477 18.659 15.0144 19.6288 15.9751C20.5986 16.9358 21.871 17.5311 23.23 17.66V16.3H24.81V17.71C26.1627 17.5492 27.4205 16.9329 28.3764 15.9624C29.3324 14.9919 29.9296 13.725 30.07 12.37H28.69V10.82H30.1C29.9443 9.46671 29.3327 8.20667 28.3659 7.24707C27.399 6.28748 26.1344 5.68546 24.78 5.54V6.94H23.23V5.52C20.73 5.57 17.91 8.4 17.93 10.85H19.34V12.39H17.91Z" fill="#004D43"/>
<path d="M26.5 7.91L27.57 9.11C27.5143 9.18964 27.4506 9.26336 27.38 9.33C26.48 10.24 25.59 11.14 24.68 12.04C24.6054 12.1473 24.5059 12.2349 24.3901 12.2954C24.2743 12.3559 24.1456 12.3875 24.015 12.3875C23.8843 12.3875 23.7556 12.3559 23.6398 12.2954C23.524 12.2349 23.4246 12.1473 23.35 12.04L21.9 10.66L23.01 9.54L23.87 10.54L26.5 7.91Z" fill="#004D43"/>
</g>
<defs>
<clipPath id="clip0_619_21593">
<rect width="48" height="48" fill="white"/>
</clipPath>
</defs>
</svg>
