<svg width="49" height="48" viewBox="0 0 49 48" fill="none" xmlns="http://www.w3.org/2000/svg">
<g clip-path="url(#clip0_561_21324)">
<path d="M14.6615 38.7993C15.0275 38.1567 15.2907 37.5369 15.6914 37.0252C16.3928 36.1316 17.368 35.672 18.5061 35.6079C20.4031 35.501 21.3315 34.3735 21.0777 32.4018C20.8573 32.4018 20.6288 32.4098 20.4004 32.4018C19.8407 32.3818 19.5401 32.0879 19.5307 31.5281C19.5187 30.7787 19.5307 30.0293 19.5307 29.2478C18.7038 29.2051 17.893 29.1997 17.0901 29.1142C13.5166 28.7428 10.5443 27.1839 8.19318 24.4761C7.35158 23.5089 6.58078 22.4816 5.76724 21.489C5.65061 21.3317 5.49625 21.2063 5.31838 21.1244C3.90369 20.59 3.32259 19.5747 3.63117 18.1146C3.64186 18.0665 3.64186 18.0171 3.54701 18.0585C3.09282 17.5963 2.57316 17.1822 2.21114 16.6585C1.82107 16.1041 1.87183 15.4255 2.07755 14.7536L1.7142 14.5746C1.21951 14.3432 0.818603 13.95 0.577782 13.4599C0.336961 12.9697 0.270654 12.4121 0.389829 11.8791C0.509004 11.3462 0.80652 10.8699 1.23317 10.529C1.65982 10.1882 2.19004 10.0031 2.73614 10.0045C5.54147 9.99386 8.33612 10.0045 11.1348 10.0045H11.7319C11.6638 8.90913 11.5983 7.85246 11.5222 6.79846C11.5142 6.70762 11.3619 6.60876 11.255 6.54865C10.197 5.93815 9.72276 4.9122 10.006 3.81946C10.2972 2.69599 11.2229 2 12.4533 2H36.1984C37.4328 2 38.3545 2.69065 38.6444 3.81011C38.9276 4.90419 38.448 5.9475 37.4007 6.5433C37.3337 6.57944 37.2747 6.6287 37.2272 6.68815C37.1797 6.74759 37.1447 6.816 37.1242 6.88929C37.04 7.90055 36.9906 8.91448 36.9185 9.99921H45.6644C47.0551 9.99921 48.0035 10.7005 48.2747 11.9215C48.5259 13.0584 47.9421 14.087 46.7131 14.6708C46.6837 14.6854 46.6583 14.7068 46.5928 14.7496C46.7825 15.3895 46.7892 16.0387 46.4713 16.6665C46.1533 17.2944 45.6591 17.6671 45.0018 17.9156C45.0179 18.0331 45.0272 18.1454 45.0512 18.2549C45.181 18.8291 45.098 19.4308 44.8177 19.9485C44.5374 20.4661 44.0788 20.8644 43.527 21.0696C43.2566 21.1764 43.0157 21.3463 42.8243 21.5652C41.7623 22.8035 40.8085 24.1474 39.6623 25.299C37.1028 27.8705 33.9408 29.1169 30.3112 29.1944C29.9318 29.2024 29.5511 29.1944 29.1089 29.1944V31.1688C29.1089 32.1921 28.9139 32.3871 27.8853 32.3965H27.5914C27.1679 33.9808 28.2139 35.4957 29.7809 35.5919C31.929 35.7254 33.1206 36.6285 33.7979 38.6417C33.8125 38.6857 33.8366 38.7272 33.8687 38.7966C34.6301 38.7966 35.3956 38.7966 36.161 38.7966C36.8129 38.7966 37.1041 39.0918 37.1068 39.7464C37.113 41.2471 37.113 42.7468 37.1068 44.2456C37.1068 44.8975 36.8102 45.1928 36.1557 45.1928C28.258 45.1928 20.3594 45.1928 12.46 45.1928C11.8067 45.1928 11.5142 44.8976 11.5128 44.2443C11.5066 42.7437 11.5066 41.2439 11.5128 39.7451C11.5128 39.0905 11.8054 38.802 12.46 38.7966C13.2414 38.7939 14.0069 38.7993 14.6615 38.7993ZM13.1493 6.82784C13.1493 6.93338 13.1493 7.0122 13.1493 7.09502C13.3483 10.7019 13.7958 14.258 14.8124 17.7286C15.5191 20.1412 16.4542 22.4469 18.0452 24.4306C21.4758 28.7054 27.2294 28.6841 30.6372 24.3866C31.8395 22.8677 32.6704 21.1497 33.3089 19.3356C34.3295 16.4662 34.8919 13.4952 35.2125 10.4734C35.3395 9.27116 35.4196 8.06887 35.5238 6.83185L13.1493 6.82784ZM36.8076 11.5996C36.4068 13.5473 36.0742 15.4349 35.6053 17.2877C34.8893 20.1478 33.8393 22.8824 31.9851 25.2215C31.3171 26.0698 30.4956 26.8032 29.7715 27.5606C33.54 28.1083 38.9183 25.0892 40.9608 21.1992H40.3557C37.4435 21.1992 37.1108 21.115 37.1228 20.387C37.1349 19.6589 37.4435 19.6001 40.3797 19.6001H42.3835C43.1409 19.6001 43.5257 19.3223 43.5177 18.7879C43.5096 18.2536 43.1343 17.9997 42.3595 17.9997H39.8667C39.1079 17.9997 38.7246 17.7232 38.7326 17.1875C38.7406 16.6519 39.1133 16.4007 39.8908 16.3994H43.9892C44.748 16.3994 45.1327 16.1228 45.1247 15.5872C45.1167 15.0515 44.7413 14.8003 43.9652 14.8003H41.614C40.7097 14.8003 40.3209 14.5532 40.3303 13.9868C40.3396 13.4204 40.7137 13.2 41.6381 13.2H45.5375C46.339 13.2 46.7304 12.9328 46.7211 12.3877C46.7117 11.8427 46.343 11.5996 45.5188 11.5996H36.8076ZM19.0525 27.5606C17.392 26.3516 16.2244 24.8514 15.2907 23.1522C13.9869 20.7824 13.1827 18.2349 12.631 15.6032C12.3558 14.29 12.1407 12.9608 11.8976 11.6383C11.8682 11.6231 11.8367 11.6127 11.804 11.6076H2.75751C2.7074 11.6058 2.65724 11.6094 2.6079 11.6183C2.20713 11.7105 1.96401 11.9589 1.93996 12.3757C1.93116 12.5699 1.99453 12.7604 2.11786 12.9106C2.24118 13.0608 2.41574 13.1601 2.6079 13.1893C2.75689 13.206 2.90694 13.2114 3.05675 13.2053H7.44776C7.8365 13.2053 8.17849 13.3536 8.24929 13.7397C8.29511 14.0191 8.232 14.3055 8.07295 14.5398C7.93936 14.7082 7.60807 14.7816 7.36093 14.7883C6.3617 14.8164 5.35712 14.7883 4.3619 14.8057C3.85961 14.8137 3.5243 15.1677 3.53766 15.6206C3.55102 16.0734 3.87564 16.366 4.35522 16.3967C4.4888 16.4061 4.62239 16.3967 4.75598 16.3967H9.04814C9.43688 16.3967 9.77886 16.5463 9.84966 16.9311C9.89335 17.2118 9.82786 17.4986 9.66665 17.7326C9.53306 17.9009 9.20177 17.9757 8.95463 17.9824C7.9554 18.0091 6.95082 17.9824 5.95559 17.9984C5.45331 18.0064 5.118 18.3604 5.13002 18.8133C5.14205 19.2662 5.468 19.5587 5.94758 19.5894C6.08117 19.5988 6.21475 19.5894 6.34834 19.5894C7.7804 19.5894 9.21379 19.5828 10.6458 19.5894C11.1802 19.5894 11.5342 19.9354 11.5222 20.407C11.5102 20.8572 11.1708 21.1671 10.6539 21.1831C10.3212 21.1938 9.98592 21.1831 9.65462 21.1831H7.6428C10.5229 25.3898 13.9949 27.7369 19.0525 27.5606ZM35.5051 40.4344H13.1493V43.571H35.5051V40.4344ZM16.5437 38.7712H32.1106C31.8515 37.8361 30.9912 37.2377 29.861 37.1976C27.892 37.1281 26.3397 35.8003 25.9977 33.8579C25.9379 33.3849 25.9022 32.9092 25.8908 32.4325H22.6941C22.6941 32.8827 22.7448 33.3048 22.6847 33.711C22.3895 35.7441 20.8145 37.1201 18.7426 37.1962C17.6618 37.2377 16.7949 37.8495 16.5437 38.7712ZM12.679 3.60305C12.5127 3.59087 12.3456 3.59759 12.1808 3.62309C11.78 3.71793 11.5369 3.9811 11.5369 4.40056C11.5369 4.82003 11.7787 5.08453 12.1794 5.17938C12.3441 5.20592 12.5113 5.2131 12.6777 5.20075C20.4436 5.20075 28.209 5.20075 35.974 5.20075C36.1237 5.21084 36.2739 5.20681 36.4228 5.18873C36.853 5.10858 37.1148 4.84407 37.1148 4.4019C37.1148 3.95973 36.8557 3.69389 36.4242 3.61507C36.2588 3.59584 36.0921 3.59137 35.9259 3.60171L12.679 3.60305ZM27.5112 28.656C25.3578 29.4001 23.2565 29.3573 21.1618 28.6827V30.7613H27.5112V28.656Z" fill="#004D43"/>
<path d="M18.7386 21.0642C18.947 20.0196 19.1487 18.9402 19.3865 17.8688C19.427 17.7186 19.4299 17.5606 19.3949 17.409C19.36 17.2573 19.2883 17.1166 19.1861 16.9992C18.5823 16.2244 17.9985 15.4349 17.416 14.644C16.891 13.936 17.1008 13.3656 17.9504 13.1866C18.9429 12.9782 19.9382 12.7778 20.9347 12.5921C21.1049 12.5685 21.2682 12.5096 21.4143 12.4192C21.5603 12.3287 21.6859 12.2089 21.783 12.0671C22.3614 11.2536 22.9719 10.4641 23.5771 9.66257C24.0593 9.02669 24.5897 9.0307 25.0759 9.67058C25.6597 10.4387 26.2542 11.2015 26.8126 11.991C26.9202 12.155 27.0617 12.2941 27.2276 12.3987C27.3936 12.5033 27.58 12.5711 27.7744 12.5975C28.7563 12.7711 29.7328 12.9782 30.7133 13.1826C31.5389 13.3563 31.762 13.9334 31.2637 14.6106C30.6626 15.4282 30.0307 16.2244 29.4509 17.0566C29.3062 17.2849 29.2466 17.5569 29.2826 17.8247C29.4523 18.8413 29.6754 19.8486 29.8771 20.8585C30.0427 21.6894 29.5297 22.161 28.7322 21.9005C27.3883 21.4623 26.0525 21.0015 24.7046 20.578C24.4561 20.5045 24.1916 20.5045 23.9431 20.578C22.5805 21.0068 21.2286 21.4744 19.8687 21.9139C19.2128 22.1316 18.6918 21.7375 18.7386 21.0642ZM29.3133 14.5372C28.5278 14.3809 27.8212 14.2125 27.1038 14.103C26.8332 14.0741 26.5727 13.9846 26.3414 13.8412C26.1102 13.6978 25.9142 13.5042 25.7679 13.2748C25.3338 12.6175 24.8328 12.0057 24.3265 11.3364C23.7922 12.0524 23.2819 12.6897 22.821 13.3589C22.6943 13.5528 22.5272 13.7172 22.3313 13.8407C22.1354 13.9643 21.9151 14.0442 21.6855 14.075C20.9227 14.2085 20.1666 14.3715 19.3357 14.5372C19.854 15.2305 20.3202 15.873 20.8052 16.5009C20.9356 16.6507 21.0273 16.8303 21.072 17.0239C21.1168 17.2175 21.1132 17.4191 21.0616 17.611C20.8786 18.3791 20.7531 19.1593 20.5914 19.9955C21.2901 19.7644 21.9273 19.6228 22.5137 19.3476C23.7387 18.7639 24.9183 18.7692 26.138 19.3476C26.7204 19.6242 27.3683 19.7644 28.0589 19.9902C27.8906 19.1299 27.7624 18.3604 27.5847 17.603C27.5328 17.4195 27.5268 17.2262 27.5671 17.0398C27.6074 16.8535 27.6928 16.6799 27.8158 16.5343C28.3181 15.8931 28.7937 15.2412 29.3133 14.5372Z" fill="#004D43"/>
</g>
<defs>
<clipPath id="clip0_561_21324">
<rect width="48" height="48" fill="white" transform="translate(0.332031)"/>
</clipPath>
</defs>
</svg>
