<svg width="48" height="48" viewBox="0 0 48 48" fill="none" xmlns="http://www.w3.org/2000/svg">
<g clip-path="url(#clip0_792_8006)">
<path d="M47.9997 15.4102V42.2202C47.9997 42.2202 47.9397 42.2902 47.9297 42.3302C47.7461 43.4701 47.1468 44.5014 46.2474 45.2254C45.3481 45.9493 44.2125 46.3144 43.0597 46.2502H4.85973C4.21685 46.2739 3.57597 46.1651 2.97695 45.9305C2.37793 45.6959 1.83357 45.3405 1.37774 44.8866C0.921909 44.4326 0.564342 43.8897 0.327277 43.2917C0.0902126 42.6936 -0.0212811 42.0532 -0.000270503 41.4102V16.2402C-0.0257783 15.5935 0.0831513 14.9485 0.319634 14.3459C0.556117 13.7434 0.915012 13.1965 1.37364 12.7398C1.83226 12.283 2.38064 11.9264 2.98413 11.6924C3.58761 11.4584 4.23308 11.3521 4.87973 11.3802C6.76973 11.3802 8.65973 11.3802 10.5497 11.3802H11.0597V6.85024C11.0374 6.20731 11.1476 5.56666 11.3834 4.96813C11.6192 4.3696 11.9757 3.82598 12.4306 3.37109C12.8855 2.91619 13.4291 2.55975 14.0276 2.32391C14.6261 2.08808 15.2668 1.97791 15.9097 2.00024H32.0797C32.7226 1.97658 33.3635 2.08543 33.9625 2.32003C34.5615 2.55463 35.1059 2.90995 35.5617 3.36391C36.0176 3.81787 36.3751 4.36075 36.6122 4.9588C36.8492 5.55684 36.9607 6.19727 36.9397 6.84024V11.3802C39.1197 11.3802 41.2297 11.3802 43.3397 11.3802C44.2457 11.3681 45.1345 11.6274 45.8919 12.1246C46.6493 12.6218 47.2406 13.3342 47.5897 14.1702C47.7582 14.5724 47.8953 14.987 47.9997 15.4102ZM1.87973 25.3102V41.3102C1.8432 41.7217 1.89718 42.1362 2.0379 42.5246C2.17861 42.9129 2.40265 43.2658 2.69427 43.5584C2.98588 43.8509 3.33802 44.0761 3.72593 44.2181C4.11385 44.3601 4.52815 44.4154 4.93973 44.3802H42.9997C43.4153 44.4174 43.8339 44.3626 44.2258 44.2196C44.6177 44.0767 44.9734 43.8492 45.2674 43.5532C45.5614 43.2573 45.7867 42.9002 45.9271 42.5073C46.0675 42.1145 46.1196 41.6955 46.0797 41.2802C46.0797 36.1402 46.0797 31.0002 46.0797 25.8602V25.3302L45.6097 25.4502L24.5697 31.8302C24.2165 31.9293 23.8429 31.9293 23.4897 31.8302C18.1097 30.2302 12.7364 28.6202 7.36973 27.0002L1.87973 25.3102ZM1.87973 23.3102L2.35973 23.4602C9.45306 25.6269 16.5297 27.7802 23.5897 29.9202C23.9007 30.0048 24.2287 30.0048 24.5397 29.9202C30.2664 28.2002 35.9964 26.4702 41.7297 24.7302L46.1297 23.3902V22.9002C46.1297 20.7302 46.1297 18.5502 46.1297 16.3802C46.1775 15.9576 46.1294 15.5296 45.989 15.1281C45.8486 14.7267 45.6195 14.362 45.3188 14.0612C45.018 13.7605 44.6533 13.5314 44.2518 13.391C43.8503 13.2506 43.4224 13.2025 42.9997 13.2502H28.2797C28.09 13.2626 27.9012 13.2153 27.7398 13.1148C27.5784 13.0144 27.4524 12.8659 27.3797 12.6902C27.3079 12.5364 27.2796 12.3658 27.2978 12.197C27.316 12.0281 27.3802 11.8675 27.4832 11.7325C27.5862 11.5976 27.7243 11.4934 27.8823 11.4313C28.0403 11.3692 28.2124 11.3515 28.3797 11.3802C30.4397 11.3802 32.4997 11.3802 34.5597 11.3802H34.9997V8.00024H12.9997V11.3802H13.6797C15.6797 11.3802 17.6797 11.3802 19.6797 11.3802C19.8322 11.3647 19.9861 11.3867 20.1282 11.4443C20.2702 11.5019 20.396 11.5933 20.4946 11.7107C20.5932 11.828 20.6616 11.9677 20.6939 12.1175C20.7261 12.2673 20.7213 12.4227 20.6797 12.5702C20.6081 12.7861 20.4651 12.9711 20.2742 13.0947C20.0833 13.2183 19.856 13.2732 19.6297 13.2502H4.73973C4.02513 13.2253 3.32892 13.4797 2.79874 13.9595C2.26856 14.4393 1.9461 15.1067 1.89973 15.8202C1.83973 18.3102 1.88973 20.8102 1.88973 23.3502L1.87973 23.3102ZM34.9997 6.11024C34.9997 6.00024 34.9997 5.92024 34.9997 5.85024C34.822 5.25882 34.4543 4.74242 33.9536 4.38091C33.4529 4.01939 32.8471 3.83289 32.2297 3.85024H15.5397C14.9358 3.88879 14.3624 4.12987 13.9124 4.53452C13.4624 4.93917 13.162 5.48375 13.0597 6.08024L34.9997 6.11024Z" fill="#004D43"/>
<path d="M23.9997 24.3102C22.5797 24.3102 21.1597 24.3102 19.7397 24.3102C18.8997 24.3102 18.5797 23.9902 18.5697 23.1502V19.0802C18.5697 18.2802 18.9197 17.9402 19.7197 17.9402H28.3297C29.0997 17.9402 29.4397 18.2902 29.4497 19.0602V23.2202C29.4639 23.3678 29.4451 23.5166 29.3946 23.656C29.3442 23.7953 29.2634 23.9217 29.1582 24.0261C29.0529 24.1304 28.9258 24.21 28.7859 24.2591C28.6461 24.3083 28.4971 24.3257 28.3497 24.3102C26.8897 24.3202 25.4397 24.3102 23.9997 24.3102ZM20.4697 22.4102H27.5397V19.8402H20.4597L20.4697 22.4102Z" fill="#004D43"/>
<path d="M23.9997 11.3802C24.231 11.4042 24.4452 11.513 24.601 11.6857C24.7567 11.8584 24.8429 12.0827 24.8429 12.3152C24.8429 12.5478 24.7567 12.7721 24.601 12.9448C24.4452 13.1175 24.231 13.2263 23.9997 13.2502C23.7684 13.2263 23.5542 13.1175 23.3985 12.9448C23.2427 12.7721 23.1566 12.5478 23.1566 12.3152C23.1566 12.0827 23.2427 11.8584 23.3985 11.6857C23.5542 11.513 23.7684 11.4042 23.9997 11.3802Z" fill="#004D43"/>
</g>
<defs>
<clipPath id="clip0_792_8006">
<rect width="48" height="48" fill="white"/>
</clipPath>
</defs>
</svg>
