<svg width="49" height="48" viewBox="0 0 49 48" fill="none" xmlns="http://www.w3.org/2000/svg">
<g clip-path="url(#clip0_561_21370)">
<path d="M11.658 48.0119C11.4631 47.916 11.2936 47.7755 11.1633 47.6017C11.033 47.4279 10.9455 47.2259 10.908 47.0119C10.548 45.5919 10.168 44.1819 9.79804 42.7619C9.79804 42.6619 9.72804 42.5619 9.67804 42.4119L5.79804 43.4119L4.84804 43.6719C4.66745 43.723 4.47571 43.7189 4.29749 43.6601C4.11927 43.6013 3.96273 43.4905 3.84804 43.3419C3.73105 43.1824 3.66797 42.9897 3.66797 42.7919C3.66797 42.5941 3.73105 42.4014 3.84804 42.2419L5.60804 39.1619L10.608 30.5619C10.688 30.4319 10.758 30.2919 10.888 30.0619C10.5728 29.8586 10.2377 29.6877 9.88804 29.5519C9.34521 29.4149 8.83914 29.1602 8.40565 28.8059C7.97216 28.4516 7.62185 28.0063 7.37952 27.5016C7.13719 26.9969 7.00875 26.4451 7.00331 25.8853C6.99787 25.3254 7.11556 24.7712 7.34804 24.2619C7.52785 23.8733 7.56319 23.4332 7.44773 23.0208C7.33226 22.6084 7.07354 22.2507 6.71804 22.0119C6.28381 21.6614 5.93355 21.2181 5.69292 20.7145C5.45229 20.211 5.3274 19.66 5.3274 19.1019C5.3274 18.5439 5.45229 17.9929 5.69292 17.4893C5.93355 16.9858 6.28381 16.5425 6.71804 16.1919C7.06123 15.924 7.30141 15.5458 7.39797 15.1213C7.49454 14.6968 7.44158 14.2519 7.24804 13.8619C7.01306 13.3612 6.8924 12.8144 6.89479 12.2613C6.89719 11.7081 7.02258 11.1625 7.26188 10.6638C7.50118 10.1651 7.8484 9.72582 8.27839 9.37786C8.70839 9.02991 9.21039 8.78194 9.74804 8.65193C10.2113 8.54142 10.62 8.26918 10.9005 7.88421C11.181 7.49924 11.3148 7.02681 11.278 6.55192C11.3238 5.75835 11.6266 5.00124 12.1408 4.39504C12.655 3.78885 13.3526 3.36653 14.128 3.19192C14.6651 3.11181 15.211 3.11181 15.748 3.19192C16.1987 3.28132 16.6665 3.21281 17.0726 2.99791C17.4787 2.78302 17.7984 2.43484 17.978 2.01192C18.3035 1.38069 18.8037 0.856463 19.419 0.501822C20.0343 0.14718 20.7387 -0.0228875 21.448 0.0119248C22.1677 0.0334946 22.8644 0.270361 23.448 0.691925C23.8063 1.03018 24.2803 1.21862 24.773 1.21862C25.2657 1.21862 25.7398 1.03018 26.098 0.691925C26.5259 0.387728 27.013 0.177006 27.5276 0.0734667C28.0422 -0.0300725 28.5729 -0.0241095 29.0851 0.0909678C29.5973 0.206045 30.0795 0.427659 30.5004 0.741393C30.9213 1.05513 31.2714 1.45395 31.528 1.91192C31.7115 2.36583 32.0552 2.73666 32.4938 2.95414C32.9325 3.17162 33.4357 3.22064 33.908 3.09192C34.4344 2.99544 34.9753 3.01332 35.4941 3.14436C36.0129 3.2754 36.4974 3.51653 36.9148 3.85137C37.3321 4.18622 37.6726 4.60694 37.913 5.08499C38.1534 5.56303 38.2881 6.08721 38.308 6.62192C38.3007 7.09694 38.4627 7.55905 38.7651 7.92551C39.0674 8.29197 39.4903 8.53884 39.958 8.62192C40.46 8.76977 40.9255 9.02074 41.3249 9.3588C41.7243 9.69687 42.0487 10.1146 42.2774 10.5852C42.5062 11.0558 42.6341 11.569 42.6532 12.0919C42.6722 12.6148 42.5819 13.1359 42.388 13.6219C42.1413 14.0398 42.0629 14.536 42.1688 15.0096C42.2746 15.4833 42.5568 15.8988 42.958 16.1719C43.3644 16.523 43.6904 16.9575 43.9138 17.4458C44.1372 17.9342 44.2529 18.4649 44.2529 19.0019C44.2529 19.5389 44.1372 20.0697 43.9138 20.558C43.6904 21.0463 43.3644 21.4808 42.958 21.8319C42.5766 22.1045 42.3087 22.5079 42.2055 22.9652C42.1022 23.4225 42.1707 23.9019 42.398 24.3119C42.612 24.8049 42.7175 25.3381 42.7074 25.8754C42.6973 26.4127 42.5718 26.9416 42.3395 27.4262C42.1072 27.9108 41.7734 28.3398 41.3608 28.6841C40.9482 29.0284 40.4664 29.2801 39.948 29.4219C39.5444 29.5824 39.1504 29.766 38.768 29.9719L39.098 30.5619C41.298 34.3819 43.498 38.1953 45.698 42.0019C45.8326 42.2093 45.9275 42.4399 45.978 42.6819C45.9906 42.8355 45.9643 42.9898 45.9017 43.1306C45.8391 43.2714 45.7422 43.3942 45.6197 43.4878C45.4973 43.5814 45.3533 43.6427 45.201 43.6661C45.0487 43.6896 44.8929 43.6744 44.748 43.6219C43.298 43.2519 41.858 42.8519 40.418 42.4619C40.268 42.4119 40.118 42.3819 39.918 42.3319C39.858 42.5119 39.798 42.6719 39.748 42.8519C39.388 44.2119 39.028 45.5619 38.678 46.9219C38.6447 47.136 38.56 47.3388 38.4311 47.513C38.3022 47.6872 38.133 47.8275 37.938 47.9219H37.378C37.117 47.6635 36.8794 47.3824 36.668 47.0819C34.808 43.8919 32.968 40.6919 31.118 37.4919C31.038 37.3519 30.948 37.2119 30.858 37.0719C29.128 38.2519 27.588 38.3319 26.138 37.3419C25.7798 37.0037 25.3057 36.8152 24.813 36.8152C24.3203 36.8152 23.8463 37.0037 23.488 37.3419C22.7389 37.8644 21.8262 38.0988 20.918 38.0019C20.1224 37.9077 19.3734 37.5768 18.768 37.0519C18.648 37.2419 18.548 37.4019 18.458 37.5719C16.608 40.8319 14.768 44.0119 12.928 47.1719C12.7167 47.4724 12.4791 47.7535 12.218 48.0119H11.658ZM34.538 33.1719C34.7799 33.1898 35.0228 33.1576 35.2515 33.0772C35.4803 32.9968 35.69 32.87 35.8675 32.7048C36.0449 32.5395 36.1863 32.3394 36.2828 32.1169C36.3792 31.8944 36.4287 31.6544 36.428 31.4119C36.4454 30.5449 36.749 29.7079 37.2916 29.0314C37.8343 28.355 38.5854 27.877 39.428 27.6719C39.7008 27.6048 39.9546 27.4761 40.17 27.2958C40.3853 27.1154 40.5565 26.8881 40.6704 26.6313C40.7843 26.3745 40.8379 26.0951 40.8271 25.8144C40.8163 25.5337 40.7414 25.2592 40.608 25.0119C40.2511 24.2639 40.1557 23.4178 40.337 22.609C40.5183 21.8003 40.9659 21.0759 41.608 20.5519C41.8382 20.3755 42.0247 20.1484 42.1531 19.8883C42.2814 19.6281 42.3482 19.342 42.3482 19.0519C42.3482 18.7619 42.2814 18.4757 42.1531 18.2156C42.0247 17.9555 41.8382 17.7284 41.608 17.5519C40.9674 17.0269 40.5209 16.3025 40.3396 15.4942C40.1584 14.6859 40.2529 13.8403 40.608 13.0919C40.7366 12.8358 40.8048 12.5537 40.8076 12.2671C40.8104 11.9806 40.7476 11.6972 40.6241 11.4386C40.5006 11.18 40.3196 10.953 40.095 10.7751C39.8704 10.5972 39.608 10.4729 39.328 10.4119C38.5243 10.2351 37.8046 9.79048 37.2867 9.15092C36.7689 8.51135 36.4838 7.71482 36.478 6.89192C36.4682 6.59582 36.3928 6.30558 36.2571 6.0422C36.1214 5.77882 35.929 5.54886 35.6936 5.36897C35.4582 5.18907 35.1857 5.06371 34.896 5.00197C34.6062 4.94022 34.3063 4.94362 34.018 5.01192C33.2235 5.17657 32.3968 5.06877 31.671 4.70591C30.9453 4.34306 30.363 3.7463 30.018 3.01192C29.8982 2.74649 29.7184 2.51252 29.4927 2.32846C29.2671 2.1444 29.0017 2.01528 28.7176 1.95128C28.4335 1.88729 28.1384 1.89017 27.8556 1.95969C27.5728 2.02922 27.3101 2.16349 27.088 2.35192C26.4349 2.86036 25.6308 3.13642 24.803 3.13642C23.9753 3.13642 23.1712 2.86036 22.518 2.35192C22.2962 2.16747 22.0349 2.03655 21.7544 1.96929C21.4738 1.90203 21.1816 1.90023 20.9002 1.96404C20.6189 2.02785 20.356 2.15556 20.1319 2.33727C19.9078 2.51898 19.7286 2.74982 19.608 3.01192C19.2405 3.7528 18.6378 4.35096 17.8941 4.71284C17.1505 5.07472 16.3078 5.1799 15.498 5.01192C15.2183 4.93474 14.9245 4.92337 14.6396 4.97869C14.3547 5.03402 14.0865 5.15454 13.856 5.33082C13.6255 5.5071 13.4389 5.73435 13.3109 5.99478C13.1828 6.2552 13.1168 6.54173 13.118 6.83192C13.1096 7.67664 12.8138 8.49331 12.2795 9.14761C11.7451 9.8019 11.004 10.2548 10.178 10.4319C9.91486 10.5016 9.66984 10.6273 9.45974 10.8004C9.24964 10.9735 9.07941 11.19 8.96071 11.4349C8.84201 11.6799 8.77764 11.9477 8.772 12.2199C8.76636 12.492 8.81959 12.7622 8.92804 13.0119C9.30964 13.7848 9.41257 14.6658 9.21942 15.5058C9.02627 16.3458 8.54889 17.0933 7.86804 17.6219C7.66295 17.7984 7.49837 18.0171 7.38555 18.263C7.27273 18.509 7.21432 18.7763 7.21432 19.0469C7.21432 19.3175 7.27273 19.5849 7.38555 19.8308C7.49837 20.0768 7.66295 20.2954 7.86804 20.4719C8.55147 20.9961 9.03244 21.7406 9.2293 22.5791C9.42617 23.4176 9.32679 24.2984 8.94804 25.0719C8.83222 25.3208 8.77263 25.5922 8.77351 25.8668C8.77439 26.1413 8.83571 26.4123 8.95311 26.6605C9.07052 26.9086 9.24113 27.1279 9.45283 27.3027C9.66454 27.4775 9.91213 27.6036 10.178 27.6719C11.0226 27.8405 11.7828 28.2961 12.3296 28.9614C12.8765 29.6267 13.1762 30.4607 13.178 31.3219C13.18 31.613 13.2489 31.8997 13.3792 32.1599C13.5096 32.4202 13.698 32.647 13.9299 32.8228C14.1619 32.9987 14.4311 33.1189 14.7168 33.1743C15.0026 33.2296 15.2972 33.2185 15.578 33.1419C16.3581 32.9881 17.1669 33.0875 17.8865 33.4257C18.606 33.7639 19.1987 34.3232 19.578 35.0219C19.6918 35.3118 19.8747 35.5695 20.1108 35.7726C20.3469 35.9756 20.6291 36.1179 20.9328 36.1869C21.2365 36.2559 21.5525 36.2496 21.8531 36.1686C22.1538 36.0875 22.4302 35.9342 22.658 35.7219C23.2827 35.2537 24.0424 35.0007 24.823 35.0007C25.6037 35.0007 26.3633 35.2537 26.988 35.7219C27.2245 35.9168 27.5025 36.0547 27.8007 36.125C28.0989 36.1954 28.4092 36.1963 28.7078 36.1277C29.0064 36.0591 29.2853 35.9228 29.5228 35.7293C29.7604 35.5359 29.9504 35.2904 30.078 35.0119C30.3122 34.519 30.6667 34.093 31.1089 33.7732C31.551 33.4534 32.0666 33.25 32.608 33.1819C33.2502 33.1296 33.8954 33.1262 34.538 33.1719ZM6.53804 41.2319C6.65804 41.2319 6.68804 41.2319 6.71804 41.2319L9.32804 40.5319C10.908 40.1019 11.048 40.1819 11.468 41.7719C11.708 42.6819 11.958 43.5919 12.228 44.6119L17.498 35.4819C17.2611 35.2499 16.9672 35.0843 16.646 35.0018C16.3248 34.9193 15.9875 34.9228 15.668 35.0119C14.8884 35.1579 14.0825 35.0549 13.3646 34.7175C12.6468 34.3801 12.0532 33.8254 11.668 33.1319L11.428 32.7019L6.53804 41.2319ZM38.098 32.7119C37.7563 33.5637 37.1201 34.2644 36.3052 34.6865C35.4903 35.1086 34.5509 35.2241 33.658 35.0119C33.37 34.9578 33.073 34.9761 32.7937 35.0651C32.5144 35.1541 32.2617 35.3111 32.058 35.5219L37.308 44.6219C37.3626 44.4813 37.4093 44.3377 37.448 44.1919C37.718 43.1919 37.978 42.1919 38.258 41.1919C38.2768 41.0414 38.3296 40.8971 38.4124 40.77C38.4952 40.6429 38.6058 40.5363 38.7358 40.4583C38.8659 40.3802 39.012 40.3328 39.1631 40.3196C39.3142 40.3063 39.4664 40.3277 39.608 40.3819C40.418 40.6019 41.228 40.8319 42.048 41.0419L43.048 41.2919L38.098 32.7119Z" fill="#004D43"/>
<path d="M37.958 19.0919C37.9234 21.7366 37.1023 24.3111 35.5992 26.4874C34.0961 28.6636 31.9791 30.3432 29.518 31.3119C28.838 31.5719 28.338 31.4419 28.098 30.9419C28.0371 30.8188 28.0042 30.6837 28.0017 30.5464C27.9992 30.409 28.0272 30.2728 28.0836 30.1476C28.14 30.0223 28.2235 29.9111 28.328 29.822C28.4325 29.7328 28.5555 29.6679 28.688 29.6319C30.0855 29.1178 31.362 28.3212 32.438 27.2919C35.738 24.0219 36.888 20.1119 35.438 15.6819C34.8578 13.6106 33.6668 11.7622 32.0203 10.3779C30.3738 8.9936 28.3483 8.13773 26.208 7.92192C24.5679 7.7116 22.9014 7.86708 21.3285 8.37719C19.7555 8.8873 18.315 9.73939 17.1104 10.8723C15.9059 12.0052 14.9671 13.3907 14.3615 14.9295C13.756 16.4682 13.4986 18.1219 13.608 19.7719C13.7119 21.919 14.4426 23.9885 15.7097 25.7248C16.9769 27.4612 18.725 28.7882 20.738 29.5419C21.348 29.8019 21.628 30.1119 21.598 30.5419C21.5904 30.6992 21.5435 30.852 21.4615 30.9863C21.3795 31.1207 21.2651 31.2323 21.1287 31.3109C20.9923 31.3896 20.8384 31.4327 20.681 31.4363C20.5237 31.44 20.3679 31.4041 20.228 31.3319C18.3411 30.6373 16.645 29.5066 15.278 28.0319C13.8553 26.543 12.8031 24.74 12.2065 22.7689C11.6099 20.7978 11.4857 18.7139 11.8439 16.6859C12.2021 14.6579 13.0327 12.7426 14.2685 11.0952C15.5043 9.44778 17.1106 8.1144 18.9573 7.20296C20.804 6.29151 22.8394 5.82761 24.8987 5.84877C26.958 5.86994 28.9834 6.37559 30.8111 7.3248C32.6387 8.27401 34.2172 9.64012 35.4188 11.3126C36.6205 12.9851 37.4116 14.917 37.728 16.9519C37.838 17.6619 37.878 18.3819 37.958 19.0919Z" fill="#004D43"/>
<path d="M24.788 23.1519L21.148 25.7819C20.548 26.2119 20.148 26.2619 19.788 25.9819C19.428 25.7019 19.308 25.3019 19.538 24.5819C19.958 23.2919 20.358 22.0019 20.788 20.7119C20.8157 20.6581 20.8325 20.5993 20.8374 20.539C20.8423 20.4787 20.8353 20.418 20.8167 20.3604C20.7981 20.3028 20.7684 20.2495 20.7291 20.2034C20.6899 20.1573 20.6419 20.1194 20.588 20.0919C19.498 19.3119 18.428 18.5019 17.338 17.7219C16.898 17.4019 16.498 17.0819 16.668 16.4619C16.838 15.8419 17.178 15.7719 17.958 15.7719C19.248 15.7719 20.548 15.7719 21.848 15.7719C21.9284 15.7892 22.0114 15.7898 22.092 15.7737C22.1726 15.7576 22.249 15.7251 22.3166 15.6782C22.3841 15.6313 22.4412 15.5711 22.4845 15.5012C22.5277 15.4313 22.5562 15.3533 22.568 15.2719C22.958 13.9519 23.408 12.6619 23.838 11.3519C24.028 10.8019 24.338 10.5319 24.838 10.5519C25.0585 10.5625 25.2693 10.6457 25.4375 10.7886C25.6057 10.9315 25.7219 11.1261 25.768 11.3419C26.198 12.6919 26.658 14.0319 27.078 15.3919C27.1001 15.5115 27.1676 15.6179 27.2664 15.6888C27.3652 15.7597 27.4877 15.7895 27.608 15.7719C28.998 15.7719 30.388 15.7719 31.778 15.7719C32.428 15.7719 32.778 15.9819 32.928 16.4419C33.078 16.9019 32.928 17.2419 32.388 17.6219C31.278 18.4519 30.158 19.2819 29.028 20.0819C28.9708 20.1114 28.9201 20.152 28.8789 20.2014C28.8377 20.2508 28.8069 20.308 28.7882 20.3696C28.7696 20.4311 28.7635 20.4958 28.7703 20.5598C28.7772 20.6238 28.7968 20.6857 28.828 20.7419C29.268 22.0619 29.678 23.3819 30.098 24.7419C30.288 25.3419 30.208 25.7419 29.828 26.0019C29.448 26.2619 29.078 26.2519 28.548 25.8719L24.788 23.1519ZM20.608 17.6519C20.608 17.7219 20.608 17.7719 20.608 17.7819L22.228 19.0119C22.998 19.5819 23.068 19.8019 22.768 20.7219L22.128 22.7219C22.1846 22.7121 22.2389 22.6917 22.288 22.6619C22.848 22.2719 23.408 21.8619 23.958 21.4619C24.508 21.0619 24.958 20.9719 25.598 21.4619L27.348 22.7219C27.193 21.9977 26.996 21.2832 26.758 20.5819C26.518 19.8219 26.598 19.5819 27.228 19.0919L28.808 17.9319C28.878 17.8719 28.938 17.7919 29.048 17.6819H26.678C26.4185 17.7194 26.1546 17.6534 25.9432 17.4981C25.7318 17.3429 25.5899 17.1108 25.548 16.8519C25.328 16.2119 25.128 15.5819 24.918 14.9419C24.8682 14.835 24.8114 14.7314 24.748 14.6319L24.028 16.8419C24.0087 16.975 23.9628 17.1028 23.893 17.2177C23.8231 17.3326 23.7308 17.4322 23.6216 17.5106C23.5124 17.5891 23.3885 17.6446 23.2573 17.6741C23.1261 17.7035 22.9903 17.7062 22.858 17.6819L20.608 17.6519Z" fill="#004D43"/>
<path d="M24.758 32.1819C24.5131 32.1767 24.2802 32.075 24.1098 31.899C23.9394 31.723 23.8453 31.4869 23.848 31.2419C23.8385 31.1109 23.8564 30.9794 23.9008 30.8558C23.9452 30.7322 24.015 30.6193 24.1057 30.5243C24.1964 30.4293 24.306 30.3544 24.4274 30.3043C24.5488 30.2543 24.6794 30.2302 24.8107 30.2338C24.9419 30.2373 25.071 30.2682 25.1896 30.3247C25.3082 30.3812 25.4136 30.4618 25.4991 30.5615C25.5846 30.6612 25.6483 30.7777 25.686 30.9035C25.7237 31.0293 25.7346 31.1616 25.718 31.2919C25.7076 31.5369 25.6009 31.7678 25.4211 31.9344C25.2414 32.1011 25.0031 32.1901 24.758 32.1819Z" fill="#004D43"/>
</g>
<defs>
<clipPath id="clip0_561_21370">
<rect width="48" height="48" fill="white" transform="translate(0.667969)"/>
</clipPath>
</defs>
</svg>
