<svg width="48" height="48" viewBox="0 0 48 48" fill="none" xmlns="http://www.w3.org/2000/svg">
<g clip-path="url(#clip0_561_10776)">
<path d="M0 22.4972C0.125248 21.5867 0.227951 20.6736 0.375744 19.7681C1.81609 10.8542 8.96023 3.07502 17.7251 0.821811C20.7097 0.055294 23.7194 -0.202717 26.7793 0.165512C27.4255 0.243166 27.8013 0.655231 27.7424 1.19755C27.681 1.76493 27.1938 2.09809 26.5425 2.01793C16.7519 0.825568 7.07901 6.58447 3.47187 15.7539C0.055109 24.4398 2.20311 33.9649 9.06419 40.2937C12.434 43.4448 16.7291 45.4268 21.3134 45.9461C32.3628 47.2788 42.6056 40.3513 45.4036 29.5386C47.0945 22.9919 45.9134 16.8798 42.1021 11.2863C42.009 11.1407 41.8794 11.022 41.7263 10.9418C41.7263 11.2287 41.7364 11.5155 41.7263 11.8023C41.7025 12.3446 41.3205 12.7341 40.817 12.7442C40.5787 12.752 40.3468 12.6663 40.171 12.5052C39.9951 12.3441 39.8894 12.1206 39.8764 11.8825C39.8455 10.6492 39.8455 9.41507 39.8764 8.18012C39.889 7.6641 40.2872 7.32468 40.812 7.31842C41.9994 7.30464 43.1917 7.30339 44.3741 7.31842C44.4959 7.31597 44.6169 7.33836 44.7298 7.38423C44.8426 7.4301 44.945 7.49849 45.0305 7.58522C45.1161 7.67196 45.1831 7.77521 45.2274 7.88869C45.2717 8.00217 45.2925 8.12349 45.2884 8.24525C45.2884 8.76127 44.9202 9.14328 44.3741 9.1796C44.1399 9.19463 43.9044 9.1796 43.6702 9.1796H42.8961C43.1366 9.509 43.3295 9.76576 43.5149 10.0275C46.973 14.936 48.4434 20.3918 47.8848 26.3599C46.8828 37.0385 38.6628 45.8697 28.1369 47.6332C27.2602 47.7797 26.3835 47.8762 25.5005 47.9964H22.5008C22.3968 47.9714 22.2929 47.9376 22.1877 47.9213C21.0917 47.7622 19.9858 47.6558 18.9024 47.4391C9.59775 45.5779 1.8925 37.5746 0.375744 28.226C0.229204 27.3205 0.125248 26.4074 0 25.4969V22.4972Z" fill="#004D43"/>
<path d="M23.9862 7.92211C21.143 7.95024 18.3569 8.72418 15.9065 10.1666C15.7437 10.2617 15.5884 10.3682 15.4205 10.4509C14.9346 10.6901 14.4185 10.5448 14.168 10.1052C14.1035 10.0013 14.0609 9.88544 14.0428 9.76454C14.0246 9.64365 14.0313 9.52033 14.0625 9.40213C14.0937 9.28394 14.1487 9.17335 14.2241 9.07715C14.2996 8.98096 14.3939 8.90117 14.5012 8.84269C15.3566 8.36299 16.2146 7.86951 17.1176 7.49377C19.5018 6.49616 22.0739 6.02755 24.6567 6.12027C27.2395 6.21298 29.7714 6.8648 32.0779 8.03078C34.3844 9.19676 36.4105 10.8492 38.0166 12.874C39.6226 14.8988 40.7704 17.2479 41.3807 19.7593C43.833 29.7328 37.2813 39.8215 27.1988 41.6C17.4495 43.3209 8.19747 36.9521 6.40768 27.2466C5.57979 22.749 6.40768 18.5243 8.76735 14.6066C9.12932 14.0067 9.69293 13.8376 10.1789 14.1645C10.6423 14.4763 10.7237 14.9936 10.3718 15.5685C9.466 17.048 8.80377 18.6634 8.41039 20.353C6.33754 29.1654 12.0426 37.9954 20.944 39.7226C29.6286 41.4096 38.0816 35.6946 39.7311 27.0224C41.4571 17.9507 35.1696 9.24598 26.039 8.07993C25.3589 7.99351 24.6738 7.97347 23.9862 7.92211Z" fill="#004D43"/>
<path d="M20.7686 23.8098C20.8246 23.474 20.9084 23.1435 21.0191 22.8216C21.1343 22.5335 21.0717 22.3757 20.8688 22.1766C19.9207 21.2472 18.9901 20.3041 18.047 19.3648C17.7163 19.0329 17.6023 18.6458 17.8228 18.2137C18.0232 17.823 18.3739 17.6351 18.7934 17.7328C19.0456 17.8063 19.2743 17.944 19.4573 18.1323C20.3757 19.0249 21.2817 19.9305 22.1751 20.8489C22.3893 21.0669 22.5597 21.1232 22.8602 20.998C23.2208 20.8434 23.609 20.7636 24.0013 20.7636C24.3935 20.7636 24.7817 20.8434 25.1423 20.998C25.4692 21.1358 25.6433 21.0468 25.8624 20.8239C27.7879 18.8834 29.7197 16.9491 31.6577 15.0212C32.2839 14.3949 32.8325 14.3047 33.2709 14.7707C33.7092 15.2366 33.6053 15.7351 32.9878 16.3525C31.0765 18.2638 29.1702 20.1789 27.2464 22.0776C26.9696 22.3519 26.8982 22.5573 27.0323 22.9544C27.4719 24.2557 27.1813 25.4217 26.1793 26.3761C25.7207 26.8068 25.1441 27.0909 24.5231 27.1919C23.9022 27.293 23.2652 27.2065 22.6937 26.9435C21.4399 26.3473 20.8175 25.3366 20.7686 23.8098ZM24.0175 22.6575C23.7518 22.6546 23.4911 22.7306 23.2686 22.876C23.0462 23.0214 22.8719 23.2296 22.7679 23.4742C22.664 23.7189 22.6351 23.9888 22.6848 24.2499C22.7346 24.511 22.8607 24.7514 23.0473 24.9407C23.234 25.1299 23.4726 25.2595 23.7329 25.3129C23.9933 25.3663 24.2637 25.3412 24.5097 25.2407C24.7558 25.1402 24.9664 24.9689 25.1149 24.7484C25.2635 24.528 25.3431 24.2685 25.3439 24.0027C25.3473 23.8267 25.3154 23.6518 25.2501 23.4883C25.1849 23.3249 25.0876 23.1761 24.964 23.0508C24.8405 22.9254 24.6931 22.8261 24.5305 22.7585C24.368 22.691 24.1935 22.6567 24.0175 22.6575Z" fill="#004D43"/>
<path d="M36.769 24.9395C36.5661 24.9395 36.3632 24.9483 36.1616 24.9395C35.9262 24.9385 35.7003 24.8468 35.5307 24.6835C35.3612 24.5203 35.261 24.298 35.251 24.0628C35.2336 23.8345 35.3043 23.6082 35.4484 23.4302C35.5926 23.2523 35.7993 23.1363 36.0263 23.1059C36.5212 23.0566 37.0198 23.0587 37.5142 23.1122C37.9977 23.1685 38.2895 23.6057 38.2582 24.0879C38.246 24.3143 38.1491 24.5279 37.9867 24.6862C37.8242 24.8444 37.6082 24.9358 37.3815 24.9421C37.1736 24.9496 36.9707 24.9383 36.769 24.9395Z" fill="#004D43"/>
<path d="M23.0569 36.7279C23.0569 36.5413 23.0494 36.3521 23.0569 36.168C23.0844 35.6457 23.4389 35.2763 23.9336 35.2487C24.1696 35.2291 24.4039 35.3029 24.5861 35.4542C24.7683 35.6055 24.8839 35.8222 24.908 36.0578C24.9525 36.5227 24.9525 36.9907 24.908 37.4556C24.8963 37.5724 24.8616 37.6857 24.806 37.7892C24.7505 37.8926 24.675 37.984 24.584 38.0582C24.4931 38.1324 24.3883 38.188 24.2759 38.2217C24.1634 38.2554 24.0454 38.2666 23.9286 38.2547C23.4364 38.2283 23.0882 37.8626 23.0619 37.3341C23.0456 37.1324 23.0569 36.9308 23.0569 36.7279Z" fill="#004D43"/>
<path d="M24.9419 11.255C24.9419 11.4566 24.9544 11.6595 24.9419 11.8612C24.9348 12.0892 24.8427 12.3063 24.6837 12.4699C24.5248 12.6335 24.3104 12.7318 24.0827 12.7454C23.8466 12.7676 23.6112 12.6961 23.4273 12.5464C23.2434 12.3967 23.1257 12.1807 23.0995 11.9451C23.0556 11.4806 23.0556 11.013 23.0995 10.5486C23.1211 10.3125 23.2354 10.0947 23.4173 9.9428C23.5993 9.7909 23.834 9.71733 24.0701 9.73821C24.5711 9.76075 24.9181 10.1227 24.9469 10.6488C24.9581 10.8492 24.9469 11.0521 24.9469 11.255H24.9419Z" fill="#004D43"/>
<path d="M11.246 23.0546C11.4477 23.0546 11.6506 23.0458 11.8522 23.0546C12.0875 23.0617 12.3113 23.1581 12.4781 23.3242C12.6449 23.4904 12.7422 23.7137 12.7503 23.949C12.7585 24.1842 12.6768 24.4138 12.5218 24.591C12.3669 24.7682 12.1503 24.8798 11.9161 24.9032C11.4664 24.9414 11.0143 24.9414 10.5647 24.9032C10.3318 24.877 10.1175 24.7635 9.9649 24.5856C9.81232 24.4078 9.73279 24.1787 9.74231 23.9445C9.75184 23.7104 9.84971 23.4885 10.0162 23.3236C10.1828 23.1587 10.4056 23.063 10.6398 23.0558C10.8415 23.0458 11.0431 23.0546 11.246 23.0546Z" fill="#004D43"/>
<path d="M31.4159 1.86888C31.4143 2.11366 31.3167 2.34803 31.1441 2.52158C30.9715 2.69514 30.7376 2.79402 30.4929 2.79697C30.2501 2.78968 30.0191 2.69109 29.8459 2.5209C29.6727 2.35072 29.5701 2.12145 29.5585 1.8789C29.5585 1.75373 29.5834 1.6298 29.6318 1.51437C29.6803 1.39894 29.7512 1.29432 29.8405 1.20663C29.9299 1.11893 30.0358 1.04993 30.1521 1.00364C30.2684 0.95735 30.3927 0.934709 30.5179 0.937039C30.6381 0.938993 30.7568 0.964676 30.8671 1.01261C30.9774 1.06055 31.0771 1.1298 31.1605 1.21639C31.244 1.30297 31.3095 1.40518 31.3533 1.51716C31.3971 1.62913 31.4184 1.74866 31.4159 1.86888Z" fill="#004D43"/>
<path d="M12.0238 12.9345C11.7778 12.937 11.5407 12.8431 11.363 12.6729C11.1854 12.5027 11.0813 12.2698 11.0732 12.024C11.0738 11.7717 11.1741 11.5299 11.3521 11.3512C11.5301 11.1724 11.7715 11.0712 12.0238 11.0696C12.2684 11.0761 12.5008 11.1775 12.6719 11.3524C12.843 11.5272 12.9394 11.7618 12.9406 12.0064C12.941 12.2508 12.8448 12.4853 12.6731 12.6591C12.5015 12.8329 12.2681 12.9319 12.0238 12.9345Z" fill="#004D43"/>
</g>
<defs>
<clipPath id="clip0_561_10776">
<rect width="48" height="48" fill="white"/>
</clipPath>
</defs>
</svg>
