<svg width="80" height="80" viewBox="0 0 80 80" fill="none" xmlns="http://www.w3.org/2000/svg">
<g id="icon">
<g id="Vector">
<path d="M74.5592 22.5935C74.6678 29.4242 74.1692 36.2511 73.0692 42.9935C70.9692 55.1335 64.8392 64.7535 55.0692 72.1235C50.782 75.2594 46.1191 77.8461 41.1892 79.8235C40.6762 80.0134 40.1122 80.0134 39.5992 79.8235C33.0741 77.2782 27.0436 73.6131 21.7792 68.9935C14.239 62.2272 9.24202 53.0837 7.61919 43.0835C6.31844 34.7098 5.79954 26.2333 6.06919 17.7635C6.06919 16.2135 6.06919 14.6535 6.11919 13.0935C6.05607 12.6065 6.18604 12.114 6.48132 11.7216C6.77659 11.3291 7.21372 11.0678 7.69919 10.9935C18.2925 7.34684 28.8825 3.72684 39.4692 0.133508C40.0458 -0.0445028 40.6626 -0.0445028 41.2392 0.133508C51.8392 3.72017 62.4292 7.34017 73.0092 10.9935C73.252 11.0312 73.4849 11.1166 73.6945 11.2448C73.904 11.373 74.0861 11.5415 74.2302 11.7404C74.3744 11.9394 74.4776 12.165 74.5341 12.4041C74.5906 12.6432 74.5991 12.8911 74.5592 13.1335C74.5692 16.2635 74.5592 19.4335 74.5592 22.5935ZM71.1192 22.7135C71.1192 20.0235 71.1192 17.3235 71.1192 14.6335C71.1426 14.5251 71.1444 14.4132 71.1244 14.3041C71.1043 14.1951 71.0629 14.0911 71.0025 13.9981C70.942 13.9052 70.8638 13.8251 70.7723 13.7625C70.6808 13.6999 70.5777 13.6561 70.4692 13.6335C60.6425 10.3002 50.8192 6.94684 40.9992 3.57351C40.6346 3.45908 40.2438 3.45908 39.8792 3.57351C29.9592 6.95351 20.0425 10.3568 10.1292 13.7835C9.98357 13.8493 9.85583 13.9489 9.75666 14.0742C9.65748 14.1995 9.58977 14.3467 9.55919 14.5035C9.36919 23.8935 9.35919 33.2735 10.9892 42.5735C12.2832 50.519 15.9021 57.903 21.3892 63.7935C26.6151 69.2554 32.96 73.5228 39.9892 76.3035C40.2327 76.4035 40.5057 76.4035 40.7492 76.3035C45.5852 74.3128 50.127 71.6718 54.2492 68.4535C62.1235 62.3929 67.5229 53.6736 69.4392 43.9235C70.7175 36.9288 71.2805 29.8222 71.1192 22.7135Z" fill="#004D43"/>
<path d="M66.0692 25.4535C66.0551 31.4934 65.4827 37.519 64.3592 43.4535C62.6319 51.8525 57.8814 59.3252 51.0092 64.4535C48.083 66.7153 44.9053 68.6314 41.5392 70.1635C41.1826 70.3437 40.7887 70.4375 40.3892 70.4375C39.9897 70.4375 39.5958 70.3437 39.2392 70.1635C32.6943 67.2872 26.9737 62.818 22.5992 57.1635C19.1077 52.4995 16.8357 47.0378 15.9892 41.2735C14.9223 33.8975 14.494 26.4432 14.7092 18.9935C14.6707 18.7577 14.6794 18.5165 14.7346 18.2841C14.7898 18.0516 14.8905 17.8323 15.0309 17.6389C15.1713 17.4456 15.3485 17.2819 15.5525 17.1574C15.7565 17.0329 15.983 16.95 16.2192 16.9135C23.9592 14.2835 31.6992 11.6135 39.4592 8.99351C40.0358 8.8155 40.6526 8.8155 41.2292 8.99351C49.0092 11.6202 56.7825 14.2868 64.5492 16.9935C65.0224 17.0723 65.4461 17.3328 65.73 17.7195C66.014 18.1061 66.1357 18.5884 66.0692 19.0635C66.0692 20.9935 66.0692 22.9935 66.0692 25.4535ZM62.6092 26.4535C62.6092 24.4035 62.6092 22.5635 62.6092 20.7335C62.6469 20.4951 62.5894 20.2514 62.4491 20.055C62.3088 19.8586 62.097 19.7251 61.8592 19.6835C54.8992 17.2835 47.9692 14.8935 41.0692 12.5435C40.6558 12.4137 40.2126 12.4137 39.7992 12.5435C32.7992 14.9135 25.7992 17.3135 18.7992 19.6935C18.5887 19.7326 18.401 19.8507 18.2746 20.0236C18.1482 20.1964 18.0926 20.411 18.1192 20.6235C17.9818 26.9529 18.3161 33.2838 19.1192 39.5635C19.7137 44.5556 21.4447 49.3449 24.1792 53.5635C28.1276 59.2528 33.5616 63.7494 39.8892 66.5635C40.2094 66.6957 40.569 66.6957 40.8892 66.5635C44.043 65.0862 46.9966 63.2146 49.6792 60.9935C54.8757 56.8744 58.6438 51.2241 60.4492 44.8435C62.1292 38.7535 62.3692 32.4635 62.5692 26.4135L62.6092 26.4535Z" fill="#004D43"/>
<path d="M36.1492 43.8935C36.4492 43.6135 36.6692 43.4135 36.8792 43.2035L47.9692 32.1335C48.1576 31.9281 48.3615 31.7376 48.5792 31.5635C48.9062 31.3243 49.3078 31.2097 49.7118 31.2404C50.1157 31.2711 50.4954 31.4451 50.7825 31.7309C51.0695 32.0168 51.2451 32.3958 51.2775 32.7996C51.3099 33.2034 51.197 33.6055 50.9592 33.9335C50.7875 34.1532 50.5968 34.3574 50.3892 34.5435L37.8192 47.0835C36.5692 48.3335 35.8192 48.3435 34.5792 47.0835C33.0992 45.6168 31.6259 44.1435 30.1592 42.6635C29.9552 42.5169 29.785 42.3283 29.6599 42.1104C29.5349 41.8925 29.458 41.6504 29.4343 41.4003C29.4106 41.1502 29.4407 40.898 29.5226 40.6605C29.6046 40.423 29.7364 40.2058 29.9092 40.0235C30.0872 39.8454 30.3018 39.7081 30.538 39.6211C30.7743 39.534 31.0267 39.4993 31.2777 39.5192C31.5287 39.5392 31.7723 39.6134 31.9919 39.7367C32.2114 39.86 32.4016 40.0295 32.5492 40.2335C33.7492 41.4535 34.9292 42.6535 36.1492 43.8935Z" fill="#004D43"/>
</g>
</g>
</svg>
