<svg width="48" height="48" viewBox="0 0 48 48" fill="none" xmlns="http://www.w3.org/2000/svg">
<g id="icon" clip-path="url(#clip0_1753_62283)">
<g id="Vector">
<path d="M44.5557 8.60737V9.27699C44.5557 18.1452 44.5557 27.0101 44.5557 35.8717C44.5758 38.5963 43.887 41.2793 42.5569 43.6573C42.4108 44.0842 42.363 44.5385 42.417 44.9865C42.417 45.886 42.1671 46.2658 41.5874 46.2857C41.0078 46.3057 40.678 45.906 40.708 44.9865C40.7369 44.3323 40.5773 43.6836 40.2482 43.1176C39.1296 41.0348 38.549 38.7056 38.5592 36.3414V4.94947C38.5241 4.44466 38.6174 3.93919 38.8303 3.48014C39.0433 3.02109 39.3689 2.6234 39.7769 2.32411C40.185 2.02482 40.6621 1.83367 41.1639 1.76846C41.6657 1.70326 42.1759 1.76612 42.6468 1.95119C43.2034 2.15566 43.6839 2.52592 44.0235 3.01202C44.363 3.49813 44.5453 4.07668 44.5457 4.66963C44.5457 5.38922 44.5457 6.09881 44.5457 6.87837C44.8856 6.87837 45.1754 6.87837 45.4752 6.87837C46.1347 6.88603 46.7653 7.15006 47.2335 7.61455C47.7018 8.07904 47.9708 8.70753 47.9838 9.36694C47.9838 12.2053 47.9838 15.0437 47.9838 17.882C48.0057 18.0046 48.0005 18.1305 47.9684 18.2509C47.9363 18.3712 47.8782 18.483 47.7981 18.5784C47.718 18.6737 47.6179 18.7503 47.5049 18.8027C47.3919 18.8551 47.2688 18.882 47.1443 18.8815C46.6046 18.8815 46.2748 18.5217 46.2748 17.882V10.0865C46.2648 8.67733 46.0549 8.48744 44.5557 8.60737ZM40.3082 8.60737V25.6676H42.8167V8.60737H40.3082ZM42.8067 35.1022V27.4665H40.2982V35.1022H42.8067ZM41.5575 41.8883C42.302 40.3232 42.7203 38.623 42.7868 36.8911H40.3182C40.3919 38.6231 40.8134 40.3225 41.5575 41.8883ZM42.8367 6.84838C42.8367 6.07882 42.8367 5.36923 42.8367 4.65964C42.8249 4.34512 42.6967 4.04619 42.477 3.82088C42.2572 3.59557 41.9615 3.45994 41.6474 3.44034C41.3326 3.41422 41.0196 3.50933 40.7725 3.70624C40.5255 3.90315 40.363 4.18699 40.3182 4.49973C40.2582 5.26929 40.3182 6.04884 40.3182 6.84838H42.8367Z" fill="#004D43"/>
<path d="M30.5838 0.0123063C31.0762 -0.0264571 31.5712 0.041662 32.0349 0.211999C32.4985 0.382336 32.9199 0.650867 33.2702 0.999204C33.6204 1.34754 33.8912 1.76745 34.0641 2.23019C34.2369 2.69293 34.3077 3.18755 34.2716 3.6802C34.2716 4.52971 34.2716 5.38922 34.2716 6.24873C34.2716 6.84838 33.9518 7.24815 33.4421 7.24815C32.9324 7.24815 32.5726 6.88836 32.5626 6.24873C32.5626 5.35924 32.5626 4.45975 32.5626 3.57026C32.5807 3.3246 32.5454 3.07793 32.4592 2.84716C32.3731 2.6164 32.238 2.40699 32.0634 2.23328C31.8887 2.05958 31.6786 1.92568 31.4473 1.84076C31.2161 1.75585 30.9692 1.72192 30.7237 1.74131C21.6822 1.74131 12.6374 1.74131 3.58926 1.74131C3.34017 1.72177 3.0898 1.75645 2.85539 1.84296C2.62099 1.92947 2.40812 2.06576 2.23144 2.24243C2.05477 2.41911 1.91848 2.63198 1.83197 2.86638C1.74546 3.10079 1.71079 3.35115 1.73033 3.60025V20.1308C1.74539 20.3103 1.74539 20.4909 1.73033 20.6704C1.71249 20.8781 1.61526 21.0708 1.45889 21.2086C1.30251 21.3464 1.09904 21.4185 0.890808 21.41C0.784421 21.4196 0.677188 21.4081 0.575287 21.376C0.473387 21.344 0.378834 21.2921 0.29708 21.2233C0.215325 21.1546 0.147984 21.0704 0.0989386 20.9755C0.0498929 20.8806 0.0201122 20.7769 0.0113127 20.6704C-0.00377092 20.5109 -0.00377092 20.3503 0.0113127 20.1907V3.71018C-0.0281841 3.21281 0.0410509 2.71279 0.21421 2.24486C0.387369 1.77692 0.660303 1.35229 1.01406 1.00043C1.36782 0.648576 1.79392 0.377936 2.26278 0.207301C2.73164 0.0366673 3.23202 -0.0298712 3.72918 0.0123063H30.5838Z" fill="#004D43"/>
<path d="M5.72803 38.5502C6.2249 38.5091 6.72474 38.577 7.1927 38.7489C7.66066 38.9209 8.08549 39.1929 8.43754 39.5459C8.7896 39.8989 9.06042 40.3244 9.23113 40.7929C9.40183 41.2613 9.4683 41.7613 9.42591 42.2581C9.42591 43.5773 9.42591 44.8965 9.42591 46.2558H20.9993C21.1788 46.2406 21.3594 46.2406 21.539 46.2558C21.7394 46.2868 21.9221 46.3885 22.054 46.5424C22.186 46.6964 22.2585 46.8925 22.2585 47.0953C22.2585 47.2981 22.186 47.4942 22.054 47.6481C21.9221 47.8021 21.7394 47.9038 21.539 47.9348C21.3794 47.9498 21.2188 47.9498 21.0592 47.9348C17.0615 47.9348 12.9639 47.9348 8.9162 47.9348C8.69559 47.949 8.47456 47.9143 8.26895 47.8331C8.06333 47.7519 7.87823 47.6262 7.72688 47.4651C5.34825 45.0864 2.93963 42.6678 0.52102 40.2792C0.352776 40.1229 0.220167 39.9322 0.132213 39.7201C0.0442596 39.508 0.00302444 39.2794 0.0113127 39.0499C0.0113127 34.4192 0.0113127 29.7985 0.0113127 25.1879C0.00133334 25.0448 0.00133334 24.9012 0.0113127 24.7581C0.0291034 24.5469 0.127029 24.3506 0.284998 24.2094C0.442967 24.0681 0.649001 23.9927 0.860825 23.9985C1.07689 23.9928 1.28684 24.0707 1.44694 24.2159C1.60704 24.3611 1.70497 24.5625 1.72033 24.7781C1.73032 24.9545 1.73032 25.1314 1.72033 25.3078V38.5502H5.72803ZM3.14951 40.2692L7.71689 44.8466C7.71689 43.8471 7.71689 42.8477 7.71689 41.7683C7.68415 41.3793 7.51277 41.0149 7.23395 40.7416C6.95512 40.4683 6.58741 40.3042 6.19776 40.2792C5.15836 40.2392 4.12895 40.2692 3.14951 40.2692Z" fill="#004D43"/>
<path d="M34.2716 27.7964C34.2716 33.2732 34.2716 38.7901 34.2716 44.2269C34.3179 44.7329 34.2522 45.2428 34.079 45.7204C33.9059 46.198 33.6297 46.6317 33.2699 46.9904C32.9102 47.3492 32.4759 47.6243 31.9978 47.7961C31.5197 47.968 31.0096 48.0324 30.5038 47.9848H25.9964C25.2868 47.9848 24.887 47.655 24.897 47.1053C24.907 46.5556 25.2968 46.2757 25.9864 46.2658H30.4239C32.0129 46.2658 32.6026 45.6761 32.6026 44.117V11.1359C32.5875 10.9397 32.5875 10.7425 32.6026 10.5463C32.6253 10.3381 32.724 10.1457 32.8799 10.0059C33.0357 9.86607 33.2377 9.78875 33.4471 9.78875C33.6565 9.78875 33.8585 9.86607 34.0144 10.0059C34.1702 10.1457 34.269 10.3381 34.2916 10.5463C34.3066 10.7225 34.3066 10.8997 34.2916 11.076L34.2716 27.7964Z" fill="#004D43"/>
<path d="M23.9975 37.2809C24.997 36.5813 25.8765 35.9317 26.7859 35.352C27.0675 35.1817 27.4033 35.1245 27.7254 35.1921C27.8653 35.243 27.9885 35.3315 28.0814 35.4479C28.1742 35.5643 28.2332 35.704 28.2518 35.8518C28.2704 35.9995 28.2479 36.1495 28.1868 36.2853C28.1256 36.421 28.0282 36.5373 27.9053 36.6213C26.4861 37.6207 25.0569 38.6201 23.6078 39.6196C23.4917 39.7069 23.354 39.761 23.2096 39.7759C23.0651 39.7909 22.9192 39.7663 22.7877 39.7046C22.6562 39.643 22.544 39.5466 22.4631 39.426C22.3822 39.3054 22.3356 39.165 22.3285 39.0199C22.2784 38.582 22.255 38.1414 22.2585 37.7007C21.7788 38.0305 21.3591 38.3503 20.9093 38.6301C19.5779 39.6043 17.949 40.0849 16.302 39.9894C16.0325 39.9902 15.7651 39.9428 15.5124 39.8494C15.2394 39.7253 14.9384 39.6756 14.64 39.7055C14.3416 39.7353 14.0564 39.8436 13.8134 40.0193C13.3391 40.2607 12.8481 40.4678 12.3442 40.639C12.2399 40.6901 12.1261 40.7193 12.01 40.7247C11.8939 40.7301 11.7779 40.7116 11.6693 40.6704C11.5606 40.6292 11.4615 40.5661 11.3782 40.485C11.2949 40.404 11.2291 40.3067 11.1849 40.1992C11.131 40.0836 11.1031 39.9576 11.1033 39.83C11.1036 39.7024 11.1319 39.5765 11.1863 39.461C11.2406 39.3456 11.3197 39.2436 11.4179 39.1622C11.5162 39.0808 11.6311 39.022 11.7546 38.9899C12.2843 38.7701 12.814 38.5602 13.3237 38.3103C13.393 38.2722 13.4531 38.2194 13.4997 38.1555C13.5464 38.0916 13.5784 38.0182 13.5935 37.9405C13.4609 36.7877 13.5701 35.6199 13.9143 34.5116C14.2585 33.4034 14.83 32.3791 15.5924 31.5042C16.5609 30.1821 17.949 29.2273 19.5301 28.7958C19.9036 28.6551 20.3099 28.626 20.6997 28.712C21.0894 28.798 21.4457 28.9955 21.7253 29.2803C22.0049 29.5652 22.1956 29.9252 22.2743 30.3164C22.353 30.7077 22.3163 31.1135 22.1686 31.4842C21.899 32.3714 21.5053 33.2159 20.9993 33.9928C19.9899 35.4234 18.774 36.6965 17.3913 37.7706L16.9516 38.1304V38.2803C17.4572 38.1864 17.9576 38.0663 18.4507 37.9205C19.8172 37.3842 21.054 36.5631 22.0786 35.5119C22.2485 35.352 22.3885 35.1222 22.5884 35.0422C22.7882 34.9622 23.228 34.7823 23.4479 34.8923C23.5849 34.9706 23.7038 35.0769 23.7968 35.2044C23.8898 35.3318 23.9548 35.4775 23.9875 35.6319C24.0387 36.1802 24.042 36.732 23.9975 37.2809ZM15.2326 37.2209C15.7023 36.8612 16.1221 36.5713 16.5218 36.2215C17.9344 35.0752 19.1411 33.6961 20.0898 32.1439C20.2776 31.9116 20.4111 31.6403 20.4802 31.3497C20.5494 31.0592 20.5526 30.7568 20.4896 30.4648C18.1009 30.3649 15.0027 34.3126 15.2626 37.2209H15.2326Z" fill="#004D43"/>
<path d="M17.2014 23.5688H26.9958C27.1721 23.5537 27.3493 23.5537 27.5255 23.5688C27.6293 23.5751 27.7308 23.6019 27.8241 23.6476C27.9175 23.6933 28.001 23.7569 28.0697 23.8349C28.1384 23.9129 28.191 24.0037 28.2246 24.1021C28.2581 24.2005 28.2719 24.3046 28.2651 24.4083C28.2788 24.6188 28.2088 24.8263 28.0703 24.9854C27.9318 25.1445 27.7359 25.2424 27.5255 25.2578C27.3491 25.2679 27.1722 25.2679 26.9958 25.2578H7.13722C6.39765 25.2678 6.00787 24.998 6.00787 24.4183C6.00787 23.8386 6.38765 23.5688 7.11723 23.5688C10.4953 23.5588 13.8434 23.5688 17.2014 23.5688Z" fill="#004D43"/>
<path d="M7.3571 19.8409C7.16067 19.8508 6.96386 19.8508 6.76743 19.8409C6.66511 19.841 6.56383 19.8204 6.46967 19.7804C6.3755 19.7403 6.29039 19.6817 6.21946 19.608C6.14852 19.5342 6.09321 19.4469 6.05685 19.3513C6.02049 19.2556 6.00383 19.1536 6.00787 19.0514C5.98113 18.8548 6.03034 18.6554 6.14547 18.4939C6.2606 18.3323 6.43299 18.2208 6.62751 18.1819C6.83806 18.1404 7.05272 18.1236 7.26715 18.1319H27.0958C27.8753 18.1319 28.2651 18.4217 28.2651 18.9914C28.2651 19.5611 27.8953 19.8409 27.1058 19.8409H7.3571Z" fill="#004D43"/>
<path d="M17.1415 12.725H26.9958C27.1888 12.71 27.3826 12.71 27.5755 12.725C27.756 12.7567 27.9212 12.8465 28.0458 12.9808C28.1705 13.1151 28.2477 13.2865 28.2659 13.4689C28.284 13.6512 28.2419 13.8345 28.1462 13.9907C28.0504 14.1469 27.9061 14.2675 27.7354 14.3341C27.494 14.3962 27.2449 14.4231 26.9958 14.414H7.14722C6.41763 14.414 6.02786 14.1142 6.02786 13.5545C6.02786 12.9949 6.39765 12.705 7.13722 12.705L17.1415 12.725Z" fill="#004D43"/>
<path d="M7.10724 9.00714C6.40764 9.00714 6.00787 8.71731 6.00787 8.16763C6.00787 7.61794 6.37766 7.29812 7.09724 7.28813H16.8916C17.5812 7.28813 17.971 7.58796 17.981 8.11765C17.991 8.64735 17.6112 9.00714 16.9016 9.00714H7.10724Z" fill="#004D43"/>
</g>
</g>
<defs>
<clipPath id="clip0_1753_62283">
<rect width="48" height="48" fill="white"/>
</clipPath>
</defs>
</svg>
