<svg width="81" height="80" viewBox="0 0 81 80" fill="none" xmlns="http://www.w3.org/2000/svg">
<g id="icon" clip-path="url(#clip0_1753_54843)">
<g id="Vector">
<path d="M70.198 0C70.5787 0.196092 70.8897 0.504949 71.0884 0.884388C71.287 1.26383 71.3637 1.69534 71.308 2.12C71.308 4.51 71.308 6.9 71.308 9.37H76.038C77.038 9.37 77.968 9.37 78.928 9.37C79.2714 9.33731 79.6161 9.41718 79.9101 9.59757C80.2041 9.77795 80.4315 10.0491 80.558 10.37C80.6923 10.6842 80.719 11.0339 80.634 11.3649C80.549 11.6958 80.3571 11.9894 80.088 12.2C78.278 14 76.508 15.77 74.668 17.53C74.5689 17.5956 74.4853 17.6819 74.4229 17.7829C74.3604 17.884 74.3207 17.9974 74.3064 18.1153C74.2922 18.2333 74.3037 18.3529 74.3402 18.4659C74.3768 18.579 74.4374 18.6827 74.518 18.77C79.2704 26.2394 81.3665 35.0926 80.468 43.9C79.9304 49.7498 78.0812 55.4032 75.058 60.44C74.468 61.44 73.608 61.74 72.788 61.28C71.968 60.82 71.788 59.88 72.368 58.85C75.7801 53.0936 77.5672 46.5195 77.539 39.8279C77.5108 33.1362 75.6684 26.5775 72.208 20.85C72.118 20.7 72.008 20.56 71.798 20.28C70.848 22.14 69.178 21.84 67.598 21.84C65.728 21.84 63.848 21.84 61.978 21.84C61.6078 21.8034 61.2351 21.8792 60.9086 22.0576C60.5822 22.236 60.3171 22.5086 60.148 22.84C65.728 29.54 67.828 37.19 65.928 45.76C64.5573 52.0952 60.801 57.6598 55.438 61.3C51.4404 64.0639 46.7465 65.6488 41.8916 65.8737C37.0368 66.0987 32.2165 64.9547 27.9804 62.5723C23.7444 60.1899 20.2631 56.6649 17.9338 52.3995C15.6044 48.134 14.5207 43.2998 14.8062 38.4481C15.0918 33.5965 16.735 28.9227 19.5487 24.9599C22.3623 20.9971 26.2329 17.9049 30.7192 16.0358C35.2055 14.1667 40.1267 13.596 44.9216 14.3889C49.7166 15.1818 54.1922 17.3062 57.838 20.52C58.1585 20.3593 58.4244 20.1074 58.6023 19.7961C58.7803 19.4847 58.8622 19.1278 58.838 18.77C58.768 16.43 58.838 14.08 58.838 11.77C58.7854 11.3076 58.8494 10.8393 59.024 10.4079C59.1987 9.97649 59.4785 9.59563 59.838 9.3C60.041 9.10925 60.2314 8.90548 60.408 8.69C58.408 7.69 56.558 6.69 54.598 5.87C45.6337 2.1213 35.5515 2.06583 26.5465 5.71568C17.5415 9.36553 10.3431 16.4251 6.51861 25.3573C2.69411 34.2895 2.55325 44.3709 6.12669 53.4065C9.70014 62.442 16.6985 69.7 25.598 73.6C38.668 79.26 51.158 77.76 62.798 69.49C63.958 68.67 64.858 68.63 65.478 69.43C66.098 70.23 65.858 71.12 64.668 72C56.505 78.2245 46.222 80.9901 36.038 79.7C27.6842 78.7562 19.8434 75.1926 13.6389 69.5198C7.43439 63.847 3.18448 56.356 1.49797 48.12C1.16797 46.52 1.03797 44.88 0.807969 43.26C0.807969 43 0.717969 42.75 0.667969 42.5V37.5C0.717969 37.27 0.767969 37.05 0.797969 36.82C1.06797 35 1.24797 33.15 1.66797 31.35C3.37385 23.6416 7.32268 16.6103 13.0171 11.1419C18.7115 5.6735 25.8968 2.01249 33.668 0.62C35.178 0.38 36.668 0.2 38.168 0H43.168C43.3312 0.0531425 43.4984 0.093268 43.668 0.12C50.1943 0.578291 56.5023 2.66149 62.018 6.18C62.0922 6.23919 62.1777 6.28244 62.2694 6.30705C62.3611 6.33166 62.4568 6.33709 62.5507 6.32301C62.6445 6.30894 62.7345 6.27565 62.8149 6.22523C62.8953 6.17481 62.9644 6.10835 63.018 6.03C64.678 4.34 66.358 2.67 68.018 1.03C68.378 0.67 68.798 0.36 69.188 0.03L70.198 0ZM50.198 32.83C51.9859 35.2293 52.7999 38.2161 52.4767 41.1907C52.1535 44.1654 50.7169 46.9076 48.4555 48.8669C46.194 50.8262 43.2751 51.8574 40.2847 51.7535C37.2944 51.6497 34.454 50.4184 32.3339 48.3069C30.2138 46.1955 28.971 43.3602 28.855 40.3703C28.7389 37.3803 29.7583 34.4572 31.7083 32.1878C33.6584 29.9184 36.3947 28.4707 39.368 28.1353C42.3414 27.8 45.3314 28.6019 47.738 30.38L55.438 22.67C51.9835 19.7401 47.734 17.9066 43.2323 17.4037C38.7307 16.9008 34.1813 17.7514 30.1655 19.8467C26.1496 21.9421 22.8496 25.1871 20.6871 29.1672C18.5245 33.1472 17.5976 37.6817 18.0248 42.1911C18.4519 46.7006 20.2138 50.9803 23.0852 54.4835C25.9566 57.9868 29.8073 60.5544 34.1451 61.8584C38.483 63.1625 43.1112 63.1437 47.4383 61.8045C51.7654 60.4653 55.5951 57.8664 58.438 54.34C66.438 44.34 64.008 31.42 57.878 25.16L50.198 32.83ZM45.608 32.83C42.318 30.16 36.918 30.9 33.998 34.33C32.4478 36.0539 31.6459 38.323 31.7687 40.6382C31.8916 42.9533 32.9291 45.1248 34.653 46.675C36.3769 48.2252 38.646 49.0271 40.9611 48.9042C43.2763 48.7814 45.4478 47.7439 46.998 46.02C50.418 42.42 49.788 37.31 47.788 35.07L43.058 39.82C42.598 40.28 42.148 40.76 41.648 41.17C41.3596 41.4216 40.985 41.5517 40.6028 41.5331C40.2206 41.5144 39.8605 41.3485 39.598 41.07C39.3153 40.8082 39.1425 40.4489 39.1147 40.0646C39.0868 39.6803 39.206 39.2998 39.448 39C39.6316 38.7813 39.8286 38.5742 40.038 38.38L45.608 32.83ZM75.348 12.5H70.348C68.668 12.5 68.168 12 68.168 10.34V5.34C66.668 6.8 65.478 8.24 64.038 9.41C63.2319 9.98672 62.6033 10.7775 62.2233 11.693C61.8433 12.6084 61.7272 13.612 61.888 14.59C61.9682 15.9755 61.9682 17.3645 61.888 18.75H68.758C68.9349 18.743 69.1042 18.676 69.238 18.56C71.248 16.59 73.208 14.63 75.348 12.5Z" fill="#004D43"/>
<path d="M70.968 65.65C70.9637 65.9606 70.8668 66.2628 70.6897 66.5179C70.5126 66.7731 70.2633 66.9696 69.9739 67.0822C69.6844 67.1949 69.368 67.2185 69.065 67.1502C68.762 67.0819 68.4863 66.9247 68.2732 66.6987C68.0601 66.4728 67.9193 66.1883 67.8688 65.8819C67.8184 65.5754 67.8606 65.2608 67.99 64.9785C68.1194 64.6961 68.3301 64.4588 68.5952 64.297C68.8603 64.1351 69.1677 64.0561 69.478 64.07C69.8821 64.0906 70.2626 64.2664 70.5402 64.5608C70.8178 64.8552 70.9711 65.2454 70.968 65.65Z" fill="#004D43"/>
</g>
</g>
<defs>
<clipPath id="clip0_1753_54843">
<rect width="80" height="80" fill="white" transform="translate(0.333984)"/>
</clipPath>
</defs>
</svg>
