<svg width="48" height="48" viewBox="0 0 48 48" fill="none" xmlns="http://www.w3.org/2000/svg">
<g clip-path="url(#clip0_619_21531)">
<path d="M47.1392 22.76C46.9565 22.6856 46.7586 22.6558 46.5621 22.6732C46.3656 22.6906 46.176 22.7547 46.0092 22.86C45.809 22.9959 45.6439 23.1774 45.5274 23.3894C45.411 23.6015 45.3465 23.8382 45.3392 24.08C45.3392 24.4 45.2892 24.71 45.2692 25.08C45.2402 26.058 45.15 27.0333 44.9992 28C43.9189 33.5735 40.6742 38.4918 35.9754 41.678C31.2767 44.8643 25.5068 46.0588 19.9292 45C17.1197 44.4667 14.4474 43.3694 12.0738 41.7744C9.70023 40.1794 7.67458 38.1198 6.11921 35.72C4.55375 33.3667 3.48091 30.7209 2.96533 27.9419C2.44974 25.1629 2.50209 22.3083 3.11921 19.55C4.90921 11.5 9.99921 6.00004 17.7692 3.61004C25.5392 1.22004 32.6792 3.00004 38.9092 8.71004C39.3383 9.11822 39.7456 9.54882 40.1292 10L40.7492 10.69L41.3392 11.33H35.4792C35.2146 11.3094 34.9499 11.3677 34.7185 11.4977C34.4871 11.6277 34.2996 11.8235 34.1796 12.0602C34.0597 12.2969 34.0127 12.564 34.0447 12.8274C34.0766 13.0909 34.1861 13.3389 34.3592 13.54C34.485 13.679 34.6397 13.7886 34.8125 13.8612C34.9853 13.9338 35.1719 13.9675 35.3592 13.96H43.6492C44.0021 13.9601 44.341 13.822 44.5934 13.5753C44.8457 13.3286 44.9914 12.9929 44.9992 12.64L45.1192 10.52L45.2592 8.00004C45.3592 6.53337 45.4492 5.06337 45.5292 3.59004C45.5497 3.31383 45.4772 3.03871 45.3231 2.80853C45.1691 2.57836 44.9424 2.40639 44.6792 2.32004C44.4364 2.21665 44.1662 2.19689 43.9109 2.26387C43.6557 2.33085 43.4299 2.48076 43.2692 2.69004C43.0575 3.01792 42.9273 3.39163 42.8892 3.78004C42.7992 4.71004 42.7492 5.65004 42.6892 6.58004L42.6192 7.85004L41.9992 8.30004L41.6892 7.82004C41.6471 7.74389 41.6004 7.67042 41.5492 7.60004C39.2878 5.196 36.5574 3.28122 33.5268 1.97403C30.4962 0.666843 27.2297 -0.00499289 23.9292 3.85216e-05C21.0363 -0.00521612 18.1676 0.527154 15.4692 1.57004C9.87436 3.74134 5.29602 7.92998 2.63688 13.3101C-0.0222645 18.6902 -0.569224 24.8714 1.10384 30.6349C2.77691 36.3984 6.54858 41.3259 11.6752 44.4459C16.8018 47.5659 22.9114 48.652 28.7992 47.49C32.4141 46.7797 35.813 45.2344 38.7247 42.9773C41.6364 40.7202 43.9802 37.8138 45.5692 34.49C47.1886 31.253 48.0212 27.6795 47.9992 24.06C48.0156 23.7795 47.9407 23.5012 47.7857 23.2669C47.6306 23.0325 47.4038 22.8547 47.1392 22.76Z" fill="#004D43"/>
<path d="M23.4892 25.27C24.5892 26.07 25.6792 26.89 26.7692 27.71L32.2092 31.79C32.4166 31.9647 32.6728 32.0713 32.943 32.0952C33.2131 32.1191 33.484 32.0593 33.7189 31.9238C33.9538 31.7883 34.1413 31.5838 34.2559 31.338C34.3704 31.0922 34.4065 30.8171 34.3592 30.55C34.3105 30.3404 34.2186 30.1432 34.0895 29.9711C33.9604 29.7989 33.7968 29.6555 33.6092 29.55L30.7792 27.43C29.1292 26.19 27.4892 24.95 25.7792 23.72C25.6153 23.6106 25.4818 23.4616 25.3909 23.2868C25.3 23.112 25.2547 22.917 25.2592 22.72C25.2592 19.63 25.2592 16.53 25.2592 13.44V12.9C25.2733 12.469 25.1191 12.0494 24.8292 11.73C24.5907 11.5 24.2705 11.3741 23.9392 11.38C23.7501 11.387 23.5645 11.4331 23.3941 11.5154C23.2237 11.5976 23.0721 11.7143 22.9491 11.8581C22.826 12.0018 22.734 12.1695 22.679 12.3506C22.6239 12.5316 22.607 12.7221 22.6292 12.91V19.91C22.6292 21.18 22.6292 22.45 22.6292 23.72C22.6226 24.0314 22.6987 24.3389 22.8498 24.6112C23.0009 24.8835 23.2215 25.1109 23.4892 25.27Z" fill="#004D43"/>
</g>
<defs>
<clipPath id="clip0_619_21531">
<rect width="48" height="48" fill="white"/>
</clipPath>
</defs>
</svg>
