<svg width="81" height="80" viewBox="0 0 81 80" fill="none" xmlns="http://www.w3.org/2000/svg">
<g id="icon" clip-path="url(#clip0_1753_54865)">
<g id="Vector">
<path d="M80.6922 58.43C80.3633 58.7802 79.9901 59.0861 79.5822 59.34C76.9622 60.5 74.3322 61.62 71.7022 62.74C70.4722 63.28 70.0022 63.07 69.4922 61.81L69.0522 60.73C66.8522 61.81 64.6822 62.86 62.5322 63.94C62.4667 63.9886 62.4136 64.052 62.3771 64.1249C62.3406 64.1979 62.3218 64.2784 62.3222 64.36C62.4422 67.68 60.8722 69.27 57.5522 69.2C57.4791 69.193 57.4054 69.193 57.3322 69.2C57.2209 69.7799 56.9934 70.3314 56.6634 70.8212C56.3334 71.3109 55.9079 71.7289 55.4122 72.05C54.9234 72.3667 54.3744 72.579 53.7996 72.6737C53.2249 72.7683 52.6368 72.7432 52.0722 72.6C51.4022 75.18 49.5222 76.6 46.8422 76.23C46.5037 76.9296 46.1056 77.5987 45.6522 78.23C44.9797 79.0417 44.0198 79.5623 42.9727 79.6834C41.9257 79.8045 40.8722 79.5167 40.0322 78.88C39.4122 78.44 38.8222 77.98 37.9722 77.36C37.7122 77.72 37.4722 78.09 37.1922 78.43C36.742 79.032 36.1222 79.4856 35.4122 79.7327C34.7023 79.9798 33.9347 80.009 33.2081 79.8166C32.4814 79.6242 31.8289 79.2189 31.3343 78.6529C30.8396 78.0869 30.5255 77.3859 30.4322 76.64C29.5132 76.6307 28.6286 76.2896 27.9413 75.6795C27.254 75.0694 26.8104 74.2314 26.6922 73.32C25.9583 73.3433 25.2355 73.1371 24.6243 72.7302C24.0131 72.3234 23.5439 71.736 23.2822 71.05C23.1889 70.7083 22.9967 70.4017 22.7299 70.1687C22.4631 69.9356 22.1334 69.7865 21.7822 69.74C21.2936 69.5998 20.8401 69.3579 20.4514 69.0303C20.0627 68.7026 19.7476 68.2966 19.5267 67.8388C19.3058 67.3809 19.1841 66.8816 19.1695 66.3734C19.155 65.8652 19.2479 65.3597 19.4422 64.89C19.5422 64.65 19.6522 64.42 19.7822 64.14L12.5922 60.08C12.3122 60.77 12.0622 61.39 11.8022 62.01C11.3922 63.01 10.8622 63.25 9.90223 62.84C7.13223 61.66 4.36223 60.46 1.60223 59.26C1.4148 59.2161 1.24055 59.1282 1.09393 59.0035C0.947317 58.8787 0.832576 58.7208 0.759236 58.5429C0.685896 58.3649 0.656074 58.172 0.672248 57.9802C0.688421 57.7884 0.750122 57.6032 0.852228 57.44L9.41223 35.09C9.80223 34.09 10.2822 33.88 11.3122 34.25C14.1522 35.25 16.9922 36.25 19.8222 37.25C21.0122 37.68 21.2222 38.15 20.7622 39.33L20.1822 40.81C21.8522 41.81 23.4722 42.81 25.1122 43.74C25.348 43.8256 25.6064 43.8256 25.8422 43.74C26.8922 43.45 27.9422 43.14 28.9822 42.82C30.1684 42.4024 31.4417 42.2953 32.681 42.5089C33.9202 42.7224 35.0842 43.2495 36.0622 44.04C36.1786 44.1787 36.324 44.2903 36.4881 44.3669C36.6522 44.4434 36.8311 44.4831 37.0122 44.4831C37.1933 44.4831 37.3722 44.4434 37.5363 44.3669C37.7005 44.2903 37.8458 44.1787 37.9622 44.04C39.3595 42.6739 41.2381 41.9124 43.1922 41.92C44.5916 42.0245 45.9818 42.2283 47.3522 42.53C49.6822 42.95 51.9922 43.41 54.3522 43.84C54.6841 43.9203 55.0324 43.8994 55.3522 43.78C57.3522 42.89 59.2522 41.95 61.2922 40.98C61.0422 40.33 60.8022 39.72 60.5722 39.09C60.4842 38.9286 60.4347 38.749 60.4278 38.5652C60.4208 38.3815 60.4565 38.1987 60.5321 38.0311C60.6077 37.8635 60.721 37.7156 60.8633 37.5992C61.0056 37.4828 61.173 37.4009 61.3522 37.36C64.3122 36.2933 67.2756 35.2367 70.2422 34.19C71.1722 33.86 71.6422 34.12 72.0322 35.12L77.7722 50.12L80.3522 57C80.4422 57.23 80.5822 57.45 80.6922 57.67V58.43ZM39.7822 75.82C40.3722 76.25 40.9122 76.7 41.5022 77.08C41.6959 77.2134 41.914 77.3072 42.1439 77.3563C42.3739 77.4054 42.6113 77.4086 42.8425 77.3659C43.0738 77.3232 43.2943 77.2353 43.4916 77.1073C43.6889 76.9793 43.859 76.8138 43.9922 76.62C44.2809 76.2775 44.4265 75.837 44.3985 75.3899C44.3706 74.9429 44.1713 74.5238 43.8422 74.22C43.6622 74.03 43.4522 73.87 43.2622 73.7C42.6322 73.12 42.5122 72.45 42.9522 71.92C43.3922 71.39 44.1222 71.36 44.8022 71.92C45.4822 72.48 46.0722 73.08 46.8022 73.6C47.1843 73.8626 47.6518 73.9704 48.1102 73.9017C48.5687 73.8329 48.984 73.5927 49.2722 73.2296C49.5604 72.8665 49.7001 72.4075 49.663 71.9454C49.6258 71.4833 49.4147 71.0525 49.0722 70.74C48.8722 70.57 48.6522 70.44 48.4422 70.28C48.2958 70.1995 48.1681 70.0888 48.0677 69.9553C47.9672 69.8218 47.8962 69.6684 47.8595 69.5054C47.8227 69.3424 47.821 69.1735 47.8545 69.0098C47.8879 68.846 47.9557 68.6913 48.0535 68.5558C48.1512 68.4202 48.2766 68.307 48.4214 68.2235C48.5661 68.1401 48.727 68.0884 48.8933 68.0718C49.0595 68.0551 49.2274 68.074 49.3859 68.1272C49.5443 68.1803 49.6896 68.2665 49.8122 68.38C50.5422 68.88 51.2422 69.38 51.9722 69.92C52.1608 70.0752 52.3784 70.1914 52.6123 70.2617C52.8463 70.3319 53.0919 70.3549 53.3348 70.3293C53.5777 70.3036 53.8131 70.2299 54.0272 70.1123C54.2413 69.9948 54.4299 69.8358 54.5819 69.6446C54.7339 69.4534 54.8463 69.2339 54.9126 68.9988C54.9789 68.7637 54.9977 68.5177 54.968 68.2753C54.9382 68.0329 54.8605 67.7988 54.7393 67.5867C54.6181 67.3746 54.456 67.1888 54.2622 67.04C53.7722 66.61 53.2622 66.22 52.7522 65.81C52.0422 65.22 51.8922 64.56 52.3222 63.99C52.7522 63.42 53.4922 63.4 54.2322 63.99C55.2322 64.79 56.1722 65.64 57.1822 66.42C57.4198 66.6254 57.7081 66.7635 58.017 66.8199C58.326 66.8764 58.6445 66.8491 58.9393 66.7409C59.2342 66.6328 59.4948 66.4477 59.694 66.2049C59.8932 65.962 60.0238 65.6703 60.0722 65.36C60.1166 64.9794 60.0448 64.5943 59.8663 64.2552C59.6879 63.9161 59.4111 63.6389 59.0722 63.46C56.9522 61.95 54.8022 60.46 52.7522 58.88C52.2824 58.4615 51.7113 58.173 51.0956 58.0432C50.48 57.9134 49.841 57.9468 49.2422 58.14C45.2422 59.14 42.1322 57.79 39.9322 54.27C39.8579 54.1751 39.7778 54.0849 39.6922 54L34.9922 57C34.4126 57.3937 33.7604 57.668 33.0737 57.8071C32.3869 57.9462 31.6794 57.9472 30.9922 57.81C29.2322 57.44 27.8322 56.58 27.3922 54.68C27.2044 53.8873 27.2805 53.055 27.609 52.3095C27.9376 51.5641 28.5005 50.9463 29.2122 50.55C30.1122 49.92 30.9722 49.25 31.8522 48.6L35.0222 46.25C34.4312 45.676 33.7074 45.257 32.9154 45.0302C32.1233 44.8034 31.2875 44.7759 30.4822 44.95C29.262 45.1921 28.0619 45.5264 26.8922 45.95C26.3396 46.2002 25.7292 46.2952 25.1267 46.2247C24.5242 46.1542 23.9522 45.921 23.4722 45.55C22.1722 44.63 20.7422 43.89 19.3222 43.04L13.4422 57.88L20.4422 61.82C21.4922 62.41 21.5122 62.43 22.3422 61.56C22.7312 61.0862 23.2238 60.7081 23.7822 60.4549C24.3405 60.2018 24.9495 60.0803 25.5622 60.1C27.3322 60.19 28.4322 61.21 29.1022 63.39C29.9631 63.397 30.7957 63.6984 31.4616 64.2442C32.1274 64.79 32.5864 65.5472 32.7622 66.39C32.7622 66.55 33.1222 66.71 33.3422 66.75C34.098 66.8398 34.8071 67.1623 35.3715 67.6729C35.9358 68.1835 36.3275 68.857 36.4922 69.6C36.5306 69.708 36.5914 69.8066 36.6707 69.8894C36.75 69.9721 36.846 70.0371 36.9522 70.08C39.8722 70.74 41.0322 73 39.7822 75.82ZM62.1222 43.18C60.0022 44.18 58.0022 45.18 55.9622 46.07C55.5191 46.2635 55.0298 46.326 54.5522 46.25C51.8122 45.78 49.0822 45.25 46.3422 44.73C45.6322 44.6 44.9122 44.49 44.1922 44.35C43.4928 44.2181 42.7731 44.2391 42.0827 44.4118C41.3922 44.5844 40.7473 44.9045 40.1922 45.35C36.9456 47.7433 33.7056 50.1467 30.4722 52.56C29.2322 53.48 29.3922 54.71 30.8022 55.31C31.2707 55.5075 31.7818 55.5826 32.2873 55.5284C32.7928 55.4741 33.2762 55.2923 33.6922 55L39.1822 51.56C40.4522 50.76 40.9922 50.94 41.5422 52.33C41.9266 53.5498 42.7291 54.5947 43.8085 55.2808C44.8878 55.9668 46.1747 56.2498 47.4422 56.08C48.4224 55.9705 49.3879 55.7559 50.3222 55.44C50.6522 55.3078 51.0114 55.2659 51.3629 55.3186C51.7145 55.3713 52.0456 55.5168 52.3222 55.74C55.0422 57.74 57.8022 59.74 60.5522 61.67C60.7522 61.81 61.1122 61.96 61.2822 61.88C63.5922 60.79 65.8722 59.67 68.1922 58.53L62.1222 43.18ZM68.1222 37.42C68.2222 37.74 68.3022 37.98 68.3922 38.23C69.5122 41.41 70.6289 44.5967 71.7422 47.79C72.0522 48.66 71.8322 49.28 71.1522 49.54C70.4722 49.8 69.8722 49.48 69.5322 48.54L67.6922 43.25C67.1022 41.59 66.5222 39.93 65.9122 38.25L63.0722 39.25L71.4022 60.33L78.0022 57.47L70.0822 36.73L68.1222 37.42ZM13.1822 37.42C12.7622 37.26 12.3822 37.16 12.0422 36.99C11.4422 36.7 11.1822 36.83 10.9322 37.49C9.31223 42 7.59223 46.38 5.89223 50.83C5.05223 53.0233 4.20889 55.2367 3.36223 57.47L9.95223 60.31C12.7422 53.31 15.4922 46.31 18.2822 39.24L15.4422 38.24C15.3422 38.54 15.2522 38.75 15.1822 38.97C14.0489 42.1833 12.9156 45.3933 11.7822 48.6C11.4722 49.49 10.9122 49.82 10.2122 49.6C9.51223 49.38 9.27223 48.74 9.58223 47.87C10.1822 46.13 10.8022 44.39 11.4122 42.65C12.0222 40.91 12.6122 39.19 13.2222 37.43L13.1822 37.42ZM34.4622 70.36C34.1753 69.9417 33.8396 69.559 33.4622 69.22C33.2303 69.0671 32.9501 69.005 32.6752 69.0456C32.4004 69.0861 32.1501 69.2266 31.9722 69.44C31.1522 70.23 30.3422 71.03 29.5522 71.85C29.4135 71.9712 29.3012 72.1196 29.2225 72.2861C29.1437 72.4526 29.1001 72.6335 29.0943 72.8176C29.0886 73.0017 29.1209 73.185 29.1892 73.3561C29.2574 73.5271 29.3603 73.6823 29.4912 73.8118C29.6221 73.9414 29.7783 74.0425 29.9501 74.109C30.1219 74.1755 30.3055 74.2058 30.4895 74.1981C30.6735 74.1904 30.854 74.1449 31.0197 74.0644C31.1853 73.9838 31.3325 73.87 31.4522 73.73C32.2122 72.99 32.9722 72.24 33.7022 71.47C33.9861 71.1219 34.2403 70.7506 34.4622 70.36ZM26.8522 63.69C26.5422 63.3 26.3022 62.69 25.9122 62.6C25.6618 62.5353 25.4006 62.5242 25.1456 62.5672C24.8906 62.6103 24.6475 62.7067 24.4322 62.85C23.5812 63.5759 22.7794 64.3576 22.0322 65.19C21.8868 65.3107 21.7685 65.4608 21.6852 65.6304C21.6019 65.8001 21.5554 65.9854 21.5488 66.1743C21.5422 66.3632 21.5756 66.5513 21.6468 66.7264C21.7181 66.9014 21.8256 67.0594 21.9622 67.19C22.0964 67.322 22.2565 67.4248 22.4324 67.4918C22.6083 67.5587 22.7962 67.5885 22.9842 67.5791C23.1722 67.5697 23.3562 67.5213 23.5245 67.4372C23.6929 67.353 23.8419 67.2348 23.9622 67.09C24.7422 66.33 25.5222 65.56 26.2722 64.77C26.4976 64.4282 26.6918 64.0667 26.8522 63.69ZM26.4722 71.09C26.8261 70.9905 27.1631 70.8388 27.4722 70.64C28.4022 69.76 29.3122 68.87 30.1822 67.94C30.3901 67.6846 30.4933 67.3599 30.4711 67.0313C30.4488 66.7028 30.3027 66.395 30.0622 66.17C29.8344 65.9292 29.5209 65.7878 29.1895 65.7766C28.8582 65.7653 28.5358 65.8851 28.2922 66.11C27.3468 66.9638 26.4519 67.872 25.6122 68.83C25.4897 69.0305 25.4143 69.2561 25.3917 69.49C25.3692 69.7239 25.4002 69.9598 25.4822 70.18C25.6022 70.56 26.1122 70.79 26.4722 71.09ZM38.1422 73.75C37.8593 73.3375 37.5231 72.9643 37.1422 72.64C36.9083 72.5068 36.6351 72.4598 36.3701 72.5073C36.1052 72.5549 35.8653 72.6938 35.6922 72.9C34.8922 73.68 34.1022 74.47 33.3322 75.27C33.1949 75.3889 33.0833 75.5345 33.004 75.698C32.9247 75.8614 32.8795 76.0392 32.8711 76.2207C32.8627 76.4021 32.8912 76.5834 32.955 76.7535C33.0188 76.9235 33.1165 77.0789 33.2422 77.21C33.3718 77.349 33.5299 77.4584 33.7056 77.5307C33.8814 77.603 34.0707 77.6365 34.2606 77.6289C34.4505 77.6213 34.6365 77.5728 34.8059 77.4867C34.9753 77.4006 35.1242 77.2789 35.2422 77.13C36.0122 76.39 36.7722 75.64 37.4922 74.87C37.744 74.5182 37.9617 74.1432 38.1422 73.75Z" fill="#004D43"/>
<path d="M42.4022 0C43.4022 0.2 44.3422 0.36 45.2922 0.6C49.7084 1.7532 53.535 4.51333 56.0228 8.33992C58.5106 12.1665 59.4804 16.784 58.7424 21.2881C58.0043 25.7923 55.6115 29.8587 52.0325 32.6911C48.4535 35.5236 43.9461 36.9181 39.3928 36.6015C34.8396 36.2849 30.5685 34.2801 27.4159 30.9796C24.2633 27.6792 22.4563 23.3207 22.3486 18.7578C22.2409 14.1948 23.8404 9.75602 26.8338 6.31051C29.8272 2.86501 33.999 0.660979 38.5322 0.13C38.6837 0.105194 38.8316 0.0615209 38.9722 0H42.4022ZM24.6922 18.31C24.6922 21.4745 25.6306 24.5679 27.3887 27.1991C29.1468 29.8303 31.6457 31.8811 34.5693 33.0921C37.4929 34.3031 40.71 34.6199 43.8137 34.0026C46.9174 33.3852 49.7683 31.8613 52.0059 29.6237C54.2436 27.3861 55.7674 24.5351 56.3848 21.4314C57.0022 18.3277 56.6853 15.1107 55.4743 12.1871C54.2633 9.26345 52.2125 6.76459 49.5813 5.00649C46.9502 3.24838 43.8567 2.31 40.6922 2.31C36.4488 2.31 32.3791 3.99571 29.3785 6.99629C26.3779 9.99687 24.6922 14.0665 24.6922 18.31Z" fill="#004D43"/>
<path d="M12.6922 17.19C13.6922 17.19 14.6922 17.19 15.7422 17.19C16.5722 17.19 17.0922 17.68 17.0722 18.39C17.0678 18.5541 17.0292 18.7155 16.9589 18.8638C16.8886 19.0121 16.7882 19.1441 16.6639 19.2514C16.5397 19.3587 16.3944 19.4389 16.2375 19.4869C16.0805 19.5348 15.9152 19.5495 15.7522 19.53H9.61223C8.77223 19.53 8.26223 19.04 8.28223 18.32C8.28662 18.1572 8.32494 17.9971 8.39474 17.85C8.46454 17.7029 8.56429 17.572 8.6876 17.4656C8.8109 17.3592 8.95505 17.2798 9.11083 17.2323C9.2666 17.1849 9.43056 17.1705 9.59223 17.19C10.6322 17.18 11.6922 17.19 12.6922 17.19Z" fill="#004D43"/>
<path d="M65.6922 19.53C64.8622 19.53 64.3422 19.04 64.3622 18.33C64.3666 18.1659 64.4052 18.0045 64.4755 17.8562C64.5458 17.7079 64.6463 17.5759 64.7705 17.4686C64.8948 17.3613 65.04 17.2811 65.197 17.2331C65.354 17.1852 65.5192 17.1705 65.6822 17.19C67.6822 17.19 69.7922 17.19 71.8422 17.19C72.6822 17.19 73.1922 17.67 73.1722 18.39C73.1677 18.5531 73.1294 18.7136 73.0597 18.8611C72.99 19.0087 72.8904 19.1402 72.7673 19.2474C72.6442 19.3545 72.5002 19.4349 72.3444 19.4836C72.1886 19.5322 72.0244 19.548 71.8622 19.53H65.6922Z" fill="#004D43"/>
<path d="M19.5522 25.11C19.3875 25.4064 19.1707 25.6706 18.9122 25.89C17.3222 26.89 15.7022 27.81 14.0722 28.74C13.9452 28.8205 13.8032 28.8744 13.6547 28.8984C13.5063 28.9223 13.3545 28.9159 13.2086 28.8794C13.0627 28.8429 12.9258 28.7772 12.8061 28.6862C12.6864 28.5952 12.5864 28.4808 12.5122 28.35C12.4251 28.2194 12.3661 28.0721 12.339 27.9175C12.312 27.7628 12.3174 27.6042 12.3551 27.4518C12.3927 27.2994 12.4617 27.1565 12.5576 27.0322C12.6535 26.9079 12.7743 26.805 12.9122 26.73C14.5122 25.73 16.1222 24.8 17.7622 23.89C17.9581 23.7759 18.1822 23.7196 18.4087 23.7276C18.6352 23.7356 18.8548 23.8076 19.0421 23.9353C19.2294 24.0629 19.3767 24.241 19.467 24.4489C19.5573 24.6568 19.5868 24.886 19.5522 25.11Z" fill="#004D43"/>
<path d="M18.1822 13C17.9926 12.9393 17.8086 12.8623 17.6322 12.77C16.1022 11.88 14.5722 10.99 13.0622 10.09C12.9059 10.0227 12.7657 9.92291 12.651 9.79728C12.5362 9.67165 12.4494 9.52305 12.3965 9.36133C12.3435 9.19961 12.3256 9.02848 12.3438 8.85929C12.362 8.6901 12.416 8.52672 12.5022 8.38C12.5815 8.23548 12.6906 8.1095 12.8224 8.01046C12.9541 7.91142 13.1055 7.8416 13.2663 7.80564C13.4272 7.76969 13.5938 7.76842 13.7552 7.80194C13.9166 7.83545 14.069 7.90297 14.2022 8C15.7722 8.91 17.3422 9.84 18.9022 10.77C19.156 10.8863 19.3566 11.094 19.4641 11.3516C19.5715 11.6092 19.578 11.8978 19.4822 12.16C19.4069 12.4355 19.2327 12.6735 18.9928 12.8285C18.7529 12.9835 18.4643 13.0446 18.1822 13Z" fill="#004D43"/>
<path d="M68.0622 7.71C68.3422 7.98 68.7722 8.23 68.9522 8.6C69.0188 8.72336 69.0587 8.85933 69.0694 8.99911C69.08 9.13888 69.0611 9.27933 69.014 9.41134C68.9668 9.54335 68.8925 9.66398 68.7957 9.76539C68.6989 9.8668 68.5819 9.94673 68.4522 10C67.5622 10.54 66.6622 11.06 65.7722 11.59C65.0722 12 64.3922 12.42 63.6822 12.8C63.5473 12.8935 63.3944 12.9579 63.2332 12.9889C63.072 13.02 62.9061 13.017 62.7461 12.9803C62.5861 12.9436 62.4356 12.874 62.304 12.7757C62.1725 12.6775 62.0629 12.553 61.9822 12.41C61.9047 12.2738 61.8558 12.1232 61.8386 11.9675C61.8214 11.8117 61.8361 11.6541 61.882 11.5043C61.9279 11.3545 62.0039 11.2156 62.1054 11.0962C62.2069 10.9768 62.3317 10.8794 62.4722 10.81C64.0522 9.86 65.6922 8.93 67.2422 8C67.5087 7.88479 67.7826 7.7879 68.0622 7.71Z" fill="#004D43"/>
<path d="M62.8022 23.6C63.0982 23.6817 63.3888 23.7819 63.6722 23.9C65.2422 24.82 66.8322 25.71 68.3622 26.69C68.5401 26.8241 68.6881 26.9939 68.7965 27.1885C68.905 27.3831 68.9717 27.5982 68.9922 27.82C68.9612 28.0141 68.8866 28.1986 68.774 28.3597C68.6615 28.5207 68.5138 28.6542 68.3422 28.75C68.1672 28.8186 67.9797 28.8496 67.7919 28.841C67.6041 28.8324 67.4202 28.7843 67.2522 28.7C65.6422 27.81 64.0622 26.86 62.4722 25.91C62.34 25.8624 62.2193 25.7875 62.118 25.6902C62.0166 25.5929 61.9369 25.4752 61.8841 25.345C61.8313 25.2148 61.8064 25.075 61.8113 24.9345C61.8161 24.7941 61.8505 24.6563 61.9122 24.53C62.1614 24.1778 62.4613 23.8644 62.8022 23.6Z" fill="#004D43"/>
<path d="M27.0222 18.35C27.0188 15.6341 27.8244 12.9787 29.3364 10.7226C30.8483 8.46643 32.998 6.7118 35.5113 5.68248C38.0246 4.65316 40.7876 4.39581 43.4477 4.94326C46.1079 5.49072 48.5447 6.81816 50.4473 8.75626C52.3499 10.6944 53.6321 13.1553 54.1303 15.8251C54.6285 18.4949 54.3201 21.2526 53.2445 23.7465C52.1689 26.2403 50.3748 28.3572 48.0911 29.8272C45.8074 31.2972 43.1376 32.0536 40.4222 32C36.8472 31.9294 33.4421 30.4608 30.9371 27.9091C28.4322 25.3574 27.0268 21.9257 27.0222 18.35ZM52.0222 18.35C52.0241 16.1141 51.3639 13.9277 50.1247 12.0666C48.8856 10.2055 47.123 8.75306 45.0594 7.89244C42.9958 7.03182 40.7235 6.8016 38.5292 7.23081C36.3349 7.66002 34.3168 8.72944 32.7296 10.3042C31.1423 11.8789 30.0569 13.8884 29.6103 16.0793C29.1637 18.2701 29.3759 20.5441 30.2202 22.6145C31.0644 24.6849 32.5029 26.4589 34.3541 27.7128C36.2053 28.9666 38.3864 29.6442 40.6222 29.66C42.1113 29.6679 43.5873 29.3819 44.9657 28.8185C46.3441 28.255 47.5977 27.4251 48.6549 26.3763C49.712 25.3276 50.5518 24.0805 51.1262 22.7067C51.7006 21.3328 51.9983 19.8591 52.0022 18.37L52.0222 18.35Z" fill="#004D43"/>
<path d="M38.9122 20.93C40.8122 18.93 42.6622 16.93 44.5022 14.93C45.0222 14.38 45.5022 13.81 46.0622 13.28C46.1666 13.169 46.2919 13.0797 46.4308 13.0171C46.5697 12.9546 46.7196 12.92 46.8719 12.9153C47.0242 12.9107 47.1759 12.9361 47.3183 12.9901C47.4608 13.0441 47.5913 13.1256 47.7022 13.23C47.8132 13.3344 47.9025 13.4596 47.9651 13.5986C48.0276 13.7375 48.0622 13.8874 48.0669 14.0396C48.0715 14.1919 48.0461 14.3436 47.9921 14.4861C47.9381 14.6286 47.8566 14.759 47.7522 14.87C45.1189 17.7167 42.4756 20.5533 39.8222 23.38C39.7129 23.5212 39.5727 23.6355 39.4123 23.7141C39.252 23.7927 39.0758 23.8336 38.8972 23.8336C38.7187 23.8336 38.5425 23.7927 38.3821 23.7141C38.2218 23.6355 38.0816 23.5212 37.9722 23.38C36.5456 21.8533 35.1189 20.3233 33.6922 18.79C33.5648 18.6783 33.4626 18.5407 33.3927 18.3863C33.3227 18.232 33.2865 18.0645 33.2865 17.895C33.2865 17.7255 33.3227 17.558 33.3927 17.4037C33.4626 17.2493 33.5648 17.1117 33.6922 17C33.8197 16.8874 33.9695 16.803 34.1318 16.7522C34.294 16.7014 34.4652 16.6854 34.6341 16.7052C34.803 16.7251 34.9658 16.7802 35.112 16.8672C35.2581 16.9542 35.3843 17.071 35.4822 17.21C36.5822 18.42 37.6922 19.64 38.9122 20.93Z" fill="#004D43"/>
</g>
</g>
<defs>
<clipPath id="clip0_1753_54865">
<rect width="80" height="80" fill="white" transform="translate(0.333984)"/>
</clipPath>
</defs>
</svg>
