<svg width="48" height="48" viewBox="0 0 48 48" fill="none" xmlns="http://www.w3.org/2000/svg">
<g clip-path="url(#clip0_561_21347)">
<path d="M0.005009 25.4958C0.22791 24.5166 0.537215 23.5749 1.17085 22.7709C2.26407 21.3822 3.67535 20.6045 5.45731 20.5056C5.56625 20.4993 5.6752 20.4981 5.78414 20.4981C17.9235 20.4981 30.0619 20.4981 42.1996 20.4981C44.9608 20.4981 47.2211 22.2863 47.8435 24.9411C47.9415 25.3666 47.9911 25.8018 47.9912 26.2384C48.0029 30.3157 48.0029 34.393 47.9912 38.4704C47.9912 40.4627 46.5937 41.864 44.6039 41.874C43.2615 41.8802 41.9178 41.874 40.5742 41.874H40.0294C40.201 43.0699 40.355 44.2094 40.5303 45.3465C40.7457 46.7327 39.8291 47.891 38.4228 47.985C38.3138 47.9925 38.2049 47.985 38.0947 47.985H9.88777C8.5704 47.985 7.4872 47.1585 7.43711 46.0264C7.40956 45.4003 7.56234 44.7567 7.64123 44.123C7.7364 43.3967 7.85036 42.6729 7.96807 41.869H3.51131C1.70807 41.869 0.572278 41.0124 0.0738828 39.2881C0.0551005 39.2466 0.030195 39.2082 0 39.1741L0.005009 25.4958ZM9.17398 33.5603H8.74822C8.18596 33.5603 7.62119 33.5478 7.06144 33.5678C6.6219 33.5828 6.35016 33.8633 6.31885 34.3192C6.29506 34.661 6.30884 35.0054 6.31134 35.3485C6.31134 36.0723 6.45034 36.2389 7.15536 36.3916C7.59991 36.4881 7.84034 36.8011 7.79776 37.2281C7.75769 37.6239 7.46091 37.8705 7.02011 37.8768C6.50775 37.8719 6.01321 37.6881 5.62198 37.3573C5.23074 37.0264 4.96741 36.5692 4.87751 36.0648C4.82085 35.6004 4.79992 35.1324 4.8149 34.6648C4.8149 32.9454 5.69148 32.0614 7.39955 32.0614H37.1079C38.3877 32.0614 39.6688 32.0513 40.9498 32.0614C41.5188 32.0559 42.0683 32.2681 42.486 32.6545C42.9036 33.041 43.1577 33.5724 43.1964 34.1401C43.2321 34.6859 43.2321 35.2335 43.1964 35.7793C43.1287 36.8738 42.2459 37.7829 41.2015 37.8668C40.6393 37.9131 40.2761 37.6815 40.2173 37.2407C40.1584 36.7999 40.4427 36.463 40.9962 36.3829C41.4395 36.319 41.6761 36.0711 41.6999 35.6453C41.7237 35.1927 41.7237 34.7392 41.6999 34.2866C41.6799 33.9022 41.462 33.6041 41.0738 33.5828C40.3312 33.544 39.5849 33.5716 38.8135 33.5716C39.1503 35.8669 39.4809 38.1147 39.8153 40.375C41.5271 40.375 43.1826 40.4076 44.8356 40.3625C45.8248 40.335 46.496 39.5623 46.4973 38.5655C46.5023 34.4582 46.5023 30.3504 46.4973 26.2421C46.495 25.8681 46.4458 25.4957 46.3508 25.1339C45.8399 23.1992 44.1881 22.0033 42.0531 21.997H5.96697C5.85803 21.997 5.74908 21.997 5.64013 21.997C3.31095 22.0734 1.51522 23.8942 1.50771 26.2259C1.49393 30.3345 1.50771 34.4419 1.50771 38.5505C1.50771 39.6062 2.23401 40.3575 3.29717 40.3725C4.81114 40.3938 6.32637 40.3725 7.84159 40.3838C8.09204 40.3838 8.20725 40.3137 8.24356 40.057C8.5441 37.9144 8.85591 35.7693 9.17398 33.5603ZM10.6992 33.5766C10.1019 37.6301 9.50959 41.6423 8.92479 45.657C8.86217 46.0853 9.13016 46.4084 9.56719 46.4798C9.72276 46.4959 9.87933 46.5 10.0355 46.4923H37.9607C38.0546 46.4923 38.1485 46.4923 38.2425 46.4923C38.8686 46.466 39.1341 46.1341 39.0427 45.518C38.6161 42.5961 38.1924 39.6775 37.7716 36.7623C37.6176 35.7029 37.4573 34.6435 37.2983 33.5766H10.6992Z" fill="#004D43"/>
<path d="M32.1565 0C32.6474 0.344369 33.1809 0.642404 33.6204 1.04312C35.0304 2.32543 36.3929 3.66033 37.8017 4.94388C38.1025 5.20294 38.3409 5.52656 38.4992 5.89061C38.6575 6.25466 38.7315 6.64975 38.7158 7.04641C38.6933 10.6717 38.7058 14.2957 38.7058 17.9197C38.7058 18.0136 38.7058 18.1075 38.7058 18.2015C38.6883 18.7449 38.3877 19.0906 37.9407 19.078C37.4936 19.0655 37.2106 18.7299 37.2094 18.1752C37.2094 14.9093 37.2094 11.6438 37.2094 8.37881V7.77021C36.428 7.77021 35.6841 7.77772 34.9403 7.77021C34.3329 7.7627 33.7168 7.79275 33.1183 7.70635C31.6343 7.49346 30.7064 6.42404 30.6638 4.91633C30.6363 3.94834 30.6538 2.9791 30.6501 2.01111V1.5027H11.6384C10.9171 1.5027 10.7956 1.62792 10.7956 2.34421V17.9072C10.7956 18.0637 10.8032 18.2215 10.7956 18.3755C10.7892 18.5654 10.7094 18.7455 10.573 18.8779C10.4367 19.0103 10.2544 19.0847 10.0643 19.0855C9.64859 19.0755 9.39814 18.8351 9.3205 18.4381C9.29895 18.2679 9.29308 18.096 9.30297 17.9247C9.30297 12.8005 9.323 7.67629 9.28794 2.55209C9.27166 1.30359 9.68365 0.434531 10.8783 0H32.1565ZM32.1565 1.70056C32.1565 2.86765 32.139 3.89575 32.1565 4.92134C32.1741 5.65015 32.5936 6.19112 33.3061 6.2312C34.492 6.29882 35.6854 6.24998 36.9827 6.24998C35.3535 4.71222 33.7982 3.24708 32.154 1.70056H32.1565Z" fill="#004D43"/>
<path d="M15.9336 11.2602C15.7618 11.2718 15.5893 11.2651 15.419 11.2402C15.2544 11.2161 15.1037 11.1342 14.994 11.0091C14.8844 10.8841 14.8228 10.724 14.8204 10.5577C14.7995 10.4002 14.836 10.2405 14.9231 10.1076C15.0102 9.97473 15.1422 9.8776 15.295 9.83392C15.4897 9.7797 15.6916 9.75604 15.8936 9.76379C21.2983 9.76379 26.7034 9.76379 32.1089 9.76379C32.2802 9.7545 32.452 9.76755 32.6199 9.80261C32.9955 9.90655 33.2047 10.1783 33.1734 10.5652C33.1706 10.7401 33.1023 10.9076 32.9819 11.0344C32.8616 11.1613 32.6979 11.2383 32.5234 11.2502C32.3682 11.2644 32.2122 11.2686 32.0564 11.2627L15.9336 11.2602Z" fill="#004D43"/>
<path d="M23.9806 14.63C21.2657 14.63 18.5504 14.63 15.8347 14.63C15.6368 14.63 15.3814 14.6488 15.2524 14.5399C15.0608 14.3758 14.8342 14.0991 14.8492 13.8862C14.8655 13.6483 15.0996 13.3853 15.3075 13.215C15.4327 13.1086 15.6945 13.1374 15.8936 13.1374C21.2933 13.1374 26.6921 13.1374 32.0902 13.1374C32.1841 13.1374 32.278 13.1374 32.3719 13.1374C32.8653 13.1637 33.1984 13.4867 33.1821 13.92C33.1658 14.3533 32.8528 14.63 32.3594 14.6313C30.7528 14.6388 29.1449 14.6313 27.5382 14.6313L23.9806 14.63Z" fill="#004D43"/>
<path d="M22.2024 18.0086C20.0798 18.0086 17.9573 18.0086 15.8335 18.0086C15.608 18.0086 15.3238 17.9998 15.171 17.8709C14.9932 17.7231 14.8291 17.4301 14.8454 17.2134C14.8617 16.9968 15.0721 16.7539 15.2649 16.6098C15.4039 16.5047 15.6506 16.5184 15.8497 16.5172C20.0949 16.5172 24.3408 16.5172 28.5876 16.5172C28.6653 16.5172 28.7441 16.5172 28.8218 16.5172C29.2914 16.551 29.6195 16.8653 29.612 17.276C29.6044 17.6868 29.2814 18.0061 28.8055 18.0099C27.4794 18.0211 26.152 18.0099 24.8246 18.0099L22.2024 18.0086Z" fill="#004D43"/>
<path d="M18.914 7.44588C17.8379 7.44588 16.7618 7.44588 15.6857 7.44588C15.31 7.44588 15.012 7.32065 14.8655 6.95249C14.6751 6.47288 15.0095 5.9845 15.583 5.95946C16.2843 5.9294 16.9868 5.94694 17.688 5.94694C19.1072 5.94694 20.5265 5.94694 21.9457 5.94694C22.1017 5.94248 22.2579 5.95001 22.4128 5.96948C22.821 6.03334 23.0539 6.27502 23.0677 6.69328C23.0724 6.78738 23.0581 6.88146 23.0256 6.96989C22.9931 7.05833 22.9431 7.13929 22.8785 7.20793C22.814 7.27656 22.7362 7.33147 22.65 7.36934C22.5637 7.40722 22.4707 7.42729 22.3765 7.42835C21.7065 7.45715 21.0353 7.44337 20.3653 7.44588H18.914Z" fill="#004D43"/>
<path d="M37.7528 26.6141C37.7581 25.9201 38.0375 25.2564 38.5301 24.7675C39.0227 24.2787 39.6886 24.0044 40.3826 24.0044C41.077 24.0178 41.7386 24.3024 42.2258 24.7974C42.7131 25.2924 42.9873 25.9583 42.9897 26.6529C42.9812 27.3477 42.6979 28.0109 42.2019 28.4976C41.7058 28.9842 41.0374 29.2547 40.3425 29.2501C39.9987 29.2493 39.6585 29.1802 39.3417 29.0469C39.0248 28.9136 38.7376 28.7186 38.4967 28.4734C38.2557 28.2282 38.0659 27.9375 37.9382 27.6183C37.8105 27.2992 37.7475 26.9578 37.7528 26.6141ZM40.3826 27.7499C40.681 27.7446 40.9652 27.6211 41.1728 27.4065C41.3803 27.1919 41.4942 26.9038 41.4896 26.6053C41.4806 26.3144 41.3602 26.038 41.1532 25.8334C40.9463 25.6287 40.6686 25.5115 40.3776 25.5058C40.2292 25.5047 40.0821 25.533 39.9449 25.5892C39.8076 25.6455 39.6829 25.7284 39.578 25.8333C39.4731 25.9382 39.3902 26.0629 39.3339 26.2002C39.2777 26.3374 39.2494 26.4845 39.2505 26.6329C39.2484 26.7814 39.2764 26.9288 39.3328 27.0663C39.3891 27.2037 39.4727 27.3284 39.5784 27.4327C39.6841 27.537 39.8099 27.6189 39.9481 27.6734C40.0863 27.7279 40.2341 27.7539 40.3826 27.7499Z" fill="#004D43"/>
<path d="M13.5143 25.8878C13.711 25.8977 13.8963 25.9827 14.0322 26.1253C14.168 26.2679 14.244 26.4572 14.2443 26.6541C14.2365 26.8514 14.1513 27.0377 14.0072 27.1727C13.8631 27.3077 13.6716 27.3805 13.4742 27.3754C13.3766 27.3737 13.2804 27.3525 13.1911 27.3131C13.1019 27.2737 13.0214 27.2169 12.9543 27.146C12.8873 27.0751 12.835 26.9915 12.8007 26.9002C12.7663 26.8088 12.7505 26.7116 12.7542 26.6141C12.7607 26.4176 12.8439 26.2316 12.986 26.0958C13.1281 25.9601 13.3178 25.8854 13.5143 25.8878Z" fill="#004D43"/>
<path d="M10.9384 26.6617C10.9287 26.8581 10.8423 27.0429 10.6978 27.1763C10.5534 27.3098 10.3623 27.3813 10.1658 27.3754C10.0681 27.3718 9.97207 27.349 9.88321 27.3083C9.79435 27.2675 9.71438 27.2097 9.64786 27.1381C9.58135 27.0665 9.5296 26.9824 9.49556 26.8908C9.46152 26.7992 9.44586 26.7017 9.44948 26.604C9.4531 26.5064 9.47592 26.4104 9.51664 26.3215C9.55737 26.2326 9.61519 26.1527 9.68682 26.0861C9.75845 26.0196 9.84248 25.9679 9.93411 25.9338C10.0257 25.8998 10.1232 25.8841 10.2209 25.8878C10.4176 25.8981 10.6026 25.9847 10.7365 26.1292C10.8705 26.2737 10.9429 26.4647 10.9384 26.6617Z" fill="#004D43"/>
<path d="M6.89238 25.8865C7.08972 25.8865 7.27914 25.9641 7.41972 26.1026C7.56031 26.2411 7.64077 26.4293 7.64373 26.6266C7.64539 26.724 7.62775 26.8208 7.59184 26.9114C7.55592 27.002 7.50243 27.0846 7.43446 27.1545C7.36648 27.2243 7.28536 27.28 7.19576 27.3184C7.10617 27.3567 7.00987 27.377 6.91242 27.3779C6.8151 27.3801 6.71834 27.3627 6.6279 27.3267C6.53746 27.2907 6.4552 27.2368 6.38601 27.1684C6.31683 27.0999 6.26215 27.0182 6.22522 26.9281C6.1883 26.838 6.16989 26.7415 6.17109 26.6441C6.16843 26.5469 6.185 26.4502 6.21985 26.3594C6.25471 26.2687 6.30716 26.1857 6.3742 26.1153C6.44123 26.0449 6.52152 25.9885 6.61045 25.9492C6.69938 25.9099 6.79519 25.8886 6.89238 25.8865Z" fill="#004D43"/>
</g>
<defs>
<clipPath id="clip0_561_21347">
<rect width="48" height="48" fill="white"/>
</clipPath>
</defs>
</svg>
