<svg width="81" height="80" viewBox="0 0 81 80" fill="none" xmlns="http://www.w3.org/2000/svg">
<g id="icon" clip-path="url(#clip0_1753_54836)">
<g id="Vector">
<path d="M55.0376 80.0047C54.7624 79.8346 54.543 79.5878 54.4062 79.2947C54.2694 79.0015 54.2212 78.6748 54.2676 78.3547C54.2676 77.2147 54.2676 76.0747 54.2676 74.8647H17.8876C16.3101 74.9196 14.766 74.4022 13.5401 73.4079C12.3143 72.4136 11.4894 71.0095 11.2176 69.4547C11.1295 68.8623 11.096 68.2632 11.1176 67.6647C11.1176 49.1714 11.1176 30.6847 11.1176 12.2047V11.1047L10.2476 11.0047C7.48759 11.0047 4.72759 11.0047 1.96759 11.0047C0.707586 11.0047 0.347586 10.6747 0.347586 9.40469C0.305471 8.10658 0.348899 6.8071 0.477586 5.5147C0.710636 3.98878 1.47993 2.59589 2.64739 1.58605C3.81485 0.576206 5.30401 0.0155426 6.84759 0.00469523C10.1776 0.00469523 13.5076 0.00469523 16.8476 0.00469523C17.7376 0.00469523 18.1876 0.414695 18.1876 1.1747C18.1876 1.9347 17.7576 2.3347 16.8676 2.3347H12.0976C12.0976 2.4147 12.0376 2.4747 12.0976 2.5047C13.1337 4.04759 13.6295 5.89021 13.5076 7.7447C13.5076 27.798 13.5076 47.8447 13.5076 67.8847C13.4073 68.9973 13.7482 70.1048 14.4567 70.9686C15.1651 71.8324 16.1846 72.3833 17.2953 72.5026C18.4061 72.6219 19.5193 72.3002 20.3951 71.6066C21.2709 70.9131 21.8392 69.9032 21.9776 68.7947C22.0571 67.7968 22.0805 66.7952 22.0476 65.7947C22.0476 63.9947 22.2376 63.7947 24.0476 63.7947H53.0676C52.9076 63.4847 52.8176 63.2547 52.6976 63.0447C51.2792 60.6224 50.5689 57.8506 50.6476 55.0447C50.7276 49.8647 50.7776 44.6847 50.6476 39.5047C50.5576 36.3347 53.6476 34.0547 56.4876 35.5647C57.0476 35.1147 57.6176 34.7047 58.1076 34.2247C58.3079 33.9796 58.4143 33.6712 58.4076 33.3547C58.4076 26.1347 58.4076 18.9214 58.4076 11.7147C58.4076 10.0947 58.4076 8.4847 58.4076 6.8747C58.4578 6.25353 58.372 5.62888 58.1563 5.04422C57.9406 4.45955 57.6001 3.92891 57.1585 3.4892C56.7168 3.04949 56.1847 2.71127 55.5991 2.49808C55.0135 2.28488 54.3885 2.20183 53.7676 2.2547H24.3476C23.0576 2.2547 22.5376 1.9047 22.5576 1.0547C22.5776 0.204695 23.1176 0.00469523 24.3476 0.00469523H53.8876C55.4249 -0.0533918 56.9339 0.428997 58.1525 1.36802C59.371 2.30705 60.222 3.64336 60.5576 5.1447C60.6878 5.83352 60.7481 6.53375 60.7376 7.2347C60.7376 15.6747 60.7376 24.1147 60.7376 32.5447C60.7376 33.6247 60.9276 34.3447 62.1176 34.4947C64.4776 32.4947 66.2476 32.4947 68.1176 34.3147C69.1652 34.1152 70.2316 34.0314 71.2976 34.0647C72.1841 34.1984 72.9914 34.6512 73.5677 35.338C74.144 36.0248 74.4498 36.8984 74.4276 37.7947C74.4276 39.5847 74.4276 41.3747 74.4276 43.3147C77.1376 42.9947 79.4276 43.3847 80.4276 46.3947V52.6447C80.4276 52.8447 80.3276 53.0447 80.2676 53.2347C79.8576 54.5447 79.5076 55.8747 79.0176 57.1547C78.6476 58.1547 78.0176 58.3547 77.3276 58.0247C76.6376 57.6947 76.5476 57.1047 76.9076 56.1547C77.3794 55.0633 77.7152 53.918 77.9076 52.7447C78.0976 50.9747 78.0376 49.1647 78.0576 47.3747C78.0576 46.1547 77.5076 45.6047 76.2976 45.6047H68.1076C67.9368 45.6114 67.7665 45.6281 67.5976 45.6547C67.674 46.4453 68.04 47.1798 68.6251 47.717C69.2103 48.2541 69.9733 48.556 70.7676 48.5647C71.6276 48.5647 72.4876 48.5647 73.3476 48.5647C74.2076 48.5647 74.6976 48.9947 74.7176 49.9647C74.7176 50.5147 74.7176 51.0547 74.7176 51.6047C74.749 51.786 74.7383 51.9721 74.6863 52.1486C74.6343 52.3252 74.5424 52.4874 74.4177 52.6227C74.293 52.758 74.1388 52.8628 73.9672 52.9291C73.7955 52.9953 73.6109 53.0212 73.4276 53.0047C71.6492 53.0247 69.9477 53.7326 68.6799 54.9799C67.4121 56.2271 66.6766 57.9169 66.6276 59.6947C66.5576 60.5947 66.1676 61.0147 65.4076 60.9847C64.6476 60.9547 64.2376 60.4547 64.2976 59.5247C64.3257 58.2695 64.6234 57.0351 65.1703 55.905C65.7172 54.7749 66.5007 53.7755 67.4676 52.9747C68.4242 52.2663 69.4263 51.6215 70.4676 51.0447C69.6056 50.7782 68.7579 50.4678 67.9276 50.1147C67.7687 50.0154 67.585 49.9627 67.3976 49.9627C67.2102 49.9627 67.0265 50.0154 66.8676 50.1147C66.3478 50.3931 65.7672 50.5387 65.1776 50.5387C64.5879 50.5387 64.0074 50.3931 63.4876 50.1147C63.0008 49.8153 62.5362 49.4811 62.0976 49.1147C61.2595 49.6927 60.2295 49.9219 59.2254 49.7539C58.2213 49.586 57.3219 49.0339 56.7176 48.2147L53.0176 48.5147C53.0176 50.7447 53.0176 53.1347 53.0176 55.5147C52.9358 57.9779 53.6359 60.4038 55.0176 62.4447C56.1556 64.1761 56.7382 66.2134 56.6876 68.2847C56.6876 71.6847 56.6876 75.1047 56.6876 78.5047C56.7142 78.8138 56.645 79.1236 56.4894 79.392C56.3337 79.6604 56.0991 79.8743 55.8176 80.0047H55.0376ZM54.1676 66.2647H24.4076C24.42 67.3352 24.3498 68.405 24.1976 69.4647C23.8954 70.4912 23.5177 71.4939 23.0676 72.4647H54.1676V66.2647ZM11.0976 8.66469C11.0976 7.84469 11.0976 7.1147 11.0976 6.3847C11.0295 5.34621 10.5862 4.3679 9.85027 3.63201C9.11438 2.89611 8.13607 2.45281 7.09759 2.3847C6.06866 2.34668 5.06118 2.68526 4.26405 3.33696C3.46691 3.98866 2.93484 4.90874 2.76759 5.9247C2.70237 6.83686 2.70237 7.75253 2.76759 8.66469H11.0976ZM61.3476 41.8047C61.3476 40.5047 61.3476 39.2047 61.3476 37.9047C61.3958 37.5729 61.3206 37.2349 61.1363 36.9547C60.952 36.6746 60.6714 36.4718 60.3476 36.3847C60.1041 36.2926 59.8406 36.2658 59.5836 36.3072C59.3265 36.3486 59.0848 36.4566 58.8824 36.6204C58.6801 36.7843 58.5243 36.9984 58.4304 37.2412C58.3366 37.4841 58.308 37.7473 58.3476 38.0047C58.3476 40.5547 58.3476 43.0947 58.3476 45.6447C58.3476 46.7447 58.9476 47.3947 59.8976 47.3947C60.8476 47.3947 61.3476 46.7247 61.3476 45.6247C61.3476 44.3447 61.3476 43.0747 61.3476 41.8047ZM65.7676 47.9447C65.5976 47.3847 65.4276 46.8647 65.2976 46.3347C65.0837 45.7955 65.0824 45.1951 65.294 44.655C65.5056 44.1148 65.9143 43.6751 66.4376 43.4247C66.5112 43.3804 66.5732 43.3192 66.6184 43.2462C66.6636 43.1731 66.6908 43.0903 66.6976 43.0047C66.6976 40.9247 66.6976 38.8447 66.6976 36.7747C66.6858 36.5254 66.6102 36.2832 66.4781 36.0714C66.3461 35.8596 66.1619 35.6852 65.9433 35.5649C65.7246 35.4445 65.4787 35.3822 65.2291 35.3839C64.9796 35.3856 64.7346 35.4513 64.5176 35.5747C64.2444 35.7304 64.0236 35.9637 63.883 36.2449C63.7424 36.5261 63.6883 36.8427 63.7276 37.1547V43.9347C63.7276 44.8447 63.7276 45.7647 63.7276 46.6647C63.729 46.9059 63.7915 47.1428 63.9091 47.3534C64.0267 47.5639 64.1956 47.7413 64.4002 47.8691C64.6048 47.9968 64.8383 48.0707 65.0792 48.084C65.32 48.0972 65.5602 48.0493 65.7776 47.9447H65.7676ZM55.9976 41.8247C55.9976 40.9147 55.9976 40.0047 55.9976 39.0947C56.018 38.8995 55.996 38.7023 55.933 38.5164C55.87 38.3306 55.7675 38.1606 55.6326 38.0181C55.4977 37.8756 55.3336 37.7639 55.1515 37.6909C54.9694 37.6178 54.7736 37.585 54.5776 37.5947C54.3748 37.5774 54.1707 37.6036 53.9788 37.6715C53.787 37.7395 53.6118 37.8476 53.4651 37.9886C53.3184 38.1297 53.2034 38.3004 53.128 38.4894C53.0525 38.6784 53.0183 38.8814 53.0276 39.0847C53.0276 40.9047 53.0276 42.7247 53.0276 44.5447C53.0152 44.7482 53.0449 44.952 53.115 45.1435C53.185 45.3349 53.2939 45.5099 53.4347 45.6573C53.5756 45.8047 53.7453 45.9214 53.9334 46.0001C54.1215 46.0788 54.3237 46.1178 54.5276 46.1147C54.7292 46.1194 54.9296 46.0819 55.116 46.0047C55.3023 45.9275 55.4705 45.8123 55.6098 45.6664C55.7491 45.5206 55.8564 45.3472 55.9249 45.1575C55.9934 44.9678 56.0215 44.7659 56.0076 44.5647C56.0276 43.6547 56.0076 42.7347 56.0076 41.8247H55.9976ZM71.9976 43.2347C71.9976 41.4347 71.9976 39.6747 71.9976 37.9047C71.9976 37.5069 71.8396 37.1253 71.5583 36.844C71.2769 36.5627 70.8954 36.4047 70.4976 36.4047C70.0998 36.4047 69.7182 36.5627 69.4369 36.844C69.1556 37.1253 68.9976 37.5069 68.9976 37.9047C68.9976 39.5247 68.9976 41.1347 68.9976 42.7547C69.0088 42.9202 69.0356 43.0842 69.0776 43.2447L71.9976 43.2347Z" fill="#004D43"/>
<path d="M70.6576 80.0047C70.3938 79.8439 70.1801 79.6127 70.0405 79.3372C69.901 79.0616 69.8411 78.7525 69.8676 78.4447C69.8676 74.9147 69.8676 71.3747 69.8676 67.8447C69.8462 66.6584 70.0596 65.4796 70.4956 64.3761C70.9315 63.2726 71.5813 62.2661 72.4076 61.4147C72.4988 61.2791 72.618 61.1647 72.7572 61.0792C72.8965 60.9938 73.0525 60.9392 73.2146 60.9193C73.3768 60.8994 73.5414 60.9146 73.6972 60.9638C73.8529 61.0131 73.9963 61.0952 74.1176 61.2047C74.2526 61.3094 74.3618 61.4436 74.437 61.5969C74.5121 61.7503 74.5512 61.9189 74.5512 62.0897C74.5512 62.2605 74.5121 62.4291 74.437 62.5824C74.3618 62.7358 74.2526 62.87 74.1176 62.9747C73.4586 63.679 72.9474 64.5082 72.6142 65.4134C72.281 66.3185 72.1326 67.2812 72.1776 68.2447C72.1776 71.6247 72.1776 75.0047 72.1776 78.3747C72.2251 78.6955 72.1741 79.0231 72.0312 79.3142C71.8883 79.6053 71.6604 79.8461 71.3776 80.0047H70.6576Z" fill="#004D43"/>
<path d="M47.1276 18.8347C47.1136 21.0385 46.4456 23.1885 45.2084 25.0122C43.9712 26.836 42.2204 28.2514 40.1779 29.0791C38.1355 29.9068 35.8932 30.1095 33.7354 29.6616C31.5776 29.2136 29.6014 28.1351 28.0571 26.5628C26.5129 24.9905 25.4702 22.9951 25.0612 20.8296C24.6522 18.6641 24.8952 16.4259 25.7596 14.3986C26.624 12.3714 28.0707 10.6464 29.9165 9.44224C31.7622 8.23809 33.9239 7.609 36.1276 7.6347C37.5853 7.64777 39.0261 7.94784 40.3678 8.51778C41.7095 9.08772 42.9259 9.91636 43.9473 10.9564C44.9688 11.9964 45.7754 13.2275 46.321 14.5792C46.8667 15.931 47.1408 17.377 47.1276 18.8347ZM33.1276 19.9147C33.1976 20.6247 33.2276 21.2647 33.3276 21.9147C33.4865 23.704 34.0954 25.424 35.0976 26.9147C35.7176 27.7247 36.2776 27.7447 36.8576 26.9147C38.3576 24.8247 38.6876 22.4047 38.8576 19.9147H33.1276ZM38.8476 17.4947C38.7676 16.7547 38.7276 16.0547 38.6176 15.3747C38.4502 13.6881 37.8735 12.0678 36.9376 10.6547C36.2876 9.7647 35.7076 9.7347 35.0876 10.6547C33.6276 12.6647 33.3476 15.0047 33.1476 17.4947H38.8476ZM31.9376 26.5647L30.5976 19.9247H27.2776C27.4623 21.3249 27.9824 22.6598 28.7937 23.8159C29.605 24.9719 30.6836 25.9149 31.9376 26.5647ZM40.0376 26.4847C42.3276 25.6947 44.6776 22.2447 44.6076 19.8747H42.2876C41.0976 19.8747 41.1976 19.7147 41.1276 20.9347C41.1174 21.2198 41.0873 21.5038 41.0376 21.7847C40.7076 23.3647 40.3476 25.0047 40.0376 26.4847ZM31.9376 11.0047C29.2976 12.1047 27.2376 15.6547 27.4176 17.4847H30.6076L31.9376 11.0047ZM41.3476 17.4947H44.6776C44.4716 16.1234 43.9438 14.8203 43.1373 13.6922C42.3308 12.5642 41.2686 11.6432 40.0376 11.0047L41.3476 17.4947Z" fill="#004D43"/>
<path d="M25.6576 30.6147C25.1076 30.1047 24.5876 29.5647 24.0076 29.0947C23.7814 28.9381 23.5127 28.8544 23.2376 28.8547C22.2376 28.8547 21.3076 28.8547 20.3476 28.8547C19.3876 28.8547 18.9676 28.3747 18.9676 27.6947C18.9676 27.0147 19.4876 26.5547 20.3376 26.5247L21.9776 26.4747C21.9776 26.4747 21.9776 26.4747 22.0676 26.3747C21.7976 25.7647 21.5476 25.1247 21.2276 24.5147C21.1598 24.432 21.0743 24.3657 20.9773 24.3206C20.8804 24.2756 20.7745 24.2531 20.6676 24.2547C19.7776 24.2547 18.8976 24.2547 18.0076 24.2547C17.1176 24.2547 16.6276 23.7847 16.6276 23.0947C16.6276 22.4047 17.1476 21.9347 17.9876 21.9147C18.8276 21.8947 19.5976 21.9147 20.3976 21.9147C20.3276 20.9147 20.2276 19.9947 20.1876 19.0647C20.1476 18.1347 20.5376 17.7147 21.2876 17.6847C22.0376 17.6547 22.4876 18.1047 22.5276 19.0347C22.5781 22.3866 23.8776 25.5989 26.1717 28.0432C28.4659 30.4875 31.5895 31.9877 34.9314 32.2504C38.2734 32.5131 41.5931 31.5192 44.2409 29.4633C46.8887 27.4074 48.674 24.4375 49.2476 21.1347C49.3676 20.3947 49.3876 19.6347 49.4676 18.8847C49.5476 18.1347 49.9576 17.6547 50.6976 17.6847C51.4376 17.7147 51.8176 18.1347 51.7876 18.9947C51.7576 19.8547 51.6676 20.8547 51.5976 21.9147H53.4976C54.7876 21.9147 55.3376 22.2547 55.3476 23.0647C55.3576 23.8747 54.7876 24.2547 53.5276 24.2547H50.8776L49.8776 26.5447C50.5476 26.5447 51.1276 26.5447 51.7176 26.5447C52.5476 26.5447 53.0176 26.9847 53.0476 27.6647C53.0776 28.3447 52.5776 28.8447 51.7276 28.8747C51.2276 28.8747 50.7276 28.8747 50.2376 28.8747C47.9476 28.8747 47.9476 28.8747 46.3876 30.8747C46.8776 30.8747 47.2876 30.8747 47.6876 30.8747C47.9821 30.8825 48.2618 31.005 48.4673 31.2161C48.6728 31.4272 48.7877 31.7101 48.7876 32.0047C48.7964 32.1615 48.7718 32.3184 48.7155 32.465C48.6592 32.6117 48.5724 32.7447 48.4609 32.8552C48.3493 32.9658 48.2156 33.0515 48.0685 33.1066C47.9214 33.1616 47.7643 33.1848 47.6076 33.1747C46.0976 33.1747 44.6076 33.1747 43.0776 33.1747C42.691 33.1821 42.3087 33.2565 41.9476 33.3947C38.1003 34.9578 33.7949 34.9578 29.9476 33.3947C29.6075 33.2719 29.2491 33.2077 28.8876 33.2047C27.4576 33.2047 26.0176 33.2047 24.5876 33.2047C23.6776 33.2047 23.1376 32.7547 23.1276 32.0447C23.1176 31.3347 23.6676 30.8947 24.5776 30.8647C24.8776 30.8647 25.1876 30.8647 25.4976 30.8647L25.6576 30.6147Z" fill="#004D43"/>
<path d="M36.0076 40.4647C39.2876 40.4647 42.5676 40.4647 45.8476 40.4647C46.2991 40.4795 46.7281 40.6654 47.0476 40.9847C47.1617 41.1368 47.2348 41.3156 47.2599 41.5041C47.285 41.6925 47.2613 41.8843 47.191 42.061C47.1208 42.2376 47.0063 42.3933 46.8586 42.513C46.7109 42.6327 46.535 42.7125 46.3476 42.7447C46.1149 42.7701 45.8802 42.7701 45.6476 42.7447H25.8976C25.7414 42.7461 25.5865 42.7161 25.4421 42.6567C25.2977 42.5972 25.1666 42.5095 25.0566 42.3986C24.9466 42.2876 24.86 42.1558 24.8018 42.0109C24.7435 41.866 24.7149 41.7109 24.7176 41.5547C24.7172 41.398 24.7491 41.2429 24.8113 41.0991C24.8736 40.9553 24.9648 40.8259 25.0793 40.7189C25.1937 40.612 25.329 40.5297 25.4767 40.4774C25.6244 40.425 25.7813 40.4037 25.9376 40.4147C27.7376 40.4147 29.5276 40.4147 31.3276 40.4147L36.0076 40.4647Z" fill="#004D43"/>
<path d="M45.5776 53.5947C45.8105 53.5747 46.0447 53.5747 46.2776 53.5947C46.552 53.6391 46.8016 53.7796 46.9817 53.9913C47.1619 54.2029 47.2608 54.4718 47.2608 54.7497C47.2608 55.0276 47.1619 55.2965 46.9817 55.5081C46.8016 55.7197 46.552 55.8603 46.2776 55.9047C46.1478 55.9147 46.0174 55.9147 45.8876 55.9047H26.1676C26.0378 55.9147 25.9074 55.9147 25.7776 55.9047C25.4875 55.8917 25.2144 55.7646 25.0177 55.551C24.821 55.3375 24.7167 55.0548 24.7276 54.7647C24.7153 54.622 24.7315 54.4783 24.7753 54.3419C24.8191 54.2055 24.8896 54.0792 24.9826 53.9703C25.0757 53.8614 25.1895 53.7722 25.3174 53.7077C25.4453 53.6432 25.5847 53.6048 25.7276 53.5947C26.0903 53.5647 26.4549 53.5647 26.8176 53.5947H45.5776Z" fill="#004D43"/>
<path d="M45.7376 47.0047C45.8998 46.9867 46.064 47.0025 46.2198 47.0511C46.3756 47.0997 46.5196 47.1802 46.6427 47.2873C46.7658 47.3945 46.8653 47.526 46.935 47.6735C47.0047 47.8211 47.0431 47.9816 47.0476 48.1447C47.0452 48.308 47.0097 48.4691 46.9434 48.6183C46.877 48.7675 46.7812 48.9017 46.6616 49.0129C46.542 49.1241 46.4011 49.2099 46.2475 49.2652C46.0939 49.3205 45.9306 49.3442 45.7676 49.3347H26.5676C25.5676 49.3347 24.9576 48.9347 24.9476 48.1847C24.9376 47.4347 25.4876 47.0047 26.5276 47.0047H45.7376Z" fill="#004D43"/>
</g>
</g>
<defs>
<clipPath id="clip0_1753_54836">
<rect width="80" height="80" fill="white" transform="translate(0.666016)"/>
</clipPath>
</defs>
</svg>
