<svg width="49" height="48" viewBox="0 0 49 48" fill="none" xmlns="http://www.w3.org/2000/svg">
<g id="icon" clip-path="url(#clip0_1753_62291)">
<g id="Vector">
<path d="M0.203125 1.67932C0.357366 1.31231 0.62769 1.00599 0.972674 0.807311C1.31766 0.608629 1.71827 0.528542 2.11312 0.579322C16.8398 0.579322 31.5598 0.579322 46.2731 0.579322H46.7831C46.9779 0.580298 47.1704 0.621051 47.3489 0.699081C47.5273 0.777111 47.688 0.890774 47.8209 1.0331C47.9539 1.17542 48.0564 1.34341 48.1221 1.52676C48.1878 1.7101 48.2154 1.90494 48.2031 2.09932C48.2031 3.28932 48.2031 4.47932 48.2031 5.66932C48.2191 5.88096 48.1897 6.09357 48.1169 6.29293C48.0441 6.49229 47.9295 6.67379 47.7809 6.82528C47.6322 6.97677 47.4529 7.09475 47.255 7.17133C47.057 7.24791 46.845 7.28132 46.6331 7.26932H45.9031V34.1793C45.9122 34.515 45.882 34.8506 45.8131 35.1793C45.6903 35.6101 45.4264 35.9871 45.0638 36.25C44.7011 36.5129 44.2607 36.6465 43.8131 36.6293C41.9031 36.6293 39.9931 36.6293 38.0931 36.6293H37.5031C37.6531 37.2293 37.7931 37.7793 37.9431 38.3393C37.9931 38.5293 38.0631 38.7193 38.1031 38.9193C38.1289 39.0099 38.1363 39.1048 38.125 39.1983C38.1138 39.2918 38.084 39.3822 38.0375 39.4641C37.9909 39.546 37.9286 39.6178 37.854 39.6753C37.7794 39.7329 37.6941 39.775 37.6031 39.7993C37.5124 39.8246 37.4175 39.8311 37.3243 39.8183C37.231 39.8056 37.1413 39.7738 37.0608 39.7251C36.9802 39.6764 36.9105 39.6117 36.8559 39.5351C36.8012 39.4584 36.7629 39.3714 36.7431 39.2793C36.5331 38.5593 36.3531 37.8293 36.1531 37.1093C36.1531 36.9593 36.0731 36.8093 36.0231 36.6493H33.8531C34.1331 37.6493 34.4131 38.7093 34.6831 39.7293C35.1531 41.5093 35.6831 43.2793 36.1131 45.0593C36.1594 45.3171 36.2994 45.5486 36.5062 45.7092C36.713 45.8699 36.9719 45.9483 37.2331 45.9293C37.4819 45.9306 37.7222 45.8391 37.9071 45.6726C38.092 45.5062 38.2082 45.2768 38.2331 45.0293C38.2505 44.7963 38.2234 44.5622 38.1531 44.3393C38.0131 43.7393 37.8331 43.1393 37.6831 42.5393C37.6494 42.447 37.6354 42.3485 37.6423 42.2504C37.6491 42.1523 37.6765 42.0567 37.7227 41.9699C37.769 41.8831 37.833 41.807 37.9106 41.7466C37.9882 41.6862 38.0776 41.6428 38.1731 41.6193C38.2645 41.5958 38.3598 41.5913 38.453 41.606C38.5463 41.6208 38.6355 41.6545 38.7151 41.7051C38.7948 41.7557 38.8633 41.8222 38.9162 41.9003C38.9692 41.9784 39.0056 42.0666 39.0231 42.1593C39.2231 42.8793 39.4331 43.5993 39.5931 44.3293C39.7589 44.9658 39.665 45.6421 39.3321 46.2094C38.9992 46.7767 38.4546 47.1886 37.8181 47.3543C37.1816 47.5201 36.5053 47.4262 35.938 47.0933C35.3707 46.7604 34.9589 46.2158 34.7931 45.5793C34.0531 42.9193 33.3531 40.2493 32.6431 37.5793C32.3931 36.6593 32.3931 36.6593 31.4331 36.6593H24.9131C24.9131 37.6593 24.9131 38.5093 24.9131 39.4093C24.9131 39.5193 25.1431 39.6593 25.2931 39.7393C25.6886 39.9265 26.0304 40.2105 26.2869 40.565C26.5434 40.9195 26.7063 41.3329 26.7605 41.7671C26.8147 42.2012 26.7585 42.642 26.597 43.0487C26.4356 43.4553 26.1741 43.8147 25.8369 44.0934C25.4996 44.3721 25.0975 44.5612 24.6677 44.6432C24.2379 44.7252 23.7944 44.6974 23.3782 44.5624C22.962 44.4273 22.5867 44.1895 22.2869 43.8708C21.9871 43.5521 21.7725 43.163 21.6631 42.7393C21.507 42.1521 21.5639 41.5286 21.8239 40.9794C22.0838 40.4301 22.53 39.9908 23.0831 39.7393C23.2198 39.6976 23.3367 39.6077 23.4121 39.4863C23.4875 39.365 23.5163 39.2203 23.4931 39.0793C23.4931 38.2793 23.4931 37.4893 23.4931 36.6393H22.9831C20.8131 36.6393 18.6431 36.6393 16.4731 36.6393C16.1031 36.6393 15.9631 36.7693 15.8731 37.1093C15.1531 39.8493 14.4231 42.5893 13.6831 45.3293C13.6216 45.6657 13.4915 45.9859 13.3009 46.2698C13.1102 46.5537 12.8631 46.7953 12.575 46.9795C12.2869 47.1637 11.9639 47.2866 11.6262 47.3405C11.2885 47.3944 10.9433 47.3782 10.6121 47.2928C10.2809 47.2075 9.97092 47.0548 9.70136 46.8443C9.4318 46.6339 9.20849 46.3701 9.04533 46.0696C8.88218 45.769 8.78269 45.4381 8.75306 45.0974C8.72343 44.7567 8.7643 44.4135 8.87313 44.0893C9.48312 41.7793 10.1031 39.4793 10.7231 37.1693C10.7231 37.0293 10.7931 36.8793 10.8431 36.6493H4.72312C4.42493 36.6841 4.12275 36.6512 3.83898 36.5532C3.55521 36.4553 3.29714 36.2947 3.0839 36.0834C2.87067 35.872 2.70774 35.6154 2.6072 35.3326C2.50666 35.0497 2.47109 34.7478 2.50312 34.4493C2.50312 29.2393 2.50312 24.0393 2.50312 18.8393C2.50312 18.6793 2.50312 18.4793 2.55312 18.3793C2.60312 18.2793 2.98312 17.9193 3.20312 17.9193C3.42313 17.9193 3.70312 18.1793 3.84313 18.3893C3.98313 18.5993 3.90313 18.8093 3.90313 19.0293V34.2293C3.90313 35.1493 4.01312 35.2293 4.90312 35.2293H43.4531C44.3831 35.2293 44.4531 35.1193 44.4531 34.2293V7.30932H3.93313C3.93313 7.47932 3.93313 7.65932 3.93313 7.83932V14.8393C3.93313 14.9793 3.93313 15.1193 3.93313 15.2593C3.93851 15.3568 3.92427 15.4544 3.89125 15.5464C3.85824 15.6383 3.80711 15.7226 3.74091 15.7944C3.6747 15.8662 3.59477 15.924 3.50583 15.9644C3.41689 16.0047 3.32076 16.0268 3.22312 16.0293C3.12855 16.0255 3.03566 16.003 2.94977 15.9632C2.86389 15.9234 2.78669 15.8671 2.7226 15.7974C2.65852 15.7277 2.60879 15.6461 2.57628 15.5572C2.54377 15.4683 2.5291 15.3739 2.53312 15.2793C2.53312 15.1393 2.53312 14.9993 2.53312 14.8593V7.26932C1.53312 7.33932 0.643125 7.21932 0.233125 6.16932L0.203125 1.67932ZM46.7731 2.03932H1.63312V5.82932H46.7731V2.03932ZM14.5531 36.6593C13.8831 36.6593 13.2831 36.6593 12.6931 36.6593C12.4031 36.6593 12.2931 36.7593 12.2131 37.0293C11.5631 39.5093 10.8931 42.0293 10.2131 44.4693C10.1486 44.6136 10.1163 44.7701 10.1183 44.9281C10.1203 45.0861 10.1567 45.2418 10.2248 45.3843C10.2929 45.5269 10.3913 45.6529 10.513 45.7537C10.6347 45.8545 10.7768 45.9276 10.9296 45.968C11.0823 46.0084 11.242 46.0151 11.3976 45.9876C11.5532 45.9602 11.701 45.8992 11.8307 45.809C11.9604 45.7187 12.0689 45.6014 12.1488 45.465C12.2286 45.3287 12.2779 45.1766 12.2931 45.0193C12.7331 43.3893 13.1631 41.7693 13.6031 40.1493C13.9231 38.9993 14.2031 37.8593 14.5531 36.6593ZM24.2031 43.2893C24.5175 43.2871 24.8191 43.1647 25.0459 42.9471C25.2728 42.7295 25.4078 42.4333 25.4231 42.1193C25.429 41.8817 25.3642 41.6476 25.2369 41.4468C25.1096 41.246 24.9255 41.0876 24.708 40.9916C24.4905 40.8957 24.2494 40.8664 24.0152 40.9077C23.7811 40.949 23.5645 41.0588 23.3929 41.2234C23.2213 41.388 23.1025 41.5998 23.0515 41.832C23.0004 42.0642 23.0195 42.3063 23.1063 42.5276C23.1931 42.749 23.3437 42.9395 23.539 43.0751C23.7343 43.2107 23.9654 43.2853 24.2031 43.2893Z" fill="#004D43"/>
<path d="M14.2931 24.1893C12.7456 24.1893 11.2329 23.7302 9.94649 22.87C8.66007 22.0099 7.65778 20.7874 7.06649 19.3573C6.47521 17.9272 6.32152 16.3538 6.62488 14.8363C6.92824 13.3189 7.67501 11.9255 8.77066 10.8327C9.86631 9.73983 11.2616 8.99662 12.7798 8.69715C14.2981 8.39768 15.871 8.55539 17.2996 9.15034C18.7282 9.74529 19.9481 10.7507 20.805 12.0393C21.6618 13.3279 22.1171 14.8418 22.1131 16.3893C22.1131 17.4153 21.9107 18.4312 21.5175 19.3789C21.1242 20.3265 20.5479 21.1873 19.8215 21.9118C19.0951 22.6364 18.2328 23.2105 17.2842 23.6013C16.3356 23.9921 15.3191 24.192 14.2931 24.1893ZM13.5931 10.0393C11.9338 10.2202 10.4111 11.0431 9.3507 12.3321C8.29028 13.6211 7.7763 15.2738 7.9187 16.9369C8.0611 18.5999 8.84856 20.1412 10.1127 21.2312C11.3768 22.3211 13.0172 22.8732 14.6831 22.7693C16.1901 22.6891 17.6178 22.0688 18.7049 21.0221C19.792 19.9754 20.4659 18.5722 20.6031 17.0693H14.6031C13.7531 17.0693 13.6031 16.8993 13.6031 16.0693V10.0693L13.5931 10.0393ZM20.5931 15.6493C20.4483 14.2161 19.8128 12.8769 18.7942 11.8582C17.7756 10.8396 16.4364 10.2041 15.0031 10.0593V15.6493H20.5931Z" fill="#004D43"/>
<path d="M29.3731 27.7393V32.1393C29.3974 32.3584 29.3718 32.5802 29.2982 32.788C29.2246 32.9957 29.1048 33.1841 28.948 33.3391C28.7912 33.494 28.6013 33.6113 28.3926 33.6824C28.184 33.7535 27.9619 33.7763 27.7431 33.7493H26.5731C26.3427 33.7847 26.1071 33.7654 25.8854 33.6932C25.6637 33.6209 25.4621 33.4976 25.2967 33.3332C25.1314 33.1689 25.0069 32.9679 24.9333 32.7467C24.8598 32.5254 24.8391 32.29 24.8731 32.0593V25.3193C24.8731 24.6293 24.8731 23.9493 24.8731 23.2593C24.8564 23.0441 24.8867 22.8278 24.9619 22.6254C25.037 22.4231 25.1552 22.2394 25.3084 22.0872C25.4615 21.9351 25.6458 21.818 25.8487 21.7441C26.0515 21.6702 26.268 21.6413 26.4831 21.6593H27.8431C28.0472 21.649 28.2511 21.682 28.4415 21.756C28.6319 21.8301 28.8045 21.9435 28.948 22.0889C29.0915 22.2343 29.2027 22.4084 29.2742 22.5998C29.3458 22.7911 29.3761 22.9954 29.3631 23.1993C29.3731 24.7093 29.3731 26.2193 29.3731 27.7393ZM26.3031 23.0893V32.3093H27.9331V23.0893H26.3031Z" fill="#004D43"/>
<path d="M30.7331 28.5793C30.7331 27.3793 30.7331 26.1793 30.7331 24.9693C30.7088 24.7502 30.7344 24.5285 30.8081 24.3207C30.8817 24.1129 31.0014 23.9245 31.1582 23.7696C31.3151 23.6147 31.5049 23.4973 31.7136 23.4262C31.9223 23.3552 32.1443 23.3323 32.3631 23.3593C32.8331 23.3593 33.3031 23.3593 33.7631 23.3593C34.121 23.3551 34.4675 23.4853 34.7341 23.7241C35.0008 23.9629 35.1681 24.2931 35.2031 24.6493C35.2031 24.8593 35.2031 25.0793 35.2031 25.2993C35.2031 27.5293 35.2031 29.7693 35.2031 31.9993C35.2031 33.2093 34.6731 33.7493 33.4731 33.7493H32.2731C32.0658 33.7661 31.8572 33.7375 31.6621 33.6654C31.4669 33.5933 31.2899 33.4795 31.1433 33.3319C30.9966 33.1843 30.884 33.0065 30.8131 32.8109C30.7423 32.6153 30.715 32.4066 30.7331 32.1993C30.7231 30.9793 30.7331 29.7593 30.7331 28.5793ZM33.7931 32.3693V24.7493H32.2031V32.3293L33.7931 32.3693Z" fill="#004D43"/>
<path d="M33.0131 11.1393H40.8831C41.0229 11.1292 41.1633 11.1292 41.3031 11.1393C41.4662 11.1559 41.6181 11.23 41.7315 11.3484C41.8449 11.4667 41.9125 11.6216 41.9221 11.7853C41.9318 11.9489 41.8828 12.1106 41.784 12.2415C41.6853 12.3723 41.5431 12.4637 41.3831 12.4993C41.2305 12.5196 41.0758 12.5196 40.9231 12.4993H25.0331C24.8935 12.5141 24.7527 12.5141 24.6131 12.4993C24.4406 12.4792 24.2827 12.3928 24.1727 12.2585C24.0626 12.1242 24.009 11.9524 24.0231 11.7793C24.0204 11.6923 24.0353 11.6056 24.0667 11.5244C24.0982 11.4432 24.1457 11.3692 24.2063 11.3067C24.2669 11.2442 24.3395 11.1946 24.4197 11.1606C24.4999 11.1267 24.5861 11.1093 24.6731 11.1093H33.0131V11.1393Z" fill="#004D43"/>
<path d="M32.9531 14.3193H40.8231C40.9796 14.3092 41.1366 14.3092 41.2931 14.3193C41.4578 14.3392 41.6101 14.4169 41.7228 14.5386C41.8355 14.6604 41.9013 14.8181 41.9086 14.9839C41.9158 15.1496 41.8639 15.3125 41.7621 15.4435C41.6604 15.5746 41.5155 15.6652 41.3531 15.6993C41.1971 15.7195 41.0391 15.7195 40.8831 15.6993H25.0431C24.8737 15.7196 24.7025 15.7196 24.5331 15.6993C24.3704 15.6632 24.2273 15.5668 24.1327 15.4295C24.0381 15.2923 23.999 15.1243 24.0231 14.9593C24.0276 14.8014 24.0903 14.6507 24.1992 14.5362C24.3082 14.4217 24.4556 14.3516 24.6131 14.3393C24.7694 14.3241 24.9268 14.3241 25.0831 14.3393L32.9531 14.3193Z" fill="#004D43"/>
<path d="M41.0731 30.0093C41.0731 30.7393 41.0731 31.4793 41.0731 32.2093C41.0861 32.4132 41.0558 32.6175 40.9842 32.8089C40.9127 33.0003 40.8015 33.1743 40.658 33.3197C40.5145 33.4651 40.3419 33.5786 40.1515 33.6526C39.9611 33.7266 39.7572 33.7596 39.5531 33.7493H38.0131C37.8245 33.7506 37.6375 33.7146 37.4628 33.6434C37.2882 33.5721 37.1293 33.467 36.9955 33.334C36.8616 33.2011 36.7554 33.043 36.6829 32.8689C36.6104 32.6947 36.5731 32.508 36.5731 32.3193C36.5731 30.7593 36.5731 29.1993 36.5731 27.6393C36.5704 27.4512 36.6056 27.2645 36.6766 27.0904C36.7476 26.9162 36.853 26.7581 36.9865 26.6256C37.12 26.493 37.2788 26.3888 37.4535 26.319C37.6281 26.2492 37.8151 26.2153 38.0031 26.2193C38.5365 26.2193 39.0665 26.2193 39.5931 26.2193C39.7851 26.2153 39.976 26.2499 40.1543 26.3212C40.3326 26.3926 40.4947 26.4991 40.631 26.6344C40.7672 26.7697 40.8748 26.9311 40.9473 27.1089C41.0199 27.2867 41.0559 27.4773 41.0531 27.6693C41.0831 28.4493 41.0731 29.2293 41.0731 30.0093ZM39.6331 32.3293V27.6593H38.0031V32.3293H39.6331Z" fill="#004D43"/>
<path d="M14.8231 28.9693H7.37313C7.11371 28.9679 6.8615 28.8838 6.65312 28.7293C6.57172 28.6495 6.51275 28.5496 6.48214 28.4398C6.45153 28.33 6.45035 28.214 6.47872 28.1036C6.50709 27.9931 6.56401 27.8921 6.64377 27.8106C6.72353 27.7291 6.82332 27.67 6.93313 27.6393C7.11181 27.5887 7.29773 27.5684 7.48313 27.5793H22.4831C22.9831 27.5793 23.3031 27.8893 23.3031 28.2993C23.3031 28.7093 22.9831 28.9793 22.4731 28.9793L14.8231 28.9693Z" fill="#004D43"/>
<path d="M28.8331 17.5093H32.8331C33.3731 17.5093 33.6931 17.7793 33.6931 18.2093C33.6931 18.6393 33.3631 18.9093 32.8131 18.9093H24.9131C24.2931 18.9093 23.9131 18.5193 24.0531 18.0293C24.0976 17.8619 24.201 17.7162 24.3443 17.6189C24.4875 17.5215 24.6611 17.4791 24.8331 17.4993C26.2031 17.5193 27.4931 17.5093 28.8331 17.5093Z" fill="#004D43"/>
<path d="M7.34312 32.1593C6.77312 32.1593 6.48313 31.9193 6.47312 31.4693C6.46312 31.0193 6.77312 30.7493 7.36312 30.7493H14.6331C15.2131 30.7493 15.5531 31.0093 15.5631 31.4493C15.5731 31.8893 15.2331 32.1593 14.5631 32.1593H7.34312Z" fill="#004D43"/>
</g>
</g>
<defs>
<clipPath id="clip0_1753_62291">
<rect width="48" height="48" fill="white" transform="translate(0.203125)"/>
</clipPath>
</defs>
</svg>
