<svg width="49" height="48" viewBox="0 0 49 48" fill="none" xmlns="http://www.w3.org/2000/svg">
<g id="icon" clip-path="url(#clip0_1753_62300)">
<g id="Vector">
<path d="M0 39.75C0.206345 39.5795 0.435154 39.4382 0.68 39.33C1.09 39.25 1.4 39.61 1.41 40.11C1.41 41.11 1.41 42.11 1.46 43.11C1.52691 44.0881 1.97518 45.0008 2.70833 45.6516C3.44148 46.3025 4.40088 46.6395 5.38 46.59H42.38C43.1401 46.6534 43.9013 46.4822 44.5611 46.0995C45.2209 45.7169 45.7475 45.1412 46.07 44.45C46.3319 43.886 46.4684 43.2719 46.47 42.65C46.47 34.91 46.47 27.18 46.47 19.45C46.47 19.37 46.47 19.3 46.47 19.14C46.29 19.27 46.15 19.37 46.03 19.47L30 32.86C28.344 34.3237 26.2101 35.1315 24 35.1315C21.7899 35.1315 19.656 34.3237 18 32.86L1.9 19.49C1.78 19.38 1.64 19.27 1.42 19.09V36.54C1.42 36.67 1.42 36.79 1.42 36.92C1.42 37.32 1.36 37.68 0.93 37.83C0.5 37.98 0.24 37.72 0 37.41V17.34C0.0921106 17.2199 0.192346 17.1063 0.3 17C1.84 15.72 3.37 14.44 4.92 13.19C5.03783 13.1038 5.13116 12.9884 5.19079 12.8551C5.25041 12.7218 5.27426 12.5753 5.26 12.43C5.26 11.07 5.26 9.71 5.26 8.35C5.22483 6.8251 5.79176 5.34771 6.83803 4.23781C7.8843 3.1279 9.32568 2.47482 10.85 2.42C13.02 2.31 15.19 2.42 17.35 2.36C17.6342 2.33433 17.9083 2.24181 18.15 2.09C18.9316 1.58127 19.7394 1.11395 20.57 0.69C21.3615 0.399199 22.1738 0.168544 23 0H24.8C24.8618 0.0354166 24.9296 0.0591459 25 0.07C26.6772 0.260658 28.2639 0.930742 29.57 2C29.85 2.22 30.02 2.16 30.29 2C31.9537 0.81473 33.9297 0.14567 35.9713 0.076313C38.0129 0.00695602 40.0297 0.540374 41.77 1.61C42.3832 1.98027 42.9592 2.40893 43.49 2.89C43.5672 2.94547 43.6317 3.01673 43.6792 3.09904C43.7268 3.18136 43.7562 3.27285 43.7657 3.36743C43.7752 3.46201 43.7644 3.55753 43.7341 3.64762C43.7038 3.73772 43.6547 3.82034 43.59 3.89C43.5304 3.96249 43.4567 4.02208 43.3733 4.06511C43.2899 4.10814 43.1987 4.13371 43.1051 4.14026C43.0115 4.14682 42.9175 4.13421 42.829 4.10321C42.7404 4.07222 42.6591 4.02349 42.59 3.96C42.45 3.87 42.32 3.75 42.18 3.65C41.1931 2.82039 40.0396 2.21248 38.7974 1.86743C37.5552 1.52237 36.2533 1.44822 34.98 1.65C32.9242 1.94986 31.0315 2.93965 29.6123 4.45691C28.1932 5.97418 27.332 7.9288 27.17 10C27.0026 11.6533 27.3063 13.3203 28.0459 14.8084C28.7856 16.2965 29.931 17.5451 31.35 18.41C32.756 19.3776 34.4131 19.9155 36.1193 19.9582C37.8256 20.0008 39.5075 19.5463 40.96 18.65C42.5906 17.7021 43.8897 16.275 44.6805 14.5627C45.4714 12.8504 45.7156 10.936 45.38 9.08C45.1597 8.00397 44.7823 6.9662 44.26 6C44.2018 5.91803 44.1617 5.82463 44.1423 5.72598C44.1228 5.62733 44.1246 5.52569 44.1474 5.42778C44.1702 5.32987 44.2136 5.23792 44.2746 5.15801C44.3356 5.07811 44.4129 5.01208 44.5014 4.96429C44.5898 4.91649 44.6874 4.88803 44.7877 4.88078C44.888 4.87353 44.9887 4.88766 45.0831 4.92224C45.1775 4.95681 45.2635 5.01104 45.3353 5.08133C45.4072 5.15163 45.4633 5.23639 45.5 5.33C46.5137 7.04285 47.0135 9.01103 46.94 11C46.9051 12.4418 46.5643 13.8598 45.94 15.16C45.9111 15.2043 45.8915 15.2539 45.8824 15.306C45.8733 15.3581 45.8749 15.4114 45.887 15.4629C45.8992 15.5143 45.9217 15.5627 45.9531 15.6052C45.9846 15.6477 46.0243 15.6834 46.07 15.71C46.54 16.07 46.97 16.48 47.44 16.84C47.5934 16.9563 47.7162 17.108 47.7981 17.2821C47.88 17.4563 47.9184 17.6477 47.91 17.84C47.91 23.42 47.91 29 47.91 34.58C47.91 37.28 47.91 39.98 47.91 42.69C47.94 43.5453 47.7465 44.3937 47.3484 45.1513C46.9503 45.9089 46.3614 46.5496 45.64 47.01C44.9342 47.3888 44.1943 47.7002 43.43 47.94H4.49C4.42435 47.9031 4.35358 47.8761 4.28 47.86C3.60563 47.7648 2.95916 47.5275 2.38337 47.1637C1.80759 46.8 1.31561 46.3181 0.94 45.75C0.567878 45.0259 0.253566 44.2736 0 43.5V39.75ZM28.16 3.84H27.88C22.33 3.84 16.78 3.84 11.23 3.84C10.5387 3.8534 9.85769 4.01003 9.23 4.3C8.4255 4.66436 7.75132 5.26548 7.29746 6.0231C6.84361 6.78072 6.63169 7.65877 6.69 8.54C6.69 12.7533 6.69 16.97 6.69 21.19C6.67825 21.3248 6.70046 21.4604 6.75461 21.5845C6.80876 21.7085 6.89313 21.817 7 21.9C11 25.21 14.94 28.55 18.93 31.9C20.3375 33.1037 22.1338 33.7559 23.9857 33.7357C25.8375 33.7155 27.6192 33.0241 29 31.79L31.63 29.61L40.82 21.93C40.9862 21.8216 41.1099 21.6591 41.17 21.47C41.1957 21.0304 41.1957 20.5896 41.17 20.15C38.9851 21.2729 36.4784 21.6036 34.077 21.0857C31.6756 20.5679 29.528 19.2336 28 17.31C26.4896 15.3818 25.6822 12.996 25.7113 10.5469C25.7404 8.0977 26.6042 5.73176 28.16 3.84ZM1.85 17.59L5.23 20.41V14.78L1.85 17.59ZM27.51 2.35C26.4355 1.7671 25.2324 1.46179 24.01 1.46179C22.7876 1.46179 21.5845 1.7671 20.51 2.35H27.51ZM45.15 16.79C44.44 17.52 43.79 18.22 43.09 18.88C42.8673 19.0441 42.7099 19.2818 42.6459 19.5509C42.5818 19.82 42.6151 20.1031 42.74 20.35L46.08 17.57L45.15 16.79Z" fill="#004D43"/>
<path d="M31.45 33.42C31.6716 33.5209 31.8855 33.6379 32.09 33.77L43.17 43C43.61 43.37 43.68 43.79 43.38 44.13C43.08 44.47 42.68 44.44 42.26 44.13L31.26 34.93C30.97 34.69 30.72 34.4 30.92 34.01C31 33.75 31.25 33.61 31.45 33.42Z" fill="#004D43"/>
<path d="M5 44.47C4.77 44.3 4.5 44.19 4.43 44C4.33801 43.7654 4.33801 43.5046 4.43 43.27C4.51 43.08 4.72 42.95 4.89 42.81L15.6 33.94C15.7498 33.8026 15.9141 33.6819 16.09 33.58C16.2315 33.5187 16.3892 33.5058 16.5387 33.5434C16.6882 33.5809 16.8212 33.6667 16.9169 33.7876C17.0126 33.9084 17.0658 34.0574 17.0682 34.2116C17.0706 34.3657 17.022 34.5163 16.93 34.64C16.8327 34.759 16.7219 34.8664 16.6 34.96L5.74 44C5.54 44.18 5.31 44.29 5 44.47Z" fill="#004D43"/>
<path d="M36.08 14.74C36.98 12.63 37.86 10.59 38.74 8.54L39.82 6C40.05 5.47 40.44 5.27 40.82 5.46C41.2 5.65 41.32 6.05 41.1 6.55C39.7467 9.77667 38.38 13 37 16.22C36.9724 16.366 36.9003 16.4998 36.7936 16.6032C36.6869 16.7066 36.5508 16.7744 36.404 16.7974C36.2573 16.8204 36.107 16.7975 35.9738 16.7317C35.8406 16.6659 35.731 16.5605 35.66 16.43C34.33 14.88 33.03 13.31 31.72 11.74C31.37 11.31 31.38 10.9 31.72 10.62C32.06 10.34 32.47 10.44 32.82 10.85L36.08 14.74Z" fill="#004D43"/>
<path d="M24 23.89H34C34.1732 23.8798 34.3468 23.8798 34.52 23.89C34.6854 23.9002 34.8406 23.9732 34.954 24.094C35.0673 24.2148 35.1303 24.3743 35.13 24.54C35.1475 24.7075 35.1003 24.8754 34.9981 25.0093C34.8958 25.1431 34.7462 25.2328 34.58 25.26C34.4106 25.2802 34.2394 25.2802 34.07 25.26H13.88C13.7402 25.2698 13.5998 25.2698 13.46 25.26C13.2778 25.2447 13.1089 25.1587 12.9893 25.0204C12.8697 24.8821 12.8089 24.7025 12.82 24.52C12.8226 24.3458 12.8929 24.1794 13.0162 24.0562C13.1394 23.9329 13.3058 23.8626 13.48 23.86H24V23.89Z" fill="#004D43"/>
<path d="M28.11 19.75C28.29 19.75 28.5 19.75 28.62 19.75C28.8569 19.8889 29.048 20.094 29.17 20.34C29.194 20.4156 29.2017 20.4953 29.1926 20.5741C29.1835 20.6528 29.1578 20.7288 29.1171 20.7968C29.0765 20.8649 29.0218 20.9235 28.9568 20.9689C28.8918 21.0143 28.8179 21.0453 28.74 21.06C28.5624 21.1172 28.3765 21.1442 28.19 21.14H13.84C13.64 21.14 13.37 21.14 13.25 21.04C13.0342 20.866 12.8944 20.615 12.86 20.34C12.86 20.13 13.17 19.9 13.4 19.75C13.63 19.6 13.76 19.75 13.95 19.75H28.11Z" fill="#004D43"/>
<path d="M18.71 11.46H23.58C23.7824 11.4528 23.9847 11.4764 24.18 11.53C24.3162 11.5806 24.4329 11.6729 24.5136 11.7938C24.5942 11.9147 24.6347 12.0579 24.6291 12.2031C24.6236 12.3483 24.5724 12.488 24.4827 12.6024C24.3931 12.7168 24.2697 12.7999 24.13 12.84C23.9457 12.8769 23.7579 12.8937 23.57 12.89H13.65C13.13 12.89 12.83 12.61 12.82 12.2C12.81 11.79 13.12 11.47 13.66 11.46C15.35 11.45 17 11.46 18.71 11.46Z" fill="#004D43"/>
<path d="M23.07 15.61C23.93 15.61 24.79 15.61 25.64 15.61C25.7348 15.6058 25.8295 15.6213 25.918 15.6553C26.0066 15.6894 26.0872 15.7414 26.1548 15.808C26.2224 15.8747 26.2755 15.9545 26.3108 16.0426C26.3461 16.1307 26.3628 16.2251 26.36 16.32C26.3575 16.5032 26.2843 16.6783 26.1557 16.8087C26.0271 16.9391 25.8531 17.0149 25.67 17.02H25.53C23.89 17.02 22.26 17.02 20.62 17.02C20.5183 17.0348 20.4147 17.027 20.3164 16.9972C20.2181 16.9674 20.1275 16.9163 20.0512 16.8476C19.9748 16.7788 19.9146 16.6942 19.8746 16.5995C19.8346 16.5049 19.816 16.4026 19.82 16.3C19.82 15.87 20.11 15.61 20.64 15.6C21.45 15.6 22.26 15.6 23.07 15.6V15.61Z" fill="#004D43"/>
<path d="M15.86 17C15.11 17 14.36 17 13.62 17C13.3286 16.9478 13.0698 16.7824 12.9 16.54C12.8 16.39 12.9 16.03 13.03 15.83C13.1045 15.7551 13.1934 15.696 13.2914 15.6565C13.3894 15.617 13.4944 15.5977 13.6 15.6C15.08 15.6 16.6 15.6 18.04 15.6C18.56 15.6 18.84 15.89 18.83 16.32C18.82 16.75 18.54 17.01 18.01 17.02C17.29 17.05 16.58 17 15.86 17Z" fill="#004D43"/>
</g>
</g>
<defs>
<clipPath id="clip0_1753_62300">
<rect width="48" height="48" fill="white" transform="translate(0.402344)"/>
</clipPath>
</defs>
</svg>
