<svg width="49" height="48" viewBox="0 0 49 48" fill="none" xmlns="http://www.w3.org/2000/svg">
<g clip-path="url(#clip0_619_21555)">
<path d="M11.558 0C12.4285 0.127585 13.2404 0.514381 13.888 1.11C14.3155 1.5807 14.6848 2.1011 14.988 2.66C15.0388 2.79123 15.1303 2.90277 15.249 2.97832C15.3678 3.05388 15.5076 3.08951 15.648 3.08H37.348C37.5451 3.08263 37.7333 3.16281 37.8718 3.30317C38.0103 3.44354 38.088 3.63281 38.088 3.83C38.088 3.99 38.088 4.14 38.088 4.3C38.088 15.5867 38.088 26.88 38.088 38.18C38.0995 38.4252 38.0582 38.67 37.9667 38.8977C37.8753 39.1255 37.7359 39.3309 37.558 39.5C34.8913 42.1667 32.2246 44.8333 29.558 47.5C29.4005 47.6696 29.208 47.8031 28.994 47.8912C28.7799 47.9792 28.5492 48.0197 28.318 48.01H4.81797C3.87797 48 3.66797 47.78 3.66797 46.83V4.24C3.66797 3.24 3.84797 3.07 4.84797 3.07C5.42797 3.07 6.00797 3.07 6.58797 3.07C6.663 3.06206 6.73526 3.03725 6.79934 2.99742C6.86341 2.95759 6.91765 2.90377 6.95797 2.84C7.23186 2.11864 7.68982 1.48155 8.28631 0.992078C8.88279 0.502609 9.59702 0.177816 10.358 0.05C10.358 0.05 10.358 0.05 10.438 0.05L11.558 0ZM5.21797 4.62V46.43H27.978V39C27.978 38.13 28.228 37.89 29.098 37.89H36.538V4.63H15.378V7.29C15.378 8.29 15.378 9.36 15.308 10.38C15.2103 11.0395 14.8788 11.642 14.374 12.0775C13.8692 12.5131 13.2247 12.7527 12.558 12.7527C11.8912 12.7527 11.2467 12.5131 10.7419 12.0775C10.2371 11.642 9.90565 11.0395 9.80797 10.38C9.72797 9.21 9.80797 8.04 9.80797 6.87C9.80083 6.71169 9.85178 6.55623 9.95122 6.43285C10.0507 6.30946 10.1918 6.22666 10.348 6.2C10.4963 6.14212 10.6607 6.1407 10.81 6.196C10.9593 6.25129 11.0831 6.35947 11.158 6.5C11.2534 6.69297 11.3046 6.90476 11.308 7.12C11.308 8.03 11.308 8.93 11.308 9.84C11.2853 10.0202 11.3013 10.2031 11.3547 10.3766C11.4082 10.5501 11.498 10.7103 11.6181 10.8464C11.7382 10.9826 11.8859 11.0917 12.0514 11.1664C12.2169 11.2411 12.3964 11.2797 12.578 11.2797C12.7595 11.2797 12.939 11.2411 13.1045 11.1664C13.27 11.0917 13.4177 10.9826 13.5379 10.8464C13.658 10.7103 13.7478 10.5501 13.8012 10.3766C13.8547 10.2031 13.8706 10.0202 13.848 9.84V4.62H5.21797ZM29.568 39.44V45.09L35.208 39.44H29.568ZM13.468 3.05C13.2317 2.57223 12.8603 2.1744 12.3998 1.90595C11.9393 1.6375 11.4101 1.51024 10.878 1.54C10.4047 1.55754 9.94597 1.70864 9.5549 1.97584C9.16383 2.24304 8.85634 2.61544 8.66797 3.05H13.468Z" fill="#004D43"/>
<path d="M40.668 46.47V4.67C40.668 4.67 40.618 4.61 40.588 4.61C39.968 4.52 39.678 4.27 39.698 3.8C39.718 3.33 40.048 3.08 40.698 3.07C42.148 3.07 42.238 3.14 42.238 4.59V46.59C42.238 46.75 42.238 46.91 42.238 47.06C42.238 47.72 41.938 48 41.238 48H32.608C32.058 48 31.718 47.69 31.718 47.24C31.718 46.79 32.048 46.48 32.598 46.48H40.598L40.668 46.47Z" fill="#004D43"/>
<path d="M44.668 4.69C44.378 4.56 44.078 4.52 43.918 4.34C43.8405 4.24071 43.7852 4.12595 43.7559 4.00346C43.7265 3.88097 43.7238 3.75362 43.748 3.63C43.7965 3.50637 43.8734 3.39583 43.9724 3.30727C44.0714 3.2187 44.1897 3.15456 44.318 3.12C44.7638 3.03859 45.22 3.03183 45.668 3.1C45.8336 3.10975 45.9897 3.1806 46.1061 3.29883C46.2225 3.41705 46.2908 3.57426 46.298 3.74C46.308 3.91319 46.308 4.08681 46.298 4.26V46.81C46.298 47.81 46.098 47.99 45.128 47.99H44.568C44.3625 47.993 44.1637 47.9167 44.0129 47.7771C43.8621 47.6375 43.7708 47.4451 43.758 47.24C43.7604 47.0426 43.8385 46.8537 43.9762 46.7123C44.1139 46.5708 44.3007 46.4877 44.498 46.48H44.748L44.668 4.69Z" fill="#004D43"/>
<path d="M20.888 16.89H10.868C10.158 16.89 9.79797 16.63 9.79797 16.13C9.79797 15.63 10.168 15.37 10.868 15.37H30.868C31.0374 15.3498 31.2086 15.3498 31.378 15.37C31.5509 15.4038 31.7054 15.4998 31.8123 15.6398C31.9192 15.7799 31.971 15.9543 31.958 16.13C31.9607 16.3123 31.8923 16.4885 31.7672 16.6211C31.642 16.7537 31.4701 16.8322 31.288 16.84C31.1181 16.85 30.9478 16.85 30.778 16.84L20.888 16.89Z" fill="#004D43"/>
<path d="M10.898 21.49C10.148 21.49 9.77797 21.24 9.77797 20.73C9.77797 20.22 10.168 20 10.918 20H30.918C31.0578 19.9902 31.1981 19.9902 31.338 20C31.5262 20.0222 31.6997 20.113 31.8251 20.255C31.9506 20.3971 32.0193 20.5805 32.018 20.77C32.0106 20.9586 31.9323 21.1375 31.7989 21.2709C31.6654 21.4044 31.4866 21.4826 31.298 21.49C31.1248 21.5 30.9512 21.5 30.778 21.49H10.898Z" fill="#004D43"/>
<path d="M30.838 24.56C30.9911 24.55 31.1448 24.55 31.298 24.56C31.4872 24.582 31.6618 24.6724 31.7889 24.8143C31.916 24.9561 31.9868 25.1395 31.988 25.33C31.9807 25.5196 31.9028 25.6996 31.7696 25.8347C31.6364 25.9698 31.4574 26.0502 31.268 26.06C31.1115 26.0701 30.9545 26.0701 30.798 26.06H10.968C10.8115 26.0699 10.6545 26.0699 10.498 26.06C10.3104 26.0452 10.135 25.9613 10.0056 25.8246C9.87634 25.6879 9.80234 25.5081 9.79797 25.32C9.80155 25.1313 9.87345 24.9503 10.0003 24.8105C10.1272 24.6707 10.3005 24.5817 10.488 24.56C10.6445 24.5499 10.8015 24.5499 10.958 24.56H30.838Z" fill="#004D43"/>
<path d="M20.838 30.68H10.768C10.148 30.68 9.76797 30.38 9.76797 29.91C9.76797 29.44 10.138 29.15 10.768 29.15H30.968C31.1405 29.1481 31.3123 29.1717 31.478 29.22C31.6365 29.2726 31.771 29.3801 31.8571 29.5231C31.9433 29.6662 31.9755 29.8353 31.948 30C31.9392 30.1645 31.8719 30.3205 31.7582 30.4397C31.6445 30.5589 31.4919 30.6335 31.328 30.65C31.1416 30.665 30.9543 30.665 30.768 30.65L20.838 30.68Z" fill="#004D43"/>
<path d="M20.838 35.27H10.668C10.4664 35.27 10.2731 35.1899 10.1306 35.0474C9.98804 34.9049 9.90797 34.7116 9.90797 34.51C9.90797 34.3084 9.98804 34.1151 10.1306 33.9726C10.2731 33.8301 10.4664 33.75 10.668 33.75H30.788C31.0031 33.7397 31.2185 33.7599 31.428 33.81C31.5911 33.848 31.7348 33.9441 31.8323 34.0802C31.9298 34.2164 31.9745 34.3833 31.958 34.55C31.9586 34.7257 31.8932 34.8952 31.7746 35.0249C31.656 35.1546 31.493 35.2349 31.318 35.25C31.1314 35.2602 30.9445 35.2602 30.758 35.25L20.838 35.27Z" fill="#004D43"/>
</g>
<defs>
<clipPath id="clip0_619_21555">
<rect width="48" height="48" fill="white" transform="translate(0.667969)"/>
</clipPath>
</defs>
</svg>
