<svg width="49" height="48" viewBox="0 0 49 48" fill="none" xmlns="http://www.w3.org/2000/svg">
<g clip-path="url(#clip0_619_11415)">
<path d="M0.667969 31.8276V9.56759C0.702728 9.5151 0.729676 9.45784 0.747969 9.39759C1.12199 7.80712 2.04057 6.39758 3.34459 5.41318C4.6486 4.42878 6.25588 3.93153 7.88797 4.00759C12.598 4.08759 17.308 4.00759 22.018 4.00759H35.668C36.7441 3.95262 37.8031 4.29355 38.6451 4.96601C39.4871 5.63848 40.0537 6.59593 40.238 7.65759C40.2501 7.76372 40.3004 7.86181 40.3795 7.93357C40.4586 8.00533 40.5612 8.04586 40.668 8.04759C41.2946 8.147 41.8904 8.38774 42.4102 8.75159C42.93 9.11543 43.3601 9.59283 43.668 10.1476C43.9432 10.7158 44.1837 11.3002 44.388 11.8976H44.668C45.7288 11.8976 46.7463 12.319 47.4964 13.0692C48.2465 13.8193 48.668 14.8367 48.668 15.8976C48.668 23.6176 48.668 31.3343 48.668 39.0476C48.6811 39.6849 48.5386 40.3158 48.2528 40.8856C47.967 41.4554 47.5466 41.947 47.028 42.3176C46.2119 42.8843 45.23 43.1624 44.238 43.1076H13.238C12.1847 43.1764 11.1469 42.8261 10.3509 42.133C9.55477 41.4399 9.06489 40.4603 8.98797 39.4076C8.99479 39.3378 8.99479 39.2674 8.98797 39.1976C8.93486 39.1907 8.88108 39.1907 8.82797 39.1976C7.81689 39.1518 6.85216 38.7604 6.09499 38.0887C5.33782 37.4171 4.83409 36.506 4.66797 35.5076C4.63557 35.4319 4.58629 35.3646 4.52389 35.3109C4.4615 35.2571 4.38764 35.2184 4.30797 35.1976C3.47543 35.0347 2.70185 34.6514 2.06797 34.0876C1.40591 33.4744 0.922142 32.6935 0.667969 31.8276ZM35.098 33.2876L35.558 33.7676C36.108 34.3376 36.668 34.8776 37.188 35.4576C37.3018 35.5649 37.3869 35.699 37.4358 35.8475C37.4847 35.9961 37.4958 36.1545 37.468 36.3085C37.4402 36.4624 37.3744 36.6069 37.2766 36.729C37.1788 36.8511 37.0521 36.9469 36.908 37.0076C36.7015 37.0902 36.4733 37.1016 36.2596 37.0401C36.0459 36.9785 35.8588 36.8474 35.728 36.6676L22.758 23.2676C22.6406 23.1034 22.488 22.9676 22.3112 22.8703C22.1345 22.7729 21.9382 22.7163 21.7367 22.7048C21.5352 22.6933 21.3337 22.7271 21.1471 22.8037C20.9604 22.8804 20.7933 22.9979 20.658 23.1476L19.568 24.1476C16.748 26.6376 13.938 29.1476 11.128 31.6176C10.9643 31.7454 10.8567 31.9319 10.828 32.1376C10.828 34.5109 10.828 36.8743 10.828 39.2276C10.8303 39.5475 10.9075 39.8625 11.0533 40.1473C11.1992 40.4321 11.4097 40.6787 11.668 40.8676C12.1454 41.1767 12.7109 41.3207 13.278 41.2776H44.278C44.4512 41.2878 44.6248 41.2878 44.798 41.2776C45.3417 41.2593 45.8564 41.0277 46.2307 40.6328C46.605 40.2379 46.8088 39.7116 46.798 39.1676C46.798 37.4276 46.798 35.6976 46.798 33.9576C46.7969 33.8768 46.7795 33.7971 46.7468 33.7232C46.7142 33.6493 46.667 33.5828 46.608 33.5276C44.958 32.2576 43.298 31.0076 41.608 29.7576C41.3857 29.5782 41.1086 29.4804 40.823 29.4804C40.5373 29.4804 40.2603 29.5782 40.038 29.7576C38.398 30.8676 36.768 32.0676 35.098 33.2876ZM10.818 29.2876C11.018 29.1276 11.118 29.0376 11.228 28.9376L19.008 22.0776C19.3612 21.7469 19.7465 21.4521 20.158 21.1976C20.7934 20.8407 21.5339 20.7183 22.2504 20.8517C22.9668 20.9851 23.6136 21.3659 24.078 21.9276L33.368 31.5076C33.498 31.6476 33.608 31.7976 33.728 31.9476L34.168 31.6376L38.718 28.3276C39.2962 27.8206 40.039 27.541 40.808 27.541C41.577 27.541 42.3198 27.8206 42.898 28.3276L46.318 30.8976L46.788 31.2276V16.2276C46.8308 15.8974 46.7971 15.5619 46.6895 15.2468C46.5818 14.9318 46.4032 14.6457 46.1673 14.4108C45.9314 14.1759 45.6446 13.9984 45.3291 13.8921C45.0137 13.7857 44.6779 13.7534 44.348 13.7976H13.258C12.9252 13.7524 12.5864 13.785 12.2683 13.893C11.9503 14.0009 11.6616 14.1812 11.4251 14.4197C11.1885 14.6582 11.0106 14.9483 10.9052 15.2672C10.7999 15.5861 10.77 15.9252 10.818 16.2576V29.2976V29.2876ZM8.93797 36.7076C8.93797 29.8776 8.93797 23.0576 8.93797 16.2276C8.93359 15.5396 9.07325 14.8583 9.34797 14.2276C9.67072 13.49 10.2144 12.8708 10.904 12.4552C11.5935 12.0397 12.3951 11.8483 13.198 11.9076H42.348C42.278 11.6976 42.248 11.5276 42.178 11.3776C41.9639 10.8982 41.6093 10.4952 41.1611 10.222C40.7128 9.94877 40.1921 9.8182 39.668 9.84759H28.418C27.688 9.84759 27.258 9.49759 27.258 8.91759C27.258 8.33759 27.668 8.00759 28.418 8.00759H38.338C38.321 7.89963 38.2977 7.79277 38.268 7.68759C38.0936 7.14441 37.7435 6.67467 37.2728 6.3524C36.802 6.03013 36.2374 5.87364 35.668 5.90759H7.57797C7.15881 5.89106 6.73917 5.92463 6.32797 6.00759C5.20561 6.26758 4.20747 6.90717 3.50232 7.81823C2.79716 8.72929 2.42825 9.8559 2.45797 11.0076C2.45797 17.5809 2.45797 24.1543 2.45797 30.7276C2.45797 30.8576 2.45797 30.9776 2.45797 31.1076C2.50428 31.662 2.73713 32.1843 3.11853 32.5893C3.49993 32.9943 4.00735 33.2581 4.55797 33.3376V13.0076C4.54407 12.5549 4.58097 12.1021 4.66797 11.6576C4.89571 10.5929 5.49214 9.6429 6.35205 8.9751C7.21195 8.30731 8.28006 7.96466 9.36797 8.00759C12.498 8.00759 15.668 8.00759 18.758 8.00759C19.388 8.00759 20.008 8.00759 20.638 8.00759C20.8931 8.00713 21.1388 8.10422 21.3247 8.27896C21.5106 8.45371 21.6227 8.69291 21.638 8.94759C21.6178 9.19871 21.5036 9.43296 21.3182 9.60353C21.1328 9.7741 20.8899 9.8684 20.638 9.86759H9.66797C7.52797 9.86093 6.45464 10.9076 6.44797 13.0076V34.2976C6.44797 34.5376 6.44797 34.7676 6.44797 34.9976C6.49594 35.6245 6.77931 36.2101 7.24118 36.6367C7.70305 37.0633 8.30922 37.2994 8.93797 37.2976V36.7076Z" fill="#004D43"/>
<path d="M37.078 17.6276C37.8691 17.6276 38.6425 17.8622 39.3003 18.3017C39.958 18.7412 40.4707 19.366 40.7735 20.0969C41.0762 20.8278 41.1555 21.632 41.0011 22.408C40.8468 23.1839 40.4658 23.8966 39.9064 24.456C39.347 25.0154 38.6343 25.3964 37.8583 25.5507C37.0824 25.7051 36.2781 25.6259 35.5472 25.3231C34.8163 25.0204 34.1916 24.5077 33.7521 23.8499C33.3126 23.1921 33.078 22.4187 33.078 21.6276C33.078 20.5667 33.4994 19.5493 34.2495 18.7992C34.9997 18.049 36.0171 17.6276 37.078 17.6276ZM34.938 21.6276C34.9419 22.048 35.0702 22.4578 35.3066 22.8055C35.5431 23.1531 35.8771 23.423 36.2666 23.5811C36.6562 23.7393 37.0838 23.7786 37.4956 23.6942C37.9075 23.6098 38.2851 23.4053 38.581 23.1067C38.8769 22.808 39.0778 22.4285 39.1584 22.0158C39.239 21.6032 39.1956 21.176 39.0338 20.7879C38.8721 20.3999 38.5991 20.0684 38.2492 19.8352C37.8994 19.602 37.4884 19.4776 37.068 19.4776C36.7845 19.4762 36.5036 19.5316 36.2419 19.6407C35.9802 19.7498 35.743 19.9102 35.5444 20.1125C35.3458 20.3148 35.1898 20.5549 35.0857 20.8186C34.9815 21.0823 34.9313 21.3642 34.938 21.6476V21.6276Z" fill="#004D43"/>
<path d="M24.448 9.84759C24.264 9.84956 24.0837 9.79695 23.9297 9.6964C23.7756 9.59586 23.6549 9.4519 23.5827 9.28274C23.5105 9.11357 23.4901 8.92679 23.524 8.74602C23.5579 8.56524 23.6447 8.3986 23.7734 8.26715C23.902 8.1357 24.0668 8.04535 24.2468 8.00752C24.4268 7.9697 24.614 7.9861 24.7846 8.05465C24.9553 8.1232 25.1018 8.24083 25.2057 8.39265C25.3095 8.54447 25.366 8.72367 25.368 8.90759C25.3542 9.14903 25.2534 9.3773 25.0843 9.55013C24.9151 9.72296 24.6891 9.82864 24.448 9.84759Z" fill="#004D43"/>
</g>
<defs>
<clipPath id="clip0_619_11415">
<rect width="48" height="48" fill="white" transform="translate(0.667969)"/>
</clipPath>
</defs>
</svg>
