<svg width="48" height="48" viewBox="0 0 48 48" fill="none" xmlns="http://www.w3.org/2000/svg">
<g clip-path="url(#clip0_792_547)">
<path d="M7.24946 35.1705C6.63293 34.7603 6.11033 34.2241 5.71613 33.5972C5.32193 32.9703 5.06508 32.267 4.96251 31.5336C4.85993 30.8002 4.91397 30.0534 5.12105 29.3424C5.32814 28.6315 5.68357 27.9725 6.16391 27.4089C6.64425 26.8453 7.2386 26.3899 7.90776 26.0727C8.57693 25.7556 9.30572 25.5838 10.0461 25.5689C10.7865 25.5539 11.5216 25.696 12.203 25.9859C12.8845 26.2757 13.4967 26.7067 13.9995 27.2505C14.5155 27.8028 14.907 28.4596 15.1473 29.1763C15.3877 29.893 15.4713 30.6529 15.3927 31.4047C15.314 32.1565 15.0748 32.8827 14.6912 33.5341C14.3077 34.1855 13.7887 34.7469 13.1695 35.1805L13.5395 35.3305C15.4202 35.9594 17.0738 37.1285 18.2939 38.6918C19.514 40.2551 20.2463 42.1433 20.3995 44.1205C20.4695 45.1626 20.4695 46.2083 20.3995 47.2505C20.3995 47.7605 20.1395 47.9905 19.6095 47.9905H0.809465C0.389465 48.0005 -0.000534948 47.8305 -0.000534948 47.4005C-0.146087 45.6769 -0.0348744 43.9413 0.329465 42.2505C0.771074 40.6461 1.60036 39.1749 2.74429 37.9665C3.88823 36.758 5.31173 35.8494 6.88946 35.3205L7.11946 35.2405L7.24946 35.1705ZM11.9295 36.3105C11.9295 36.4205 11.9295 36.5305 11.9295 36.6405C12.1395 38.6405 12.3395 40.7005 12.5595 42.7405C12.5883 42.9348 12.5784 43.1329 12.5303 43.3234C12.4823 43.5139 12.397 43.693 12.2795 43.8505C11.7995 44.4905 11.3495 45.1705 10.8795 45.8505C10.4095 46.5305 9.99946 46.4205 9.58947 45.8505C9.17947 45.2805 8.58947 44.4905 8.15946 43.7805C7.99683 43.5162 7.91353 43.2107 7.91947 42.9005C7.99946 41.7505 8.13947 40.6005 8.24946 39.4505C8.35946 38.3005 8.45947 37.3805 8.55947 36.3405C4.32947 36.4305 0.559465 41.9705 1.40947 46.6505H19.0695C19.7795 41.7005 16.2195 36.5605 11.9295 36.3105ZM14.1195 30.8305C14.0688 29.8316 13.6364 28.8903 12.9115 28.2012C12.1866 27.5121 11.2246 27.1279 10.2245 27.1279C9.2243 27.1279 8.26236 27.5121 7.53745 28.2012C6.81255 28.8903 6.38009 29.8316 6.32946 30.8305C6.3027 31.3586 6.3836 31.8866 6.56726 32.3825C6.75092 32.8783 7.03349 33.3316 7.39781 33.7149C7.76213 34.0982 8.20058 34.4033 8.6865 34.6118C9.17243 34.8204 9.69569 34.9279 10.2245 34.9279C10.7532 34.9279 11.2765 34.8204 11.7624 34.6118C12.2484 34.4033 12.6868 34.0982 13.0511 33.7149C13.4154 33.3316 13.698 32.8783 13.8817 32.3825C14.0653 31.8866 14.1462 31.3586 14.1195 30.8305ZM10.2295 44.4205C10.4995 44.0405 10.7195 43.7005 10.9695 43.4205C11.069 43.2992 11.1403 43.1574 11.1784 43.0052C11.2164 42.853 11.2202 42.6943 11.1895 42.5405C11.0595 41.4405 10.9695 40.3405 10.8595 39.2405C10.7495 38.1405 10.6495 37.2405 10.5395 36.1605H9.99946C9.99946 36.2305 9.99946 36.2705 9.94946 36.3105C9.72946 38.4505 9.5128 40.5905 9.29947 42.7305C9.27763 42.8701 9.29855 43.013 9.35946 43.1405C9.59946 43.5405 9.90946 44.0005 10.2295 44.4205Z" fill="#004D43"/>
<path d="M20.9995 25.6105H24.3295C25.0795 25.6105 25.2295 25.7605 25.2795 26.5205C25.2795 28.3836 26.0196 30.1705 27.337 31.4879C28.6545 32.8053 30.4413 33.5455 32.3045 33.5455C34.1676 33.5455 35.9544 32.8053 37.2719 31.4879C38.5893 30.1705 39.3295 28.3836 39.3295 26.5205C39.3295 25.8205 39.5495 25.6205 40.2495 25.6205H47.1095C47.7695 25.6205 47.9795 25.8405 47.9895 26.5105C47.9995 27.1805 47.9895 27.9005 47.9895 28.6005C48.0065 28.7031 48.0017 28.8082 47.9753 28.9089C47.949 29.0095 47.9017 29.1035 47.8366 29.1846C47.7715 29.2658 47.69 29.3323 47.5975 29.3798C47.5049 29.4274 47.4034 29.4548 47.2995 29.4605C46.7095 29.5705 46.1195 29.6705 45.5395 29.8305C45.3278 29.8892 45.1479 30.0294 45.0395 30.2205C44.6895 30.9705 44.3795 31.7305 44.0895 32.5005C44.0294 32.7005 44.0509 32.9163 44.1495 33.1005C44.4495 33.6205 44.8095 34.1005 45.1495 34.6105C45.4895 35.1205 45.4395 35.3305 45.0695 35.7005C43.9995 36.8105 42.8395 37.9105 41.7395 39.0005C41.6783 39.0793 41.6017 39.1448 41.5142 39.1929C41.4268 39.2409 41.3304 39.2706 41.2311 39.2799C41.1318 39.2893 41.0316 39.2782 40.9367 39.2474C40.8418 39.2165 40.7543 39.1665 40.6795 39.1005C40.1595 38.7405 39.6795 38.3805 39.0895 38.0505C39.0089 38.0161 38.9221 37.9984 38.8345 37.9984C38.7468 37.9984 38.6601 38.0161 38.5795 38.0505C37.7895 38.3605 36.9995 38.6805 36.2195 39.0505C36.1334 39.0925 36.0576 39.1527 35.9971 39.2269C35.9367 39.3012 35.8931 39.3877 35.8695 39.4805C35.7295 40.0605 35.6295 40.6605 35.5095 41.2505C35.3895 41.8405 35.2095 41.9805 34.6395 41.9805H29.9995C29.897 41.993 29.793 41.9842 29.6941 41.9546C29.5951 41.9251 29.5034 41.8754 29.4245 41.8088C29.3457 41.7421 29.2814 41.6599 29.2358 41.5673C29.1902 41.4747 29.1642 41.3736 29.1595 41.2705C29.0595 40.6605 28.9395 40.0605 28.7895 39.4605C28.7394 39.2878 28.6248 39.141 28.4695 39.0505C27.6795 38.7005 26.8695 38.3605 26.0595 38.0505C25.89 38.0088 25.711 38.0338 25.5595 38.1205C25.0195 38.4505 24.4895 38.8105 23.9695 39.1205C23.8249 39.2411 23.6384 39.2994 23.4508 39.2826C23.2633 39.2657 23.0901 39.175 22.9695 39.0305L19.5995 35.6605C19.5213 35.5986 19.4567 35.5214 19.4095 35.4336C19.3624 35.3458 19.3337 35.2492 19.3253 35.1499C19.3168 35.0506 19.3288 34.9506 19.3605 34.8561C19.3922 34.7616 19.4429 34.6746 19.5095 34.6005C19.8095 34.1705 20.0695 33.7105 20.3995 33.3105C20.5361 33.1603 20.6198 32.9695 20.6379 32.7673C20.656 32.5651 20.6073 32.3625 20.4995 32.1905C20.1895 31.5505 19.9295 30.8805 19.6695 30.1905C19.6362 30.0711 19.568 29.9644 19.4735 29.8842C19.379 29.804 19.2627 29.7539 19.1395 29.7405C18.5395 29.6505 17.9595 29.5005 17.3595 29.4005C17.2605 29.3947 17.1638 29.3683 17.0756 29.3229C16.9875 29.2775 16.9098 29.2141 16.8476 29.1368C16.7854 29.0596 16.7401 28.9702 16.7146 28.8743C16.6891 28.7785 16.6839 28.6784 16.6995 28.5805C16.6995 27.8305 16.6995 27.0905 16.6995 26.3405C16.6995 25.7805 16.9295 25.5705 17.4895 25.5605L20.9995 25.6105ZM43.7995 35.0005C43.4695 34.5105 43.1295 34.0005 42.7995 33.4605C42.696 33.3174 42.6323 33.1496 42.6147 32.9739C42.5972 32.7983 42.6264 32.6211 42.6995 32.4605C43.0395 31.6705 43.3495 30.8805 43.6995 30.0905C44.3795 28.5205 44.0195 28.8105 45.6995 28.4705C46.7995 28.2405 46.7995 28.2405 46.6995 27.1105C46.6995 27.1105 46.6995 27.0605 46.6995 27.0105H40.6895C40.5041 29.0829 39.5571 31.013 38.0315 32.4278C36.5059 33.8426 34.5099 34.6416 32.4295 34.6705C30.5546 34.7221 28.7211 34.1133 27.2495 32.9505C26.3227 32.2402 25.5548 31.344 24.9951 30.3193C24.4353 29.2946 24.0962 28.1641 23.9995 27.0005H17.9995C17.9995 27.3105 17.9995 27.6005 17.9995 27.8805C17.9995 28.1605 18.0595 28.2805 18.3495 28.3205C18.8695 28.3905 19.3495 28.5205 19.8895 28.6105C20.0635 28.6298 20.2284 28.6984 20.3648 28.8083C20.5012 28.9181 20.6034 29.0646 20.6595 29.2305C21.0995 30.3105 21.5495 31.4005 22.0095 32.4705C22.0878 32.6305 22.119 32.8094 22.0995 32.9864C22.08 33.1635 22.0107 33.3313 21.8995 33.4705C21.5295 33.9905 21.1895 34.4705 20.8995 34.9905L23.6895 37.7805L25.2295 36.7805C25.3595 36.6786 25.515 36.6144 25.679 36.595C25.8431 36.5756 26.0093 36.6017 26.1595 36.6705C27.2595 37.1405 28.3495 37.6005 29.4495 38.0405C29.6061 38.0951 29.7443 38.1924 29.8485 38.3214C29.9528 38.4504 30.0189 38.6059 30.0395 38.7705C30.1395 39.3105 30.2295 39.8405 30.3595 40.3605C30.3595 40.4805 30.5195 40.6805 30.6095 40.6805C31.8395 40.6805 33.0695 40.6805 34.3095 40.6805C34.4495 39.9905 34.5895 39.3605 34.7095 38.6805C34.7286 38.523 34.7925 38.3743 34.8935 38.2521C34.9945 38.1298 35.1285 38.039 35.2795 37.9905C36.3795 37.5405 37.4695 37.0905 38.5695 36.6205C38.7173 36.5444 38.8842 36.5133 39.0495 36.531C39.2148 36.5488 39.3712 36.6147 39.4995 36.7205C40.0295 37.0905 40.5795 37.4405 41.0695 37.7205L43.7995 35.0005Z" fill="#004D43"/>
<path d="M35.3695 12.5505V13.0605C35.3695 15.7505 35.3695 18.4505 35.3695 21.1405C35.3593 21.2729 35.3846 21.4056 35.4425 21.5251C35.5005 21.6446 35.5892 21.7465 35.6995 21.8205C36.6349 22.507 37.3311 23.4699 37.69 24.5734C38.0488 25.6768 38.0521 26.865 37.6995 27.9705C37.3472 29.0829 36.6556 30.0572 35.7217 30.7568C34.7878 31.4564 33.6584 31.8462 32.4918 31.8716C31.3252 31.8969 30.1799 31.5566 29.2164 30.8982C28.253 30.2399 27.5197 29.2966 27.1195 28.2005C26.7058 27.0928 26.6574 25.8819 26.9812 24.7448C27.3051 23.6076 27.9843 22.6039 28.9195 21.8805C29.0521 21.789 29.1581 21.664 29.2267 21.5182C29.2952 21.3724 29.3238 21.211 29.3095 21.0505C29.3095 18.4205 29.3095 15.7905 29.3095 13.1605V12.5505H28.3095C28.0542 12.5793 27.7965 12.5247 27.5748 12.395C27.3531 12.2652 27.1793 12.0672 27.0795 11.8305C26.9736 11.5981 26.9447 11.338 26.9968 11.088C27.049 10.838 27.1795 10.6112 27.3695 10.4405L31.3195 6.06047C31.4305 5.89754 31.5796 5.7642 31.7539 5.67204C31.9282 5.57989 32.1223 5.53172 32.3195 5.53172C32.5166 5.53172 32.7108 5.57989 32.8851 5.67204C33.0593 5.7642 33.2085 5.89754 33.3195 6.06047C34.6395 7.52047 35.9395 8.99047 37.2595 10.4505C37.4485 10.6217 37.5791 10.8479 37.6329 11.0972C37.6867 11.3466 37.661 11.6065 37.5595 11.8405C37.4583 12.0762 37.2843 12.2733 37.0629 12.4029C36.8416 12.5324 36.5845 12.5877 36.3295 12.5605L35.3695 12.5505ZM28.4595 11.2205H29.6395C30.4195 11.2205 30.5895 11.4005 30.5895 12.2205V20.9805C31.7095 20.6307 32.9095 20.6307 34.0295 20.9805V12.2005C34.0295 11.4005 34.2195 11.2005 35.0295 11.2005H36.1795L32.3195 6.94047L28.4595 11.2205ZM36.5795 26.2205C36.5735 25.3792 36.3187 24.5586 35.847 23.862C35.3753 23.1654 34.7079 22.624 33.929 22.3062C33.1501 21.9884 32.2945 21.9083 31.4701 22.076C30.6458 22.2438 29.8895 22.6518 29.2967 23.2488C28.704 23.8457 28.3012 24.6048 28.1393 25.4304C27.9773 26.2559 28.0634 27.1109 28.3867 27.8876C28.71 28.6642 29.256 29.3278 29.9559 29.7946C30.6558 30.2613 31.4782 30.5105 32.3195 30.5105C33.4485 30.5078 34.5305 30.0582 35.3288 29.2598C36.1272 28.4615 36.5768 27.3795 36.5795 26.2505V26.2205Z" fill="#004D43"/>
<path d="M39.3695 7.00047H38.4295C38.1734 7.02517 37.9161 6.969 37.6937 6.83985C37.4713 6.71069 37.2949 6.51506 37.1895 6.28047C37.082 6.04838 37.0522 5.78784 37.1044 5.53748C37.1567 5.28711 37.2882 5.06023 37.4795 4.89047C38.7895 3.46047 40.0995 2.00047 41.4195 0.54047C41.5305 0.377538 41.6796 0.244196 41.8539 0.152043C42.0282 0.0598905 42.2223 0.0117187 42.4195 0.0117188C42.6166 0.0117188 42.8108 0.0598905 42.9851 0.152043C43.1593 0.244196 43.3085 0.377538 43.4195 0.54047L47.3695 4.93047C47.5611 5.09993 47.6936 5.32619 47.7475 5.57625C47.8015 5.8263 47.7741 6.08706 47.6695 6.32047C47.555 6.55195 47.371 6.74191 47.1433 6.86381C46.9157 6.98572 46.6556 7.03349 46.3995 7.00047H45.4895V22.6105C45.4895 23.9405 45.0395 24.3805 43.7195 24.3805H40.9995C39.8395 24.3805 39.3595 23.8905 39.3595 22.7205V7.00047H39.3695ZM38.5695 5.67047H39.6395C40.5795 5.67047 40.6995 5.79047 40.6995 6.74047V23.0005H44.1595V6.65047C44.1595 5.86047 44.3195 5.65047 45.1595 5.65047H46.3395L42.4295 1.41047L38.5695 5.67047Z" fill="#004D43"/>
<path d="M29.2295 1.55047C29.0729 1.55985 28.916 1.55985 28.7595 1.55047C28.671 1.54599 28.5845 1.5229 28.5056 1.48272C28.4266 1.44254 28.357 1.38617 28.3014 1.31729C28.2457 1.2484 28.2052 1.16855 28.1824 1.08294C28.1597 0.997337 28.1553 0.9079 28.1695 0.82047C28.1675 0.733282 28.1842 0.646676 28.2185 0.566494C28.2528 0.486312 28.3039 0.414417 28.3683 0.355658C28.4328 0.296899 28.5091 0.252642 28.5921 0.225872C28.6751 0.199101 28.7628 0.190439 28.8495 0.20047C29.6695 0.20047 30.4995 0.20047 31.3195 0.20047C31.4417 0.188126 31.5649 0.210119 31.6752 0.263975C31.7856 0.317831 31.8788 0.401414 31.9442 0.505323C32.0097 0.609231 32.0449 0.729344 32.0458 0.85215C32.0467 0.974957 32.0134 1.09559 31.9495 1.20047C31.6995 1.95047 31.4395 2.69047 31.1695 3.44047C31.1503 3.53465 31.1114 3.62369 31.0553 3.70174C30.9992 3.77978 30.9272 3.84505 30.8441 3.89324C30.7609 3.94143 30.6685 3.97145 30.5729 3.98131C30.4773 3.99118 30.3807 3.98067 30.2895 3.95047C29.9195 3.83047 29.7795 3.49047 29.9095 3.02047C29.9095 2.94047 29.9095 2.87047 29.9795 2.73047L29.5695 3.00047L11.3095 16.0005C11.1646 16.0894 11.0476 16.217 10.9716 16.369C10.8956 16.521 10.8637 16.6913 10.8795 16.8605C10.8795 19.0905 10.8795 21.3305 10.8795 23.5705C10.8795 23.7205 10.8795 23.9305 10.8795 24.0305C10.8795 24.1305 10.5195 24.5205 10.3095 24.5405C10.0995 24.5605 9.81946 24.3405 9.64946 24.1505C9.47946 23.9605 9.57946 23.7905 9.57946 23.6005C9.57946 21.1805 9.57946 18.7505 9.57946 16.3205C9.56431 16.1025 9.60948 15.8845 9.71003 15.6904C9.81057 15.4964 9.96261 15.3338 10.1495 15.2205C16.3495 10.7871 22.5561 6.34714 28.7695 1.90047L29.2295 1.55047Z" fill="#004D43"/>
<path d="M25.2495 18.5705V22.4205C25.2495 22.6405 25.2495 22.8605 25.2495 23.0905C25.247 23.424 25.1155 23.7437 24.8824 23.9824C24.6494 24.221 24.3329 24.3601 23.9995 24.3705C22.8295 24.3705 21.6495 24.3705 20.4795 24.3705C20.301 24.372 20.1241 24.3372 19.9594 24.2684C19.7947 24.1995 19.6457 24.098 19.5214 23.97C19.3971 23.8419 19.3 23.69 19.2361 23.5233C19.1722 23.3567 19.1427 23.1788 19.1495 23.0005C19.1495 21.5605 19.1495 20.1205 19.1495 18.6005H18.1495C17.9052 18.6089 17.6642 18.5426 17.4587 18.4103C17.2532 18.2781 17.093 18.0862 16.9995 17.8605C16.8912 17.6366 16.8571 17.3841 16.9021 17.1396C16.947 16.895 17.0687 16.6712 17.2495 16.5005C18.5995 15.0005 19.9395 13.5005 21.2995 12.0105C21.4093 11.8635 21.552 11.7443 21.716 11.6621C21.8801 11.5799 22.061 11.5371 22.2445 11.5371C22.4279 11.5371 22.6089 11.5799 22.7729 11.6621C22.937 11.7443 23.0796 11.8635 23.1895 12.0105C24.5395 13.4905 25.8695 15.0105 27.1895 16.4605C27.3684 16.6322 27.4903 16.8547 27.5386 17.098C27.5869 17.3412 27.5593 17.5934 27.4595 17.8205C27.3621 18.0581 27.191 18.2583 26.9714 18.3915C26.7518 18.5247 26.4952 18.5839 26.2395 18.5605L25.2495 18.5705ZM23.9195 23.0005V18.1005C23.9195 17.4605 24.1495 17.2405 24.7795 17.2405H26.0595L22.2095 13.0005L18.4395 17.1905C18.4395 17.2505 18.4995 17.2705 18.5095 17.2705H19.6995C20.2395 17.2705 20.4795 17.5005 20.4795 18.0505C20.4795 18.9705 20.4795 19.8905 20.4795 20.8105V23.0005H23.9195Z" fill="#004D43"/>
<path d="M31.4195 26.7705C32.2695 25.9205 33.0495 25.1205 33.8595 24.3405C34.0297 24.1623 34.2632 24.0582 34.5095 24.0505C34.6262 24.0735 34.7354 24.1248 34.8278 24.1997C34.9202 24.2747 34.9928 24.371 35.0395 24.4805C35.0622 24.6048 35.0579 24.7326 35.0268 24.8551C34.9958 24.9776 34.9387 25.092 34.8595 25.1905C34.2295 25.8805 33.5495 26.5205 32.8595 27.1905C32.4995 27.5405 32.1495 27.9105 31.7795 28.2605C31.7095 28.3543 31.6161 28.4282 31.5087 28.4747C31.4012 28.5212 31.2835 28.5388 31.1671 28.5257C31.0508 28.5125 30.9399 28.4691 30.8456 28.3998C30.7513 28.3304 30.6767 28.2376 30.6295 28.1305C30.2761 27.5505 29.9428 26.9605 29.6295 26.3605C29.5793 26.2854 29.5451 26.2009 29.5289 26.1121C29.5127 26.0233 29.5149 25.9322 29.5354 25.8443C29.5558 25.7564 29.594 25.6736 29.6477 25.6011C29.7014 25.5285 29.7694 25.4678 29.8475 25.4226C29.9256 25.3774 30.0122 25.3486 30.1018 25.3382C30.1914 25.3277 30.2823 25.3358 30.3687 25.3618C30.4551 25.3879 30.5352 25.4314 30.6042 25.4896C30.6731 25.5479 30.7294 25.6196 30.7695 25.7005C30.8895 25.8705 30.9795 26.0505 31.0895 26.2305L31.4195 26.7705Z" fill="#004D43"/>
</g>
<defs>
<clipPath id="clip0_792_547">
<rect width="48" height="48" fill="white"/>
</clipPath>
</defs>
</svg>
