<svg width="49" height="48" viewBox="0 0 49 48" fill="none" xmlns="http://www.w3.org/2000/svg">
<g id="icon">
<g id="Vector">
<path d="M5.01322 3.9317C4.94847 3.11152 5.16672 2.29392 5.63162 1.61513C6.09651 0.936345 6.77997 0.437358 7.56812 0.201319C8.00414 0.0720517 8.45676 0.00739221 8.91153 0.00940219H41.1775C41.7018 -0.0282524 42.2279 0.0474809 42.7202 0.231447C43.2125 0.415413 43.6594 0.703293 44.0305 1.07549C44.4016 1.44769 44.6881 1.89546 44.8705 2.38834C45.053 2.88121 45.1271 3.40761 45.0878 3.9317V44.0543C45.1197 44.5813 45.0389 45.1091 44.8509 45.6024C44.6629 46.0958 44.372 46.5435 43.9975 46.9157C43.623 47.2879 43.1736 47.5761 42.6791 47.7611C42.1846 47.946 41.6564 48.0236 41.1296 47.9886H8.95951C8.42854 48.0305 7.89479 47.9564 7.39533 47.7714C6.89587 47.5864 6.44267 47.2948 6.06719 46.9171C5.6917 46.5393 5.40293 46.0844 5.22093 45.5838C5.03893 45.0832 4.96805 44.549 5.01322 44.0183V3.9317ZM6.50058 43.9344C6.44946 44.2854 6.48144 44.6436 6.59396 44.98C6.70647 45.3165 6.89637 45.6218 7.14839 45.8715C7.4004 46.1212 7.7075 46.3082 8.04498 46.4176C8.38245 46.527 8.74089 46.5556 9.09146 46.5012H40.9976C41.3486 46.5463 41.7052 46.5103 42.04 46.396C42.3749 46.2817 42.6791 46.0922 42.9293 45.842C43.1795 45.5918 43.369 45.2876 43.4833 44.9528C43.5975 44.6179 43.6335 44.2613 43.5885 43.9104V4.07564C43.6417 3.72368 43.6113 3.36413 43.4997 3.0261C43.3882 2.68808 43.1986 2.38108 42.9463 2.12996C42.694 1.87884 42.3861 1.69066 42.0476 1.58065C41.709 1.47064 41.3493 1.4419 40.9976 1.49676H9.10345C8.74901 1.4415 8.38654 1.47069 8.04551 1.58195C7.70448 1.69322 7.39454 1.88341 7.14088 2.13706C6.88723 2.39072 6.69704 2.70066 6.58577 3.04169C6.47451 3.38272 6.44532 3.74519 6.50058 4.09963V43.9344Z" fill="#004D43"/>
<path d="M39.1024 29.5046C39.8581 29.5046 40.086 29.7445 40.086 30.5002C40.086 33.9907 40.086 37.4931 40.086 40.9836C40.086 41.7633 39.8581 42.0032 39.0785 42.0032H28.643C27.8393 42.0032 27.5994 41.7633 27.5994 40.9477V30.5122C27.5994 29.7445 27.8393 29.5046 28.619 29.5046H39.1024ZM29.0868 31.016V40.4679H38.5987V31.016H29.0868Z" fill="#004D43"/>
<path d="M17.008 20.8084H12.9058C12.4982 20.8448 12.0876 20.7901 11.7037 20.6482C11.3199 20.5063 10.9724 20.2807 10.6865 19.9879C10.4006 19.6951 10.1834 19.3424 10.0507 18.9553C9.91793 18.5681 9.87299 18.1563 9.9191 17.7497C9.93646 17.1307 10.0209 16.5153 10.171 15.9145C10.3721 14.9944 10.8345 14.152 11.5025 13.4881C12.1706 12.8243 13.016 12.3674 13.9374 12.1721C15.9253 11.6386 18.0188 11.6386 20.0067 12.1721C21.1499 12.4497 22.1646 13.1081 22.884 14.0389C23.6034 14.9697 23.9846 16.1177 23.965 17.2939C24.0191 17.728 24.0191 18.1672 23.965 18.6013C23.8408 19.2308 23.4984 19.7962 22.998 20.1977C22.4977 20.5993 21.8716 20.8113 21.2302 20.7964C20.5105 20.7964 19.8028 20.7964 19.0831 20.7964L17.008 20.8084ZM13.0138 19.2011C13.0138 18.8292 13.0138 18.4694 13.0138 18.1215C13.0138 17.5938 13.3136 17.2699 13.7574 17.2699C14.2012 17.2699 14.4891 17.5938 14.5011 18.1096C14.5131 18.6253 14.5011 18.8532 14.5011 19.2251H19.5269V19.1531C19.5269 18.8053 19.5269 18.4694 19.5269 18.1215C19.5269 17.5938 19.8148 17.2819 20.2586 17.2699C20.7024 17.2579 21.0023 17.5698 21.0263 18.0976C21.0503 18.6253 21.0263 18.8412 21.0263 19.2011C21.1849 19.2265 21.347 19.2198 21.503 19.1813C21.659 19.1429 21.8057 19.0735 21.9343 18.9773C22.063 18.8811 22.171 18.76 22.252 18.6212C22.3329 18.4825 22.3852 18.3289 22.4057 18.1695C22.4896 16.0345 21.8179 14.1513 19.419 13.5515C17.813 13.1788 16.143 13.1788 14.5371 13.5515C13.9036 13.632 13.3048 13.8864 12.8073 14.2866C12.3097 14.6868 11.9327 15.2171 11.7183 15.8185C11.5199 16.5293 11.419 17.2637 11.4184 18.0016C11.3585 18.8532 12.0182 19.369 13.0138 19.2011Z" fill="#004D43"/>
<path d="M17.6437 24.7067C17.4398 24.7067 17.176 24.7067 17.032 24.6347C16.8881 24.5628 16.5522 24.1909 16.5522 23.951C16.5522 23.7111 16.8161 23.4472 17.032 23.2673C17.2479 23.0874 17.4039 23.1953 17.5958 23.1953H39.0065C39.1984 23.1953 39.4503 23.1953 39.5702 23.2673C39.6902 23.3393 40.05 23.7111 40.05 23.951C40.05 24.1909 39.7861 24.4668 39.5702 24.6347C39.3543 24.8027 39.1624 24.7067 38.9585 24.7067H17.6437Z" fill="#004D43"/>
<path d="M17.068 11.0926C16.3513 11.1044 15.6474 10.902 15.0466 10.5112C14.4457 10.1204 13.9752 9.55906 13.6955 8.89914C13.4157 8.23922 13.3394 7.51079 13.4763 6.80722C13.6133 6.10365 13.9572 5.457 14.464 4.95017C14.9709 4.44333 15.6175 4.09941 16.3211 3.96248C17.0247 3.82555 17.7531 3.90186 18.413 4.18162C19.0729 4.46138 19.6343 4.93185 20.0251 5.53271C20.4159 6.13357 20.6183 6.83746 20.6065 7.55413C20.6097 8.0197 20.5203 8.48126 20.3436 8.91201C20.1669 9.34275 19.9064 9.7341 19.5772 10.0633C19.248 10.3925 18.8566 10.653 18.4259 10.8297C17.9951 11.0064 17.5336 11.0958 17.068 11.0926ZM19.0951 7.57812C19.0998 7.17301 18.9844 6.77558 18.7635 6.43597C18.5425 6.09637 18.226 5.8298 17.8537 5.66988C17.4815 5.50997 17.0702 5.46387 16.6718 5.53741C16.2734 5.61095 15.9057 5.80084 15.6151 6.08311C15.3245 6.36538 15.1239 6.7274 15.0388 7.1235C14.9537 7.51959 14.9878 7.93203 15.1368 8.30878C15.2858 8.68552 15.543 9.00971 15.876 9.24044C16.2091 9.47117 16.6029 9.59811 17.008 9.60524C17.2784 9.61 17.547 9.56126 17.7985 9.46181C18.0499 9.36237 18.2792 9.21418 18.4732 9.02579C18.6672 8.83739 18.822 8.6125 18.9287 8.36405C19.0354 8.11561 19.092 7.84851 19.0951 7.57812Z" fill="#004D43"/>
<path d="M17.5838 41.9912H11.0106C10.7592 41.9991 10.5116 41.9278 10.3029 41.7873C10.2159 41.6979 10.1501 41.5899 10.1107 41.4715C10.0712 41.3531 10.059 41.2273 10.075 41.1036C10.1618 40.8699 10.333 40.6773 10.5548 40.5638C10.7372 40.49 10.9357 40.4652 11.1306 40.4918H24.085C24.2484 40.4735 24.4133 40.4735 24.5767 40.4918C24.7507 40.5071 24.9118 40.5896 25.026 40.7217C25.1402 40.8538 25.1985 41.0252 25.1885 41.1995C25.2003 41.3725 25.1481 41.5438 25.042 41.6809C24.9359 41.8179 24.7831 41.9113 24.6127 41.9432C24.4493 41.9614 24.2844 41.9614 24.1209 41.9432L17.5838 41.9912Z" fill="#004D43"/>
<path d="M17.6318 30.5002C15.4007 30.5002 13.1697 30.5002 10.9387 30.5002C10.7576 30.5247 10.5735 30.4885 10.4151 30.3974C10.2567 30.3062 10.1329 30.1653 10.063 29.9964C10.0221 29.8945 10.0043 29.7847 10.0109 29.6751C10.0175 29.5655 10.0482 29.4586 10.101 29.3623C10.1537 29.266 10.2272 29.1825 10.316 29.118C10.4048 29.0534 10.5069 29.0093 10.6148 28.9888C10.7465 28.9768 10.879 28.9768 11.0106 28.9888H24.4808C24.6602 29.0118 24.8252 29.0993 24.9447 29.2351C25.0643 29.3709 25.1302 29.5456 25.1302 29.7265C25.1302 29.9074 25.0643 30.0821 24.9447 30.2179C24.8252 30.3537 24.6602 30.4413 24.4808 30.4642C23.6411 30.4642 22.8135 30.4642 21.9859 30.4642L17.6318 30.5002Z" fill="#004D43"/>
<path d="M33.5489 11.7043H38.9105C39.0902 11.6924 39.2706 11.6924 39.4503 11.7043C39.6242 11.7136 39.7877 11.7901 39.9063 11.9177C40.025 12.0452 40.0894 12.2139 40.086 12.388C40.1064 12.569 40.0551 12.7508 39.9429 12.8944C39.8308 13.0379 39.6668 13.1317 39.4863 13.1557C39.3268 13.1736 39.1659 13.1736 39.0065 13.1557H27.5994C27.4096 13.1406 27.2324 13.0543 27.1035 12.9142C26.9745 12.7741 26.9031 12.5905 26.9037 12.4C26.9035 12.2121 26.9756 12.0312 27.1052 11.895C27.2347 11.7587 27.4117 11.6776 27.5994 11.6683C27.9953 11.6683 28.3791 11.6683 28.7989 11.6683L33.5489 11.7043Z" fill="#004D43"/>
<path d="M27.7194 18.8892C27.3595 18.8892 27.0477 18.7573 26.9757 18.4094C26.9305 18.1469 26.9862 17.8769 27.1316 17.6537C27.2082 17.5759 27.2998 17.5146 27.4008 17.4733C27.5019 17.4321 27.6103 17.4118 27.7194 17.4139H39.2704C39.3751 17.4005 39.4816 17.4095 39.5825 17.4405C39.6835 17.4714 39.7768 17.5236 39.856 17.5933C39.9353 17.6631 39.9988 17.749 40.0423 17.8453C40.0858 17.9415 40.1083 18.0459 40.1083 18.1515C40.1083 18.2572 40.0858 18.3616 40.0423 18.4578C39.9988 18.5541 39.9353 18.6399 39.856 18.7097C39.7768 18.7795 39.6835 18.8316 39.5825 18.8626C39.4816 18.8935 39.3751 18.9026 39.2704 18.8892H27.7194Z" fill="#004D43"/>
<path d="M17.4758 36.1977C16.8401 36.1977 16.4922 35.9098 16.5042 35.43C16.5162 34.9503 16.8761 34.6984 17.4758 34.6984H24.2049C24.7926 34.6984 25.1405 34.9742 25.1405 35.442C25.1405 35.9098 24.8166 36.1857 24.2049 36.1977H17.4758Z" fill="#004D43"/>
<path d="M39.1864 5.89885C39.7622 5.89885 40.086 6.17473 40.086 6.64253C40.086 7.11032 39.7742 7.3982 39.2104 7.3982H34.6884C34.1126 7.3982 33.8007 7.11032 33.8127 6.64253C33.8247 6.17473 34.1366 5.91084 34.7123 5.89885H39.1864Z" fill="#004D43"/>
<path d="M29.0868 7.3982C28.631 7.3982 28.1752 7.3982 27.7194 7.3982C27.613 7.41168 27.5049 7.40236 27.4024 7.37086C27.2999 7.33935 27.2052 7.28638 27.1247 7.21546C27.0443 7.14455 26.9798 7.05731 26.9357 6.95956C26.8915 6.86181 26.8687 6.75578 26.8687 6.64852C26.8687 6.54126 26.8915 6.43523 26.9357 6.33748C26.9798 6.23973 27.0443 6.1525 27.1247 6.08158C27.2052 6.01067 27.2999 5.9577 27.4024 5.92619C27.5049 5.89468 27.613 5.88536 27.7194 5.89885H30.5022C30.6086 5.88536 30.7166 5.89468 30.8192 5.92619C30.9217 5.9577 31.0163 6.01067 31.0968 6.08158C31.1773 6.1525 31.2417 6.23973 31.2859 6.33748C31.33 6.43523 31.3529 6.54126 31.3529 6.64852C31.3529 6.75578 31.33 6.86181 31.2859 6.95956C31.2417 7.05731 31.1773 7.14455 31.0968 7.21546C31.0163 7.28638 30.9217 7.33935 30.8192 7.37086C30.7166 7.40236 30.6086 7.41168 30.5022 7.3982C30.0344 7.42219 29.5546 7.3982 29.0868 7.3982Z" fill="#004D43"/>
<path d="M12.0182 24.7067C11.6104 24.7067 11.2025 24.7067 10.8187 24.7067C10.6183 24.7067 10.4261 24.6271 10.2844 24.4854C10.1426 24.3436 10.063 24.1514 10.063 23.951C10.063 23.7506 10.1426 23.5584 10.2844 23.4167C10.4261 23.275 10.6183 23.1953 10.8187 23.1953C11.6224 23.1953 12.438 23.1953 13.2177 23.1953C13.3153 23.1953 13.412 23.2146 13.5023 23.252C13.5925 23.2893 13.6745 23.3441 13.7435 23.4132C13.8126 23.4822 13.8674 23.5642 13.9047 23.6544C13.9421 23.7447 13.9613 23.8414 13.9613 23.939C13.9613 24.0367 13.9421 24.1334 13.9047 24.2236C13.8674 24.3138 13.8126 24.3958 13.7435 24.4649C13.6745 24.5339 13.5925 24.5887 13.5023 24.6261C13.412 24.6635 13.3153 24.6827 13.2177 24.6827C12.8218 24.7187 12.426 24.7067 12.0182 24.7067Z" fill="#004D43"/>
<path d="M12.0302 34.6984C12.426 34.6984 12.8098 34.6984 13.2297 34.6984C13.3315 34.6935 13.4332 34.709 13.529 34.7439C13.6247 34.7789 13.7126 34.8325 13.7874 34.9017C13.8622 34.971 13.9225 35.0544 13.9647 35.1471C14.0069 35.2399 14.0302 35.3402 14.0333 35.442C14.0318 35.5434 14.01 35.6434 13.969 35.7361C13.9281 35.8288 13.869 35.9123 13.7951 35.9817C13.7213 36.0511 13.6342 36.1049 13.5391 36.1399C13.444 36.175 13.3429 36.1906 13.2417 36.1857C12.426 36.1857 11.6224 36.1857 10.8427 36.1857C10.7411 36.1926 10.6392 36.1779 10.5438 36.1426C10.4483 36.1072 10.3614 36.052 10.2889 35.9806C10.2163 35.9092 10.1597 35.8232 10.1229 35.7283C10.086 35.6334 10.0697 35.5317 10.075 35.43C10.0763 35.3281 10.0986 35.2276 10.1404 35.1346C10.1822 35.0417 10.2426 34.9583 10.318 34.8897C10.3933 34.8211 10.482 34.7687 10.5785 34.7358C10.6749 34.7029 10.7771 34.6901 10.8787 34.6984H12.0782H12.0302Z" fill="#004D43"/>
<path d="M32.5053 36.6535L35.7679 33.3669C35.8797 33.2341 36.0345 33.1447 36.2054 33.114C36.3762 33.0833 36.5525 33.1134 36.7035 33.199C36.8533 33.2698 36.9718 33.3934 37.036 33.5462C37.1002 33.699 37.1057 33.8701 37.0513 34.0266C36.9995 34.196 36.9044 34.349 36.7755 34.4705C35.576 35.6779 34.3765 36.8774 33.177 38.0689C33.1051 38.1589 33.0138 38.2316 32.91 38.2815C32.8062 38.3314 32.6925 38.3574 32.5773 38.3574C32.4621 38.3574 32.3483 38.3314 32.2445 38.2815C32.1407 38.2316 32.0494 38.1589 31.9775 38.0689C31.6177 37.721 31.2578 37.3612 30.91 37.0014C30.8378 36.93 30.7805 36.845 30.7414 36.7513C30.7023 36.6576 30.6822 36.5571 30.6822 36.4556C30.6822 36.3541 30.7023 36.2536 30.7414 36.1599C30.7805 36.0662 30.8378 35.9812 30.91 35.9098C30.9787 35.8289 31.0641 35.7639 31.1605 35.7194C31.2568 35.6748 31.3616 35.6517 31.4678 35.6517C31.5739 35.6517 31.6787 35.6748 31.775 35.7194C31.8714 35.7639 31.9568 35.8289 32.0255 35.9098C32.1979 36.1494 32.3581 36.3976 32.5053 36.6535Z" fill="#004D43"/>
</g>
</g>
</svg>
