<svg width="49" height="48" viewBox="0 0 49 48" fill="none" xmlns="http://www.w3.org/2000/svg">
<path d="M24.332 48C19.5853 48 14.9451 46.5924 10.9984 43.9553C7.05157 41.3181 3.97544 37.5698 2.15893 33.1844C0.34243 28.799 -0.13285 23.9734 0.793195 19.3178C1.71924 14.6623 4.00502 10.3859 7.36148 7.02945C10.7179 3.67299 14.9943 1.38721 19.6499 0.461164C24.3054 -0.464881 29.131 0.0103988 33.5164 1.8269C37.9019 3.6434 41.6502 6.71954 44.2873 10.6663C46.9245 14.6131 48.332 19.2533 48.332 24C48.3252 30.3631 45.7944 36.4636 41.295 40.963C36.7956 45.4624 30.6951 47.9931 24.332 48ZM24.332 2.0288C19.9877 2.0288 15.741 3.31704 12.1288 5.7306C8.51665 8.14417 5.70132 11.5747 4.03882 15.5883C2.37633 19.6019 1.94134 24.0184 2.78888 28.2792C3.63641 32.5401 5.72839 36.4539 8.80028 39.5258C11.8722 42.5977 15.786 44.6896 20.0468 45.5372C24.3077 46.3847 28.7241 45.9497 32.7378 44.2872C36.7514 42.6247 40.1819 39.8094 42.5954 36.1972C45.009 32.5851 46.2973 28.3383 46.2973 23.994C46.2888 18.1711 43.9719 12.589 39.8545 8.47159C35.737 4.35415 30.155 2.03725 24.332 2.0288Z" fill="#004D43"/>
<path d="M24.0704 27.0811C21.2589 29.7848 18.5552 32.7042 14.0124 32.7042C9.09016 32.7042 5.73747 29.0819 5.73747 24.1597C5.73747 19.567 9.2539 15.6173 14.4457 15.6173C18.4394 15.6173 21.4746 18.6445 24.1244 21.2404C26.89 18.5366 29.6396 15.6173 34.1824 15.6173C39.1026 15.6173 42.4653 19.2395 42.4653 24.1617C42.4653 28.7545 38.9509 32.7062 33.7591 32.7062C29.7474 32.7042 26.7202 29.675 24.0704 27.0811ZM21.2589 24.2157C19.4198 22.4305 17.3052 19.7807 14.5096 19.7807C13.9368 19.7825 13.3701 19.8974 12.8418 20.1187C12.3136 20.3401 11.8342 20.6636 11.4313 21.0706C11.0283 21.4776 10.7097 21.9602 10.4937 22.4907C10.2777 23.0211 10.1685 23.589 10.1724 24.1617C10.1724 26.7037 11.9576 28.5428 14.3359 28.5428C17.0935 28.5408 19.312 26.1586 21.2589 24.2157ZM38.0323 24.1597C38.0323 21.6178 36.2472 19.7807 33.8669 19.7807C31.0993 19.7807 28.8289 22.1649 26.89 24.1617C28.783 25.893 30.8836 28.5428 33.7032 28.5428C34.8568 28.5344 35.9599 28.0681 36.7699 27.2465C37.5798 26.425 38.0303 25.3154 38.0223 24.1617L38.0323 24.1597Z" fill="#004D43"/>
</svg>
