<svg width="48" height="48" viewBox="0 0 48 48" fill="none" xmlns="http://www.w3.org/2000/svg">
<g clip-path="url(#clip0_792_11497)">
<path d="M8.37187 19.022C8.49343 18.7082 8.71704 18.4443 9.00673 18.273C9.29641 18.1016 9.63532 18.0327 9.96893 18.0773C10.0664 18.0773 10.2239 17.8748 10.2763 17.7399C11.0261 15.9104 11.8434 14.1034 12.5257 12.2514C12.8147 11.2952 13.3917 10.4514 14.1781 9.83547C14.9645 9.2195 15.9219 8.86131 16.9195 8.80983C18.0442 8.69736 19.1689 8.5549 20.2711 8.37495C21.698 8.25209 23.1353 8.39963 24.5074 8.80983C25.2713 8.94941 26.0233 9.14744 26.7568 9.40217C28.1367 9.92105 29.3051 10.8837 30.0784 12.1389C30.6932 13.0762 31.3081 14.0209 31.9079 14.9731C32.0467 15.2143 32.2421 15.4181 32.4772 15.567C32.7124 15.7159 32.9801 15.8055 33.2575 15.8279C34.4872 15.9704 35.7094 16.1428 36.939 16.2853C37.5132 16.3087 38.0547 16.5584 38.4453 16.9799C38.8359 17.4014 39.0437 17.9604 39.0234 18.5347C39.0344 18.8336 38.9828 19.1315 38.8718 19.4092C38.7608 19.687 38.5929 19.9384 38.379 20.1475C38.165 20.3565 37.9097 20.5184 37.6294 20.6229C37.3492 20.7274 37.0501 20.772 36.7516 20.754C35.3569 20.754 33.9548 20.754 32.5602 20.754C31.8466 20.7625 31.14 20.6121 30.4916 20.3139C29.8432 20.0156 29.2692 19.5769 28.8112 19.0295C28.4364 18.6021 28.0615 18.1673 27.6416 17.6574L26.7493 21.7513C27.844 22.1487 28.9162 22.5011 29.9734 22.9284C31.0306 23.3558 32.0654 23.7682 33.0851 24.2331C33.8456 24.5378 34.4853 25.0833 34.9064 25.7861C35.3275 26.4888 35.5069 27.3102 35.4169 28.1245C35.307 30.3739 35.187 32.6033 35.057 34.8127C35.0004 35.3972 34.7245 35.9386 34.285 36.3281C33.8455 36.7176 33.2748 36.9262 32.6877 36.9121C32.1101 36.9413 31.5428 36.7513 31.0993 36.3801C30.6558 36.0089 30.3688 35.4839 30.2958 34.9102C30.1384 33.1556 30.0184 31.4011 29.9209 29.6616C29.9428 29.4705 29.8903 29.2784 29.7745 29.1249C29.6587 28.9714 29.4883 28.8683 29.2986 28.8368C28.0989 28.4844 26.9218 28.087 25.7296 27.6671C25.6021 27.6222 25.4597 27.5922 25.2722 27.5472C25.2722 28.5444 25.2722 29.5116 25.2722 30.4714C25.2711 31.1514 25.2209 31.8305 25.1223 32.5033C24.8996 33.6485 24.3562 34.7068 23.5552 35.555C22.1006 37.167 20.6535 38.7866 19.1914 40.3986C18.885 40.7874 18.4769 41.0837 18.0123 41.2544C17.5477 41.4252 17.0448 41.4638 16.5596 41.3659C16.2121 41.3002 15.8825 41.1611 15.5929 40.958C15.3033 40.755 15.0603 40.4925 14.8801 40.1882C14.6999 39.8838 14.5867 39.5445 14.5479 39.193C14.5091 38.8414 14.5456 38.4856 14.6551 38.1493C14.7905 37.7608 14.9825 37.3944 15.225 37.0621C16.2897 35.5625 17.3319 34.0629 18.4716 32.5633C18.8518 32.1091 19.127 31.5765 19.2773 31.0036C19.4277 30.4307 19.4496 29.8316 19.3414 29.2492C19.1539 28.042 19.0864 26.8199 18.9515 25.6052C18.9425 25.436 18.8764 25.2747 18.764 25.1478C18.2688 24.6954 17.9081 24.1152 17.7215 23.4709C17.535 22.8266 17.5299 22.1433 17.7068 21.4963C18.1717 19.1495 18.6515 16.8101 19.1239 14.4633C19.1239 14.3883 19.1239 14.3058 19.1239 14.1859C18.6793 14.1632 18.2339 14.1632 17.7893 14.1859C17.6543 14.1859 17.4969 14.3958 17.4144 14.5383C16.5071 16.2628 15.6149 18.0023 14.7076 19.6743C14.6437 19.819 14.5658 19.9571 14.4752 20.0867C14.3663 20.1966 14.2975 20.3398 14.2798 20.4935C14.2621 20.6472 14.2966 20.8023 14.3777 20.934C14.4702 21.1705 14.4974 21.4275 14.4565 21.6781C14.4156 21.9287 14.3081 22.1638 14.1453 22.3586C14.2652 22.4411 14.3777 22.5236 14.4902 22.591L16.5071 23.7532C16.7376 23.8497 16.9404 24.0022 17.0969 24.197C17.2535 24.3917 17.3589 24.6225 17.4036 24.8683C17.4483 25.1141 17.4308 25.3672 17.3528 25.6046C17.2749 25.842 17.1388 26.0561 16.957 26.2275C16.6796 26.5575 16.3872 26.8724 16.1322 27.2173C15.6674 27.8546 15.2025 28.4844 14.7901 29.1592C14.1603 30.1865 13.5829 31.2437 12.9756 32.2784C12.865 32.5272 12.7004 32.7482 12.4939 32.9256C12.2873 33.103 12.0439 33.2322 11.7813 33.304C11.5186 33.3757 11.2433 33.3882 10.9753 33.3405C10.7072 33.2928 10.4531 33.1861 10.2314 33.0282L1.05388 27.7496C0.810866 27.6366 0.595769 27.4714 0.42392 27.2658C0.252071 27.0602 0.127701 26.8192 0.0596753 26.5599C-0.00835036 26.3007 -0.0183566 26.0297 0.0303698 25.7662C0.0790962 25.5027 0.185355 25.2531 0.341573 25.0354C0.731466 24.3606 1.09137 23.6782 1.51125 23.0184C2.40133 21.6121 3.11405 20.101 3.63317 18.5197C4.00807 17.35 4.88532 17.0576 5.95003 17.6649L8.2594 18.9845L8.37187 19.022ZM13.0806 19.7718C13.2455 19.5019 13.3955 19.2845 13.523 19.022C14.5352 17.1325 15.5474 15.2731 16.5221 13.3611C16.5957 13.1849 16.723 13.0364 16.8859 12.9368C17.0488 12.8372 17.239 12.7915 17.4294 12.8062C18.2392 12.8062 19.0489 12.8062 19.8512 12.8062C20.4585 12.8062 20.7135 13.1361 20.601 13.7285C20.1661 15.9179 19.7013 18.1073 19.2889 20.3042C19.1057 21.1196 19.0003 21.9506 18.974 22.786C18.9633 23.1661 19.0855 23.538 19.3195 23.8377C19.5536 24.1375 19.8848 24.3462 20.2561 24.428C21.2833 24.743 22.303 25.0954 23.3228 25.4403L30.4983 27.8096C30.8732 27.9371 31.1506 28.1095 31.1806 28.5594C31.2331 29.4442 31.3006 30.3289 31.3605 31.2212C31.443 32.3234 31.518 33.4706 31.593 34.5428C31.5876 34.7682 31.6589 34.9888 31.7951 35.1686C31.9312 35.3483 32.1243 35.4766 32.3428 35.5325C32.5053 35.5901 32.6794 35.607 32.85 35.5819C33.0206 35.5568 33.1825 35.4903 33.3215 35.3882C33.4605 35.2862 33.5724 35.1517 33.6475 34.9965C33.7226 34.8413 33.7586 34.6701 33.7524 34.4978C33.8649 32.5633 33.9398 30.6288 34.0673 28.7019C34.1948 26.7749 33.8274 26.0326 32.0204 25.1928L31.8029 25.0954L26.0295 22.921C25.3622 22.6735 25.2797 22.4561 25.3847 21.7663C26.0895 18.4222 26.7793 15.0706 27.4991 11.7265C27.5405 11.6018 27.5343 11.4662 27.4817 11.3457C27.4291 11.2253 27.3338 11.1286 27.2142 11.0742C26.3563 10.5879 25.4156 10.265 24.44 10.122C23.0753 9.85954 21.7332 9.45465 20.3086 9.69459C19.0939 9.89703 17.8568 10.002 16.6346 10.182C16.0883 10.2264 15.5646 10.4198 15.1204 10.741C14.6763 11.0622 14.3286 11.499 14.1153 12.004C13.193 14.1409 12.3158 16.3003 11.446 18.4597C11.4284 18.537 11.4309 18.6176 11.4532 18.6937C11.4755 18.7698 11.5169 18.839 11.5735 18.8946C12.0084 19.2095 12.5257 19.5019 13.0806 19.7868V19.7718ZM13.8304 28.072L10.5388 26.1901C10.3701 26.3508 10.1533 26.4518 9.92173 26.4776C9.69013 26.5033 9.45648 26.4524 9.25662 26.3325C8.59827 25.9874 7.95765 25.6096 7.33715 25.2003C7.06206 24.9796 6.87356 24.669 6.8048 24.3231C6.79685 24.2183 6.7615 24.1174 6.70228 24.0305C6.64306 23.9437 6.56206 23.8739 6.46739 23.8282L3.55069 22.1412L1.59373 25.5002C1.21133 26.1601 1.24133 26.25 1.89365 26.6549L10.4113 31.5736C11.4835 32.1959 11.4835 32.1959 12.0908 31.1387L13.8304 28.072ZM20.2936 25.8227C20.4061 26.9698 20.466 28.0196 20.6235 29.0468C20.7691 29.7778 20.7512 30.5321 20.571 31.2554C20.3908 31.9788 20.0528 32.6533 19.5813 33.2306C18.4266 34.6852 17.3844 36.2298 16.3047 37.7294C16.1061 37.9931 15.9563 38.2902 15.8623 38.6066C15.8163 38.8002 15.8215 39.0024 15.8773 39.1934C15.933 39.3843 16.0375 39.5575 16.1804 39.6959C16.3234 39.8343 16.4998 39.9332 16.6925 39.9827C16.8852 40.0323 17.0874 40.031 17.2794 39.9788C17.6251 39.8732 17.936 39.6763 18.1792 39.4089C19.6788 37.8044 21.1184 36.1698 22.5805 34.5353C23.2891 33.8145 23.7285 32.8721 23.8251 31.866C23.9151 30.3214 23.8926 28.7618 23.9001 27.2098C23.8933 27.1587 23.8749 27.1098 23.8464 27.0669C23.8178 27.024 23.7797 26.9882 23.7351 26.9623C22.6479 26.6174 21.5233 26.25 20.3236 25.8526L20.2936 25.8227ZM4.9903 18.6471C4.78785 19.2095 4.5929 19.7193 4.40546 20.2442C4.3516 20.3376 4.31853 20.4415 4.30848 20.5488C4.29843 20.6562 4.31165 20.7644 4.34723 20.8662C4.38282 20.968 4.43993 21.0609 4.51467 21.1385C4.58942 21.2162 4.68004 21.2769 4.78035 21.3164C5.58263 21.7888 6.39241 22.2611 7.20969 22.7035C7.35215 22.7785 7.56959 22.7035 7.74954 22.7035C8.07667 22.643 8.41213 22.643 8.73927 22.7035C9.42908 23.0259 10.0664 23.4533 10.7262 23.8282C10.8978 23.922 11.0391 24.0629 11.1334 24.2342C11.2277 24.4056 11.2711 24.6003 11.2586 24.7954C11.2643 24.8675 11.2854 24.9376 11.3203 25.0009C11.3552 25.0643 11.4031 25.1195 11.461 25.1628C12.3158 25.6727 13.1705 26.1901 14.0553 26.6624C14.1727 26.7173 14.3006 26.7458 14.4302 26.7458C14.5598 26.7458 14.6877 26.7173 14.8051 26.6624C15.2736 26.1863 15.7166 25.6857 16.1322 25.1628L4.9903 18.6471ZM28.6913 12.4613C28.4438 13.6535 28.2189 14.7107 28.009 15.8279C28.0046 15.8957 28.0135 15.9637 28.0354 16.028C28.0573 16.0924 28.0916 16.1517 28.1364 16.2028C28.7213 16.9076 29.3061 17.6199 29.9209 18.3022C30.2331 18.6541 30.6165 18.9356 31.0456 19.1282C31.4747 19.3208 31.9399 19.4201 32.4103 19.4194C33.8724 19.4194 35.327 19.4194 36.7891 19.4194C37.0162 19.4151 37.2333 19.325 37.3968 19.1672C37.5603 19.0094 37.658 18.7956 37.6703 18.5687C37.6826 18.3418 37.6087 18.1187 37.4633 17.9441C37.3179 17.7695 37.1119 17.6564 36.8865 17.6274C35.7993 17.4924 34.7196 17.32 33.6249 17.2375C32.9881 17.2282 32.3657 17.0461 31.8243 16.7107C31.2829 16.3753 30.8427 15.8991 30.5508 15.333C30.1909 14.6657 29.741 14.0434 29.3286 13.4061L28.6913 12.4613ZM13.1406 21.3614C12.0609 20.7391 11.0111 20.1242 9.94643 19.5319C9.85646 19.4794 9.68401 19.5319 9.54904 19.5844V19.7343L11.2586 20.7091L12.9981 21.7063L13.1406 21.3614ZM8.39436 24.0531L8.28939 24.2331L9.68401 25.0279L9.78148 24.8554L8.39436 24.0531Z" fill="#004D43"/>
<path d="M37.7488 34.3178V37.9168C37.7488 38.6666 37.5763 38.8691 36.8041 38.8691H27.754C27.754 39.079 27.754 39.244 27.754 39.4089C27.754 40.4736 27.754 41.5383 27.754 42.603C27.754 43.2104 27.5216 43.4278 26.9068 43.4278C24.0501 43.4278 21.1933 43.4278 18.3366 43.4278H17.7143C17.7143 43.6153 17.7143 43.7802 17.7143 43.9452C17.7143 44.9949 17.7143 46.0446 17.7143 47.0868C17.7143 47.7616 17.4894 47.9941 16.8445 47.9941H7.08222C7.00242 48.0017 6.92208 48.0017 6.84229 47.9941C6.66729 47.9941 6.49946 47.9245 6.37572 47.8008C6.25198 47.6771 6.18247 47.5092 6.18247 47.3342C6.18247 47.1592 6.25198 46.9914 6.37572 46.8677C6.49946 46.7439 6.66729 46.6744 6.84229 46.6744C6.98452 46.6631 7.12743 46.6631 7.26967 46.6744H16.2897V43.1954C16.2897 42.2356 16.4247 42.1007 17.3844 42.1007H26.3819V40.4136C26.3819 39.7538 26.3819 39.0865 26.3819 38.4192C26.3819 37.7519 26.5994 37.5419 27.2742 37.5419H36.4142V37.0171C36.4142 35.9749 36.4142 34.9252 36.4142 33.8754C36.4142 33.2306 36.6316 32.9907 37.2539 32.9907H47.0013C47.1278 32.9866 47.2542 33.0018 47.3761 33.0357C47.4515 33.049 47.5233 33.0775 47.5873 33.1195C47.6512 33.1615 47.7059 33.2161 47.748 33.2799C47.7901 33.3438 47.8188 33.4156 47.8322 33.4909C47.8456 33.5662 47.8435 33.6435 47.826 33.718C47.7116 33.9583 47.5257 34.1574 47.2937 34.2878C47.1737 34.3703 46.9563 34.2878 46.7838 34.2878H37.7863L37.7488 34.3178Z" fill="#004D43"/>
<path d="M25.7296 8.77234C24.8614 8.77085 24.0132 8.51175 23.2924 8.02788C22.5716 7.54401 22.0106 6.85711 21.6804 6.05418C21.3503 5.25125 21.2658 4.3684 21.4377 3.51743C21.6096 2.66646 22.0302 1.88565 22.6462 1.27387C23.2622 0.662092 24.0459 0.246867 24.898 0.0807766C25.7501 -0.085314 26.6324 0.00520081 27.433 0.340859C28.2337 0.676517 28.9167 1.24222 29.3956 1.96633C29.8746 2.69044 30.1278 3.54039 30.1234 4.40854C30.1214 4.98357 30.0062 5.55259 29.7843 6.0831C29.5625 6.6136 29.2383 7.09522 28.8303 7.50043C28.4223 7.90565 27.9384 8.22654 27.4064 8.44477C26.8744 8.663 26.3046 8.77431 25.7296 8.77234ZM28.7888 4.41604C28.7991 3.81131 28.6296 3.21714 28.3016 2.70895C27.9737 2.20076 27.5021 1.80149 26.9468 1.56181C26.3915 1.32214 25.7775 1.25288 25.1828 1.36282C24.5881 1.47277 24.0394 1.75696 23.6065 2.17931C23.1736 2.60167 22.8759 3.14315 22.7513 3.73499C22.6267 4.32683 22.6808 4.94235 22.9067 5.5034C23.1326 6.06445 23.5201 6.54572 24.0201 6.88611C24.52 7.22651 25.1098 7.41067 25.7146 7.41521C26.1134 7.42017 26.5092 7.34652 26.8796 7.19847C27.2499 7.05042 27.5874 6.83088 27.8729 6.55237C28.1584 6.27387 28.3862 5.94186 28.5433 5.5753C28.7005 5.20875 28.7839 4.81483 28.7888 4.41604Z" fill="#004D43"/>
</g>
<defs>
<clipPath id="clip0_792_11497">
<rect width="48" height="48" fill="white"/>
</clipPath>
</defs>
</svg>
