<svg width="24" height="24" viewBox="0 0 24 24" fill="none" xmlns="http://www.w3.org/2000/svg">
<g id="Vector">
<path id="Vector_2" d="M24 19.9994V5.99938C24 5.20373 23.6839 4.44067 23.1213 3.87806C22.5587 3.31545 21.7956 2.99938 21 2.99938H20C19.9999 2.5351 19.8921 2.07719 19.6849 1.66167C19.4778 1.24615 19.1771 0.884377 18.8064 0.604819C18.4357 0.325262 18.0052 0.135552 17.5488 0.050622C17.0923 -0.0343078 16.6224 -0.0121397 16.176 0.115382L13.176 0.973382C12.7394 1.09825 12.3372 1.32126 12 1.62538C11.6628 1.32126 11.2606 1.09825 10.824 0.973382L7.824 0.115382C7.37758 -0.0121397 6.90765 -0.0343078 6.45121 0.050622C5.99477 0.135552 5.56427 0.325262 5.19359 0.604819C4.82292 0.884377 4.52218 1.24615 4.31507 1.66167C4.10795 2.07719 4.0001 2.5351 4 2.99938H3C2.20435 2.99938 1.44129 3.31545 0.87868 3.87806C0.31607 4.44067 0 5.20373 0 5.99938L0 19.9994H11V21.9994H7V23.9994H17V21.9994H13V19.9994H24ZM13 3.85738C13.0001 3.6402 13.0709 3.42895 13.2017 3.25557C13.3325 3.08219 13.5162 2.95611 13.725 2.89638L16.725 2.03938C16.8144 2.0135 16.9069 2.00004 17 1.99938C17.2652 1.99938 17.5196 2.10474 17.7071 2.29227C17.8946 2.47981 18 2.73416 18 2.99938V9.24538L13 10.6734V3.85738ZM6 2.99938C6.00022 2.8447 6.03633 2.69218 6.10547 2.55381C6.17462 2.41544 6.27492 2.295 6.3985 2.20195C6.52207 2.10891 6.66554 2.0458 6.81763 2.0176C6.96972 1.98939 7.12628 1.99684 7.275 2.03938L10.275 2.89638C10.4838 2.95611 10.6675 3.08219 10.7983 3.25557C10.9291 3.42895 10.9999 3.6402 11 3.85738V10.6734L6 9.24538V2.99938ZM2 5.99938C2 5.73417 2.10536 5.47981 2.29289 5.29227C2.48043 5.10474 2.73478 4.99938 3 4.99938H4V10.7534L12 13.0394L20 10.7534V4.99938H21C21.2652 4.99938 21.5196 5.10474 21.7071 5.29227C21.8946 5.47981 22 5.73417 22 5.99938V17.9994H2V5.99938Z" fill="url(#paint0_linear_2101_119577)"/>
</g>
<defs>
<linearGradient id="paint0_linear_2101_119577" x1="0.473684" y1="15.7055" x2="24" y2="15.7055" gradientUnits="userSpaceOnUse">
<stop stop-color="#FFC700"/>
<stop offset="0.96875" stop-color="#FBE38E"/>
</linearGradient>
</defs>
</svg>
