<svg width="61" height="61" viewBox="0 0 61 61" fill="none" xmlns="http://www.w3.org/2000/svg">
<g id="fi-rr-quote-right" clip-path="url(#clip0_1753_54943)">
<path id="Vector" d="M20.3333 10.168H10.1667C7.4703 10.168 4.88437 11.2391 2.97775 13.1457C1.07113 15.0523 0 17.6383 0 20.3346L0 30.5013C0 31.8495 0.535564 33.1424 1.48887 34.0958C2.44218 35.0491 3.73515 35.5846 5.08333 35.5846H20.1046C19.5015 39.1342 17.6633 42.3563 14.9146 44.6818C12.1659 47.0072 8.68373 48.2863 5.08333 48.293C4.40924 48.293 3.76276 48.5607 3.2861 49.0374C2.80945 49.5141 2.54167 50.1605 2.54167 50.8346C2.54167 51.5087 2.80945 52.1552 3.2861 52.6319C3.76276 53.1085 4.40924 53.3763 5.08333 53.3763C10.4742 53.3702 15.6426 51.226 19.4545 47.4141C23.2664 43.6022 25.4106 38.4338 25.4167 33.043V15.2513C25.4167 13.9031 24.8811 12.6102 23.9278 11.6568C22.9745 10.7035 21.6815 10.168 20.3333 10.168Z" fill="white"/>
<path id="Vector_2" d="M55.9173 10.168H45.7507C43.0543 10.168 40.4684 11.2391 38.5617 13.1457C36.6551 15.0523 35.584 17.6383 35.584 20.3346V30.5013C35.584 31.8495 36.1195 33.1424 37.0729 34.0958C38.0262 35.0491 39.3191 35.5846 40.6673 35.5846H55.6886C55.0855 39.1342 53.2472 42.3563 50.4986 44.6818C47.7499 47.0072 44.2677 48.2863 40.6673 48.293C39.9932 48.293 39.3467 48.5607 38.8701 49.0374C38.3934 49.5141 38.1257 50.1605 38.1257 50.8346C38.1257 51.5087 38.3934 52.1552 38.8701 52.6319C39.3467 53.1085 39.9932 53.3763 40.6673 53.3763C46.0582 53.3702 51.2265 51.226 55.0385 47.4141C58.8504 43.6022 60.9946 38.4338 61.0006 33.043V15.2513C61.0006 13.9031 60.4651 12.6102 59.5118 11.6568C58.5585 10.7035 57.2655 10.168 55.9173 10.168Z" fill="white"/>
</g>
<defs>
<clipPath id="clip0_1753_54943">
<rect width="61" height="61" fill="white"/>
</clipPath>
</defs>
</svg>
