<svg width="48" height="48" viewBox="0 0 48 48" fill="none" xmlns="http://www.w3.org/2000/svg">
<g clip-path="url(#clip0_227_14138)">
<path d="M0.252159 27.739C1.85743 37.5811 9.19957 45.1074 18.9627 46.9495C24.3312 47.9758 29.4101 47.16 33.8048 45.1074C34.5416 44.739 35.6996 44.6074 36.4891 44.7653C38.1206 45.16 43.989 45.7889 46.3311 46.3152L44.7258 36.5548C44.5416 35.7653 44.7258 34.5811 45.068 33.8443C47.068 29.66 47.8574 24.7916 47.0416 19.6864C45.4627 9.89688 37.5153 1.94947 27.6995 0.31789C11.489 -2.28737 -2.32679 11.5021 0.331104 27.7126L0.252159 27.739Z" fill="url(#paint0_linear_227_14138)"/>
<path d="M17.8379 14.5781C17.1628 14.5781 16.5137 14.864 15.9425 15.4356C15.4492 15.9033 15.1117 16.3969 14.9039 16.9686C14.6962 17.5142 14.5664 18.1118 14.5664 18.7354C14.5664 19.6967 14.7741 20.6841 15.2155 21.7234C15.6569 22.7627 16.254 23.802 17.007 24.8413C17.7599 25.8806 18.6168 26.8679 19.5515 27.8293C20.5121 28.7647 21.4987 29.6221 22.5373 30.3756C23.5758 31.1291 24.6403 31.7267 25.6788 32.1944C26.7174 32.6621 27.73 32.87 28.6647 32.87C29.3138 32.87 29.8849 32.74 30.4561 32.5322C31.0014 32.2983 31.4947 31.9605 31.9621 31.4669C32.2217 31.1811 32.4294 30.8693 32.5852 30.5315C32.741 30.1938 32.8188 29.856 32.8188 29.5442C32.8188 29.2843 32.7669 29.0505 32.6631 28.8427C32.5592 28.6088 32.4034 28.4269 32.1698 28.271L29.158 26.1144C28.9243 25.9585 28.7166 25.8287 28.5089 25.7507C28.3012 25.6728 28.1194 25.6208 27.9637 25.6208C27.73 25.6208 27.5223 25.6727 27.3146 25.8027C27.1069 25.9066 26.8732 26.0885 26.6655 26.3223L25.9645 26.9978C25.9645 26.9978 25.7567 27.1537 25.601 27.1537C25.5231 27.1537 25.4452 27.1538 25.3673 27.1278C25.3154 27.1018 25.2375 27.0758 25.2115 27.0499C24.9 26.894 24.5105 26.6081 24.0432 26.2184C23.5499 25.8027 23.0825 25.361 22.5892 24.8673C22.1218 24.3737 21.6805 23.906 21.2651 23.4123C20.8756 22.9446 20.59 22.5548 20.4082 22.243C20.4082 22.1911 20.3563 22.1391 20.3303 22.0611C20.3303 21.9832 20.3044 21.9313 20.3044 21.8533C20.3044 21.6974 20.3564 21.5935 20.4602 21.4895L21.1612 20.762C21.3689 20.5542 21.5507 20.3203 21.6805 20.1124C21.8103 19.9046 21.8622 19.6707 21.8622 19.4629C21.8622 19.281 21.8103 19.0991 21.7324 18.9173C21.6545 18.7094 21.5247 18.5015 21.3689 18.2677L19.2399 15.2797C19.0841 15.0459 18.8764 14.8899 18.6167 14.76C18.3831 14.6561 18.1234 14.6041 17.8898 14.6041L17.8379 14.5781Z" fill="white"/>
</g>
<defs>
<linearGradient id="paint0_linear_227_14138" x1="46.4247" y1="31.0141" x2="0.00167741" y2="31.0141" gradientUnits="userSpaceOnUse">
<stop stop-color="#FBE38E"/>
<stop offset="1" stop-color="#FFC700"/>
</linearGradient>
<clipPath id="clip0_227_14138">
<rect width="48" height="48" fill="white"/>
</clipPath>
</defs>
</svg>
